%TF.GenerationSoftware,KiCad,Pcbnew,(6.0.9)*%
%TF.CreationDate,2023-01-07T15:13:03-07:00*%
%TF.ProjectId,gd32-devboard,67643332-2d64-4657-9662-6f6172642e6b,rev?*%
%TF.SameCoordinates,Original*%
%TF.FileFunction,Legend,Top*%
%TF.FilePolarity,Positive*%
%FSLAX46Y46*%
G04 Gerber Fmt 4.6, Leading zero omitted, Abs format (unit mm)*
G04 Created by KiCad (PCBNEW (6.0.9)) date 2023-01-07 15:13:03*
%MOMM*%
%LPD*%
G01*
G04 APERTURE LIST*
G04 Aperture macros list*
%AMRoundRect*
0 Rectangle with rounded corners*
0 $1 Rounding radius*
0 $2 $3 $4 $5 $6 $7 $8 $9 X,Y pos of 4 corners*
0 Add a 4 corners polygon primitive as box body*
4,1,4,$2,$3,$4,$5,$6,$7,$8,$9,$2,$3,0*
0 Add four circle primitives for the rounded corners*
1,1,$1+$1,$2,$3*
1,1,$1+$1,$4,$5*
1,1,$1+$1,$6,$7*
1,1,$1+$1,$8,$9*
0 Add four rect primitives between the rounded corners*
20,1,$1+$1,$2,$3,$4,$5,0*
20,1,$1+$1,$4,$5,$6,$7,0*
20,1,$1+$1,$6,$7,$8,$9,0*
20,1,$1+$1,$8,$9,$2,$3,0*%
%AMRotRect*
0 Rectangle, with rotation*
0 The origin of the aperture is its center*
0 $1 length*
0 $2 width*
0 $3 Rotation angle, in degrees counterclockwise*
0 Add horizontal line*
21,1,$1,$2,0,0,$3*%
G04 Aperture macros list end*
%ADD10C,0.150000*%
%ADD11C,0.125000*%
%ADD12C,0.127000*%
%ADD13C,0.200000*%
%ADD14C,0.120000*%
%ADD15C,0.010000*%
%ADD16C,0.001000*%
%ADD17R,0.800000X0.400000*%
%ADD18R,0.400000X0.800000*%
%ADD19R,1.450000X1.450000*%
%ADD20R,0.700000X0.700000*%
%ADD21RoundRect,0.140000X-0.170000X0.140000X-0.170000X-0.140000X0.170000X-0.140000X0.170000X0.140000X0*%
%ADD22RoundRect,0.140000X0.219203X0.021213X0.021213X0.219203X-0.219203X-0.021213X-0.021213X-0.219203X0*%
%ADD23RoundRect,0.135000X-0.035355X0.226274X-0.226274X0.035355X0.035355X-0.226274X0.226274X-0.035355X0*%
%ADD24RoundRect,0.140000X-0.140000X-0.170000X0.140000X-0.170000X0.140000X0.170000X-0.140000X0.170000X0*%
%ADD25R,1.800000X1.000000*%
%ADD26R,0.800000X2.000000*%
%ADD27RoundRect,0.250000X-0.250000X-0.475000X0.250000X-0.475000X0.250000X0.475000X-0.250000X0.475000X0*%
%ADD28RoundRect,0.140000X0.140000X0.170000X-0.140000X0.170000X-0.140000X-0.170000X0.140000X-0.170000X0*%
%ADD29C,0.990600*%
%ADD30C,0.787400*%
%ADD31R,2.000000X1.500000*%
%ADD32C,1.000000*%
%ADD33R,1.700000X1.700000*%
%ADD34O,1.700000X1.700000*%
%ADD35RoundRect,0.150000X-0.150000X0.512500X-0.150000X-0.512500X0.150000X-0.512500X0.150000X0.512500X0*%
%ADD36RoundRect,0.218750X-0.256250X0.218750X-0.256250X-0.218750X0.256250X-0.218750X0.256250X0.218750X0*%
%ADD37RoundRect,0.140000X0.021213X-0.219203X0.219203X-0.021213X-0.021213X0.219203X-0.219203X0.021213X0*%
%ADD38RoundRect,0.135000X-0.185000X0.135000X-0.185000X-0.135000X0.185000X-0.135000X0.185000X0.135000X0*%
%ADD39C,4.000000*%
%ADD40R,1.600000X1.600000*%
%ADD41C,1.600000*%
%ADD42RoundRect,0.135000X-0.135000X-0.185000X0.135000X-0.185000X0.135000X0.185000X-0.135000X0.185000X0*%
%ADD43R,2.500000X1.800000*%
%ADD44RoundRect,0.140000X-0.021213X0.219203X-0.219203X0.021213X0.021213X-0.219203X0.219203X-0.021213X0*%
%ADD45RoundRect,0.150000X0.587500X0.150000X-0.587500X0.150000X-0.587500X-0.150000X0.587500X-0.150000X0*%
%ADD46RoundRect,0.135000X-0.226274X-0.035355X-0.035355X-0.226274X0.226274X0.035355X0.035355X0.226274X0*%
%ADD47RoundRect,0.150000X-0.587500X-0.150000X0.587500X-0.150000X0.587500X0.150000X-0.587500X0.150000X0*%
%ADD48RoundRect,0.175000X-0.175000X0.725000X-0.175000X-0.725000X0.175000X-0.725000X0.175000X0.725000X0*%
%ADD49RoundRect,0.200000X-0.200000X0.700000X-0.200000X-0.700000X0.200000X-0.700000X0.200000X0.700000X0*%
%ADD50R,0.762000X0.254000*%
%ADD51R,0.254000X0.762000*%
%ADD52RoundRect,0.200000X0.275000X-0.200000X0.275000X0.200000X-0.275000X0.200000X-0.275000X-0.200000X0*%
%ADD53RoundRect,0.140000X0.170000X-0.140000X0.170000X0.140000X-0.170000X0.140000X-0.170000X-0.140000X0*%
%ADD54R,2.200000X1.200000*%
%ADD55R,6.400000X5.800000*%
%ADD56RoundRect,0.135000X0.135000X0.185000X-0.135000X0.185000X-0.135000X-0.185000X0.135000X-0.185000X0*%
%ADD57RoundRect,0.075000X-0.441942X-0.548008X0.548008X0.441942X0.441942X0.548008X-0.548008X-0.441942X0*%
%ADD58RoundRect,0.075000X0.441942X-0.548008X0.548008X-0.441942X-0.441942X0.548008X-0.548008X0.441942X0*%
%ADD59RoundRect,0.135000X0.185000X-0.135000X0.185000X0.135000X-0.185000X0.135000X-0.185000X-0.135000X0*%
%ADD60R,2.400000X2.000000*%
%ADD61RotRect,0.600000X0.550000X135.000000*%
%ADD62RotRect,0.500000X0.500000X135.000000*%
%ADD63RoundRect,0.250000X0.475000X-0.250000X0.475000X0.250000X-0.475000X0.250000X-0.475000X-0.250000X0*%
%ADD64C,0.900000*%
%ADD65R,0.500000X2.300000*%
%ADD66R,2.000000X2.500000*%
%ADD67RoundRect,0.250000X0.700000X-0.275000X0.700000X0.275000X-0.700000X0.275000X-0.700000X-0.275000X0*%
%ADD68RoundRect,0.147500X0.226274X0.017678X0.017678X0.226274X-0.226274X-0.017678X-0.017678X-0.226274X0*%
%ADD69RoundRect,0.147500X0.147500X0.172500X-0.147500X0.172500X-0.147500X-0.172500X0.147500X-0.172500X0*%
%ADD70RoundRect,0.218750X0.218750X0.256250X-0.218750X0.256250X-0.218750X-0.256250X0.218750X-0.256250X0*%
%ADD71RoundRect,0.150000X-0.150000X0.587500X-0.150000X-0.587500X0.150000X-0.587500X0.150000X0.587500X0*%
%ADD72RoundRect,0.150000X-0.825000X-0.150000X0.825000X-0.150000X0.825000X0.150000X-0.825000X0.150000X0*%
%ADD73RoundRect,0.250000X-0.625000X0.312500X-0.625000X-0.312500X0.625000X-0.312500X0.625000X0.312500X0*%
%ADD74RoundRect,0.200000X0.200000X0.275000X-0.200000X0.275000X-0.200000X-0.275000X0.200000X-0.275000X0*%
G04 APERTURE END LIST*
D10*
X27020711Y-72370710D02*
G75*
G03*
X27020711Y-72370710I-70711J0D01*
G01*
X27020711Y-78300000D02*
G75*
G03*
X27020711Y-78300000I-70711J0D01*
G01*
X67150000Y-32500000D02*
G75*
G03*
X64400000Y-29750000I-2592100J157900D01*
G01*
X67070711Y-89800000D02*
G75*
G03*
X67070711Y-89800000I-70711J0D01*
G01*
X56530330Y-37500000D02*
X66360000Y-37520000D01*
X56500000Y-29750000D02*
G75*
G03*
X55750000Y-30500000I0J-750000D01*
G01*
X49920711Y-51000000D02*
G75*
G03*
X49920711Y-51000000I-70711J0D01*
G01*
X67150000Y-32500000D02*
X67210000Y-36770000D01*
X56500000Y-29750000D02*
X64500000Y-29750000D01*
X30020711Y-79850000D02*
G75*
G03*
X30020711Y-79850000I-70711J0D01*
G01*
X55780300Y-36750000D02*
G75*
G03*
X56530330Y-37500000I750000J0D01*
G01*
X55780330Y-36750000D02*
X55750000Y-30500000D01*
X66460000Y-37520000D02*
G75*
G03*
X67210000Y-36770000I0J750000D01*
G01*
X30370711Y-87250000D02*
G75*
G03*
X30370711Y-87250000I-70711J0D01*
G01*
X21220711Y-42150000D02*
G75*
G03*
X21220711Y-42150000I-70711J0D01*
G01*
X32920711Y-72050000D02*
G75*
G03*
X32920711Y-72050000I-70711J0D01*
G01*
X22670711Y-60150000D02*
G75*
G03*
X22670711Y-60150000I-70711J0D01*
G01*
X54221428Y-53823809D02*
X54335714Y-53861904D01*
X54526190Y-53861904D01*
X54602380Y-53823809D01*
X54640476Y-53785714D01*
X54678571Y-53709523D01*
X54678571Y-53633333D01*
X54640476Y-53557142D01*
X54602380Y-53519047D01*
X54526190Y-53480952D01*
X54373809Y-53442857D01*
X54297619Y-53404761D01*
X54259523Y-53366666D01*
X54221428Y-53290476D01*
X54221428Y-53214285D01*
X54259523Y-53138095D01*
X54297619Y-53100000D01*
X54373809Y-53061904D01*
X54564285Y-53061904D01*
X54678571Y-53100000D01*
X55478571Y-53785714D02*
X55440476Y-53823809D01*
X55326190Y-53861904D01*
X55250000Y-53861904D01*
X55135714Y-53823809D01*
X55059523Y-53747619D01*
X55021428Y-53671428D01*
X54983333Y-53519047D01*
X54983333Y-53404761D01*
X55021428Y-53252380D01*
X55059523Y-53176190D01*
X55135714Y-53100000D01*
X55250000Y-53061904D01*
X55326190Y-53061904D01*
X55440476Y-53100000D01*
X55478571Y-53138095D01*
X55821428Y-53861904D02*
X55821428Y-53061904D01*
X56278571Y-53861904D02*
X55935714Y-53404761D01*
X56278571Y-53061904D02*
X55821428Y-53519047D01*
X29437062Y-86896666D02*
X29103729Y-86896666D01*
X29191229Y-86196666D01*
X29670395Y-86896666D02*
X29757895Y-86196666D01*
X30003729Y-86896666D02*
X30091229Y-86196666D01*
X30403729Y-86896666D01*
X30491229Y-86196666D01*
X30737062Y-86896666D02*
X30824562Y-86196666D01*
X31137062Y-86896666D02*
X30887062Y-86496666D01*
X31224562Y-86196666D02*
X30774562Y-86596666D01*
X25248071Y-86920000D02*
X25176642Y-86881904D01*
X25062357Y-86881904D01*
X24943309Y-86920000D01*
X24857595Y-86996190D01*
X24809976Y-87072380D01*
X24752833Y-87224761D01*
X24738547Y-87339047D01*
X24757595Y-87491428D01*
X24786166Y-87567619D01*
X24852833Y-87643809D01*
X24962357Y-87681904D01*
X25038547Y-87681904D01*
X25157595Y-87643809D01*
X25200452Y-87605714D01*
X25233785Y-87339047D01*
X25081404Y-87339047D01*
X25533785Y-87681904D02*
X25633785Y-86881904D01*
X25938547Y-86881904D01*
X26009976Y-86920000D01*
X26043309Y-86958095D01*
X26071880Y-87034285D01*
X26057595Y-87148571D01*
X26009976Y-87224761D01*
X25967119Y-87262857D01*
X25886166Y-87300952D01*
X25581404Y-87300952D01*
X26300452Y-87643809D02*
X26409976Y-87681904D01*
X26600452Y-87681904D01*
X26681404Y-87643809D01*
X26724261Y-87605714D01*
X26771880Y-87529523D01*
X26781404Y-87453333D01*
X26752833Y-87377142D01*
X26719500Y-87339047D01*
X26648071Y-87300952D01*
X26500452Y-87262857D01*
X26429023Y-87224761D01*
X26395690Y-87186666D01*
X26367119Y-87110476D01*
X26376642Y-87034285D01*
X26424261Y-86958095D01*
X26467119Y-86920000D01*
X26548071Y-86881904D01*
X26738547Y-86881904D01*
X26848071Y-86920000D01*
X58103333Y-73722380D02*
X57770000Y-73246190D01*
X57531904Y-73722380D02*
X57531904Y-72722380D01*
X57912857Y-72722380D01*
X58008095Y-72770000D01*
X58055714Y-72817619D01*
X58103333Y-72912857D01*
X58103333Y-73055714D01*
X58055714Y-73150952D01*
X58008095Y-73198571D01*
X57912857Y-73246190D01*
X57531904Y-73246190D01*
X58436666Y-72722380D02*
X59103333Y-73722380D01*
X59103333Y-72722380D02*
X58436666Y-73722380D01*
X57073809Y-51028571D02*
X57111904Y-50914285D01*
X57111904Y-50723809D01*
X57073809Y-50647619D01*
X57035714Y-50609523D01*
X56959523Y-50571428D01*
X56883333Y-50571428D01*
X56807142Y-50609523D01*
X56769047Y-50647619D01*
X56730952Y-50723809D01*
X56692857Y-50876190D01*
X56654761Y-50952380D01*
X56616666Y-50990476D01*
X56540476Y-51028571D01*
X56464285Y-51028571D01*
X56388095Y-50990476D01*
X56350000Y-50952380D01*
X56311904Y-50876190D01*
X56311904Y-50685714D01*
X56350000Y-50571428D01*
X57035714Y-49771428D02*
X57073809Y-49809523D01*
X57111904Y-49923809D01*
X57111904Y-50000000D01*
X57073809Y-50114285D01*
X56997619Y-50190476D01*
X56921428Y-50228571D01*
X56769047Y-50266666D01*
X56654761Y-50266666D01*
X56502380Y-50228571D01*
X56426190Y-50190476D01*
X56350000Y-50114285D01*
X56311904Y-50000000D01*
X56311904Y-49923809D01*
X56350000Y-49809523D01*
X56388095Y-49771428D01*
X57111904Y-49428571D02*
X56311904Y-49428571D01*
X57111904Y-48971428D02*
X56654761Y-49314285D01*
X56311904Y-48971428D02*
X56769047Y-49428571D01*
X53511904Y-61702380D02*
X53511904Y-60702380D01*
X54083333Y-61702380D01*
X54083333Y-60702380D01*
X54511904Y-61654761D02*
X54654761Y-61702380D01*
X54892857Y-61702380D01*
X54988095Y-61654761D01*
X55035714Y-61607142D01*
X55083333Y-61511904D01*
X55083333Y-61416666D01*
X55035714Y-61321428D01*
X54988095Y-61273809D01*
X54892857Y-61226190D01*
X54702380Y-61178571D01*
X54607142Y-61130952D01*
X54559523Y-61083333D01*
X54511904Y-60988095D01*
X54511904Y-60892857D01*
X54559523Y-60797619D01*
X54607142Y-60750000D01*
X54702380Y-60702380D01*
X54940476Y-60702380D01*
X55083333Y-60750000D01*
X55464285Y-61654761D02*
X55607142Y-61702380D01*
X55845238Y-61702380D01*
X55940476Y-61654761D01*
X55988095Y-61607142D01*
X56035714Y-61511904D01*
X56035714Y-61416666D01*
X55988095Y-61321428D01*
X55940476Y-61273809D01*
X55845238Y-61226190D01*
X55654761Y-61178571D01*
X55559523Y-61130952D01*
X55511904Y-61083333D01*
X55464285Y-60988095D01*
X55464285Y-60892857D01*
X55511904Y-60797619D01*
X55559523Y-60750000D01*
X55654761Y-60702380D01*
X55892857Y-60702380D01*
X56035714Y-60750000D01*
D11*
X53866354Y-93714285D02*
X54033020Y-93714285D01*
X54071711Y-93976190D02*
X53833616Y-93976190D01*
X53896116Y-93476190D01*
X54134211Y-93476190D01*
X54265163Y-93952380D02*
X54333616Y-93976190D01*
X54452663Y-93976190D01*
X54503258Y-93952380D01*
X54530044Y-93928571D01*
X54559806Y-93880952D01*
X54565758Y-93833333D01*
X54547901Y-93785714D01*
X54527068Y-93761904D01*
X54482425Y-93738095D01*
X54390163Y-93714285D01*
X54345520Y-93690476D01*
X54324687Y-93666666D01*
X54306830Y-93619047D01*
X54312782Y-93571428D01*
X54342544Y-93523809D01*
X54369330Y-93500000D01*
X54419925Y-93476190D01*
X54538973Y-93476190D01*
X54607425Y-93500000D01*
X54762187Y-93976190D02*
X54824687Y-93476190D01*
X55015163Y-93476190D01*
X55059806Y-93500000D01*
X55080639Y-93523809D01*
X55098497Y-93571428D01*
X55089568Y-93642857D01*
X55059806Y-93690476D01*
X55033020Y-93714285D01*
X54982425Y-93738095D01*
X54791949Y-93738095D01*
X55277068Y-93476190D02*
X55586592Y-93476190D01*
X55396116Y-93666666D01*
X55467544Y-93666666D01*
X55512187Y-93690476D01*
X55533020Y-93714285D01*
X55550877Y-93761904D01*
X55535997Y-93880952D01*
X55506235Y-93928571D01*
X55479449Y-93952380D01*
X55428854Y-93976190D01*
X55285997Y-93976190D01*
X55241354Y-93952380D01*
X55220520Y-93928571D01*
X55771116Y-93523809D02*
X55797901Y-93500000D01*
X55848497Y-93476190D01*
X55967544Y-93476190D01*
X56012187Y-93500000D01*
X56033020Y-93523809D01*
X56050877Y-93571428D01*
X56044925Y-93619047D01*
X56012187Y-93690476D01*
X55690758Y-93976190D01*
X56000282Y-93976190D01*
X56238377Y-93785714D02*
X56619330Y-93785714D01*
X57125282Y-93928571D02*
X57098497Y-93952380D01*
X57024092Y-93976190D01*
X56976473Y-93976190D01*
X56908020Y-93952380D01*
X56866354Y-93904761D01*
X56848497Y-93857142D01*
X56836592Y-93761904D01*
X56845520Y-93690476D01*
X56881235Y-93595238D01*
X56910997Y-93547619D01*
X56964568Y-93500000D01*
X57038973Y-93476190D01*
X57086592Y-93476190D01*
X57155044Y-93500000D01*
X57175877Y-93523809D01*
X57348497Y-93476190D02*
X57658020Y-93476190D01*
X57467544Y-93666666D01*
X57538973Y-93666666D01*
X57583616Y-93690476D01*
X57604449Y-93714285D01*
X57622306Y-93761904D01*
X57607425Y-93880952D01*
X57577663Y-93928571D01*
X57550877Y-93952380D01*
X57500282Y-93976190D01*
X57357425Y-93976190D01*
X57312782Y-93952380D01*
X57291949Y-93928571D01*
D10*
X52928571Y-59202380D02*
X52928571Y-58202380D01*
X53261904Y-58916666D01*
X53595238Y-58202380D01*
X53595238Y-59202380D01*
X54071428Y-59202380D02*
X54071428Y-58202380D01*
X54500000Y-59154761D02*
X54642857Y-59202380D01*
X54880952Y-59202380D01*
X54976190Y-59154761D01*
X55023809Y-59107142D01*
X55071428Y-59011904D01*
X55071428Y-58916666D01*
X55023809Y-58821428D01*
X54976190Y-58773809D01*
X54880952Y-58726190D01*
X54690476Y-58678571D01*
X54595238Y-58630952D01*
X54547619Y-58583333D01*
X54500000Y-58488095D01*
X54500000Y-58392857D01*
X54547619Y-58297619D01*
X54595238Y-58250000D01*
X54690476Y-58202380D01*
X54928571Y-58202380D01*
X55071428Y-58250000D01*
X55690476Y-58202380D02*
X55880952Y-58202380D01*
X55976190Y-58250000D01*
X56071428Y-58345238D01*
X56119047Y-58535714D01*
X56119047Y-58869047D01*
X56071428Y-59059523D01*
X55976190Y-59154761D01*
X55880952Y-59202380D01*
X55690476Y-59202380D01*
X55595238Y-59154761D01*
X55500000Y-59059523D01*
X55452380Y-58869047D01*
X55452380Y-58535714D01*
X55500000Y-58345238D01*
X55595238Y-58250000D01*
X55690476Y-58202380D01*
X54492857Y-39611904D02*
X54492857Y-38811904D01*
X54759523Y-39383333D01*
X55026190Y-38811904D01*
X55026190Y-39611904D01*
X55407142Y-39611904D02*
X55407142Y-38811904D01*
X55750000Y-39573809D02*
X55864285Y-39611904D01*
X56054761Y-39611904D01*
X56130952Y-39573809D01*
X56169047Y-39535714D01*
X56207142Y-39459523D01*
X56207142Y-39383333D01*
X56169047Y-39307142D01*
X56130952Y-39269047D01*
X56054761Y-39230952D01*
X55902380Y-39192857D01*
X55826190Y-39154761D01*
X55788095Y-39116666D01*
X55750000Y-39040476D01*
X55750000Y-38964285D01*
X55788095Y-38888095D01*
X55826190Y-38850000D01*
X55902380Y-38811904D01*
X56092857Y-38811904D01*
X56207142Y-38850000D01*
X56702380Y-38811904D02*
X56854761Y-38811904D01*
X56930952Y-38850000D01*
X57007142Y-38926190D01*
X57045238Y-39078571D01*
X57045238Y-39345238D01*
X57007142Y-39497619D01*
X56930952Y-39573809D01*
X56854761Y-39611904D01*
X56702380Y-39611904D01*
X56626190Y-39573809D01*
X56550000Y-39497619D01*
X56511904Y-39345238D01*
X56511904Y-39078571D01*
X56550000Y-38926190D01*
X56626190Y-38850000D01*
X56702380Y-38811904D01*
X29081053Y-47262857D02*
X29163196Y-47291428D01*
X29306053Y-47291428D01*
X29366767Y-47262857D01*
X29398910Y-47234285D01*
X29434625Y-47177142D01*
X29441767Y-47120000D01*
X29420339Y-47062857D01*
X29395339Y-47034285D01*
X29341767Y-47005714D01*
X29231053Y-46977142D01*
X29177482Y-46948571D01*
X29152482Y-46920000D01*
X29131053Y-46862857D01*
X29138196Y-46805714D01*
X29173910Y-46748571D01*
X29206053Y-46720000D01*
X29266767Y-46691428D01*
X29409625Y-46691428D01*
X29491767Y-46720000D01*
X29666767Y-46691428D02*
X30009625Y-46691428D01*
X29763196Y-47291428D02*
X29838196Y-46691428D01*
X30127482Y-47120000D02*
X30413196Y-47120000D01*
X30048910Y-47291428D02*
X30323910Y-46691428D01*
X30448910Y-47291428D01*
X30638196Y-46691428D02*
X30981053Y-46691428D01*
X30734625Y-47291428D02*
X30809625Y-46691428D01*
X33993163Y-65191150D02*
X33912351Y-65218088D01*
X33831539Y-65298900D01*
X33777664Y-65406650D01*
X33777664Y-65514399D01*
X33804601Y-65595211D01*
X33885414Y-65729898D01*
X33966226Y-65810711D01*
X34100913Y-65891523D01*
X34181725Y-65918460D01*
X34289475Y-65918460D01*
X34397224Y-65864585D01*
X34451099Y-65810711D01*
X34504974Y-65702961D01*
X34504974Y-65649086D01*
X34316412Y-65460524D01*
X34208662Y-65568274D01*
X34801285Y-65460524D02*
X34235600Y-64894839D01*
X34370287Y-64760152D01*
X34478036Y-64706277D01*
X34585786Y-64706277D01*
X34666598Y-64733215D01*
X34801285Y-64814027D01*
X34882097Y-64894839D01*
X34962910Y-65029526D01*
X34989847Y-65110338D01*
X34989847Y-65218088D01*
X34935972Y-65325837D01*
X34801285Y-65460524D01*
X34747410Y-64383028D02*
X35097597Y-64032842D01*
X35124534Y-64436903D01*
X35205346Y-64356091D01*
X35286158Y-64329154D01*
X35340033Y-64329154D01*
X35420845Y-64356091D01*
X35555532Y-64490778D01*
X35582470Y-64571590D01*
X35582470Y-64625465D01*
X35555532Y-64706277D01*
X35393908Y-64867902D01*
X35313096Y-64894839D01*
X35259221Y-64894839D01*
X35366971Y-63871218D02*
X35366971Y-63817343D01*
X35393908Y-63736531D01*
X35528595Y-63601844D01*
X35609407Y-63574906D01*
X35663282Y-63574906D01*
X35744094Y-63601844D01*
X35797969Y-63655719D01*
X35851844Y-63763468D01*
X35851844Y-64409966D01*
X36202030Y-64059780D01*
X36336717Y-63332470D02*
X36148155Y-63521032D01*
X36444467Y-63817343D02*
X35878781Y-63251658D01*
X36148155Y-62982284D01*
X36794653Y-62712910D02*
X37171776Y-63090033D01*
X36444467Y-62632097D02*
X36713841Y-63170845D01*
X37064027Y-62820659D01*
X37010152Y-62120287D02*
X37064027Y-62066412D01*
X37144839Y-62039475D01*
X37198714Y-62039475D01*
X37279526Y-62066412D01*
X37414213Y-62147224D01*
X37548900Y-62281911D01*
X37629712Y-62416598D01*
X37656650Y-62497410D01*
X37656650Y-62551285D01*
X37629712Y-62632097D01*
X37575837Y-62685972D01*
X37495025Y-62712910D01*
X37441150Y-62712910D01*
X37360338Y-62685972D01*
X37225651Y-62605160D01*
X37090964Y-62470473D01*
X37010152Y-62335786D01*
X36983215Y-62254974D01*
X36983215Y-62201099D01*
X37010152Y-62120287D01*
X37710524Y-61419914D02*
X37441150Y-61689288D01*
X37683587Y-61985600D01*
X37683587Y-61931725D01*
X37710524Y-61850913D01*
X37845211Y-61716226D01*
X37926024Y-61689288D01*
X37979898Y-61689288D01*
X38060711Y-61716226D01*
X38195398Y-61850913D01*
X38222335Y-61931725D01*
X38222335Y-61985600D01*
X38195398Y-62066412D01*
X38060711Y-62201099D01*
X37979898Y-62228036D01*
X37926024Y-62228036D01*
D11*
X46250000Y-94726190D02*
X46250000Y-94226190D01*
X46583333Y-94226190D02*
X46678571Y-94226190D01*
X46726190Y-94250000D01*
X46773809Y-94297619D01*
X46797619Y-94392857D01*
X46797619Y-94559523D01*
X46773809Y-94654761D01*
X46726190Y-94702380D01*
X46678571Y-94726190D01*
X46583333Y-94726190D01*
X46535714Y-94702380D01*
X46488095Y-94654761D01*
X46464285Y-94559523D01*
X46464285Y-94392857D01*
X46488095Y-94297619D01*
X46535714Y-94250000D01*
X46583333Y-94226190D01*
X47083333Y-94440476D02*
X47035714Y-94416666D01*
X47011904Y-94392857D01*
X46988095Y-94345238D01*
X46988095Y-94321428D01*
X47011904Y-94273809D01*
X47035714Y-94250000D01*
X47083333Y-94226190D01*
X47178571Y-94226190D01*
X47226190Y-94250000D01*
X47250000Y-94273809D01*
X47273809Y-94321428D01*
X47273809Y-94345238D01*
X47250000Y-94392857D01*
X47226190Y-94416666D01*
X47178571Y-94440476D01*
X47083333Y-94440476D01*
X47035714Y-94464285D01*
X47011904Y-94488095D01*
X46988095Y-94535714D01*
X46988095Y-94630952D01*
X47011904Y-94678571D01*
X47035714Y-94702380D01*
X47083333Y-94726190D01*
X47178571Y-94726190D01*
X47226190Y-94702380D01*
X47250000Y-94678571D01*
X47273809Y-94630952D01*
X47273809Y-94535714D01*
X47250000Y-94488095D01*
X47226190Y-94464285D01*
X47178571Y-94440476D01*
X40297619Y-94464285D02*
X40464285Y-94464285D01*
X40535714Y-94726190D02*
X40297619Y-94726190D01*
X40297619Y-94226190D01*
X40535714Y-94226190D01*
X40726190Y-94702380D02*
X40797619Y-94726190D01*
X40916666Y-94726190D01*
X40964285Y-94702380D01*
X40988095Y-94678571D01*
X41011904Y-94630952D01*
X41011904Y-94583333D01*
X40988095Y-94535714D01*
X40964285Y-94511904D01*
X40916666Y-94488095D01*
X40821428Y-94464285D01*
X40773809Y-94440476D01*
X40750000Y-94416666D01*
X40726190Y-94369047D01*
X40726190Y-94321428D01*
X40750000Y-94273809D01*
X40773809Y-94250000D01*
X40821428Y-94226190D01*
X40940476Y-94226190D01*
X41011904Y-94250000D01*
X41226190Y-94726190D02*
X41226190Y-94226190D01*
X41416666Y-94226190D01*
X41464285Y-94250000D01*
X41488095Y-94273809D01*
X41511904Y-94321428D01*
X41511904Y-94392857D01*
X41488095Y-94440476D01*
X41464285Y-94464285D01*
X41416666Y-94488095D01*
X41226190Y-94488095D01*
X42107142Y-94226190D02*
X42107142Y-94630952D01*
X42130952Y-94678571D01*
X42154761Y-94702380D01*
X42202380Y-94726190D01*
X42297619Y-94726190D01*
X42345238Y-94702380D01*
X42369047Y-94678571D01*
X42392857Y-94630952D01*
X42392857Y-94226190D01*
X42607142Y-94583333D02*
X42845238Y-94583333D01*
X42559523Y-94726190D02*
X42726190Y-94226190D01*
X42892857Y-94726190D01*
X43345238Y-94726190D02*
X43178571Y-94488095D01*
X43059523Y-94726190D02*
X43059523Y-94226190D01*
X43250000Y-94226190D01*
X43297619Y-94250000D01*
X43321428Y-94273809D01*
X43345238Y-94321428D01*
X43345238Y-94392857D01*
X43321428Y-94440476D01*
X43297619Y-94464285D01*
X43250000Y-94488095D01*
X43059523Y-94488095D01*
X43488095Y-94226190D02*
X43773809Y-94226190D01*
X43630952Y-94726190D02*
X43630952Y-94226190D01*
D10*
X52259976Y-73361904D02*
X51879023Y-73361904D01*
X51979023Y-72561904D01*
X52779023Y-72561904D02*
X52931404Y-72561904D01*
X53002833Y-72600000D01*
X53069500Y-72676190D01*
X53088547Y-72828571D01*
X53055214Y-73095238D01*
X52998071Y-73247619D01*
X52912357Y-73323809D01*
X52831404Y-73361904D01*
X52679023Y-73361904D01*
X52607595Y-73323809D01*
X52540928Y-73247619D01*
X52521880Y-73095238D01*
X52555214Y-72828571D01*
X52612357Y-72676190D01*
X52698071Y-72600000D01*
X52779023Y-72561904D01*
X53821880Y-73361904D02*
X53602833Y-72980952D01*
X53364738Y-73361904D02*
X53464738Y-72561904D01*
X53769500Y-72561904D01*
X53840928Y-72600000D01*
X53874261Y-72638095D01*
X53902833Y-72714285D01*
X53888547Y-72828571D01*
X53840928Y-72904761D01*
X53798071Y-72942857D01*
X53717119Y-72980952D01*
X53412357Y-72980952D01*
X54155214Y-73133333D02*
X54536166Y-73133333D01*
X54050452Y-73361904D02*
X54417119Y-72561904D01*
X54583785Y-73361904D01*
X22118587Y-57201471D02*
X21765033Y-57555025D01*
X21670752Y-57602165D01*
X21576471Y-57602165D01*
X21482190Y-57555025D01*
X21435050Y-57507884D01*
X22283578Y-57366463D02*
X22566421Y-57649306D01*
X21930025Y-58002859D02*
X22425000Y-57507884D01*
X22354289Y-58144280D02*
X22589991Y-58379983D01*
X22165727Y-58238561D02*
X22825693Y-57908578D01*
X22495710Y-58568544D01*
X23391379Y-58521404D02*
X23367809Y-58450693D01*
X23297098Y-58379983D01*
X23202817Y-58332842D01*
X23108536Y-58332842D01*
X23037825Y-58356412D01*
X22919974Y-58427123D01*
X22849264Y-58497834D01*
X22778553Y-58615685D01*
X22754983Y-58686396D01*
X22754983Y-58780677D01*
X22802123Y-58874957D01*
X22849264Y-58922098D01*
X22943544Y-58969238D01*
X22990685Y-58969238D01*
X23155677Y-58804247D01*
X23061396Y-58709966D01*
X53492857Y-56361904D02*
X53492857Y-55561904D01*
X53759523Y-56133333D01*
X54026190Y-55561904D01*
X54026190Y-56361904D01*
X54559523Y-55561904D02*
X54711904Y-55561904D01*
X54788095Y-55600000D01*
X54864285Y-55676190D01*
X54902380Y-55828571D01*
X54902380Y-56095238D01*
X54864285Y-56247619D01*
X54788095Y-56323809D01*
X54711904Y-56361904D01*
X54559523Y-56361904D01*
X54483333Y-56323809D01*
X54407142Y-56247619D01*
X54369047Y-56095238D01*
X54369047Y-55828571D01*
X54407142Y-55676190D01*
X54483333Y-55600000D01*
X54559523Y-55561904D01*
X55207142Y-56323809D02*
X55321428Y-56361904D01*
X55511904Y-56361904D01*
X55588095Y-56323809D01*
X55626190Y-56285714D01*
X55664285Y-56209523D01*
X55664285Y-56133333D01*
X55626190Y-56057142D01*
X55588095Y-56019047D01*
X55511904Y-55980952D01*
X55359523Y-55942857D01*
X55283333Y-55904761D01*
X55245238Y-55866666D01*
X55207142Y-55790476D01*
X55207142Y-55714285D01*
X55245238Y-55638095D01*
X55283333Y-55600000D01*
X55359523Y-55561904D01*
X55550000Y-55561904D01*
X55664285Y-55600000D01*
X56007142Y-56361904D02*
X56007142Y-55561904D01*
X54000000Y-66702380D02*
X54000000Y-65702380D01*
X54666666Y-65702380D02*
X54857142Y-65702380D01*
X54952380Y-65750000D01*
X55047619Y-65845238D01*
X55095238Y-66035714D01*
X55095238Y-66369047D01*
X55047619Y-66559523D01*
X54952380Y-66654761D01*
X54857142Y-66702380D01*
X54666666Y-66702380D01*
X54571428Y-66654761D01*
X54476190Y-66559523D01*
X54428571Y-66369047D01*
X54428571Y-66035714D01*
X54476190Y-65845238D01*
X54571428Y-65750000D01*
X54666666Y-65702380D01*
X55714285Y-65702380D02*
X55809523Y-65702380D01*
X55904761Y-65750000D01*
X55952380Y-65797619D01*
X56000000Y-65892857D01*
X56047619Y-66083333D01*
X56047619Y-66321428D01*
X56000000Y-66511904D01*
X55952380Y-66607142D01*
X55904761Y-66654761D01*
X55809523Y-66702380D01*
X55714285Y-66702380D01*
X55619047Y-66654761D01*
X55571428Y-66607142D01*
X55523809Y-66511904D01*
X55476190Y-66321428D01*
X55476190Y-66083333D01*
X55523809Y-65892857D01*
X55571428Y-65797619D01*
X55619047Y-65750000D01*
X55714285Y-65702380D01*
X54492857Y-41861904D02*
X54492857Y-41061904D01*
X54759523Y-41633333D01*
X55026190Y-41061904D01*
X55026190Y-41861904D01*
X55559523Y-41061904D02*
X55711904Y-41061904D01*
X55788095Y-41100000D01*
X55864285Y-41176190D01*
X55902380Y-41328571D01*
X55902380Y-41595238D01*
X55864285Y-41747619D01*
X55788095Y-41823809D01*
X55711904Y-41861904D01*
X55559523Y-41861904D01*
X55483333Y-41823809D01*
X55407142Y-41747619D01*
X55369047Y-41595238D01*
X55369047Y-41328571D01*
X55407142Y-41176190D01*
X55483333Y-41100000D01*
X55559523Y-41061904D01*
X56207142Y-41823809D02*
X56321428Y-41861904D01*
X56511904Y-41861904D01*
X56588095Y-41823809D01*
X56626190Y-41785714D01*
X56664285Y-41709523D01*
X56664285Y-41633333D01*
X56626190Y-41557142D01*
X56588095Y-41519047D01*
X56511904Y-41480952D01*
X56359523Y-41442857D01*
X56283333Y-41404761D01*
X56245238Y-41366666D01*
X56207142Y-41290476D01*
X56207142Y-41214285D01*
X56245238Y-41138095D01*
X56283333Y-41100000D01*
X56359523Y-41061904D01*
X56550000Y-41061904D01*
X56664285Y-41100000D01*
X57007142Y-41861904D02*
X57007142Y-41061904D01*
X54095238Y-68952380D02*
X54095238Y-67952380D01*
X54571428Y-68952380D02*
X54571428Y-67952380D01*
X55142857Y-68952380D01*
X55142857Y-67952380D01*
X55476190Y-67952380D02*
X56047619Y-67952380D01*
X55761904Y-68952380D02*
X55761904Y-67952380D01*
X54000000Y-64202380D02*
X54000000Y-63202380D01*
X54666666Y-63202380D02*
X54857142Y-63202380D01*
X54952380Y-63250000D01*
X55047619Y-63345238D01*
X55095238Y-63535714D01*
X55095238Y-63869047D01*
X55047619Y-64059523D01*
X54952380Y-64154761D01*
X54857142Y-64202380D01*
X54666666Y-64202380D01*
X54571428Y-64154761D01*
X54476190Y-64059523D01*
X54428571Y-63869047D01*
X54428571Y-63535714D01*
X54476190Y-63345238D01*
X54571428Y-63250000D01*
X54666666Y-63202380D01*
X56047619Y-64202380D02*
X55476190Y-64202380D01*
X55761904Y-64202380D02*
X55761904Y-63202380D01*
X55666666Y-63345238D01*
X55571428Y-63440476D01*
X55476190Y-63488095D01*
X28106455Y-60939339D02*
X27705761Y-61340033D01*
X27682190Y-61410744D01*
X27682190Y-61457884D01*
X27705761Y-61528595D01*
X27800042Y-61622876D01*
X27870752Y-61646446D01*
X27917893Y-61646446D01*
X27988603Y-61622876D01*
X28389297Y-61222182D01*
X28247876Y-61787867D02*
X28483578Y-62023570D01*
X28059314Y-61882148D02*
X28719280Y-61552165D01*
X28389297Y-62212132D01*
X28837132Y-62659966D02*
X28907842Y-62259272D01*
X28554289Y-62377123D02*
X29049264Y-61882148D01*
X29237825Y-62070710D01*
X29261396Y-62141421D01*
X29261396Y-62188561D01*
X29237825Y-62259272D01*
X29167115Y-62329983D01*
X29096404Y-62353553D01*
X29049264Y-62353553D01*
X28978553Y-62329983D01*
X28789991Y-62141421D01*
X29473528Y-62306412D02*
X29756370Y-62589255D01*
X29119974Y-62942809D02*
X29614949Y-62447834D01*
X32966666Y-54146666D02*
X32566666Y-54146666D01*
X32766666Y-54146666D02*
X32766666Y-53446666D01*
X32700000Y-53546666D01*
X32633333Y-53613333D01*
X32566666Y-53646666D01*
X33233333Y-53513333D02*
X33266666Y-53480000D01*
X33333333Y-53446666D01*
X33500000Y-53446666D01*
X33566666Y-53480000D01*
X33600000Y-53513333D01*
X33633333Y-53580000D01*
X33633333Y-53646666D01*
X33600000Y-53746666D01*
X33200000Y-54146666D01*
X33633333Y-54146666D01*
X33833333Y-53446666D02*
X34066666Y-54146666D01*
X34300000Y-53446666D01*
X57111904Y-44723809D02*
X56311904Y-44723809D01*
X57111904Y-44342857D02*
X56311904Y-44342857D01*
X57111904Y-43885714D01*
X56311904Y-43885714D01*
X56311904Y-43619047D02*
X56311904Y-43161904D01*
X57111904Y-43390476D02*
X56311904Y-43390476D01*
X34775714Y-47391428D02*
X35147142Y-47391428D01*
X34947142Y-47620000D01*
X35032857Y-47620000D01*
X35090000Y-47648571D01*
X35118571Y-47677142D01*
X35147142Y-47734285D01*
X35147142Y-47877142D01*
X35118571Y-47934285D01*
X35090000Y-47962857D01*
X35032857Y-47991428D01*
X34861428Y-47991428D01*
X34804285Y-47962857D01*
X34775714Y-47934285D01*
X35347142Y-47591428D02*
X35490000Y-47991428D01*
X35632857Y-47591428D01*
X35804285Y-47391428D02*
X36175714Y-47391428D01*
X35975714Y-47620000D01*
X36061428Y-47620000D01*
X36118571Y-47648571D01*
X36147142Y-47677142D01*
X36175714Y-47734285D01*
X36175714Y-47877142D01*
X36147142Y-47934285D01*
X36118571Y-47962857D01*
X36061428Y-47991428D01*
X35890000Y-47991428D01*
X35832857Y-47962857D01*
X35804285Y-47934285D01*
X57111904Y-47990476D02*
X56311904Y-47990476D01*
X57111904Y-47533333D01*
X56311904Y-47533333D01*
X57073809Y-47190476D02*
X57111904Y-47076190D01*
X57111904Y-46885714D01*
X57073809Y-46809523D01*
X57035714Y-46771428D01*
X56959523Y-46733333D01*
X56883333Y-46733333D01*
X56807142Y-46771428D01*
X56769047Y-46809523D01*
X56730952Y-46885714D01*
X56692857Y-47038095D01*
X56654761Y-47114285D01*
X56616666Y-47152380D01*
X56540476Y-47190476D01*
X56464285Y-47190476D01*
X56388095Y-47152380D01*
X56350000Y-47114285D01*
X56311904Y-47038095D01*
X56311904Y-46847619D01*
X56350000Y-46733333D01*
X57073809Y-46428571D02*
X57111904Y-46314285D01*
X57111904Y-46123809D01*
X57073809Y-46047619D01*
X57035714Y-46009523D01*
X56959523Y-45971428D01*
X56883333Y-45971428D01*
X56807142Y-46009523D01*
X56769047Y-46047619D01*
X56730952Y-46123809D01*
X56692857Y-46276190D01*
X56654761Y-46352380D01*
X56616666Y-46390476D01*
X56540476Y-46428571D01*
X56464285Y-46428571D01*
X56388095Y-46390476D01*
X56350000Y-46352380D01*
X56311904Y-46276190D01*
X56311904Y-46085714D01*
X56350000Y-45971428D01*
D11*
X38369047Y-98226190D02*
X38369047Y-98630952D01*
X38392857Y-98678571D01*
X38416666Y-98702380D01*
X38464285Y-98726190D01*
X38559523Y-98726190D01*
X38607142Y-98702380D01*
X38630952Y-98678571D01*
X38654761Y-98630952D01*
X38654761Y-98226190D01*
X38869047Y-98702380D02*
X38940476Y-98726190D01*
X39059523Y-98726190D01*
X39107142Y-98702380D01*
X39130952Y-98678571D01*
X39154761Y-98630952D01*
X39154761Y-98583333D01*
X39130952Y-98535714D01*
X39107142Y-98511904D01*
X39059523Y-98488095D01*
X38964285Y-98464285D01*
X38916666Y-98440476D01*
X38892857Y-98416666D01*
X38869047Y-98369047D01*
X38869047Y-98321428D01*
X38892857Y-98273809D01*
X38916666Y-98250000D01*
X38964285Y-98226190D01*
X39083333Y-98226190D01*
X39154761Y-98250000D01*
X39535714Y-98464285D02*
X39607142Y-98488095D01*
X39630952Y-98511904D01*
X39654761Y-98559523D01*
X39654761Y-98630952D01*
X39630952Y-98678571D01*
X39607142Y-98702380D01*
X39559523Y-98726190D01*
X39369047Y-98726190D01*
X39369047Y-98226190D01*
X39535714Y-98226190D01*
X39583333Y-98250000D01*
X39607142Y-98273809D01*
X39630952Y-98321428D01*
X39630952Y-98369047D01*
X39607142Y-98416666D01*
X39583333Y-98440476D01*
X39535714Y-98464285D01*
X39369047Y-98464285D01*
D10*
X40732857Y-49281428D02*
X40932857Y-49881428D01*
X41132857Y-49281428D01*
X41447142Y-49281428D02*
X41561428Y-49281428D01*
X41618571Y-49310000D01*
X41675714Y-49367142D01*
X41704285Y-49481428D01*
X41704285Y-49681428D01*
X41675714Y-49795714D01*
X41618571Y-49852857D01*
X41561428Y-49881428D01*
X41447142Y-49881428D01*
X41390000Y-49852857D01*
X41332857Y-49795714D01*
X41304285Y-49681428D01*
X41304285Y-49481428D01*
X41332857Y-49367142D01*
X41390000Y-49310000D01*
X41447142Y-49281428D01*
X41961428Y-49281428D02*
X41961428Y-49767142D01*
X41990000Y-49824285D01*
X42018571Y-49852857D01*
X42075714Y-49881428D01*
X42190000Y-49881428D01*
X42247142Y-49852857D01*
X42275714Y-49824285D01*
X42304285Y-49767142D01*
X42304285Y-49281428D01*
X42504285Y-49281428D02*
X42847142Y-49281428D01*
X42675714Y-49881428D02*
X42675714Y-49281428D01*
D11*
X48500000Y-94726190D02*
X48500000Y-94226190D01*
X48833333Y-94226190D02*
X48928571Y-94226190D01*
X48976190Y-94250000D01*
X49023809Y-94297619D01*
X49047619Y-94392857D01*
X49047619Y-94559523D01*
X49023809Y-94654761D01*
X48976190Y-94702380D01*
X48928571Y-94726190D01*
X48833333Y-94726190D01*
X48785714Y-94702380D01*
X48738095Y-94654761D01*
X48714285Y-94559523D01*
X48714285Y-94392857D01*
X48738095Y-94297619D01*
X48785714Y-94250000D01*
X48833333Y-94226190D01*
X49285714Y-94726190D02*
X49380952Y-94726190D01*
X49428571Y-94702380D01*
X49452380Y-94678571D01*
X49500000Y-94607142D01*
X49523809Y-94511904D01*
X49523809Y-94321428D01*
X49500000Y-94273809D01*
X49476190Y-94250000D01*
X49428571Y-94226190D01*
X49333333Y-94226190D01*
X49285714Y-94250000D01*
X49261904Y-94273809D01*
X49238095Y-94321428D01*
X49238095Y-94440476D01*
X49261904Y-94488095D01*
X49285714Y-94511904D01*
X49333333Y-94535714D01*
X49428571Y-94535714D01*
X49476190Y-94511904D01*
X49500000Y-94488095D01*
X49523809Y-94440476D01*
D10*
X41303333Y-48046666D02*
X41536666Y-48746666D01*
X41770000Y-48046666D01*
X42003333Y-48746666D02*
X42003333Y-48046666D01*
X42336666Y-48746666D02*
X42336666Y-48046666D01*
X42736666Y-48746666D01*
X42736666Y-48046666D01*
X56533333Y-36816666D02*
X56533333Y-36116666D01*
X56833333Y-36816666D02*
X56833333Y-36450000D01*
X56800000Y-36383333D01*
X56733333Y-36350000D01*
X56633333Y-36350000D01*
X56566666Y-36383333D01*
X56533333Y-36416666D01*
X57066666Y-36350000D02*
X57333333Y-36350000D01*
X57166666Y-36116666D02*
X57166666Y-36716666D01*
X57200000Y-36783333D01*
X57266666Y-36816666D01*
X57333333Y-36816666D01*
X57466666Y-36350000D02*
X57733333Y-36350000D01*
X57566666Y-36116666D02*
X57566666Y-36716666D01*
X57600000Y-36783333D01*
X57666666Y-36816666D01*
X57733333Y-36816666D01*
X57966666Y-36350000D02*
X57966666Y-37050000D01*
X57966666Y-36383333D02*
X58033333Y-36350000D01*
X58166666Y-36350000D01*
X58233333Y-36383333D01*
X58266666Y-36416666D01*
X58300000Y-36483333D01*
X58300000Y-36683333D01*
X58266666Y-36750000D01*
X58233333Y-36783333D01*
X58166666Y-36816666D01*
X58033333Y-36816666D01*
X57966666Y-36783333D01*
X58566666Y-36783333D02*
X58633333Y-36816666D01*
X58766666Y-36816666D01*
X58833333Y-36783333D01*
X58866666Y-36716666D01*
X58866666Y-36683333D01*
X58833333Y-36616666D01*
X58766666Y-36583333D01*
X58666666Y-36583333D01*
X58600000Y-36550000D01*
X58566666Y-36483333D01*
X58566666Y-36450000D01*
X58600000Y-36383333D01*
X58666666Y-36350000D01*
X58766666Y-36350000D01*
X58833333Y-36383333D01*
X59166666Y-36750000D02*
X59200000Y-36783333D01*
X59166666Y-36816666D01*
X59133333Y-36783333D01*
X59166666Y-36750000D01*
X59166666Y-36816666D01*
X59166666Y-36383333D02*
X59200000Y-36416666D01*
X59166666Y-36450000D01*
X59133333Y-36416666D01*
X59166666Y-36383333D01*
X59166666Y-36450000D01*
X60000000Y-36083333D02*
X59400000Y-36983333D01*
X60733333Y-36083333D02*
X60133333Y-36983333D01*
X61266666Y-36783333D02*
X61200000Y-36816666D01*
X61066666Y-36816666D01*
X61000000Y-36783333D01*
X60966666Y-36750000D01*
X60933333Y-36683333D01*
X60933333Y-36483333D01*
X60966666Y-36416666D01*
X61000000Y-36383333D01*
X61066666Y-36350000D01*
X61200000Y-36350000D01*
X61266666Y-36383333D01*
X61666666Y-36816666D02*
X61600000Y-36783333D01*
X61566666Y-36750000D01*
X61533333Y-36683333D01*
X61533333Y-36483333D01*
X61566666Y-36416666D01*
X61600000Y-36383333D01*
X61666666Y-36350000D01*
X61766666Y-36350000D01*
X61833333Y-36383333D01*
X61866666Y-36416666D01*
X61900000Y-36483333D01*
X61900000Y-36683333D01*
X61866666Y-36750000D01*
X61833333Y-36783333D01*
X61766666Y-36816666D01*
X61666666Y-36816666D01*
X62200000Y-36350000D02*
X62200000Y-36816666D01*
X62200000Y-36416666D02*
X62233333Y-36383333D01*
X62300000Y-36350000D01*
X62400000Y-36350000D01*
X62466666Y-36383333D01*
X62500000Y-36450000D01*
X62500000Y-36816666D01*
X63100000Y-36783333D02*
X63033333Y-36816666D01*
X62900000Y-36816666D01*
X62833333Y-36783333D01*
X62800000Y-36716666D01*
X62800000Y-36450000D01*
X62833333Y-36383333D01*
X62900000Y-36350000D01*
X63033333Y-36350000D01*
X63100000Y-36383333D01*
X63133333Y-36450000D01*
X63133333Y-36516666D01*
X62800000Y-36583333D01*
X63433333Y-36750000D02*
X63466666Y-36783333D01*
X63433333Y-36816666D01*
X63400000Y-36783333D01*
X63433333Y-36750000D01*
X63433333Y-36816666D01*
X64066666Y-36783333D02*
X64000000Y-36816666D01*
X63866666Y-36816666D01*
X63800000Y-36783333D01*
X63766666Y-36750000D01*
X63733333Y-36683333D01*
X63733333Y-36483333D01*
X63766666Y-36416666D01*
X63800000Y-36383333D01*
X63866666Y-36350000D01*
X64000000Y-36350000D01*
X64066666Y-36383333D01*
X64466666Y-36816666D02*
X64400000Y-36783333D01*
X64366666Y-36750000D01*
X64333333Y-36683333D01*
X64333333Y-36483333D01*
X64366666Y-36416666D01*
X64400000Y-36383333D01*
X64466666Y-36350000D01*
X64566666Y-36350000D01*
X64633333Y-36383333D01*
X64666666Y-36416666D01*
X64700000Y-36483333D01*
X64700000Y-36683333D01*
X64666666Y-36750000D01*
X64633333Y-36783333D01*
X64566666Y-36816666D01*
X64466666Y-36816666D01*
X65300000Y-36816666D02*
X65300000Y-36116666D01*
X65300000Y-36783333D02*
X65233333Y-36816666D01*
X65100000Y-36816666D01*
X65033333Y-36783333D01*
X65000000Y-36750000D01*
X64966666Y-36683333D01*
X64966666Y-36483333D01*
X65000000Y-36416666D01*
X65033333Y-36383333D01*
X65100000Y-36350000D01*
X65233333Y-36350000D01*
X65300000Y-36383333D01*
X65900000Y-36783333D02*
X65833333Y-36816666D01*
X65700000Y-36816666D01*
X65633333Y-36783333D01*
X65600000Y-36716666D01*
X65600000Y-36450000D01*
X65633333Y-36383333D01*
X65700000Y-36350000D01*
X65833333Y-36350000D01*
X65900000Y-36383333D01*
X65933333Y-36450000D01*
X65933333Y-36516666D01*
X65600000Y-36583333D01*
X66200000Y-36783333D02*
X66266666Y-36816666D01*
X66400000Y-36816666D01*
X66466666Y-36783333D01*
X66500000Y-36716666D01*
X66500000Y-36683333D01*
X66466666Y-36616666D01*
X66400000Y-36583333D01*
X66300000Y-36583333D01*
X66233333Y-36550000D01*
X66200000Y-36483333D01*
X66200000Y-36450000D01*
X66233333Y-36383333D01*
X66300000Y-36350000D01*
X66400000Y-36350000D01*
X66466666Y-36383333D01*
X29475395Y-85586666D02*
X29808729Y-85586666D01*
X29383729Y-85786666D02*
X29704562Y-85086666D01*
X29850395Y-85786666D01*
X30492062Y-85720000D02*
X30454562Y-85753333D01*
X30350395Y-85786666D01*
X30283729Y-85786666D01*
X30187895Y-85753333D01*
X30129562Y-85686666D01*
X30104562Y-85620000D01*
X30087895Y-85486666D01*
X30100395Y-85386666D01*
X30150395Y-85253333D01*
X30192062Y-85186666D01*
X30267062Y-85120000D01*
X30371229Y-85086666D01*
X30437895Y-85086666D01*
X30533729Y-85120000D01*
X30562895Y-85153333D01*
X30771229Y-85086666D02*
X31171229Y-85086666D01*
X30883729Y-85786666D02*
X30971229Y-85086666D01*
X37112857Y-47430000D02*
X37055714Y-47401428D01*
X36970000Y-47401428D01*
X36884285Y-47430000D01*
X36827142Y-47487142D01*
X36798571Y-47544285D01*
X36770000Y-47658571D01*
X36770000Y-47744285D01*
X36798571Y-47858571D01*
X36827142Y-47915714D01*
X36884285Y-47972857D01*
X36970000Y-48001428D01*
X37027142Y-48001428D01*
X37112857Y-47972857D01*
X37141428Y-47944285D01*
X37141428Y-47744285D01*
X37027142Y-47744285D01*
X37398571Y-48001428D02*
X37398571Y-47401428D01*
X37741428Y-48001428D01*
X37741428Y-47401428D01*
X38027142Y-48001428D02*
X38027142Y-47401428D01*
X38170000Y-47401428D01*
X38255714Y-47430000D01*
X38312857Y-47487142D01*
X38341428Y-47544285D01*
X38370000Y-47658571D01*
X38370000Y-47744285D01*
X38341428Y-47858571D01*
X38312857Y-47915714D01*
X38255714Y-47972857D01*
X38170000Y-48001428D01*
X38027142Y-48001428D01*
X60078095Y-72672380D02*
X60649523Y-72672380D01*
X60363809Y-73672380D02*
X60363809Y-72672380D01*
X60887619Y-72672380D02*
X61554285Y-73672380D01*
X61554285Y-72672380D02*
X60887619Y-73672380D01*
%TO.C,U302*%
X58571918Y-108893584D02*
X58571918Y-109703108D01*
X58619537Y-109798346D01*
X58667156Y-109845965D01*
X58762394Y-109893584D01*
X58952870Y-109893584D01*
X59048108Y-109845965D01*
X59095727Y-109798346D01*
X59143346Y-109703108D01*
X59143346Y-108893584D01*
X59524299Y-108893584D02*
X60143346Y-108893584D01*
X59810013Y-109274537D01*
X59952870Y-109274537D01*
X60048108Y-109322156D01*
X60095727Y-109369775D01*
X60143346Y-109465013D01*
X60143346Y-109703108D01*
X60095727Y-109798346D01*
X60048108Y-109845965D01*
X59952870Y-109893584D01*
X59667156Y-109893584D01*
X59571918Y-109845965D01*
X59524299Y-109798346D01*
X60762394Y-108893584D02*
X60857632Y-108893584D01*
X60952870Y-108941204D01*
X61000489Y-108988823D01*
X61048108Y-109084061D01*
X61095727Y-109274537D01*
X61095727Y-109512632D01*
X61048108Y-109703108D01*
X61000489Y-109798346D01*
X60952870Y-109845965D01*
X60857632Y-109893584D01*
X60762394Y-109893584D01*
X60667156Y-109845965D01*
X60619537Y-109798346D01*
X60571918Y-109703108D01*
X60524299Y-109512632D01*
X60524299Y-109274537D01*
X60571918Y-109084061D01*
X60619537Y-108988823D01*
X60667156Y-108941204D01*
X60762394Y-108893584D01*
X61476680Y-108988823D02*
X61524299Y-108941204D01*
X61619537Y-108893584D01*
X61857632Y-108893584D01*
X61952870Y-108941204D01*
X62000489Y-108988823D01*
X62048108Y-109084061D01*
X62048108Y-109179299D01*
X62000489Y-109322156D01*
X61429061Y-109893584D01*
X62048108Y-109893584D01*
D12*
X63211204Y-106276204D02*
X63211204Y-107556204D01*
X63211204Y-107556204D02*
X50011204Y-107556204D01*
X50011204Y-107556204D02*
X50011204Y-106276204D01*
D13*
X63961204Y-104656204D02*
G75*
G03*
X63961204Y-104656204I-100000J0D01*
G01*
D14*
%TO.C,C701*%
X26546204Y-73775960D02*
X26546204Y-73991632D01*
X25826204Y-73775960D02*
X25826204Y-73991632D01*
%TO.C,C207*%
X44472095Y-60035039D02*
X44319592Y-59882536D01*
X43962978Y-60544156D02*
X43810475Y-60391653D01*
%TO.C,R702*%
X48307967Y-62822329D02*
X48090686Y-63039610D01*
X48845368Y-63359730D02*
X48628087Y-63577011D01*
%TO.C,C205*%
X32066204Y-74595960D02*
X32066204Y-74811632D01*
X31346204Y-74595960D02*
X31346204Y-74811632D01*
%TO.C,C306*%
X63716204Y-103465959D02*
X63716204Y-103681631D01*
X64436204Y-103465959D02*
X64436204Y-103681631D01*
%TO.C,C310*%
X61965959Y-93483796D02*
X62181631Y-93483796D01*
X61965959Y-94203796D02*
X62181631Y-94203796D01*
%TO.C,Y201*%
X29281204Y-70418796D02*
X29281204Y-71768796D01*
X27531204Y-70418796D02*
X27531204Y-71768796D01*
%TO.C,BT201*%
X26510000Y-70350000D02*
G75*
G03*
X26510000Y-70350000I-3530000J0D01*
G01*
%TO.C,C403*%
X51216198Y-56230009D02*
X51738702Y-56230009D01*
X51216198Y-57700009D02*
X51738702Y-57700009D01*
%TO.C,C302*%
X23181631Y-87806204D02*
X22965959Y-87806204D01*
X23181631Y-87086204D02*
X22965959Y-87086204D01*
%TO.C,J301*%
X40796203Y-88098795D02*
X41431203Y-88098795D01*
X40796203Y-88733795D02*
X40796203Y-88098795D01*
%TO.C,C215*%
X36506799Y-79438497D02*
X36354296Y-79285994D01*
X37015916Y-78929380D02*
X36863413Y-78776877D01*
D10*
%TO.C,U304*%
X65590000Y-73980000D02*
X49090000Y-73980000D01*
X49090000Y-91480000D02*
X49090000Y-90730000D01*
X65590000Y-74730000D02*
X65590000Y-73980000D01*
X49090000Y-73980000D02*
X49090000Y-74730000D01*
X65590000Y-91480000D02*
X49090000Y-91480000D01*
X65590000Y-90730000D02*
X65590000Y-91480000D01*
D14*
%TO.C,TP301*%
X34166205Y-94586204D02*
G75*
G03*
X34166205Y-94586204I-700000J0D01*
G01*
%TO.C,J901*%
X70930000Y-45810000D02*
X62300000Y-45810000D01*
X70930000Y-50357620D02*
X62300000Y-50357620D01*
X70930000Y-49058575D02*
X62300000Y-49058575D01*
X62300000Y-49260000D02*
X61890000Y-49260000D01*
X70930000Y-49294765D02*
X62300000Y-49294765D01*
X70930000Y-50950000D02*
X70930000Y-38130000D01*
X62300000Y-49980000D02*
X61890000Y-49980000D01*
X70930000Y-49176670D02*
X62300000Y-49176670D01*
X70930000Y-40730000D02*
X62300000Y-40730000D01*
X70930000Y-49412860D02*
X62300000Y-49412860D01*
X70930000Y-50830000D02*
X62300000Y-50830000D01*
X59790000Y-39820000D02*
X59350000Y-39820000D01*
X62300000Y-50950000D02*
X62300000Y-38130000D01*
X59790000Y-46720000D02*
X59350000Y-46720000D01*
X70930000Y-49530955D02*
X62300000Y-49530955D01*
X70930000Y-48704290D02*
X62300000Y-48704290D01*
X70930000Y-50475715D02*
X62300000Y-50475715D01*
X70930000Y-49649050D02*
X62300000Y-49649050D01*
X62300000Y-44180000D02*
X61890000Y-44180000D01*
X70930000Y-38130000D02*
X62300000Y-38130000D01*
X70930000Y-43270000D02*
X62300000Y-43270000D01*
X62300000Y-41640000D02*
X61890000Y-41640000D01*
X70930000Y-49885240D02*
X62300000Y-49885240D01*
X59790000Y-42360000D02*
X59350000Y-42360000D01*
X59790000Y-44900000D02*
X59350000Y-44900000D01*
X59790000Y-49980000D02*
X59410000Y-49980000D01*
X62300000Y-42360000D02*
X61890000Y-42360000D01*
X70930000Y-50593810D02*
X62300000Y-50593810D01*
X70930000Y-48350000D02*
X62300000Y-48350000D01*
X70930000Y-48586195D02*
X62300000Y-48586195D01*
X62300000Y-39100000D02*
X61890000Y-39100000D01*
X62300000Y-39820000D02*
X61890000Y-39820000D01*
X62300000Y-46720000D02*
X61890000Y-46720000D01*
X70930000Y-50239525D02*
X62300000Y-50239525D01*
X70930000Y-50711905D02*
X62300000Y-50711905D01*
X70930000Y-50121430D02*
X62300000Y-50121430D01*
X59790000Y-47440000D02*
X59350000Y-47440000D01*
X70930000Y-50003335D02*
X62300000Y-50003335D01*
X59790000Y-41640000D02*
X59350000Y-41640000D01*
X70930000Y-48468100D02*
X62300000Y-48468100D01*
X70930000Y-48940480D02*
X62300000Y-48940480D01*
X62300000Y-44900000D02*
X61890000Y-44900000D01*
X70930000Y-48822385D02*
X62300000Y-48822385D01*
X59790000Y-44180000D02*
X59350000Y-44180000D01*
X70930000Y-50950000D02*
X62300000Y-50950000D01*
X62300000Y-47440000D02*
X61890000Y-47440000D01*
X59790000Y-49260000D02*
X59410000Y-49260000D01*
X70930000Y-49767145D02*
X62300000Y-49767145D01*
X59790000Y-39100000D02*
X59350000Y-39100000D01*
%TO.C,U402*%
X47332550Y-53333797D02*
X47332550Y-54133797D01*
X50452550Y-53333797D02*
X50452550Y-54133797D01*
X50452550Y-53333797D02*
X50452550Y-51533797D01*
X47332550Y-53333797D02*
X47332550Y-52533797D01*
%TO.C,D405*%
X34285000Y-48725000D02*
X34285000Y-46440000D01*
X32815000Y-46440000D02*
X32815000Y-48725000D01*
X34285000Y-46440000D02*
X32815000Y-46440000D01*
%TO.C,C303*%
X25735960Y-86563796D02*
X25951632Y-86563796D01*
X25735960Y-85843796D02*
X25951632Y-85843796D01*
%TO.C,C214*%
X32595183Y-67429597D02*
X32747686Y-67277094D01*
X32086066Y-66920480D02*
X32238569Y-66767977D01*
%TO.C,R306*%
X51431204Y-92762563D02*
X51431204Y-93069845D01*
X52191204Y-92762563D02*
X52191204Y-93069845D01*
%TO.C,C304*%
X26892164Y-101100000D02*
X27107836Y-101100000D01*
X26892164Y-100380000D02*
X27107836Y-100380000D01*
%TO.C,J401*%
X54541205Y-39556866D02*
X23571205Y-39556866D01*
X54541205Y-29076866D02*
X54541205Y-39556866D01*
X33516205Y-40018191D02*
X33766205Y-40451204D01*
X23571205Y-39556866D02*
X23571205Y-29076866D01*
X33266205Y-40451204D02*
X33516205Y-40018191D01*
X33766205Y-40451204D02*
X33266205Y-40451204D01*
%TO.C,R308*%
X22946359Y-100370000D02*
X23253641Y-100370000D01*
X22946359Y-101130000D02*
X23253641Y-101130000D01*
%TO.C,D403*%
X35863796Y-53966204D02*
X41263796Y-53966204D01*
X35863796Y-57266204D02*
X41263796Y-57266204D01*
X35863796Y-53966204D02*
X35863796Y-57266204D01*
%TO.C,C210*%
X45228817Y-78622688D02*
X45076314Y-78775191D01*
X45737934Y-79131805D02*
X45585431Y-79284308D01*
%TO.C,Q302*%
X39996203Y-82743796D02*
X39346203Y-82743796D01*
X39996203Y-85863796D02*
X39346203Y-85863796D01*
X39996203Y-82743796D02*
X40646203Y-82743796D01*
X39996203Y-85863796D02*
X41671203Y-85863796D01*
%TO.C,R203*%
X31275065Y-63867166D02*
X31492346Y-64084447D01*
X31812466Y-63329765D02*
X32029747Y-63547046D01*
%TO.C,D204*%
X32660000Y-48725000D02*
X32660000Y-46440000D01*
X32660000Y-46440000D02*
X31190000Y-46440000D01*
X31190000Y-46440000D02*
X31190000Y-48725000D01*
%TO.C,R202*%
X34070354Y-78562855D02*
X34287635Y-78780136D01*
X34607755Y-78025454D02*
X34825036Y-78242735D01*
%TO.C,C308*%
X65636205Y-103465959D02*
X65636205Y-103681631D01*
X64916205Y-103465959D02*
X64916205Y-103681631D01*
%TO.C,D201*%
X23483796Y-60483796D02*
X24133796Y-60483796D01*
X23483796Y-63603796D02*
X24133796Y-63603796D01*
X23483796Y-60483796D02*
X21808796Y-60483796D01*
X23483796Y-63603796D02*
X22833796Y-63603796D01*
%TO.C,TP404*%
X38267129Y-48983796D02*
G75*
G03*
X38267129Y-48983796I-700000J0D01*
G01*
%TO.C,U301*%
X20870000Y-89130000D02*
X20720000Y-89130000D01*
X30890000Y-88440000D02*
X30890000Y-89130000D01*
X31040000Y-89130000D02*
X31040000Y-99050000D01*
X20720000Y-89130000D02*
X20720000Y-99050000D01*
X31040000Y-89130000D02*
X30890000Y-89130000D01*
X31040000Y-99050000D02*
X30890000Y-99050000D01*
X20870000Y-99050000D02*
X20720000Y-99050000D01*
%TO.C,R301*%
X39716204Y-87280155D02*
X39716204Y-87587437D01*
X38956204Y-87280155D02*
X38956204Y-87587437D01*
%TO.C,J801*%
X70930000Y-71465241D02*
X62300000Y-71465241D01*
X62300000Y-58140001D02*
X61890000Y-58140001D01*
X70930000Y-52090001D02*
X62300000Y-52090001D01*
X62300000Y-58860001D02*
X61890000Y-58860001D01*
X62300000Y-70840001D02*
X61890000Y-70840001D01*
X59790000Y-66480001D02*
X59350000Y-66480001D01*
X62300000Y-71560001D02*
X61890000Y-71560001D01*
X59790000Y-70840001D02*
X59410000Y-70840001D01*
X70930000Y-70048101D02*
X62300000Y-70048101D01*
X70930000Y-54690001D02*
X62300000Y-54690001D01*
X70930000Y-71701431D02*
X62300000Y-71701431D01*
X59790000Y-65760001D02*
X59350000Y-65760001D01*
X59790000Y-63220001D02*
X59350000Y-63220001D01*
X70930000Y-59770001D02*
X62300000Y-59770001D01*
X62300000Y-72530001D02*
X62300000Y-52090001D01*
X70930000Y-72291906D02*
X62300000Y-72291906D01*
X62300000Y-63220001D02*
X61890000Y-63220001D01*
X59790000Y-71560001D02*
X59410000Y-71560001D01*
X70930000Y-71937621D02*
X62300000Y-71937621D01*
X62300000Y-53060001D02*
X61890000Y-53060001D01*
X70930000Y-57230001D02*
X62300000Y-57230001D01*
X70930000Y-72173811D02*
X62300000Y-72173811D01*
X70930000Y-71819526D02*
X62300000Y-71819526D01*
X70930000Y-70756671D02*
X62300000Y-70756671D01*
X59790000Y-63940001D02*
X59350000Y-63940001D01*
X70930000Y-70284291D02*
X62300000Y-70284291D01*
X58300000Y-72530001D02*
X57190000Y-72530001D01*
X70930000Y-70520481D02*
X62300000Y-70520481D01*
X70930000Y-70166196D02*
X62300000Y-70166196D01*
X59790000Y-68300001D02*
X59350000Y-68300001D01*
X70930000Y-71229051D02*
X62300000Y-71229051D01*
X62300000Y-60680001D02*
X61890000Y-60680001D01*
X62300000Y-55600001D02*
X61890000Y-55600001D01*
X70930000Y-71347146D02*
X62300000Y-71347146D01*
X59790000Y-69020001D02*
X59350000Y-69020001D01*
X59790000Y-53060001D02*
X59350000Y-53060001D01*
X59790000Y-56320001D02*
X59350000Y-56320001D01*
X70930000Y-70874766D02*
X62300000Y-70874766D01*
X70930000Y-70638576D02*
X62300000Y-70638576D01*
X62300000Y-68300001D02*
X61890000Y-68300001D01*
X70930000Y-71110956D02*
X62300000Y-71110956D01*
X62300000Y-56320001D02*
X61890000Y-56320001D01*
X59790000Y-53780001D02*
X59350000Y-53780001D01*
X70930000Y-67390001D02*
X62300000Y-67390001D01*
X59790000Y-61400001D02*
X59350000Y-61400001D01*
X59790000Y-58860001D02*
X59350000Y-58860001D01*
X70930000Y-71583336D02*
X62300000Y-71583336D01*
X62300000Y-65760001D02*
X61890000Y-65760001D01*
X70930000Y-62310001D02*
X62300000Y-62310001D01*
X62300000Y-63940001D02*
X61890000Y-63940001D01*
X70930000Y-72530001D02*
X62300000Y-72530001D01*
X70930000Y-64850001D02*
X62300000Y-64850001D01*
X59790000Y-60680001D02*
X59350000Y-60680001D01*
X70930000Y-70992861D02*
X62300000Y-70992861D01*
X70930000Y-72410001D02*
X62300000Y-72410001D01*
X57190000Y-72530001D02*
X57190000Y-71200001D01*
X70930000Y-72530001D02*
X70930000Y-52090001D01*
X70930000Y-69930001D02*
X62300000Y-69930001D01*
X59790000Y-55600001D02*
X59350000Y-55600001D01*
X59790000Y-58140001D02*
X59350000Y-58140001D01*
X70930000Y-70402386D02*
X62300000Y-70402386D01*
X62300000Y-61400001D02*
X61890000Y-61400001D01*
X62300000Y-66480001D02*
X61890000Y-66480001D01*
X62300000Y-69020001D02*
X61890000Y-69020001D01*
X62300000Y-53780001D02*
X61890000Y-53780001D01*
X70930000Y-72055716D02*
X62300000Y-72055716D01*
%TO.C,R408*%
X33027500Y-51262258D02*
X33027500Y-50787742D01*
X34072500Y-51262258D02*
X34072500Y-50787742D01*
%TO.C,C208*%
X25726204Y-62631632D02*
X25726204Y-62415960D01*
X26446204Y-62631632D02*
X26446204Y-62415960D01*
%TO.C,C204*%
X29776204Y-72054040D02*
X29776204Y-71838368D01*
X30496204Y-72054040D02*
X30496204Y-71838368D01*
%TO.C,TP401*%
X44603796Y-49093796D02*
G75*
G03*
X44603796Y-49093796I-700000J0D01*
G01*
%TO.C,TP403*%
X44603796Y-51173796D02*
G75*
G03*
X44603796Y-51173796I-700000J0D01*
G01*
%TO.C,U401*%
X44256204Y-47766204D02*
X45756204Y-47766204D01*
X45756204Y-47766204D02*
X45756204Y-47496204D01*
X45756204Y-41136204D02*
X46856204Y-41136204D01*
X45756204Y-47496204D02*
X48586204Y-47496204D01*
X45756204Y-40866204D02*
X45756204Y-41136204D01*
X44256204Y-40866204D02*
X45756204Y-40866204D01*
%TO.C,R201*%
X33311627Y-79321580D02*
X33528908Y-79538861D01*
X33849028Y-78784179D02*
X34066309Y-79001460D01*
%TO.C,R402*%
X32729846Y-92301204D02*
X32422564Y-92301204D01*
X32729846Y-93061204D02*
X32422564Y-93061204D01*
%TO.C,U201*%
X40633796Y-62487165D02*
X41305547Y-63158916D01*
X40633796Y-76940427D02*
X39962045Y-76268676D01*
X47860427Y-69713796D02*
X47188676Y-69042045D01*
X41305547Y-76268676D02*
X40633796Y-76940427D01*
X34078916Y-69042045D02*
X33407165Y-69713796D01*
X47188676Y-70385547D02*
X47860427Y-69713796D01*
X39962045Y-63158916D02*
X40633796Y-62487165D01*
X34078916Y-70385547D02*
X33131393Y-71333071D01*
X33407165Y-69713796D02*
X34078916Y-70385547D01*
%TO.C,R404*%
X45808819Y-49096204D02*
X46116101Y-49096204D01*
X45808819Y-48336204D02*
X46116101Y-48336204D01*
%TO.C,R602*%
X34723796Y-89949846D02*
X34723796Y-89642564D01*
X35483796Y-89949846D02*
X35483796Y-89642564D01*
%TO.C,Y202*%
X27353796Y-79526204D02*
X30953796Y-79526204D01*
X27353796Y-73776204D02*
X27353796Y-79526204D01*
X30953796Y-79526204D02*
X30953796Y-73776204D01*
%TO.C,C206*%
X50369190Y-71921693D02*
X50521693Y-71769190D01*
X50878307Y-72430810D02*
X51030810Y-72278307D01*
%TO.C,R302*%
X45226204Y-90420155D02*
X45226204Y-90727437D01*
X44466204Y-90420155D02*
X44466204Y-90727437D01*
%TO.C,D402*%
X49163796Y-46673796D02*
X49163796Y-49973796D01*
X49163796Y-46673796D02*
X54563796Y-46673796D01*
X49163796Y-49973796D02*
X54563796Y-49973796D01*
%TO.C,R303*%
X45437437Y-87626204D02*
X45130155Y-87626204D01*
X45437437Y-88386204D02*
X45130155Y-88386204D01*
D13*
%TO.C,AE301*%
X22537437Y-104162563D02*
G75*
G03*
X22537437Y-104162563I-100000J0D01*
G01*
D14*
%TO.C,C405*%
X46777461Y-53595049D02*
X46777461Y-53072545D01*
X45307461Y-53595049D02*
X45307461Y-53072545D01*
D12*
%TO.C,J601*%
X45490000Y-104592500D02*
X45490000Y-102232500D01*
X37990000Y-104592500D02*
X37990000Y-102232500D01*
X45490000Y-107732500D02*
X45490000Y-108412500D01*
X38610000Y-99912500D02*
X39570000Y-99912500D01*
X44870000Y-99912500D02*
X43910000Y-99912500D01*
X37990000Y-107732500D02*
X37990000Y-108412500D01*
D13*
X40240000Y-98812500D02*
G75*
G03*
X40240000Y-98812500I-100000J0D01*
G01*
D14*
%TO.C,TP303*%
X49233704Y-92986204D02*
G75*
G03*
X49233704Y-92986204I-700000J0D01*
G01*
%TO.C,C201*%
X30496204Y-69905960D02*
X30496204Y-70121632D01*
X29776204Y-69905960D02*
X29776204Y-70121632D01*
%TO.C,TP405*%
X35375000Y-53050000D02*
G75*
G03*
X35375000Y-54450000I0J-700000D01*
G01*
%TO.C,L401*%
X51067450Y-54169039D02*
X51067450Y-52498555D01*
X52887450Y-54169039D02*
X52887450Y-52498555D01*
%TO.C,C209*%
X31283691Y-67602343D02*
X31131188Y-67449840D01*
X30774574Y-68111460D02*
X30622071Y-67958957D01*
%TO.C,TP304*%
X46926205Y-92986204D02*
G75*
G03*
X46926205Y-92986204I-700000J0D01*
G01*
%TO.C,R305*%
X38656204Y-87280155D02*
X38656204Y-87587437D01*
X37896204Y-87280155D02*
X37896204Y-87587437D01*
%TO.C,BT301*%
X26510000Y-78420000D02*
G75*
G03*
X26510000Y-78420000I-3530000J0D01*
G01*
%TO.C,C309*%
X62181632Y-92396204D02*
X61965960Y-92396204D01*
X62181632Y-93116204D02*
X61965960Y-93116204D01*
%TO.C,D203*%
X32200000Y-87785000D02*
X34485000Y-87785000D01*
X34485000Y-87785000D02*
X34485000Y-86315000D01*
X34485000Y-86315000D02*
X32200000Y-86315000D01*
%TO.C,TP302*%
X34166204Y-96766204D02*
G75*
G03*
X34166204Y-96766204I-700000J0D01*
G01*
%TO.C,D301*%
X30536205Y-81783796D02*
X30536205Y-82433796D01*
X27416205Y-81783796D02*
X27416205Y-82433796D01*
X27416205Y-81783796D02*
X27416205Y-81133796D01*
X30536205Y-81783796D02*
X30536205Y-80108796D01*
%TO.C,C212*%
X49669190Y-71121693D02*
X49821693Y-70969190D01*
X50178307Y-71630810D02*
X50330810Y-71478307D01*
%TO.C,C601*%
X36565960Y-88983796D02*
X36781632Y-88983796D01*
X36565960Y-89703796D02*
X36781632Y-89703796D01*
%TO.C,J201*%
X27687004Y-51188202D02*
X28136016Y-50739189D01*
X30430578Y-53139817D02*
X25070709Y-58499686D01*
X25070709Y-58499686D02*
X24222180Y-58499686D01*
X22171571Y-55600548D02*
X27531440Y-50240679D01*
X29921461Y-49830557D02*
X30840700Y-50749796D01*
X27531440Y-50240679D02*
X29921461Y-49830557D01*
X30840700Y-50749796D02*
X30430578Y-53139817D01*
X24222180Y-58499686D02*
X22171571Y-56449077D01*
X28136016Y-50739189D02*
X28585029Y-51188202D01*
X22171571Y-55600548D02*
X22171571Y-56449077D01*
%TO.C,R406*%
X47868820Y-50982583D02*
X48176102Y-50982583D01*
X47868820Y-50222583D02*
X48176102Y-50222583D01*
%TO.C,C211*%
X44915091Y-78308961D02*
X44762588Y-78461464D01*
X44405974Y-77799844D02*
X44253471Y-77952347D01*
%TO.C,C301*%
X22965959Y-85843796D02*
X23181631Y-85843796D01*
X22965959Y-86563796D02*
X23181631Y-86563796D01*
%TO.C,R401*%
X34819846Y-92301204D02*
X34512564Y-92301204D01*
X34819846Y-93061204D02*
X34512564Y-93061204D01*
%TO.C,R703*%
X33140678Y-62081553D02*
X33357959Y-62298834D01*
X33678079Y-61544152D02*
X33895360Y-61761433D01*
%TO.C,TP402*%
X36183796Y-48983796D02*
G75*
G03*
X36183796Y-48983796I-700000J0D01*
G01*
%TO.C,U501*%
X25183796Y-46633796D02*
X27133796Y-46633796D01*
X25183796Y-41513796D02*
X21733796Y-41513796D01*
X25183796Y-41513796D02*
X27133796Y-41513796D01*
X25183796Y-46633796D02*
X23233796Y-46633796D01*
%TO.C,R502*%
X32506204Y-43346732D02*
X32506204Y-44800860D01*
X30686204Y-43346732D02*
X30686204Y-44800860D01*
%TO.C,D404*%
X35863796Y-50273796D02*
X41263796Y-50273796D01*
X35863796Y-50273796D02*
X35863796Y-53573796D01*
X35863796Y-53573796D02*
X41263796Y-53573796D01*
%TO.C,R701*%
X47495332Y-62009694D02*
X47278051Y-62226975D01*
X48032733Y-62547095D02*
X47815452Y-62764376D01*
%TO.C,R705*%
X34618632Y-60603599D02*
X34835913Y-60820880D01*
X35156033Y-60066198D02*
X35373314Y-60283479D01*
%TO.C,R205*%
X36402258Y-86522500D02*
X35927742Y-86522500D01*
X36402258Y-87567500D02*
X35927742Y-87567500D01*
%TO.C,C202*%
X32056204Y-77934040D02*
X32056204Y-77718368D01*
X31336204Y-77934040D02*
X31336204Y-77718368D01*
%TO.C,Q301*%
X44086204Y-82743796D02*
X42411204Y-82743796D01*
X44086204Y-85863796D02*
X44736204Y-85863796D01*
X44086204Y-82743796D02*
X44736204Y-82743796D01*
X44086204Y-85863796D02*
X43436204Y-85863796D01*
%TO.C,R304*%
X45130155Y-89440000D02*
X45437437Y-89440000D01*
X45130155Y-88680000D02*
X45437437Y-88680000D01*
%TO.C,R206*%
X27662258Y-47102500D02*
X27187742Y-47102500D01*
X27662258Y-48147500D02*
X27187742Y-48147500D01*
%TO.C,D401*%
X49163796Y-46323796D02*
X54563796Y-46323796D01*
X49163796Y-43023796D02*
X54563796Y-43023796D01*
X49163796Y-43023796D02*
X49163796Y-46323796D01*
%TO.C,C216*%
X34977134Y-80968162D02*
X34824631Y-80815659D01*
X35486251Y-80459045D02*
X35333748Y-80306542D01*
%TO.C,J202*%
X31470774Y-57301731D02*
X31919787Y-56852718D01*
X31919787Y-56852718D02*
X32368800Y-57301731D01*
%TO.C,D202*%
X34472500Y-86135000D02*
X34472500Y-84665000D01*
X32187500Y-86135000D02*
X34472500Y-86135000D01*
X34472500Y-84665000D02*
X32187500Y-84665000D01*
%TO.C,R601*%
X38613796Y-89949845D02*
X38613796Y-89642563D01*
X37853796Y-89949845D02*
X37853796Y-89642563D01*
%TO.C,R407*%
X45808819Y-50982583D02*
X46116101Y-50982583D01*
X45808819Y-50222583D02*
X46116101Y-50222583D01*
%TO.C,R704*%
X33867749Y-61354482D02*
X34085030Y-61571763D01*
X34405150Y-60817081D02*
X34622431Y-61034362D01*
%TO.C,R405*%
X48004993Y-56283809D02*
X48004993Y-56591091D01*
X47244993Y-56283809D02*
X47244993Y-56591091D01*
%TO.C,C502*%
X20453796Y-44181632D02*
X20453796Y-43965960D01*
X21173796Y-44181632D02*
X21173796Y-43965960D01*
%TO.C,C203*%
X35013553Y-77989440D02*
X34861050Y-77836937D01*
X35522670Y-77480323D02*
X35370167Y-77327820D01*
%TO.C,C402*%
X37188797Y-44577456D02*
X37188797Y-44054952D01*
X35718797Y-44577456D02*
X35718797Y-44054952D01*
%TO.C,R204*%
X36364758Y-84882500D02*
X35890242Y-84882500D01*
X36364758Y-85927500D02*
X35890242Y-85927500D01*
%TO.C,R403*%
X47868820Y-49096204D02*
X48176102Y-49096204D01*
X47868820Y-48336204D02*
X48176102Y-48336204D01*
%TO.C,C401*%
X50482543Y-41061204D02*
X51005047Y-41061204D01*
X50482543Y-42531204D02*
X51005047Y-42531204D01*
%TO.C,C213*%
X42740612Y-61766523D02*
X42588109Y-61614020D01*
X43249729Y-61257406D02*
X43097226Y-61104903D01*
%TO.C,R501*%
X25030155Y-41153796D02*
X25337437Y-41153796D01*
X25030155Y-40393796D02*
X25337437Y-40393796D01*
%TD*%
%LPC*%
%TO.C,U302*%
G36*
X59411204Y-102796204D02*
G01*
X58751204Y-103456204D01*
X57761204Y-103456204D01*
X57761204Y-101806204D01*
X59411204Y-101806204D01*
X59411204Y-102796204D01*
G37*
D15*
X59411204Y-102796204D02*
X58751204Y-103456204D01*
X57761204Y-103456204D01*
X57761204Y-101806204D01*
X59411204Y-101806204D01*
X59411204Y-102796204D01*
%TO.C,AE301*%
G36*
X22783919Y-105725269D02*
G01*
X21525269Y-106983919D01*
X20973726Y-106432376D01*
X21496985Y-105909117D01*
X21595980Y-105923259D01*
X21723259Y-105795980D01*
X21709117Y-105696985D01*
X22232376Y-105173726D01*
X22783919Y-105725269D01*
G37*
D16*
X22783919Y-105725269D02*
X21525269Y-106983919D01*
X20973726Y-106432376D01*
X21496985Y-105909117D01*
X21595980Y-105923259D01*
X21723259Y-105795980D01*
X21709117Y-105696985D01*
X22232376Y-105173726D01*
X22783919Y-105725269D01*
G36*
X21426274Y-104367624D02*
G01*
X20903015Y-104890883D01*
X20804020Y-104876741D01*
X20676741Y-105004020D01*
X20690883Y-105103015D01*
X20167624Y-105626274D01*
X19616081Y-105074731D01*
X20874731Y-103816081D01*
X21426274Y-104367624D01*
G37*
X21426274Y-104367624D02*
X20903015Y-104890883D01*
X20804020Y-104876741D01*
X20676741Y-105004020D01*
X20690883Y-105103015D01*
X20167624Y-105626274D01*
X19616081Y-105074731D01*
X20874731Y-103816081D01*
X21426274Y-104367624D01*
%TD*%
D17*
%TO.C,U302*%
X62511204Y-104656204D03*
X62511204Y-103856204D03*
X62511204Y-103056204D03*
X62511204Y-102256204D03*
X62511204Y-101456204D03*
X62511204Y-100656204D03*
X62511204Y-99856204D03*
X62511204Y-99056204D03*
X62511204Y-98256204D03*
X62511204Y-97456204D03*
X62511204Y-96656204D03*
D18*
X61411204Y-95756204D03*
X60611204Y-95756204D03*
X59811204Y-95756204D03*
X59011204Y-95756204D03*
X58211204Y-95756204D03*
X57411204Y-95756204D03*
X56611204Y-95756204D03*
X55811204Y-95756204D03*
X55011204Y-95756204D03*
X54211204Y-95756204D03*
X53411204Y-95756204D03*
X52611204Y-95756204D03*
X51811204Y-95756204D03*
D17*
X50711204Y-96656204D03*
X50711204Y-97456204D03*
X50711204Y-98256204D03*
X50711204Y-99056204D03*
X50711204Y-99856204D03*
X50711204Y-100656204D03*
X50711204Y-101456204D03*
X50711204Y-102256204D03*
X50711204Y-103056204D03*
X50711204Y-103856204D03*
X50711204Y-104656204D03*
D18*
X51811204Y-105556204D03*
X52611204Y-105556204D03*
X53411204Y-105556204D03*
X54211204Y-105556204D03*
X55011204Y-105556204D03*
X55811204Y-105556204D03*
X56611204Y-105556204D03*
X57411204Y-105556204D03*
X58211204Y-105556204D03*
X59011204Y-105556204D03*
X59811204Y-105556204D03*
X60611204Y-105556204D03*
X61411204Y-105556204D03*
D19*
X56611204Y-102631204D03*
X54636204Y-102631204D03*
X54636204Y-100656204D03*
X54636204Y-98681204D03*
X56611204Y-98681204D03*
X58586204Y-98681204D03*
X58586204Y-100656204D03*
X56611204Y-100656204D03*
D20*
X50661204Y-105606204D03*
X50661204Y-95706204D03*
X62561204Y-95706204D03*
X62561204Y-105606204D03*
%TD*%
D21*
%TO.C,C701*%
X26186204Y-73403796D03*
X26186204Y-74363796D03*
%TD*%
D22*
%TO.C,C207*%
X44480696Y-60552757D03*
X43801874Y-59873935D03*
%TD*%
D23*
%TO.C,R702*%
X48828651Y-62839046D03*
X48107403Y-63560294D03*
%TD*%
D21*
%TO.C,C205*%
X31706204Y-74223796D03*
X31706204Y-75183796D03*
%TD*%
%TO.C,C306*%
X64076204Y-103093795D03*
X64076204Y-104053795D03*
%TD*%
D24*
%TO.C,C310*%
X61593795Y-93843796D03*
X62553795Y-93843796D03*
%TD*%
D25*
%TO.C,Y201*%
X28406204Y-72343796D03*
X28406204Y-69843796D03*
%TD*%
D26*
%TO.C,BT201*%
X22230000Y-65350000D03*
X23730000Y-65350000D03*
%TD*%
D27*
%TO.C,C403*%
X50527450Y-56965009D03*
X52427450Y-56965009D03*
%TD*%
D28*
%TO.C,C302*%
X23553795Y-87446204D03*
X22593795Y-87446204D03*
%TD*%
D29*
%TO.C,J301*%
X43082203Y-92543795D03*
X41050203Y-92543795D03*
X42066203Y-87463795D03*
D30*
X41431203Y-88733795D03*
X42701203Y-88733795D03*
X41431203Y-90003795D03*
X42701203Y-90003795D03*
X41431203Y-91273795D03*
X42701203Y-91273795D03*
%TD*%
D22*
%TO.C,C215*%
X37024517Y-79447098D03*
X36345695Y-78768276D03*
%TD*%
D31*
%TO.C,U304*%
X65340000Y-89730000D03*
X65340000Y-87730000D03*
X65340000Y-85730000D03*
X65340000Y-83730000D03*
X65340000Y-81730000D03*
X65340000Y-79730000D03*
X65340000Y-77730000D03*
X65340000Y-75730000D03*
X49340000Y-75730000D03*
X49340000Y-77730000D03*
X49340000Y-79730000D03*
X49340000Y-81730000D03*
X49340000Y-83730000D03*
X49340000Y-85730000D03*
X49340000Y-87730000D03*
X49340000Y-89730000D03*
%TD*%
D32*
%TO.C,TP301*%
X33466205Y-94586204D03*
%TD*%
D33*
%TO.C,J901*%
X58300000Y-49620000D03*
D34*
X60840000Y-49620000D03*
X58300000Y-47080000D03*
X60840000Y-47080000D03*
X58300000Y-44540000D03*
X60840000Y-44540000D03*
X58300000Y-42000000D03*
X60840000Y-42000000D03*
X58300000Y-39460000D03*
X60840000Y-39460000D03*
%TD*%
D35*
%TO.C,U402*%
X49842550Y-52196297D03*
X48892550Y-52196297D03*
X47942550Y-52196297D03*
X47942550Y-54471297D03*
X48892550Y-54471297D03*
X49842550Y-54471297D03*
%TD*%
D36*
%TO.C,D405*%
X33550000Y-47137500D03*
X33550000Y-48712500D03*
%TD*%
D24*
%TO.C,C303*%
X25363796Y-86203796D03*
X26323796Y-86203796D03*
%TD*%
D37*
%TO.C,C214*%
X32077465Y-67438198D03*
X32756287Y-66759376D03*
%TD*%
D38*
%TO.C,R306*%
X51811204Y-92406204D03*
X51811204Y-93426204D03*
%TD*%
D24*
%TO.C,C304*%
X26520000Y-100740000D03*
X27480000Y-100740000D03*
%TD*%
D39*
%TO.C,J401*%
X26556205Y-36496866D03*
X51556205Y-36496866D03*
D40*
X33516205Y-36796866D03*
D41*
X36286205Y-36796866D03*
X39056205Y-36796866D03*
X41826205Y-36796866D03*
X44596205Y-36796866D03*
X34901205Y-33956866D03*
X37671205Y-33956866D03*
X40441205Y-33956866D03*
X43211205Y-33956866D03*
%TD*%
D42*
%TO.C,R308*%
X22590000Y-100750000D03*
X23610000Y-100750000D03*
%TD*%
D43*
%TO.C,D403*%
X37263796Y-55616204D03*
X41263796Y-55616204D03*
%TD*%
D44*
%TO.C,C210*%
X45746535Y-78614087D03*
X45067713Y-79292909D03*
%TD*%
D45*
%TO.C,Q302*%
X40933703Y-85253796D03*
X40933703Y-83353796D03*
X39058703Y-84303796D03*
%TD*%
D46*
%TO.C,R203*%
X31291782Y-63346482D03*
X32013030Y-64067730D03*
%TD*%
D36*
%TO.C,D204*%
X31925000Y-47137500D03*
X31925000Y-48712500D03*
%TD*%
D46*
%TO.C,R202*%
X34087071Y-78042171D03*
X34808319Y-78763419D03*
%TD*%
D21*
%TO.C,C308*%
X65276205Y-103093795D03*
X65276205Y-104053795D03*
%TD*%
D47*
%TO.C,D201*%
X22546296Y-61093796D03*
X22546296Y-62993796D03*
X24421296Y-62043796D03*
%TD*%
D32*
%TO.C,TP404*%
X37567129Y-48983796D03*
%TD*%
D48*
%TO.C,U301*%
X30280000Y-89340000D03*
D49*
X29180000Y-89340000D03*
X28080000Y-89340000D03*
X26980000Y-89340000D03*
X25880000Y-89340000D03*
X24780000Y-89340000D03*
X23680000Y-89340000D03*
X22580000Y-89340000D03*
D48*
X21480000Y-89340000D03*
X21480000Y-98840000D03*
D49*
X22580000Y-98840000D03*
X23680000Y-98840000D03*
X24780000Y-98840000D03*
X25880000Y-98840000D03*
X26980000Y-98840000D03*
X28080000Y-98840000D03*
X29180000Y-98840000D03*
D48*
X30280000Y-98840000D03*
%TD*%
D50*
%TO.C,U601*%
X36089403Y-91393405D03*
X36089403Y-91799805D03*
D51*
X36343403Y-92460205D03*
X36749803Y-92460205D03*
X37156203Y-92460205D03*
D50*
X37410203Y-91799805D03*
X37410203Y-91393405D03*
D51*
X37156203Y-90733005D03*
X36749803Y-90733005D03*
X36343403Y-90733005D03*
%TD*%
D38*
%TO.C,R301*%
X39336204Y-86923796D03*
X39336204Y-87943796D03*
%TD*%
D33*
%TO.C,J801*%
X58300000Y-71200001D03*
D34*
X60840000Y-71200001D03*
X58300000Y-68660001D03*
X60840000Y-68660001D03*
X58300000Y-66120001D03*
X60840000Y-66120001D03*
X58300000Y-63580001D03*
X60840000Y-63580001D03*
X58300000Y-61040001D03*
X60840000Y-61040001D03*
X58300000Y-58500001D03*
X60840000Y-58500001D03*
X58300000Y-55960001D03*
X60840000Y-55960001D03*
X58300000Y-53420001D03*
X60840000Y-53420001D03*
%TD*%
D52*
%TO.C,R408*%
X33550000Y-51850000D03*
X33550000Y-50200000D03*
%TD*%
D53*
%TO.C,C208*%
X26086204Y-63003796D03*
X26086204Y-62043796D03*
%TD*%
%TO.C,C204*%
X30136204Y-72426204D03*
X30136204Y-71466204D03*
%TD*%
D32*
%TO.C,TP401*%
X43903796Y-49093796D03*
%TD*%
%TO.C,TP403*%
X43903796Y-51173796D03*
%TD*%
D54*
%TO.C,U401*%
X47486204Y-46596204D03*
D55*
X41186204Y-44316204D03*
D54*
X47486204Y-42036204D03*
%TD*%
D46*
%TO.C,R201*%
X33328344Y-78800896D03*
X34049592Y-79522144D03*
%TD*%
D56*
%TO.C,R402*%
X33086205Y-92681204D03*
X32066205Y-92681204D03*
%TD*%
D57*
%TO.C,U201*%
X33969315Y-71074977D03*
X34322868Y-71428530D03*
X34676421Y-71782083D03*
X35029975Y-72135637D03*
X35383528Y-72489190D03*
X35737082Y-72842744D03*
X36090635Y-73196297D03*
X36444188Y-73549850D03*
X36797742Y-73903404D03*
X37151295Y-74256957D03*
X37504848Y-74610510D03*
X37858402Y-74964064D03*
X38211955Y-75317617D03*
X38565509Y-75671171D03*
X38919062Y-76024724D03*
X39272615Y-76378277D03*
D58*
X41994977Y-76378277D03*
X42348530Y-76024724D03*
X42702083Y-75671171D03*
X43055637Y-75317617D03*
X43409190Y-74964064D03*
X43762744Y-74610510D03*
X44116297Y-74256957D03*
X44469850Y-73903404D03*
X44823404Y-73549850D03*
X45176957Y-73196297D03*
X45530510Y-72842744D03*
X45884064Y-72489190D03*
X46237617Y-72135637D03*
X46591171Y-71782083D03*
X46944724Y-71428530D03*
X47298277Y-71074977D03*
D57*
X47298277Y-68352615D03*
X46944724Y-67999062D03*
X46591171Y-67645509D03*
X46237617Y-67291955D03*
X45884064Y-66938402D03*
X45530510Y-66584848D03*
X45176957Y-66231295D03*
X44823404Y-65877742D03*
X44469850Y-65524188D03*
X44116297Y-65170635D03*
X43762744Y-64817082D03*
X43409190Y-64463528D03*
X43055637Y-64109975D03*
X42702083Y-63756421D03*
X42348530Y-63402868D03*
X41994977Y-63049315D03*
D58*
X39272615Y-63049315D03*
X38919062Y-63402868D03*
X38565509Y-63756421D03*
X38211955Y-64109975D03*
X37858402Y-64463528D03*
X37504848Y-64817082D03*
X37151295Y-65170635D03*
X36797742Y-65524188D03*
X36444188Y-65877742D03*
X36090635Y-66231295D03*
X35737082Y-66584848D03*
X35383528Y-66938402D03*
X35029975Y-67291955D03*
X34676421Y-67645509D03*
X34322868Y-67999062D03*
X33969315Y-68352615D03*
%TD*%
D42*
%TO.C,R404*%
X45452460Y-48716204D03*
X46472460Y-48716204D03*
%TD*%
D59*
%TO.C,R602*%
X35103796Y-90306205D03*
X35103796Y-89286205D03*
%TD*%
D60*
%TO.C,Y202*%
X29153796Y-78326204D03*
X29153796Y-74626204D03*
%TD*%
D37*
%TO.C,C206*%
X50360589Y-72439411D03*
X51039411Y-71760589D03*
%TD*%
D38*
%TO.C,R302*%
X44846204Y-90063796D03*
X44846204Y-91083796D03*
%TD*%
D43*
%TO.C,D402*%
X50563796Y-48323796D03*
X54563796Y-48323796D03*
%TD*%
D56*
%TO.C,R303*%
X45793796Y-88006204D03*
X44773796Y-88006204D03*
%TD*%
D61*
%TO.C,AE301*%
X21889429Y-104710571D03*
D62*
X20492893Y-106107107D03*
%TD*%
D63*
%TO.C,C405*%
X46042461Y-54283797D03*
X46042461Y-52383797D03*
%TD*%
D64*
%TO.C,J601*%
X39540000Y-103212500D03*
X43940000Y-103212500D03*
D65*
X40140000Y-100562500D03*
X40940000Y-100562500D03*
X41740000Y-100562500D03*
X42540000Y-100562500D03*
X43340000Y-100562500D03*
D66*
X37290000Y-100662500D03*
X46190000Y-100662500D03*
X46190000Y-106162500D03*
X37290000Y-106162500D03*
%TD*%
D32*
%TO.C,TP303*%
X48533704Y-92986204D03*
%TD*%
D21*
%TO.C,C201*%
X30136204Y-69533796D03*
X30136204Y-70493796D03*
%TD*%
D32*
%TO.C,TP405*%
X35375000Y-53750000D03*
%TD*%
D67*
%TO.C,L401*%
X51977450Y-54908797D03*
X51977450Y-51758797D03*
%TD*%
D68*
%TO.C,FB201*%
X36787297Y-80711391D03*
X36101403Y-80025497D03*
%TD*%
D69*
%TO.C,L302*%
X25635000Y-100750000D03*
X24665000Y-100750000D03*
%TD*%
D22*
%TO.C,C209*%
X31292292Y-68120061D03*
X30613470Y-67441239D03*
%TD*%
D32*
%TO.C,TP304*%
X46226205Y-92986204D03*
%TD*%
D38*
%TO.C,R305*%
X38276204Y-86923796D03*
X38276204Y-87943796D03*
%TD*%
D26*
%TO.C,BT301*%
X23730000Y-83420000D03*
X22230000Y-83420000D03*
%TD*%
D28*
%TO.C,C309*%
X62553796Y-92756204D03*
X61593796Y-92756204D03*
%TD*%
D70*
%TO.C,D203*%
X33787500Y-87050000D03*
X32212500Y-87050000D03*
%TD*%
D32*
%TO.C,TP302*%
X33466204Y-96766204D03*
%TD*%
D71*
%TO.C,D301*%
X29926205Y-80846296D03*
X28026205Y-80846296D03*
X28976205Y-82721296D03*
%TD*%
D37*
%TO.C,C212*%
X49660589Y-71639411D03*
X50339411Y-70960589D03*
%TD*%
D24*
%TO.C,C601*%
X36193796Y-89343796D03*
X37153796Y-89343796D03*
%TD*%
D29*
%TO.C,J201*%
X29483055Y-51188202D03*
X23376481Y-55857935D03*
X24813322Y-57294776D03*
D30*
X28136016Y-51637215D03*
X27237991Y-52535241D03*
X26339965Y-53433266D03*
X25441940Y-54331292D03*
X24543914Y-55229317D03*
X25441940Y-56127343D03*
X26339965Y-55229317D03*
X27237991Y-54331292D03*
X28136016Y-53433266D03*
X29034042Y-52535241D03*
%TD*%
D42*
%TO.C,R406*%
X47512461Y-50602583D03*
X48532461Y-50602583D03*
%TD*%
D44*
%TO.C,C211*%
X44923692Y-77791243D03*
X44244870Y-78470065D03*
%TD*%
D24*
%TO.C,C301*%
X22593795Y-86203796D03*
X23553795Y-86203796D03*
%TD*%
D56*
%TO.C,R401*%
X35176205Y-92681204D03*
X34156205Y-92681204D03*
%TD*%
D46*
%TO.C,R703*%
X33157395Y-61560869D03*
X33878643Y-62282117D03*
%TD*%
D32*
%TO.C,TP402*%
X35483796Y-48983796D03*
%TD*%
D72*
%TO.C,U501*%
X22708796Y-42168796D03*
X22708796Y-43438796D03*
X22708796Y-44708796D03*
X22708796Y-45978796D03*
X27658796Y-45978796D03*
X27658796Y-44708796D03*
X27658796Y-43438796D03*
X27658796Y-42168796D03*
%TD*%
D73*
%TO.C,R502*%
X31596204Y-42611296D03*
X31596204Y-45536296D03*
%TD*%
D43*
%TO.C,D404*%
X37263796Y-51923796D03*
X41263796Y-51923796D03*
%TD*%
D23*
%TO.C,R701*%
X48016016Y-62026411D03*
X47294768Y-62747659D03*
%TD*%
D46*
%TO.C,R705*%
X34635349Y-60082915D03*
X35356597Y-60804163D03*
%TD*%
D74*
%TO.C,R205*%
X36990000Y-87045000D03*
X35340000Y-87045000D03*
%TD*%
D53*
%TO.C,C202*%
X31696204Y-78306204D03*
X31696204Y-77346204D03*
%TD*%
D47*
%TO.C,Q301*%
X43148704Y-83353796D03*
X43148704Y-85253796D03*
X45023704Y-84303796D03*
%TD*%
D42*
%TO.C,R304*%
X44773796Y-89060000D03*
X45793796Y-89060000D03*
%TD*%
D74*
%TO.C,R206*%
X28250000Y-47625000D03*
X26600000Y-47625000D03*
%TD*%
D43*
%TO.C,D401*%
X50563796Y-44673796D03*
X54563796Y-44673796D03*
%TD*%
D22*
%TO.C,C216*%
X35494852Y-80976763D03*
X34816030Y-80297941D03*
%TD*%
D29*
%TO.C,J202*%
X33266825Y-57301731D03*
X28956302Y-60175413D03*
X30393143Y-61612254D03*
D30*
X31919787Y-57750744D03*
X32817812Y-58648769D03*
X31021761Y-58648769D03*
X31919787Y-59546795D03*
X30123736Y-59546795D03*
X31021761Y-60444820D03*
%TD*%
D70*
%TO.C,D202*%
X33775000Y-85400000D03*
X32200000Y-85400000D03*
%TD*%
D59*
%TO.C,R601*%
X38233796Y-90306204D03*
X38233796Y-89286204D03*
%TD*%
D42*
%TO.C,R407*%
X45452460Y-50602583D03*
X46472460Y-50602583D03*
%TD*%
D46*
%TO.C,R704*%
X33884466Y-60833798D03*
X34605714Y-61555046D03*
%TD*%
D38*
%TO.C,R405*%
X47624993Y-55927450D03*
X47624993Y-56947450D03*
%TD*%
D53*
%TO.C,C502*%
X20813796Y-44553796D03*
X20813796Y-43593796D03*
%TD*%
D22*
%TO.C,C203*%
X35531271Y-77998041D03*
X34852449Y-77319219D03*
%TD*%
D63*
%TO.C,C402*%
X36453797Y-45266204D03*
X36453797Y-43366204D03*
%TD*%
D74*
%TO.C,R204*%
X36952500Y-85405000D03*
X35302500Y-85405000D03*
%TD*%
D42*
%TO.C,R403*%
X47512461Y-48716204D03*
X48532461Y-48716204D03*
%TD*%
D27*
%TO.C,C401*%
X49793795Y-41796204D03*
X51693795Y-41796204D03*
%TD*%
D22*
%TO.C,C213*%
X43258330Y-61775124D03*
X42579508Y-61096302D03*
%TD*%
D42*
%TO.C,R501*%
X24673796Y-40773796D03*
X25693796Y-40773796D03*
%TD*%
M02*
