%TF.GenerationSoftware,KiCad,Pcbnew,(6.0.9)*%
%TF.CreationDate,2023-01-07T13:44:11-08:00*%
%TF.ProjectId,gd32-devboard,67643332-2d64-4657-9662-6f6172642e6b,rev?*%
%TF.SameCoordinates,Original*%
%TF.FileFunction,Other,Comment*%
%FSLAX46Y46*%
G04 Gerber Fmt 4.6, Leading zero omitted, Abs format (unit mm)*
G04 Created by KiCad (PCBNEW (6.0.9)) date 2023-01-07 13:44:11*
%MOMM*%
%LPD*%
G01*
G04 APERTURE LIST*
%ADD10C,0.070000*%
%ADD11C,0.125000*%
G04 APERTURE END LIST*
D10*
%TO.C,J301*%
X42247155Y-91241890D02*
X41847155Y-91241890D01*
X42247155Y-91013318D02*
X42018583Y-91184747D01*
X41847155Y-91013318D02*
X42075726Y-91241890D01*
X42037631Y-90841890D02*
X42037631Y-90708556D01*
X42247155Y-90651414D02*
X42247155Y-90841890D01*
X41847155Y-90841890D01*
X41847155Y-90651414D01*
X42037631Y-90479985D02*
X42037631Y-90346652D01*
X42247155Y-90289509D02*
X42247155Y-90479985D01*
X41847155Y-90479985D01*
X41847155Y-90289509D01*
X42247155Y-90118080D02*
X41847155Y-90118080D01*
X41847155Y-89965699D01*
X41866203Y-89927604D01*
X41885250Y-89908556D01*
X41923345Y-89889509D01*
X41980488Y-89889509D01*
X42018583Y-89908556D01*
X42037631Y-89927604D01*
X42056679Y-89965699D01*
X42056679Y-90118080D01*
X41847155Y-89641890D02*
X41847155Y-89565699D01*
X41866203Y-89527604D01*
X41904298Y-89489509D01*
X41980488Y-89470461D01*
X42113822Y-89470461D01*
X42190012Y-89489509D01*
X42228107Y-89527604D01*
X42247155Y-89565699D01*
X42247155Y-89641890D01*
X42228107Y-89679985D01*
X42190012Y-89718080D01*
X42113822Y-89737128D01*
X41980488Y-89737128D01*
X41904298Y-89718080D01*
X41866203Y-89679985D01*
X41847155Y-89641890D01*
X41847155Y-89299033D02*
X42170964Y-89299033D01*
X42209060Y-89279985D01*
X42228107Y-89260937D01*
X42247155Y-89222842D01*
X42247155Y-89146652D01*
X42228107Y-89108556D01*
X42209060Y-89089509D01*
X42170964Y-89070461D01*
X41847155Y-89070461D01*
X41847155Y-88937128D02*
X41847155Y-88708556D01*
X42247155Y-88822842D02*
X41847155Y-88822842D01*
D11*
%TO.C,J201*%
X25307421Y-58865697D02*
X25240077Y-58933041D01*
X25223241Y-58983548D01*
X25223241Y-59017220D01*
X25240077Y-59101400D01*
X25290585Y-59185579D01*
X25425272Y-59320266D01*
X25475779Y-59337102D01*
X25509451Y-59337102D01*
X25559959Y-59320266D01*
X25627302Y-59252922D01*
X25644138Y-59202415D01*
X25644138Y-59168743D01*
X25627302Y-59118235D01*
X25543123Y-59034056D01*
X25492615Y-59017220D01*
X25458943Y-59017220D01*
X25408436Y-59034056D01*
X25341092Y-59101400D01*
X25324256Y-59151907D01*
X25324256Y-59185579D01*
X25341092Y-59236087D01*
X25812497Y-59000384D02*
X25846169Y-59000384D01*
X25846169Y-59034056D01*
X25812497Y-59034056D01*
X25812497Y-59000384D01*
X25846169Y-59034056D01*
X25627302Y-58545816D02*
X25846169Y-58326949D01*
X25863004Y-58579487D01*
X25913512Y-58528980D01*
X25964020Y-58512144D01*
X25997691Y-58512144D01*
X26048199Y-58528980D01*
X26132378Y-58613159D01*
X26149214Y-58663667D01*
X26149214Y-58697339D01*
X26132378Y-58747846D01*
X26031363Y-58848861D01*
X25980856Y-58865697D01*
X25947184Y-58865697D01*
X26166050Y-58007068D02*
X25997691Y-58175426D01*
X26149214Y-58360621D01*
X26149214Y-58326949D01*
X26166050Y-58276442D01*
X26250230Y-58192262D01*
X26300737Y-58175426D01*
X26334409Y-58175426D01*
X26384917Y-58192262D01*
X26469096Y-58276442D01*
X26485932Y-58326949D01*
X26485932Y-58360621D01*
X26469096Y-58411129D01*
X26384917Y-58495308D01*
X26334409Y-58512144D01*
X26300737Y-58512144D01*
X26687962Y-58192262D02*
X26452260Y-57956560D01*
X26485932Y-57990232D02*
X26485932Y-57956560D01*
X26502768Y-57906052D01*
X26553275Y-57855545D01*
X26603783Y-57838709D01*
X26654291Y-57855545D01*
X26839485Y-58040739D01*
X26654291Y-57855545D02*
X26637455Y-57805037D01*
X26654291Y-57754529D01*
X26704798Y-57704022D01*
X26755306Y-57687186D01*
X26805814Y-57704022D01*
X26991008Y-57889216D01*
X27159367Y-57720858D02*
X26923665Y-57485155D01*
X26957336Y-57518827D02*
X26957336Y-57485155D01*
X26974172Y-57434648D01*
X27024680Y-57384140D01*
X27075188Y-57367304D01*
X27125695Y-57384140D01*
X27310890Y-57569335D01*
X27125695Y-57384140D02*
X27108859Y-57333633D01*
X27125695Y-57283125D01*
X27176203Y-57232617D01*
X27226710Y-57215781D01*
X27277218Y-57232617D01*
X27462413Y-57417812D01*
X27512920Y-56660198D02*
X27748623Y-56424495D01*
X27866474Y-57013751D01*
X28102176Y-56778049D01*
X28102176Y-56508675D02*
X28371550Y-56239301D01*
X28674596Y-56205629D02*
X28321042Y-55852076D01*
X28876626Y-56003598D02*
X28523073Y-55953091D01*
X28523073Y-55650045D02*
X28523073Y-56054106D01*
X28842954Y-55666881D02*
X28960806Y-55549030D01*
X29196508Y-55683717D02*
X29028149Y-55852076D01*
X28674596Y-55498522D01*
X28842954Y-55330163D01*
X29162836Y-55346999D02*
X29280687Y-55229148D01*
X29516390Y-55363835D02*
X29348031Y-55532194D01*
X28994477Y-55178641D01*
X29162836Y-55010282D01*
X29667912Y-55212312D02*
X29314359Y-54858759D01*
X29449046Y-54724072D01*
X29499554Y-54707236D01*
X29533225Y-54707236D01*
X29583733Y-54724072D01*
X29634241Y-54774579D01*
X29651077Y-54825087D01*
X29651077Y-54858759D01*
X29634241Y-54909266D01*
X29499554Y-55043953D01*
X29735256Y-54437862D02*
X29802599Y-54370518D01*
X29853107Y-54353683D01*
X29920451Y-54353683D01*
X30004630Y-54404190D01*
X30122481Y-54522041D01*
X30172989Y-54606221D01*
X30172989Y-54673564D01*
X30156153Y-54724072D01*
X30088809Y-54791415D01*
X30038302Y-54808251D01*
X29970958Y-54808251D01*
X29886779Y-54757744D01*
X29768928Y-54639892D01*
X29718420Y-54555713D01*
X29718420Y-54488370D01*
X29735256Y-54437862D01*
X30038302Y-54134816D02*
X30324512Y-54421026D01*
X30375019Y-54437862D01*
X30408691Y-54437862D01*
X30459199Y-54421026D01*
X30526542Y-54353683D01*
X30543378Y-54303175D01*
X30543378Y-54269503D01*
X30526542Y-54218996D01*
X30240332Y-53932786D01*
X30358183Y-53814935D02*
X30560214Y-53612904D01*
X30812752Y-54067473D02*
X30459199Y-53713919D01*
D10*
X26041465Y-54885697D02*
X25758622Y-54602854D01*
X26203089Y-54724072D02*
X25920246Y-54683666D01*
X25920246Y-54441230D02*
X25920246Y-54764478D01*
X26176152Y-54454698D02*
X26270433Y-54360417D01*
X26458994Y-54468167D02*
X26324307Y-54602854D01*
X26041465Y-54320011D01*
X26176152Y-54185324D01*
X26432057Y-54198793D02*
X26526338Y-54104512D01*
X26714900Y-54212262D02*
X26580213Y-54346949D01*
X26297370Y-54064106D01*
X26432057Y-53929419D01*
X26836118Y-54091043D02*
X26553275Y-53808201D01*
X26661025Y-53700451D01*
X26701431Y-53686982D01*
X26728368Y-53686982D01*
X26768774Y-53700451D01*
X26809181Y-53740857D01*
X26822649Y-53781263D01*
X26822649Y-53808201D01*
X26809181Y-53848607D01*
X26701431Y-53956356D01*
X26889993Y-53471483D02*
X26943868Y-53417608D01*
X26984274Y-53404140D01*
X27038148Y-53404140D01*
X27105492Y-53444546D01*
X27199773Y-53538827D01*
X27240179Y-53606170D01*
X27240179Y-53660045D01*
X27226710Y-53700451D01*
X27172835Y-53754326D01*
X27132429Y-53767795D01*
X27078555Y-53767795D01*
X27011211Y-53727388D01*
X26916930Y-53633108D01*
X26876524Y-53565764D01*
X26876524Y-53511889D01*
X26889993Y-53471483D01*
X27132429Y-53229047D02*
X27361397Y-53458014D01*
X27401803Y-53471483D01*
X27428741Y-53471483D01*
X27469147Y-53458014D01*
X27523022Y-53404140D01*
X27536490Y-53363734D01*
X27536490Y-53336796D01*
X27523022Y-53296390D01*
X27294054Y-53067422D01*
X27388335Y-52973141D02*
X27549959Y-52811517D01*
X27751990Y-53175172D02*
X27469147Y-52892329D01*
D11*
X21418334Y-54976610D02*
X21350990Y-55043954D01*
X21334154Y-55094461D01*
X21334154Y-55128133D01*
X21350990Y-55212313D01*
X21401498Y-55296492D01*
X21536185Y-55431179D01*
X21586692Y-55448015D01*
X21620364Y-55448015D01*
X21670872Y-55431179D01*
X21738215Y-55363835D01*
X21755051Y-55313328D01*
X21755051Y-55279656D01*
X21738215Y-55229148D01*
X21654036Y-55144969D01*
X21603528Y-55128133D01*
X21569856Y-55128133D01*
X21519349Y-55144969D01*
X21452005Y-55212313D01*
X21435169Y-55262820D01*
X21435169Y-55296492D01*
X21452005Y-55347000D01*
X21923410Y-55111297D02*
X21957082Y-55111297D01*
X21957082Y-55144969D01*
X21923410Y-55144969D01*
X21923410Y-55111297D01*
X21957082Y-55144969D01*
X21738215Y-54656729D02*
X21957082Y-54437862D01*
X21973917Y-54690400D01*
X22024425Y-54639893D01*
X22074933Y-54623057D01*
X22108604Y-54623057D01*
X22159112Y-54639893D01*
X22243291Y-54724072D01*
X22260127Y-54774580D01*
X22260127Y-54808252D01*
X22243291Y-54858759D01*
X22142276Y-54959774D01*
X22091769Y-54976610D01*
X22058097Y-54976610D01*
X22276963Y-54117981D02*
X22108604Y-54286339D01*
X22260127Y-54471534D01*
X22260127Y-54437862D01*
X22276963Y-54387355D01*
X22361143Y-54303175D01*
X22411650Y-54286339D01*
X22445322Y-54286339D01*
X22495830Y-54303175D01*
X22580009Y-54387355D01*
X22596845Y-54437862D01*
X22596845Y-54471534D01*
X22580009Y-54522042D01*
X22495830Y-54606221D01*
X22445322Y-54623057D01*
X22411650Y-54623057D01*
X22798875Y-54303175D02*
X22563173Y-54067473D01*
X22596845Y-54101145D02*
X22596845Y-54067473D01*
X22613681Y-54016965D01*
X22664188Y-53966458D01*
X22714696Y-53949622D01*
X22765204Y-53966458D01*
X22950398Y-54151652D01*
X22765204Y-53966458D02*
X22748368Y-53915950D01*
X22765204Y-53865442D01*
X22815711Y-53814935D01*
X22866219Y-53798099D01*
X22916727Y-53814935D01*
X23101921Y-54000129D01*
X23270280Y-53831771D02*
X23034578Y-53596068D01*
X23068249Y-53629740D02*
X23068249Y-53596068D01*
X23085085Y-53545561D01*
X23135593Y-53495053D01*
X23186101Y-53478217D01*
X23236608Y-53495053D01*
X23421803Y-53680248D01*
X23236608Y-53495053D02*
X23219772Y-53444546D01*
X23236608Y-53394038D01*
X23287116Y-53343530D01*
X23337623Y-53326694D01*
X23388131Y-53343530D01*
X23573326Y-53528725D01*
X23623833Y-52771111D02*
X23859536Y-52535408D01*
X23977387Y-53124664D01*
X24213089Y-52888962D01*
X24213089Y-52619588D02*
X24482463Y-52350214D01*
X24785509Y-52316542D02*
X24431955Y-51962989D01*
X24987539Y-52114511D02*
X24633986Y-52064004D01*
X24633986Y-51760958D02*
X24633986Y-52165019D01*
X24953867Y-51777794D02*
X25071719Y-51659943D01*
X25307421Y-51794630D02*
X25139062Y-51962989D01*
X24785509Y-51609435D01*
X24953867Y-51441076D01*
X25273749Y-51457912D02*
X25391600Y-51340061D01*
X25627303Y-51474748D02*
X25458944Y-51643107D01*
X25105390Y-51289554D01*
X25273749Y-51121195D01*
X25778825Y-51323225D02*
X25425272Y-50969672D01*
X25559959Y-50834985D01*
X25610467Y-50818149D01*
X25644138Y-50818149D01*
X25694646Y-50834985D01*
X25745154Y-50885492D01*
X25761990Y-50936000D01*
X25761990Y-50969672D01*
X25745154Y-51020179D01*
X25610467Y-51154866D01*
X25846169Y-50548775D02*
X25913512Y-50481431D01*
X25964020Y-50464596D01*
X26031364Y-50464596D01*
X26115543Y-50515103D01*
X26233394Y-50632954D01*
X26283902Y-50717134D01*
X26283902Y-50784477D01*
X26267066Y-50834985D01*
X26199722Y-50902328D01*
X26149215Y-50919164D01*
X26081871Y-50919164D01*
X25997692Y-50868657D01*
X25879841Y-50750805D01*
X25829333Y-50666626D01*
X25829333Y-50599283D01*
X25846169Y-50548775D01*
X26149215Y-50245729D02*
X26435425Y-50531939D01*
X26485932Y-50548775D01*
X26519604Y-50548775D01*
X26570112Y-50531939D01*
X26637455Y-50464596D01*
X26654291Y-50414088D01*
X26654291Y-50380416D01*
X26637455Y-50329909D01*
X26351245Y-50043699D01*
X26469096Y-49925848D02*
X26671127Y-49723817D01*
X26923665Y-50178386D02*
X26570112Y-49824832D01*
D10*
%TO.C,J202*%
X30723261Y-60101200D02*
X30440418Y-59818357D01*
X30884885Y-59939575D02*
X30602042Y-59899169D01*
X30602042Y-59656733D02*
X30602042Y-59979981D01*
X30857948Y-59670201D02*
X30952229Y-59575920D01*
X31140790Y-59683670D02*
X31006103Y-59818357D01*
X30723261Y-59535514D01*
X30857948Y-59400827D01*
X31113853Y-59414296D02*
X31208134Y-59320015D01*
X31396696Y-59427765D02*
X31262009Y-59562452D01*
X30979166Y-59279609D01*
X31113853Y-59144922D01*
X31517914Y-59306546D02*
X31235071Y-59023704D01*
X31342821Y-58915954D01*
X31383227Y-58902485D01*
X31410164Y-58902485D01*
X31450570Y-58915954D01*
X31490977Y-58956360D01*
X31504445Y-58996766D01*
X31504445Y-59023704D01*
X31490977Y-59064110D01*
X31383227Y-59171859D01*
X31571789Y-58686986D02*
X31625664Y-58633111D01*
X31666070Y-58619643D01*
X31719944Y-58619643D01*
X31787288Y-58660049D01*
X31881569Y-58754330D01*
X31921975Y-58821673D01*
X31921975Y-58875548D01*
X31908506Y-58915954D01*
X31854631Y-58969829D01*
X31814225Y-58983298D01*
X31760351Y-58983298D01*
X31693007Y-58942891D01*
X31598726Y-58848611D01*
X31558320Y-58781267D01*
X31558320Y-58727392D01*
X31571789Y-58686986D01*
X31814225Y-58444550D02*
X32043193Y-58673517D01*
X32083599Y-58686986D01*
X32110537Y-58686986D01*
X32150943Y-58673517D01*
X32204818Y-58619643D01*
X32218286Y-58579237D01*
X32218286Y-58552299D01*
X32204818Y-58511893D01*
X31975850Y-58282925D01*
X32070131Y-58188644D02*
X32231755Y-58027020D01*
X32433786Y-58390675D02*
X32150943Y-58107832D01*
%TD*%
M02*
