M48
; DRILL file {KiCad (6.0.9)} date Sat 07 Jan 2023 01:44:11 PM PST
; FORMAT={-:-/ absolute / inch / decimal}
; #@! TF.CreationDate,2023-01-07T13:44:11-08:00
; #@! TF.GenerationSoftware,Kicad,Pcbnew,(6.0.9)
; #@! TF.FileFunction,Plated,1,4,PTH
FMAT,2
INCH
; #@! TA.AperFunction,Plated,PTH,ViaDrill
T1C0.0079
; #@! TA.AperFunction,Plated,PTH,ViaDrill
T2C0.0157
; #@! TA.AperFunction,Plated,PTH,ComponentDrill
T3C0.0394
; #@! TA.AperFunction,Plated,PTH,ComponentDrill
T4C0.1260
%
G90
G05
T1
X0.7791Y-3.2917
X0.7866Y-1.7165
X0.7866Y-1.7543
X0.8106Y-2.5161
X0.815Y-2.3937
X0.815Y-2.4173
X0.8386Y-2.4055
X0.8455Y-3.816
X0.8558Y-4.0733
X0.8571Y-3.3937
X0.8591Y-1.9858
X0.8598Y-2.3571
X0.9094Y-3.997
X0.9117Y-4.1282
X0.9126Y-2.8524
X0.9157Y-2.9386
X0.9321Y-3.816
X0.9343Y-2.6178
X0.9437Y-2.1512
X0.9606Y-3.3941
X0.9799Y-2.1169
X0.9902Y-3.9951
X1.0138Y-1.874
X1.027Y-2.4254
X1.0961Y-2.1622
X1.1191Y-3.9656
X1.1283Y-2.1244
X1.1921Y-3.4606
X1.2087Y-2.5173
X1.2165Y-3.185
X1.2181Y-2.7949
X1.2362Y-3.1614
X1.2362Y-3.2087
X1.2386Y-2.6178
X1.248Y-2.9882
X1.248Y-3.0157
X1.2586Y-2.5989
X1.2626Y-3.6878
X1.2646Y-2.2087
X1.2657Y-2.4252
X1.2667Y-3.3113
X1.2705Y-2.4871
X1.2843Y-2.372
X1.2862Y-2.4039
X1.2972Y-3.3113
X1.315Y-2.3756
X1.3209Y-2.0738
X1.3236Y-3.6489
X1.3441Y-2.3461
X1.3465Y-3.1831
X1.3541Y-3.5152
X1.3606Y-1.7329
X1.3606Y-1.7582
X1.3606Y-1.7835
X1.3606Y-1.8088
X1.3606Y-1.8341
X1.3654Y-3.5882
X1.3656Y-2.4632
X1.372Y-2.4996
X1.3786Y-2.9631
X1.3835Y-2.4449
X1.3846Y-3.7177
X1.3862Y-3.0292
X1.3984Y-3.128
X1.4065Y-2.9636
X1.4191Y-2.4109
X1.4217Y-3.2118
X1.435Y-1.6598
X1.4429Y-2.2923
X1.4469Y-3.689
X1.4567Y-3.4636
X1.4697Y-3.3193
X1.4927Y-2.815
X1.5268Y-3.5887
X1.5299Y-1.9272
X1.5506Y-2.778
X1.5636Y-3.0852
X1.565Y-3.1138
X1.5665Y-3.1425
X1.6287Y-2.7031
X1.6352Y-2.6104
X1.6366Y-2.5738
X1.6575Y-2.4242
X1.6591Y-3.0835
X1.6818Y-3.1087
X1.7063Y-3.8771
X1.7067Y-2.375
X1.7173Y-3.5626
X1.7177Y-2.8461
X1.7216Y-2.4136
X1.7445Y-2.8181
X1.7538Y-3.1998
X1.7612Y-2.682
X1.7651Y-2.3215
X1.7811Y-2.3422
X1.7868Y-3.7388
X1.7927Y-3.1404
X1.8064Y-2.3695
X1.8205Y-3.1146
X1.8303Y-3.4646
X1.8303Y-3.5063
X1.8303Y-3.5322
X1.839Y-3.1711
X1.8402Y-3.3898
X1.8412Y-3.0689
X1.8485Y-2.5084
X1.8501Y-2.2421
X1.8504Y-2.2016
X1.8524Y-3.1961
X1.8591Y-2.1007
X1.8701Y-2.5272
X1.8705Y-3.3894
X1.8762Y-2.4222
X1.8804Y-2.1007
X1.885Y-3.7388
X1.8929Y-3.5909
X1.9016Y-2.1007
X1.911Y-1.8862
X1.9189Y-4.0161
X1.9291Y-2.8071
X1.9343Y-2.3184
X1.9579Y-2.2984
X1.9591Y-3.9614
X1.9699Y-2.6336
X1.972Y-2.6591
X1.9729Y-2.5008
X1.9729Y-2.5264
X1.9729Y-2.5547
X1.9729Y-2.5807
X1.9729Y-2.6063
X1.9799Y-2.3201
X1.9945Y-4.1961
X1.9951Y-3.7402
X1.9972Y-3.4539
X2.0004Y-3.5331
X2.0024Y-3.6382
X2.0071Y-2.9819
X2.0079Y-3.3504
X2.0193Y-3.2685
X2.028Y-3.3752
X2.0295Y-2.8445
X2.0398Y-4.1961
X2.0449Y-2.5008
X2.0646Y-2.2906
X2.065Y-2.3768
X2.0713Y-4.1961
X2.0972Y-3.885
X2.0972Y-3.963
X2.098Y-4.0406
X2.102Y-2.3787
X2.1028Y-4.1961
X2.1331Y-2.4685
X2.1343Y-3.4008
X2.1343Y-4.1961
X2.1481Y-2.4934
X2.1489Y-2.606
X2.1508Y-3.8402
X2.1657Y-4.1961
X2.1658Y-3.3787
X2.1661Y-2.7496
X2.1662Y-2.5225
X2.1695Y-2.662
X2.1902Y-2.6825
X2.1909Y-2.7283
X2.1972Y-4.1961
X2.1973Y-3.3539
X2.2Y-2.6055
X2.2165Y-3.1921
X2.2276Y-3.3323
X2.2283Y-4.0941
X2.2287Y-3.8398
X2.2287Y-4.1961
X2.2585Y-3.7181
X2.2602Y-4.1961
X2.2917Y-4.1961
X2.2918Y-3.4697
X2.3067Y-3.8398
X2.3154Y-3.6128
X2.3232Y-4.1961
X2.3406Y-3.6128
X2.3409Y-4.0744
X2.352Y-3.8854
X2.3524Y-3.963
X2.3528Y-2.851
X2.3547Y-4.1961
X2.3563Y-3.6661
X2.3862Y-4.1961
X2.4177Y-4.1961
X2.4252Y-3.722
X2.4331Y-3.5917
X2.463Y-3.7248
X2.5209Y-3.6606
X2.5224Y-4.016
X2.5567Y-3.5964
X2.5622Y-3.6614
X2.5709Y-4.0161
T2
X2.0921Y-1.6457
T3
X1.3195Y-1.3896
X1.3741Y-1.2778
X1.4286Y-1.3896
X1.4831Y-1.2778
X1.5376Y-1.3896
X1.5922Y-1.2778
X1.6467Y-1.3896
X1.7012Y-1.2778
X1.7558Y-1.3896
X2.2953Y-1.5535
X2.2953Y-1.6535
X2.2953Y-1.7535
X2.2953Y-1.8535
X2.2953Y-1.9535
X2.2953Y-2.1031
X2.2953Y-2.2031
X2.2953Y-2.3031
X2.2953Y-2.4031
X2.2953Y-2.5031
X2.2953Y-2.6031
X2.2953Y-2.7031
X2.2953Y-2.8031
X2.3953Y-1.5535
X2.3953Y-1.6535
X2.3953Y-1.7535
X2.3953Y-1.8535
X2.3953Y-1.9535
X2.3953Y-2.1031
X2.3953Y-2.2031
X2.3953Y-2.3031
X2.3953Y-2.4031
X2.3953Y-2.5031
X2.3953Y-2.6031
X2.3953Y-2.7031
X2.3953Y-2.8031
T4
X1.0455Y-1.3778
X2.0298Y-1.3778
T0
M30
