%TF.GenerationSoftware,KiCad,Pcbnew,(6.0.9)*%
%TF.CreationDate,2023-01-07T13:44:11-08:00*%
%TF.ProjectId,gd32-devboard,67643332-2d64-4657-9662-6f6172642e6b,rev?*%
%TF.SameCoordinates,Original*%
%TF.FileFunction,Legend,Bot*%
%TF.FilePolarity,Positive*%
%FSLAX46Y46*%
G04 Gerber Fmt 4.6, Leading zero omitted, Abs format (unit mm)*
G04 Created by KiCad (PCBNEW (6.0.9)) date 2023-01-07 13:44:11*
%MOMM*%
%LPD*%
G01*
G04 APERTURE LIST*
%ADD10C,0.200000*%
%ADD11C,0.990600*%
%ADD12R,1.700000X1.700000*%
%ADD13O,1.700000X1.700000*%
%ADD14C,4.000000*%
%ADD15R,1.600000X1.600000*%
%ADD16C,1.600000*%
%ADD17C,0.900000*%
%ADD18R,1.200000X0.800000*%
%ADD19R,2.000000X1.500000*%
G04 APERTURE END LIST*
D10*
%TO.C,J701*%
X17353604Y-79173996D02*
X17353604Y-77623996D01*
X31803604Y-79173996D02*
X31803604Y-65573996D01*
X17353604Y-79173996D02*
X18303604Y-79173996D01*
X17353604Y-65573996D02*
X18303604Y-65573996D01*
X29303604Y-79173996D02*
X31803604Y-79173996D01*
X17353604Y-67123996D02*
X17353604Y-65573996D01*
X29303604Y-65573996D02*
X31803604Y-65573996D01*
X17353604Y-77623996D02*
G75*
G03*
X17353604Y-67123996I-9038541J5250000D01*
G01*
X21978604Y-68173996D02*
G75*
G03*
X21978604Y-68173996I-100000J0D01*
G01*
%TD*%
%LPC*%
D11*
%TO.C,J301*%
X43082203Y-92543795D03*
X41050203Y-92543795D03*
X42066203Y-87463795D03*
%TD*%
D12*
%TO.C,J901*%
X58300000Y-49620000D03*
D13*
X60840000Y-49620000D03*
X58300000Y-47080000D03*
X60840000Y-47080000D03*
X58300000Y-44540000D03*
X60840000Y-44540000D03*
X58300000Y-42000000D03*
X60840000Y-42000000D03*
X58300000Y-39460000D03*
X60840000Y-39460000D03*
%TD*%
D14*
%TO.C,J401*%
X26556205Y-34996866D03*
X51556205Y-34996866D03*
D15*
X33516205Y-35296866D03*
D16*
X36286205Y-35296866D03*
X39056205Y-35296866D03*
X41826205Y-35296866D03*
X44596205Y-35296866D03*
X34901205Y-32456866D03*
X37671205Y-32456866D03*
X40441205Y-32456866D03*
X43211205Y-32456866D03*
%TD*%
D12*
%TO.C,J801*%
X58300000Y-71200001D03*
D13*
X60840000Y-71200001D03*
X58300000Y-68660001D03*
X60840000Y-68660001D03*
X58300000Y-66120001D03*
X60840000Y-66120001D03*
X58300000Y-63580001D03*
X60840000Y-63580001D03*
X58300000Y-61040001D03*
X60840000Y-61040001D03*
X58300000Y-58500001D03*
X60840000Y-58500001D03*
X58300000Y-55960001D03*
X60840000Y-55960001D03*
X58300000Y-53420001D03*
X60840000Y-53420001D03*
%TD*%
D17*
%TO.C,J601*%
X39540000Y-103212500D03*
X43940000Y-103212500D03*
%TD*%
D11*
%TO.C,J201*%
X29483055Y-51188202D03*
X23376481Y-55857935D03*
X24813322Y-57294776D03*
%TD*%
%TO.C,J202*%
X33266825Y-57301731D03*
X28956302Y-60175413D03*
X30393143Y-61612254D03*
%TD*%
D18*
%TO.C,J701*%
X21953604Y-69148996D03*
X21953604Y-70248996D03*
X21953604Y-71348996D03*
X21953604Y-72448996D03*
X21953604Y-73548996D03*
X21953604Y-74648996D03*
X21953604Y-75748996D03*
X21953604Y-76848996D03*
D19*
X19753604Y-79318996D03*
X27953604Y-79318996D03*
X27953604Y-65428996D03*
X19753604Y-65428996D03*
%TD*%
M02*
