%TF.GenerationSoftware,KiCad,Pcbnew,(6.0.9)*%
%TF.CreationDate,2023-01-07T15:13:03-07:00*%
%TF.ProjectId,gd32-devboard,67643332-2d64-4657-9662-6f6172642e6b,rev?*%
%TF.SameCoordinates,Original*%
%TF.FileFunction,Copper,L1,Top*%
%TF.FilePolarity,Positive*%
%FSLAX46Y46*%
G04 Gerber Fmt 4.6, Leading zero omitted, Abs format (unit mm)*
G04 Created by KiCad (PCBNEW (6.0.9)) date 2023-01-07 15:13:03*
%MOMM*%
%LPD*%
G01*
G04 APERTURE LIST*
G04 Aperture macros list*
%AMRoundRect*
0 Rectangle with rounded corners*
0 $1 Rounding radius*
0 $2 $3 $4 $5 $6 $7 $8 $9 X,Y pos of 4 corners*
0 Add a 4 corners polygon primitive as box body*
4,1,4,$2,$3,$4,$5,$6,$7,$8,$9,$2,$3,0*
0 Add four circle primitives for the rounded corners*
1,1,$1+$1,$2,$3*
1,1,$1+$1,$4,$5*
1,1,$1+$1,$6,$7*
1,1,$1+$1,$8,$9*
0 Add four rect primitives between the rounded corners*
20,1,$1+$1,$2,$3,$4,$5,0*
20,1,$1+$1,$4,$5,$6,$7,0*
20,1,$1+$1,$6,$7,$8,$9,0*
20,1,$1+$1,$8,$9,$2,$3,0*%
%AMRotRect*
0 Rectangle, with rotation*
0 The origin of the aperture is its center*
0 $1 length*
0 $2 width*
0 $3 Rotation angle, in degrees counterclockwise*
0 Add horizontal line*
21,1,$1,$2,0,0,$3*%
%AMFreePoly0*
4,1,15,-0.124998,0.730000,0.725000,0.730000,0.728536,0.728536,0.730000,0.725000,0.730000,-0.725000,0.728536,-0.728536,0.725000,-0.730000,-0.725000,-0.730000,-0.728536,-0.728536,-0.730000,-0.725000,-0.730001,0.125000,-0.728536,0.128536,-0.128536,0.728536,-0.125000,0.730001,-0.124998,0.730000,-0.124998,0.730000,$1*%
%AMFreePoly1*
4,1,19,0.330354,0.790354,0.330500,0.790000,0.330501,0.270000,0.330352,0.269645,0.250500,0.189792,0.250500,-0.189792,0.330354,-0.269646,0.330500,-0.270002,0.330500,-0.790000,0.330354,-0.790354,0.330000,-0.790500,-0.250000,-0.790500,-0.250354,-0.790354,-0.250500,-0.790000,-0.250500,0.790000,-0.250354,0.790354,-0.250000,0.790500,0.330000,0.790500,0.330354,0.790354,0.330354,0.790354,
$1*%
%AMFreePoly2*
4,1,19,0.250354,0.790354,0.250500,0.790000,0.250500,-0.790000,0.250354,-0.790354,0.250000,-0.790500,-0.330000,-0.790500,-0.330354,-0.790354,-0.330500,-0.790000,-0.330501,-0.270000,-0.330354,-0.269646,-0.250500,-0.189793,-0.250500,0.189793,-0.330354,0.269646,-0.330500,0.270002,-0.330500,0.790000,-0.330354,0.790354,-0.330000,0.790500,0.250000,0.790500,0.250354,0.790354,0.250354,0.790354,
$1*%
G04 Aperture macros list end*
%TA.AperFunction,SMDPad,CuDef*%
%ADD10R,0.800000X0.400000*%
%TD*%
%TA.AperFunction,SMDPad,CuDef*%
%ADD11R,0.400000X0.800000*%
%TD*%
%TA.AperFunction,SMDPad,CuDef*%
%ADD12FreePoly0,180.000000*%
%TD*%
%TA.AperFunction,SMDPad,CuDef*%
%ADD13R,1.450000X1.450000*%
%TD*%
%TA.AperFunction,SMDPad,CuDef*%
%ADD14R,0.700000X0.700000*%
%TD*%
%TA.AperFunction,SMDPad,CuDef*%
%ADD15RoundRect,0.140000X-0.170000X0.140000X-0.170000X-0.140000X0.170000X-0.140000X0.170000X0.140000X0*%
%TD*%
%TA.AperFunction,SMDPad,CuDef*%
%ADD16RoundRect,0.140000X0.219203X0.021213X0.021213X0.219203X-0.219203X-0.021213X-0.021213X-0.219203X0*%
%TD*%
%TA.AperFunction,SMDPad,CuDef*%
%ADD17RoundRect,0.135000X-0.035355X0.226274X-0.226274X0.035355X0.035355X-0.226274X0.226274X-0.035355X0*%
%TD*%
%TA.AperFunction,SMDPad,CuDef*%
%ADD18RoundRect,0.140000X-0.140000X-0.170000X0.140000X-0.170000X0.140000X0.170000X-0.140000X0.170000X0*%
%TD*%
%TA.AperFunction,SMDPad,CuDef*%
%ADD19R,1.800000X1.000000*%
%TD*%
%TA.AperFunction,SMDPad,CuDef*%
%ADD20R,0.800000X2.000000*%
%TD*%
%TA.AperFunction,SMDPad,CuDef*%
%ADD21RoundRect,0.250000X-0.250000X-0.475000X0.250000X-0.475000X0.250000X0.475000X-0.250000X0.475000X0*%
%TD*%
%TA.AperFunction,SMDPad,CuDef*%
%ADD22RoundRect,0.140000X0.140000X0.170000X-0.140000X0.170000X-0.140000X-0.170000X0.140000X-0.170000X0*%
%TD*%
%TA.AperFunction,ConnectorPad*%
%ADD23C,0.787400*%
%TD*%
%TA.AperFunction,SMDPad,CuDef*%
%ADD24R,2.000000X1.500000*%
%TD*%
%TA.AperFunction,SMDPad,CuDef*%
%ADD25C,1.000000*%
%TD*%
%TA.AperFunction,ComponentPad*%
%ADD26R,1.700000X1.700000*%
%TD*%
%TA.AperFunction,ComponentPad*%
%ADD27O,1.700000X1.700000*%
%TD*%
%TA.AperFunction,SMDPad,CuDef*%
%ADD28RoundRect,0.150000X-0.150000X0.512500X-0.150000X-0.512500X0.150000X-0.512500X0.150000X0.512500X0*%
%TD*%
%TA.AperFunction,SMDPad,CuDef*%
%ADD29RoundRect,0.218750X-0.256250X0.218750X-0.256250X-0.218750X0.256250X-0.218750X0.256250X0.218750X0*%
%TD*%
%TA.AperFunction,SMDPad,CuDef*%
%ADD30RoundRect,0.140000X0.021213X-0.219203X0.219203X-0.021213X-0.021213X0.219203X-0.219203X0.021213X0*%
%TD*%
%TA.AperFunction,SMDPad,CuDef*%
%ADD31RoundRect,0.135000X-0.185000X0.135000X-0.185000X-0.135000X0.185000X-0.135000X0.185000X0.135000X0*%
%TD*%
%TA.AperFunction,ComponentPad*%
%ADD32C,4.000000*%
%TD*%
%TA.AperFunction,ComponentPad*%
%ADD33R,1.600000X1.600000*%
%TD*%
%TA.AperFunction,ComponentPad*%
%ADD34C,1.600000*%
%TD*%
%TA.AperFunction,SMDPad,CuDef*%
%ADD35RoundRect,0.135000X-0.135000X-0.185000X0.135000X-0.185000X0.135000X0.185000X-0.135000X0.185000X0*%
%TD*%
%TA.AperFunction,SMDPad,CuDef*%
%ADD36R,2.500000X1.800000*%
%TD*%
%TA.AperFunction,SMDPad,CuDef*%
%ADD37RoundRect,0.140000X-0.021213X0.219203X-0.219203X0.021213X0.021213X-0.219203X0.219203X-0.021213X0*%
%TD*%
%TA.AperFunction,SMDPad,CuDef*%
%ADD38RoundRect,0.150000X0.587500X0.150000X-0.587500X0.150000X-0.587500X-0.150000X0.587500X-0.150000X0*%
%TD*%
%TA.AperFunction,SMDPad,CuDef*%
%ADD39RoundRect,0.135000X-0.226274X-0.035355X-0.035355X-0.226274X0.226274X0.035355X0.035355X0.226274X0*%
%TD*%
%TA.AperFunction,SMDPad,CuDef*%
%ADD40RoundRect,0.150000X-0.587500X-0.150000X0.587500X-0.150000X0.587500X0.150000X-0.587500X0.150000X0*%
%TD*%
%TA.AperFunction,SMDPad,CuDef*%
%ADD41RoundRect,0.175000X-0.175000X0.725000X-0.175000X-0.725000X0.175000X-0.725000X0.175000X0.725000X0*%
%TD*%
%TA.AperFunction,SMDPad,CuDef*%
%ADD42RoundRect,0.200000X-0.200000X0.700000X-0.200000X-0.700000X0.200000X-0.700000X0.200000X0.700000X0*%
%TD*%
%TA.AperFunction,SMDPad,CuDef*%
%ADD43R,0.762000X0.254000*%
%TD*%
%TA.AperFunction,SMDPad,CuDef*%
%ADD44R,0.254000X0.762000*%
%TD*%
%TA.AperFunction,SMDPad,CuDef*%
%ADD45RoundRect,0.200000X0.275000X-0.200000X0.275000X0.200000X-0.275000X0.200000X-0.275000X-0.200000X0*%
%TD*%
%TA.AperFunction,SMDPad,CuDef*%
%ADD46RoundRect,0.140000X0.170000X-0.140000X0.170000X0.140000X-0.170000X0.140000X-0.170000X-0.140000X0*%
%TD*%
%TA.AperFunction,SMDPad,CuDef*%
%ADD47R,2.200000X1.200000*%
%TD*%
%TA.AperFunction,SMDPad,CuDef*%
%ADD48R,6.400000X5.800000*%
%TD*%
%TA.AperFunction,SMDPad,CuDef*%
%ADD49RoundRect,0.135000X0.135000X0.185000X-0.135000X0.185000X-0.135000X-0.185000X0.135000X-0.185000X0*%
%TD*%
%TA.AperFunction,SMDPad,CuDef*%
%ADD50RoundRect,0.075000X-0.441942X-0.548008X0.548008X0.441942X0.441942X0.548008X-0.548008X-0.441942X0*%
%TD*%
%TA.AperFunction,SMDPad,CuDef*%
%ADD51RoundRect,0.075000X0.441942X-0.548008X0.548008X-0.441942X-0.441942X0.548008X-0.548008X0.441942X0*%
%TD*%
%TA.AperFunction,SMDPad,CuDef*%
%ADD52RoundRect,0.135000X0.185000X-0.135000X0.185000X0.135000X-0.185000X0.135000X-0.185000X-0.135000X0*%
%TD*%
%TA.AperFunction,SMDPad,CuDef*%
%ADD53R,2.400000X2.000000*%
%TD*%
%TA.AperFunction,SMDPad,CuDef*%
%ADD54RotRect,0.600000X0.550000X135.000000*%
%TD*%
%TA.AperFunction,SMDPad,CuDef*%
%ADD55FreePoly1,135.000000*%
%TD*%
%TA.AperFunction,SMDPad,CuDef*%
%ADD56RotRect,0.500000X0.500000X135.000000*%
%TD*%
%TA.AperFunction,SMDPad,CuDef*%
%ADD57FreePoly2,135.000000*%
%TD*%
%TA.AperFunction,SMDPad,CuDef*%
%ADD58RoundRect,0.250000X0.475000X-0.250000X0.475000X0.250000X-0.475000X0.250000X-0.475000X-0.250000X0*%
%TD*%
%TA.AperFunction,SMDPad,CuDef*%
%ADD59R,0.500000X2.300000*%
%TD*%
%TA.AperFunction,SMDPad,CuDef*%
%ADD60R,2.000000X2.500000*%
%TD*%
%TA.AperFunction,SMDPad,CuDef*%
%ADD61RoundRect,0.250000X0.700000X-0.275000X0.700000X0.275000X-0.700000X0.275000X-0.700000X-0.275000X0*%
%TD*%
%TA.AperFunction,SMDPad,CuDef*%
%ADD62RoundRect,0.147500X0.226274X0.017678X0.017678X0.226274X-0.226274X-0.017678X-0.017678X-0.226274X0*%
%TD*%
%TA.AperFunction,SMDPad,CuDef*%
%ADD63RoundRect,0.147500X0.147500X0.172500X-0.147500X0.172500X-0.147500X-0.172500X0.147500X-0.172500X0*%
%TD*%
%TA.AperFunction,SMDPad,CuDef*%
%ADD64RoundRect,0.218750X0.218750X0.256250X-0.218750X0.256250X-0.218750X-0.256250X0.218750X-0.256250X0*%
%TD*%
%TA.AperFunction,SMDPad,CuDef*%
%ADD65RoundRect,0.150000X-0.150000X0.587500X-0.150000X-0.587500X0.150000X-0.587500X0.150000X0.587500X0*%
%TD*%
%TA.AperFunction,SMDPad,CuDef*%
%ADD66RoundRect,0.150000X-0.825000X-0.150000X0.825000X-0.150000X0.825000X0.150000X-0.825000X0.150000X0*%
%TD*%
%TA.AperFunction,SMDPad,CuDef*%
%ADD67RoundRect,0.250000X-0.625000X0.312500X-0.625000X-0.312500X0.625000X-0.312500X0.625000X0.312500X0*%
%TD*%
%TA.AperFunction,SMDPad,CuDef*%
%ADD68RoundRect,0.200000X0.200000X0.275000X-0.200000X0.275000X-0.200000X-0.275000X0.200000X-0.275000X0*%
%TD*%
%TA.AperFunction,ViaPad*%
%ADD69C,0.450000*%
%TD*%
%TA.AperFunction,ViaPad*%
%ADD70C,0.800000*%
%TD*%
%TA.AperFunction,Conductor*%
%ADD71C,0.305800*%
%TD*%
%TA.AperFunction,Conductor*%
%ADD72C,0.500000*%
%TD*%
%TA.AperFunction,Conductor*%
%ADD73C,1.000000*%
%TD*%
%TA.AperFunction,Conductor*%
%ADD74C,0.200000*%
%TD*%
%TA.AperFunction,Conductor*%
%ADD75C,0.180000*%
%TD*%
G04 APERTURE END LIST*
D10*
%TO.P,U302,1,GND*%
%TO.N,GND*%
X62511204Y-104656204D03*
%TO.P,U302,2,GND*%
X62511204Y-103856204D03*
%TO.P,U302,3,3V3*%
%TO.N,+3V3*%
X62511204Y-103056204D03*
%TO.P,U302,4,NC*%
%TO.N,unconnected-(U302-Pad4)*%
X62511204Y-102256204D03*
%TO.P,U302,5,IO2*%
%TO.N,/Wireless/LORA_MISO*%
X62511204Y-101456204D03*
%TO.P,U302,6,IO3*%
%TO.N,/Wireless/LORA_BUSY*%
X62511204Y-100656204D03*
%TO.P,U302,7,NC*%
%TO.N,unconnected-(U302-Pad7)*%
X62511204Y-99856204D03*
%TO.P,U302,8,EN*%
%TO.N,/Wireless/HCI_EN*%
X62511204Y-99056204D03*
%TO.P,U302,9,NC*%
%TO.N,unconnected-(U302-Pad9)*%
X62511204Y-98256204D03*
%TO.P,U302,10,NC*%
%TO.N,unconnected-(U302-Pad10)*%
X62511204Y-97456204D03*
%TO.P,U302,11,GND*%
%TO.N,GND*%
X62511204Y-96656204D03*
D11*
%TO.P,U302,12,IO0*%
%TO.N,unconnected-(U302-Pad12)*%
X61411204Y-95756204D03*
%TO.P,U302,13,IO1*%
%TO.N,/Wireless/LORA_DIO1*%
X60611204Y-95756204D03*
%TO.P,U302,14,GND*%
%TO.N,GND*%
X59811204Y-95756204D03*
%TO.P,U302,15,NC*%
%TO.N,unconnected-(U302-Pad15)*%
X59011204Y-95756204D03*
%TO.P,U302,16,IO10*%
%TO.N,/Wireless/LORA_NSS*%
X58211204Y-95756204D03*
%TO.P,U302,17,NC*%
%TO.N,unconnected-(U302-Pad17)*%
X57411204Y-95756204D03*
%TO.P,U302,18,IO4*%
%TO.N,/Base/USART2_RX*%
X56611204Y-95756204D03*
%TO.P,U302,19,IO5*%
%TO.N,/Base/USART2_TX*%
X55811204Y-95756204D03*
%TO.P,U302,20,IO6*%
%TO.N,/Wireless/LORA_SCK*%
X55011204Y-95756204D03*
%TO.P,U302,21,IO7*%
%TO.N,/Wireless/LORA_MOSI*%
X54211204Y-95756204D03*
%TO.P,U302,22,IO8*%
%TO.N,/Wireless/IO8*%
X53411204Y-95756204D03*
%TO.P,U302,23,IO9*%
%TO.N,/Wireless/IO9*%
X52611204Y-95756204D03*
%TO.P,U302,24,NC*%
%TO.N,unconnected-(U302-Pad24)*%
X51811204Y-95756204D03*
D10*
%TO.P,U302,25,NC*%
%TO.N,unconnected-(U302-Pad25)*%
X50711204Y-96656204D03*
%TO.P,U302,26,IO18*%
%TO.N,/Base/USART2_CTS*%
X50711204Y-97456204D03*
%TO.P,U302,27,IO19*%
%TO.N,/Base/USART2_RTS*%
X50711204Y-98256204D03*
%TO.P,U302,28,NC*%
%TO.N,unconnected-(U302-Pad28)*%
X50711204Y-99056204D03*
%TO.P,U302,29,NC*%
%TO.N,unconnected-(U302-Pad29)*%
X50711204Y-99856204D03*
%TO.P,U302,30,RXD0*%
%TO.N,/Wireless/PROG_RX*%
X50711204Y-100656204D03*
%TO.P,U302,31,TXD0*%
%TO.N,/Wireless/PROG_TX*%
X50711204Y-101456204D03*
%TO.P,U302,32,NC*%
%TO.N,unconnected-(U302-Pad32)*%
X50711204Y-102256204D03*
%TO.P,U302,33,NC*%
%TO.N,unconnected-(U302-Pad33)*%
X50711204Y-103056204D03*
%TO.P,U302,34,NC*%
%TO.N,unconnected-(U302-Pad34)*%
X50711204Y-103856204D03*
%TO.P,U302,35,NC*%
%TO.N,unconnected-(U302-Pad35)*%
X50711204Y-104656204D03*
D11*
%TO.P,U302,36,GND*%
%TO.N,GND*%
X51811204Y-105556204D03*
%TO.P,U302,37,GND*%
X52611204Y-105556204D03*
%TO.P,U302,38,GND*%
X53411204Y-105556204D03*
%TO.P,U302,39,GND*%
X54211204Y-105556204D03*
%TO.P,U302,40,GND*%
X55011204Y-105556204D03*
%TO.P,U302,41,GND*%
X55811204Y-105556204D03*
%TO.P,U302,42,GND*%
X56611204Y-105556204D03*
%TO.P,U302,43,GND*%
X57411204Y-105556204D03*
%TO.P,U302,44,GND*%
X58211204Y-105556204D03*
%TO.P,U302,45,GND*%
X59011204Y-105556204D03*
%TO.P,U302,46,GND*%
X59811204Y-105556204D03*
%TO.P,U302,47,GND*%
X60611204Y-105556204D03*
%TO.P,U302,48,GND*%
X61411204Y-105556204D03*
D12*
%TO.P,U302,49_1,GND*%
X58586204Y-102631204D03*
D13*
%TO.P,U302,49_2,GND*%
X56611204Y-102631204D03*
%TO.P,U302,49_3,GND*%
X54636204Y-102631204D03*
%TO.P,U302,49_4,GND*%
X54636204Y-100656204D03*
%TO.P,U302,49_5,GND*%
X54636204Y-98681204D03*
%TO.P,U302,49_6,GND*%
X56611204Y-98681204D03*
%TO.P,U302,49_7,GND*%
X58586204Y-98681204D03*
%TO.P,U302,49_8,GND*%
X58586204Y-100656204D03*
%TO.P,U302,49_9,GND*%
X56611204Y-100656204D03*
D14*
%TO.P,U302,50,GND*%
X50661204Y-105606204D03*
%TO.P,U302,51,GND*%
X50661204Y-95706204D03*
%TO.P,U302,52,GND*%
X62561204Y-95706204D03*
%TO.P,U302,53,GND*%
X62561204Y-105606204D03*
%TD*%
D15*
%TO.P,C701,1*%
%TO.N,+3V3*%
X26186204Y-73403796D03*
%TO.P,C701,2*%
%TO.N,GND*%
X26186204Y-74363796D03*
%TD*%
D16*
%TO.P,C207,1*%
%TO.N,/Base/VCAP_2*%
X44480696Y-60552757D03*
%TO.P,C207,2*%
%TO.N,GND*%
X43801874Y-59873935D03*
%TD*%
D17*
%TO.P,R702,1*%
%TO.N,+3V3*%
X48828651Y-62839046D03*
%TO.P,R702,2*%
%TO.N,/Storage/DAT0*%
X48107403Y-63560294D03*
%TD*%
D15*
%TO.P,C205,1*%
%TO.N,/Base/HSI_IN*%
X31706204Y-74223796D03*
%TO.P,C205,2*%
%TO.N,GND*%
X31706204Y-75183796D03*
%TD*%
%TO.P,C306,1*%
%TO.N,+3V3*%
X64076204Y-103093795D03*
%TO.P,C306,2*%
%TO.N,GND*%
X64076204Y-104053795D03*
%TD*%
D18*
%TO.P,C310,1*%
%TO.N,+3V3*%
X61593795Y-93843796D03*
%TO.P,C310,2*%
%TO.N,GND*%
X62553795Y-93843796D03*
%TD*%
D19*
%TO.P,Y201,1,1*%
%TO.N,/Base/RCC_OSC32_OUT*%
X28406204Y-72343796D03*
%TO.P,Y201,2,2*%
%TO.N,/Base/RCC_OSC32_IN*%
X28406204Y-69843796D03*
%TD*%
D20*
%TO.P,BT201,1,+*%
%TO.N,Net-(BT201-Pad1)*%
X22230000Y-65350000D03*
%TO.P,BT201,2,-*%
%TO.N,GND*%
X23730000Y-65350000D03*
%TD*%
D21*
%TO.P,C403,1*%
%TO.N,/Power/USB_VBUS*%
X50527450Y-56965009D03*
%TO.P,C403,2*%
%TO.N,GND*%
X52427450Y-56965009D03*
%TD*%
D22*
%TO.P,C302,1*%
%TO.N,GND*%
X23553795Y-87446204D03*
%TO.P,C302,2*%
%TO.N,+3V3*%
X22593795Y-87446204D03*
%TD*%
D23*
%TO.P,J301,1,Pin_1*%
%TO.N,/Wireless/PROG_DTR*%
X41431203Y-88733795D03*
%TO.P,J301,2,Pin_2*%
%TO.N,unconnected-(J301-Pad2)*%
X42701203Y-88733795D03*
%TO.P,J301,3,Pin_3*%
%TO.N,/Wireless/PROG_RX*%
X41431203Y-90003795D03*
%TO.P,J301,4,Pin_4*%
%TO.N,GND*%
X42701203Y-90003795D03*
%TO.P,J301,5,Pin_5*%
%TO.N,/Wireless/PROG_TX*%
X41431203Y-91273795D03*
%TO.P,J301,6,Pin_6*%
%TO.N,/Wireless/PROG_RTS*%
X42701203Y-91273795D03*
%TD*%
D16*
%TO.P,C215,1*%
%TO.N,+3.3VA*%
X37024517Y-79447098D03*
%TO.P,C215,2*%
%TO.N,GND*%
X36345695Y-78768276D03*
%TD*%
D24*
%TO.P,U304,1,ANT*%
%TO.N,unconnected-(U304-Pad1)*%
X65340000Y-89730000D03*
%TO.P,U304,2,GND*%
%TO.N,GND*%
X65340000Y-87730000D03*
%TO.P,U304,3,VCC*%
%TO.N,+3V3*%
X65340000Y-85730000D03*
%TO.P,U304,4,~{RESET}*%
%TO.N,/Wireless/IO9*%
X65340000Y-83730000D03*
%TO.P,U304,5,TXEN*%
%TO.N,unconnected-(U304-Pad5)*%
X65340000Y-81730000D03*
%TO.P,U304,6,DIO1*%
%TO.N,/Wireless/LORA_DIO1*%
X65340000Y-79730000D03*
%TO.P,U304,7,DIO2*%
%TO.N,/Wireless/LORA_DIO2*%
X65340000Y-77730000D03*
%TO.P,U304,8,DIO3*%
%TO.N,/Wireless/LORA_DIO3*%
X65340000Y-75730000D03*
%TO.P,U304,9,GND*%
%TO.N,GND*%
X49340000Y-75730000D03*
%TO.P,U304,10,BUSY*%
%TO.N,/Wireless/LORA_BUSY*%
X49340000Y-77730000D03*
%TO.P,U304,11,RXEN*%
%TO.N,unconnected-(U304-Pad11)*%
X49340000Y-79730000D03*
%TO.P,U304,12,SCK*%
%TO.N,/Wireless/LORA_SCK*%
X49340000Y-81730000D03*
%TO.P,U304,13,MISO*%
%TO.N,/Wireless/LORA_MISO*%
X49340000Y-83730000D03*
%TO.P,U304,14,MOSI*%
%TO.N,/Wireless/LORA_MOSI*%
X49340000Y-85730000D03*
%TO.P,U304,15,NSS*%
%TO.N,/Wireless/LORA_NSS*%
X49340000Y-87730000D03*
%TO.P,U304,16,GND*%
%TO.N,GND*%
X49340000Y-89730000D03*
%TD*%
D25*
%TO.P,TP301,1,1*%
%TO.N,/Wireless/GPS_SDA*%
X33466205Y-94586204D03*
%TD*%
D26*
%TO.P,J901,1,Pin_1*%
%TO.N,/Base/SPI2_SCK*%
X58300000Y-49620000D03*
D27*
%TO.P,J901,2,Pin_2*%
%TO.N,GND*%
X60840000Y-49620000D03*
%TO.P,J901,3,Pin_3*%
%TO.N,/Base/SPI2_NSS*%
X58300000Y-47080000D03*
%TO.P,J901,4,Pin_4*%
%TO.N,GND*%
X60840000Y-47080000D03*
%TO.P,J901,5,Pin_5*%
%TO.N,/Base/SPI2_INT*%
X58300000Y-44540000D03*
%TO.P,J901,6,Pin_6*%
%TO.N,GND*%
X60840000Y-44540000D03*
%TO.P,J901,7,Pin_7*%
%TO.N,/Base/SPI2_MOSI*%
X58300000Y-42000000D03*
%TO.P,J901,8,Pin_8*%
%TO.N,GND*%
X60840000Y-42000000D03*
%TO.P,J901,9,Pin_9*%
%TO.N,/Base/SPI2_MISO*%
X58300000Y-39460000D03*
%TO.P,J901,10,Pin_10*%
%TO.N,GND*%
X60840000Y-39460000D03*
%TD*%
D28*
%TO.P,U402,1,SW*%
%TO.N,/Power/SW*%
X49842550Y-52196297D03*
%TO.P,U402,2,GND*%
%TO.N,GND*%
X48892550Y-52196297D03*
%TO.P,U402,3,FB*%
%TO.N,/Power/FB*%
X47942550Y-52196297D03*
%TO.P,U402,4,EN*%
%TO.N,/Base/BOOST_EN*%
X47942550Y-54471297D03*
%TO.P,U402,5,VOUT*%
%TO.N,/Power/VOUT*%
X48892550Y-54471297D03*
%TO.P,U402,6,VI*%
%TO.N,/Power/USB_VBUS*%
X49842550Y-54471297D03*
%TD*%
D29*
%TO.P,D405,1,K*%
%TO.N,+3V3*%
X33550000Y-47137500D03*
%TO.P,D405,2,A*%
%TO.N,Net-(D405-Pad2)*%
X33550000Y-48712500D03*
%TD*%
D18*
%TO.P,C303,1*%
%TO.N,GND*%
X25363796Y-86203796D03*
%TO.P,C303,2*%
%TO.N,/Wireless/GPS_VBACKUP*%
X26323796Y-86203796D03*
%TD*%
D30*
%TO.P,C214,1*%
%TO.N,+3V3*%
X32077465Y-67438198D03*
%TO.P,C214,2*%
%TO.N,GND*%
X32756287Y-66759376D03*
%TD*%
D31*
%TO.P,R306,1*%
%TO.N,+3V3*%
X51811204Y-92406204D03*
%TO.P,R306,2*%
%TO.N,/Wireless/IO8*%
X51811204Y-93426204D03*
%TD*%
D18*
%TO.P,C304,1*%
%TO.N,/Wireless/VCC_RF*%
X26520000Y-100740000D03*
%TO.P,C304,2*%
%TO.N,GND*%
X27480000Y-100740000D03*
%TD*%
D32*
%TO.P,J401,0,PAD*%
%TO.N,unconnected-(J401-Pad0)*%
X26556205Y-36496866D03*
X51556205Y-36496866D03*
D33*
%TO.P,J401,1,1*%
%TO.N,unconnected-(J401-Pad1)*%
X33516205Y-36796866D03*
D34*
%TO.P,J401,2,2*%
%TO.N,/CAN/CAN_L*%
X36286205Y-36796866D03*
%TO.P,J401,3,3*%
%TO.N,GND*%
X39056205Y-36796866D03*
%TO.P,J401,4,4*%
%TO.N,unconnected-(J401-Pad4)*%
X41826205Y-36796866D03*
%TO.P,J401,5,5*%
%TO.N,unconnected-(J401-Pad5)*%
X44596205Y-36796866D03*
%TO.P,J401,6,6*%
%TO.N,unconnected-(J401-Pad6)*%
X34901205Y-33956866D03*
%TO.P,J401,7,7*%
%TO.N,/CAN/CAN_H*%
X37671205Y-33956866D03*
%TO.P,J401,8,8*%
%TO.N,unconnected-(J401-Pad8)*%
X40441205Y-33956866D03*
%TO.P,J401,9,9*%
%TO.N,/Power/12VIN*%
X43211205Y-33956866D03*
%TD*%
D35*
%TO.P,R308,1*%
%TO.N,/Wireless/GPS_RF_IN*%
X22590000Y-100750000D03*
%TO.P,R308,2*%
%TO.N,/Wireless/ACT_ANT_IN*%
X23610000Y-100750000D03*
%TD*%
D36*
%TO.P,D403,1,K*%
%TO.N,+12V*%
X37263796Y-55616204D03*
%TO.P,D403,2,A*%
%TO.N,/Power/VOUT*%
X41263796Y-55616204D03*
%TD*%
D37*
%TO.P,C210,1*%
%TO.N,+3V3*%
X45746535Y-78614087D03*
%TO.P,C210,2*%
%TO.N,GND*%
X45067713Y-79292909D03*
%TD*%
D38*
%TO.P,Q302,1,B*%
%TO.N,Net-(Q301-Pad2)*%
X40933703Y-85253796D03*
%TO.P,Q302,2,E*%
%TO.N,Net-(Q301-Pad1)*%
X40933703Y-83353796D03*
%TO.P,Q302,3,C*%
%TO.N,/Wireless/IO9*%
X39058703Y-84303796D03*
%TD*%
D39*
%TO.P,R203,1*%
%TO.N,GND*%
X31291782Y-63346482D03*
%TO.P,R203,2*%
%TO.N,/Base/BOOT0*%
X32013030Y-64067730D03*
%TD*%
D29*
%TO.P,D204,1,K*%
%TO.N,/Base/LED_STATUS_ANODE*%
X31925000Y-47137500D03*
%TO.P,D204,2,A*%
%TO.N,/Base/LED_STATUS*%
X31925000Y-48712500D03*
%TD*%
D39*
%TO.P,R202,1*%
%TO.N,GND*%
X34087071Y-78042171D03*
%TO.P,R202,2*%
%TO.N,/Base/~{RESET}*%
X34808319Y-78763419D03*
%TD*%
D15*
%TO.P,C308,1*%
%TO.N,+3V3*%
X65276205Y-103093795D03*
%TO.P,C308,2*%
%TO.N,GND*%
X65276205Y-104053795D03*
%TD*%
D40*
%TO.P,D201,1*%
%TO.N,+3V3*%
X22546296Y-61093796D03*
%TO.P,D201,2*%
%TO.N,Net-(BT201-Pad1)*%
X22546296Y-62993796D03*
%TO.P,D201,3*%
%TO.N,/Base/VBAT*%
X24421296Y-62043796D03*
%TD*%
D25*
%TO.P,TP404,1,1*%
%TO.N,GND*%
X37567129Y-48983796D03*
%TD*%
D41*
%TO.P,U301,1,GND*%
%TO.N,GND*%
X30280000Y-89340000D03*
D42*
%TO.P,U301,2,TXD*%
%TO.N,/Base/USART3_RX*%
X29180000Y-89340000D03*
%TO.P,U301,3,RXD*%
%TO.N,/Base/USART3_TX*%
X28080000Y-89340000D03*
%TO.P,U301,4,TIMEPULSE*%
%TO.N,/Base/GPS_PPS*%
X26980000Y-89340000D03*
%TO.P,U301,5,EXTINT*%
%TO.N,unconnected-(U301-Pad5)*%
X25880000Y-89340000D03*
%TO.P,U301,6,V_BCKP*%
%TO.N,/Wireless/GPS_VBACKUP*%
X24780000Y-89340000D03*
%TO.P,U301,7,VCC_IO*%
%TO.N,unconnected-(U301-Pad7)*%
X23680000Y-89340000D03*
%TO.P,U301,8,VCC*%
%TO.N,+3V3*%
X22580000Y-89340000D03*
D41*
%TO.P,U301,9,~{RESET}*%
%TO.N,/Base/~{GPS_RESET}*%
X21480000Y-89340000D03*
%TO.P,U301,10,GND*%
%TO.N,GND*%
X21480000Y-98840000D03*
D42*
%TO.P,U301,11,RF_IN*%
%TO.N,/Wireless/GPS_RF_IN*%
X22580000Y-98840000D03*
%TO.P,U301,12,GND*%
%TO.N,GND*%
X23680000Y-98840000D03*
%TO.P,U301,13,LNA_EN*%
%TO.N,unconnected-(U301-Pad13)*%
X24780000Y-98840000D03*
%TO.P,U301,14,VCC_RF*%
%TO.N,/Wireless/VCC_RF*%
X25880000Y-98840000D03*
%TO.P,U301,15,Reserved*%
%TO.N,unconnected-(U301-Pad15)*%
X26980000Y-98840000D03*
%TO.P,U301,16,SDA*%
%TO.N,/Wireless/GPS_SDA*%
X28080000Y-98840000D03*
%TO.P,U301,17,SCL*%
%TO.N,/Wireless/GPS_SCL*%
X29180000Y-98840000D03*
D41*
%TO.P,U301,18,~{SAFEBOOT}*%
%TO.N,unconnected-(U301-Pad18)*%
X30280000Y-98840000D03*
%TD*%
D43*
%TO.P,U601,1,D1+*%
%TO.N,/Base/USB_DM*%
X36089403Y-91393405D03*
%TO.P,U601,2,D2+*%
%TO.N,/USB/D2_M*%
X36089403Y-91799805D03*
D44*
%TO.P,U601,3,D+*%
%TO.N,/USB/USB_CON_DM*%
X36343403Y-92460205D03*
%TO.P,U601,4,GND*%
%TO.N,/USB/USB_ESD_GND*%
X36749803Y-92460205D03*
%TO.P,U601,5,D-*%
%TO.N,/USB/USB_CON_DP*%
X37156203Y-92460205D03*
D43*
%TO.P,U601,6,D2-*%
%TO.N,/USB/D2_P*%
X37410203Y-91799805D03*
%TO.P,U601,7,D1-*%
%TO.N,/Base/USB_DP*%
X37410203Y-91393405D03*
D44*
%TO.P,U601,8,~OE*%
%TO.N,/USB/DEN*%
X37156203Y-90733005D03*
%TO.P,U601,9,VCC*%
%TO.N,/USB/USB_ESD_VCC*%
X36749803Y-90733005D03*
%TO.P,U601,10,S*%
%TO.N,/USB/DSEL*%
X36343403Y-90733005D03*
%TD*%
D31*
%TO.P,R301,1*%
%TO.N,Net-(Q301-Pad1)*%
X39336204Y-86923796D03*
%TO.P,R301,2*%
%TO.N,/Wireless/PROG_DTR*%
X39336204Y-87943796D03*
%TD*%
D26*
%TO.P,J801,1,Pin_1*%
%TO.N,/Base/USART1_RX*%
X58300000Y-71200001D03*
D27*
%TO.P,J801,2,Pin_2*%
%TO.N,/Base/USART1_TX*%
X60840000Y-71200001D03*
%TO.P,J801,3,Pin_3*%
%TO.N,/Base/SPI1_INT*%
X58300000Y-68660001D03*
%TO.P,J801,4,Pin_4*%
%TO.N,GND*%
X60840000Y-68660001D03*
%TO.P,J801,5,Pin_5*%
%TO.N,/Base/BOOT1*%
X58300000Y-66120001D03*
%TO.P,J801,6,Pin_6*%
%TO.N,GND*%
X60840000Y-66120001D03*
%TO.P,J801,7,Pin_7*%
%TO.N,/Base/SPI1_IO1*%
X58300000Y-63580001D03*
%TO.P,J801,8,Pin_8*%
%TO.N,GND*%
X60840000Y-63580001D03*
%TO.P,J801,9,Pin_9*%
%TO.N,/Base/SPI1_NSS*%
X58300000Y-61040001D03*
%TO.P,J801,10,Pin_10*%
%TO.N,GND*%
X60840000Y-61040001D03*
%TO.P,J801,11,Pin_11*%
%TO.N,/Base/SPI1_MISO*%
X58300000Y-58500001D03*
%TO.P,J801,12,Pin_12*%
%TO.N,GND*%
X60840000Y-58500001D03*
%TO.P,J801,13,Pin_13*%
%TO.N,/Base/SPI1_MOSI*%
X58300000Y-55960001D03*
%TO.P,J801,14,Pin_14*%
%TO.N,GND*%
X60840000Y-55960001D03*
%TO.P,J801,15,Pin_15*%
%TO.N,/Base/SPI1_SCK*%
X58300000Y-53420001D03*
%TO.P,J801,16,Pin_16*%
%TO.N,GND*%
X60840000Y-53420001D03*
%TD*%
D45*
%TO.P,R408,1*%
%TO.N,GND*%
X33550000Y-51850000D03*
%TO.P,R408,2*%
%TO.N,Net-(D405-Pad2)*%
X33550000Y-50200000D03*
%TD*%
D46*
%TO.P,C208,1*%
%TO.N,/Base/VBAT*%
X26086204Y-63003796D03*
%TO.P,C208,2*%
%TO.N,GND*%
X26086204Y-62043796D03*
%TD*%
%TO.P,C204,1*%
%TO.N,/Base/RCC_OSC32_OUT*%
X30136204Y-72426204D03*
%TO.P,C204,2*%
%TO.N,GND*%
X30136204Y-71466204D03*
%TD*%
D25*
%TO.P,TP401,1,1*%
%TO.N,/Power/VIN*%
X43903796Y-49093796D03*
%TD*%
%TO.P,TP403,1,1*%
%TO.N,/Power/VOUT*%
X43903796Y-51173796D03*
%TD*%
D47*
%TO.P,U401,1,ADJ*%
%TO.N,/Power/ADJ*%
X47486204Y-46596204D03*
D48*
%TO.P,U401,2,VO*%
%TO.N,+3V3*%
X41186204Y-44316204D03*
D47*
%TO.P,U401,3,VI*%
%TO.N,/Power/VIN*%
X47486204Y-42036204D03*
%TD*%
D39*
%TO.P,R201,1*%
%TO.N,+3V3*%
X33328344Y-78800896D03*
%TO.P,R201,2*%
%TO.N,/Base/~{RESET}*%
X34049592Y-79522144D03*
%TD*%
D49*
%TO.P,R402,1*%
%TO.N,/Base/USB_VBUS*%
X33086205Y-92681204D03*
%TO.P,R402,2*%
%TO.N,GND*%
X32066205Y-92681204D03*
%TD*%
D50*
%TO.P,U201,1,VBAT*%
%TO.N,/Base/VBAT*%
X33969315Y-71074977D03*
%TO.P,U201,2,PC13*%
%TO.N,unconnected-(U201-Pad2)*%
X34322868Y-71428530D03*
%TO.P,U201,3,PC14*%
%TO.N,/Base/RCC_OSC32_IN*%
X34676421Y-71782083D03*
%TO.P,U201,4,PC15*%
%TO.N,/Base/RCC_OSC32_OUT*%
X35029975Y-72135637D03*
%TO.P,U201,5,PH0*%
%TO.N,/Base/HSI_IN*%
X35383528Y-72489190D03*
%TO.P,U201,6,PH1*%
%TO.N,/Base/HSI_OUT*%
X35737082Y-72842744D03*
%TO.P,U201,7,NRST*%
%TO.N,/Base/~{RESET}*%
X36090635Y-73196297D03*
%TO.P,U201,8,PC0*%
%TO.N,/Base/LED_ACT*%
X36444188Y-73549850D03*
%TO.P,U201,9,PC1*%
%TO.N,/Base/LED_LINK*%
X36797742Y-73903404D03*
%TO.P,U201,10,PC2*%
%TO.N,/Base/SPI2_MISO*%
X37151295Y-74256957D03*
%TO.P,U201,11,PC3*%
%TO.N,/Base/SPI2_MOSI*%
X37504848Y-74610510D03*
%TO.P,U201,12,VSSA*%
%TO.N,GND*%
X37858402Y-74964064D03*
%TO.P,U201,13,VDDA*%
%TO.N,+3.3VA*%
X38211955Y-75317617D03*
%TO.P,U201,14,PA0*%
%TO.N,/Base/USART2_CTS*%
X38565509Y-75671171D03*
%TO.P,U201,15,PA1*%
%TO.N,/Base/USART2_RTS*%
X38919062Y-76024724D03*
%TO.P,U201,16,PA2*%
%TO.N,/Base/USART2_TX*%
X39272615Y-76378277D03*
D51*
%TO.P,U201,17,PA3*%
%TO.N,/Base/USART2_RX*%
X41994977Y-76378277D03*
%TO.P,U201,18,VSS*%
%TO.N,GND*%
X42348530Y-76024724D03*
%TO.P,U201,19,VDD*%
%TO.N,+3V3*%
X42702083Y-75671171D03*
%TO.P,U201,20,PA4*%
%TO.N,/Base/SPI1_NSS*%
X43055637Y-75317617D03*
%TO.P,U201,21,PA5*%
%TO.N,/Base/SPI1_SCK*%
X43409190Y-74964064D03*
%TO.P,U201,22,PA6*%
%TO.N,/Base/SPI1_MISO*%
X43762744Y-74610510D03*
%TO.P,U201,23,PA7*%
%TO.N,/Base/SPI1_MOSI*%
X44116297Y-74256957D03*
%TO.P,U201,24,PC4*%
%TO.N,/Base/CAN_STBY*%
X44469850Y-73903404D03*
%TO.P,U201,25,PC5*%
%TO.N,/Base/SPI1_IO1*%
X44823404Y-73549850D03*
%TO.P,U201,26,PB0*%
%TO.N,unconnected-(U201-Pad26)*%
X45176957Y-73196297D03*
%TO.P,U201,27,PB1*%
%TO.N,/Base/BOOT1*%
X45530510Y-72842744D03*
%TO.P,U201,28,PB2*%
%TO.N,unconnected-(U201-Pad28)*%
X45884064Y-72489190D03*
%TO.P,U201,29,PB10*%
%TO.N,/Base/USART3_TX*%
X46237617Y-72135637D03*
%TO.P,U201,30,PB11*%
%TO.N,/Base/USART3_RX*%
X46591171Y-71782083D03*
%TO.P,U201,31,VCAP_1*%
%TO.N,/Base/VCAP_1*%
X46944724Y-71428530D03*
%TO.P,U201,32,VDD*%
%TO.N,+3V3*%
X47298277Y-71074977D03*
D50*
%TO.P,U201,33,PB12*%
%TO.N,/Base/SPI2_NSS*%
X47298277Y-68352615D03*
%TO.P,U201,34,PB13*%
%TO.N,/Base/SPI2_SCK*%
X46944724Y-67999062D03*
%TO.P,U201,35,PB14*%
%TO.N,/Base/SPI2_INT*%
X46591171Y-67645509D03*
%TO.P,U201,36,PB15*%
%TO.N,unconnected-(U201-Pad36)*%
X46237617Y-67291955D03*
%TO.P,U201,37,PC6*%
%TO.N,/Base/BOOST_EN*%
X45884064Y-66938402D03*
%TO.P,U201,38,PC7*%
%TO.N,/Base/GPS_PPS*%
X45530510Y-66584848D03*
%TO.P,U201,39,PC8*%
%TO.N,/Storage/DAT0*%
X45176957Y-66231295D03*
%TO.P,U201,40,PC9*%
%TO.N,/Storage/DAT1*%
X44823404Y-65877742D03*
%TO.P,U201,41,PA8*%
%TO.N,/Base/SPI1_INT*%
X44469850Y-65524188D03*
%TO.P,U201,42,PA9*%
%TO.N,/Base/USB_VBUS*%
X44116297Y-65170635D03*
%TO.P,U201,43,PA10*%
%TO.N,/Base/USART1_RX*%
X43762744Y-64817082D03*
%TO.P,U201,44,PA11*%
%TO.N,/Base/USB_DM*%
X43409190Y-64463528D03*
%TO.P,U201,45,PA12*%
%TO.N,/Base/USB_DP*%
X43055637Y-64109975D03*
%TO.P,U201,46,PA13*%
%TO.N,/Base/JTMS*%
X42702083Y-63756421D03*
%TO.P,U201,47,VCAP_2*%
%TO.N,/Base/VCAP_2*%
X42348530Y-63402868D03*
%TO.P,U201,48,VDD*%
%TO.N,+3V3*%
X41994977Y-63049315D03*
D51*
%TO.P,U201,49,PA14*%
%TO.N,/Base/JTCK*%
X39272615Y-63049315D03*
%TO.P,U201,50,PA15*%
%TO.N,/Base/JTDI*%
X38919062Y-63402868D03*
%TO.P,U201,51,PC10*%
%TO.N,/Storage/DAT2*%
X38565509Y-63756421D03*
%TO.P,U201,52,PC11*%
%TO.N,/Storage/DAT3*%
X38211955Y-64109975D03*
%TO.P,U201,53,PC12*%
%TO.N,/Storage/CLK*%
X37858402Y-64463528D03*
%TO.P,U201,54,PD2*%
%TO.N,/Storage/CMD*%
X37504848Y-64817082D03*
%TO.P,U201,55,PB3*%
%TO.N,/Base/JTDO*%
X37151295Y-65170635D03*
%TO.P,U201,56,PB4*%
%TO.N,/Base/JTRST*%
X36797742Y-65524188D03*
%TO.P,U201,57,PB5*%
%TO.N,/Base/LED_STATUS*%
X36444188Y-65877742D03*
%TO.P,U201,58,PB6*%
%TO.N,/Base/USART1_TX*%
X36090635Y-66231295D03*
%TO.P,U201,59,PB7*%
%TO.N,/Base/~{GPS_RESET}*%
X35737082Y-66584848D03*
%TO.P,U201,60,BOOT0*%
%TO.N,/Base/BOOT0*%
X35383528Y-66938402D03*
%TO.P,U201,61,PB8*%
%TO.N,/Base/CAN1_RX*%
X35029975Y-67291955D03*
%TO.P,U201,62,PB9*%
%TO.N,/Base/CAN1_TX*%
X34676421Y-67645509D03*
%TO.P,U201,63,VSS*%
%TO.N,GND*%
X34322868Y-67999062D03*
%TO.P,U201,64,VDD*%
%TO.N,+3V3*%
X33969315Y-68352615D03*
%TD*%
D35*
%TO.P,R404,1*%
%TO.N,+3V3*%
X45452460Y-48716204D03*
%TO.P,R404,2*%
%TO.N,/Power/ADJ*%
X46472460Y-48716204D03*
%TD*%
D52*
%TO.P,R602,1*%
%TO.N,/USB/DSEL*%
X35103796Y-90306205D03*
%TO.P,R602,2*%
%TO.N,GND*%
X35103796Y-89286205D03*
%TD*%
D53*
%TO.P,Y202,1,1*%
%TO.N,/Base/HSI_OUT*%
X29153796Y-78326204D03*
%TO.P,Y202,2,2*%
%TO.N,/Base/HSI_IN*%
X29153796Y-74626204D03*
%TD*%
D30*
%TO.P,C206,1*%
%TO.N,/Base/VCAP_1*%
X50360589Y-72439411D03*
%TO.P,C206,2*%
%TO.N,GND*%
X51039411Y-71760589D03*
%TD*%
D31*
%TO.P,R302,1*%
%TO.N,Net-(Q301-Pad2)*%
X44846204Y-90063796D03*
%TO.P,R302,2*%
%TO.N,/Wireless/PROG_RTS*%
X44846204Y-91083796D03*
%TD*%
D36*
%TO.P,D402,1,K*%
%TO.N,/Power/VIN*%
X50563796Y-48323796D03*
%TO.P,D402,2,A*%
%TO.N,/Power/USB_VBUS*%
X54563796Y-48323796D03*
%TD*%
D49*
%TO.P,R303,1*%
%TO.N,+3V3*%
X45793796Y-88006204D03*
%TO.P,R303,2*%
%TO.N,/Wireless/HCI_EN*%
X44773796Y-88006204D03*
%TD*%
D54*
%TO.P,AE301,1*%
%TO.N,/Wireless/ACT_ANT_IN*%
X21889429Y-104710571D03*
D55*
%TO.P,AE301,G1*%
%TO.N,GND*%
X21907107Y-106107107D03*
D56*
%TO.P,AE301,G2*%
X20492893Y-106107107D03*
D57*
%TO.P,AE301,G3*%
X20492893Y-104692893D03*
%TD*%
D58*
%TO.P,C405,1*%
%TO.N,/Power/VOUT*%
X46042461Y-54283797D03*
%TO.P,C405,2*%
%TO.N,GND*%
X46042461Y-52383797D03*
%TD*%
D59*
%TO.P,J601,1,VBUS*%
%TO.N,/Power/USB_VBUS*%
X40140000Y-100562500D03*
%TO.P,J601,2,D-*%
%TO.N,/USB/USB_CON_DM*%
X40940000Y-100562500D03*
%TO.P,J601,3,D+*%
%TO.N,/USB/USB_CON_DP*%
X41740000Y-100562500D03*
%TO.P,J601,4,ID*%
%TO.N,unconnected-(J601-Pad4)*%
X42540000Y-100562500D03*
%TO.P,J601,5,GND*%
%TO.N,GND*%
X43340000Y-100562500D03*
D60*
%TO.P,J601,S1,Shield*%
%TO.N,unconnected-(J601-PadS1)*%
X37290000Y-100662500D03*
%TO.P,J601,S2,Shield*%
X46190000Y-100662500D03*
%TO.P,J601,S3,Shield*%
X46190000Y-106162500D03*
%TO.P,J601,S4,Shield*%
X37290000Y-106162500D03*
%TD*%
D25*
%TO.P,TP303,1,1*%
%TO.N,/Wireless/IO8*%
X48533704Y-92986204D03*
%TD*%
D15*
%TO.P,C201,1*%
%TO.N,/Base/RCC_OSC32_IN*%
X30136204Y-69533796D03*
%TO.P,C201,2*%
%TO.N,GND*%
X30136204Y-70493796D03*
%TD*%
D25*
%TO.P,TP405,1,1*%
%TO.N,+12V*%
X35375000Y-53750000D03*
%TD*%
D61*
%TO.P,L401,1*%
%TO.N,/Power/USB_VBUS*%
X51977450Y-54908797D03*
%TO.P,L401,2*%
%TO.N,/Power/SW*%
X51977450Y-51758797D03*
%TD*%
D62*
%TO.P,FB201,1*%
%TO.N,+3.3VA*%
X36787297Y-80711391D03*
%TO.P,FB201,2*%
%TO.N,+3V3*%
X36101403Y-80025497D03*
%TD*%
D63*
%TO.P,L302,1*%
%TO.N,/Wireless/VCC_RF*%
X25635000Y-100750000D03*
%TO.P,L302,2*%
%TO.N,/Wireless/ACT_ANT_IN*%
X24665000Y-100750000D03*
%TD*%
D16*
%TO.P,C209,1*%
%TO.N,/Base/VBAT*%
X31292292Y-68120061D03*
%TO.P,C209,2*%
%TO.N,GND*%
X30613470Y-67441239D03*
%TD*%
D25*
%TO.P,TP304,1,1*%
%TO.N,/Wireless/IO9*%
X46226205Y-92986204D03*
%TD*%
D31*
%TO.P,R305,1*%
%TO.N,/Wireless/IO9*%
X38276204Y-86923796D03*
%TO.P,R305,2*%
%TO.N,GND*%
X38276204Y-87943796D03*
%TD*%
D20*
%TO.P,BT301,1,+*%
%TO.N,Net-(BT301-Pad1)*%
X23730000Y-83420000D03*
%TO.P,BT301,2,-*%
%TO.N,GND*%
X22230000Y-83420000D03*
%TD*%
D22*
%TO.P,C309,1*%
%TO.N,GND*%
X62553796Y-92756204D03*
%TO.P,C309,2*%
%TO.N,+3V3*%
X61593796Y-92756204D03*
%TD*%
D64*
%TO.P,D203,1,K*%
%TO.N,/Base/LED_LINK_ANODE*%
X33787500Y-87050000D03*
%TO.P,D203,2,A*%
%TO.N,/Base/LED_LINK*%
X32212500Y-87050000D03*
%TD*%
D25*
%TO.P,TP302,1,1*%
%TO.N,/Wireless/GPS_SCL*%
X33466204Y-96766204D03*
%TD*%
D65*
%TO.P,D301,1*%
%TO.N,+3V3*%
X29926205Y-80846296D03*
%TO.P,D301,2*%
%TO.N,Net-(BT301-Pad1)*%
X28026205Y-80846296D03*
%TO.P,D301,3*%
%TO.N,/Wireless/GPS_VBACKUP*%
X28976205Y-82721296D03*
%TD*%
D30*
%TO.P,C212,1*%
%TO.N,+3V3*%
X49660589Y-71639411D03*
%TO.P,C212,2*%
%TO.N,GND*%
X50339411Y-70960589D03*
%TD*%
D18*
%TO.P,C601,1*%
%TO.N,/USB/USB_ESD_VCC*%
X36193796Y-89343796D03*
%TO.P,C601,2*%
%TO.N,GND*%
X37153796Y-89343796D03*
%TD*%
D23*
%TO.P,J201,1,Pin_1*%
%TO.N,unconnected-(J201-Pad1)*%
X28136016Y-51637215D03*
%TO.P,J201,2,Pin_2*%
%TO.N,/Base/JTDO*%
X27237991Y-52535241D03*
%TO.P,J201,3,Pin_3*%
%TO.N,/Base/JTMS*%
X26339965Y-53433266D03*
%TO.P,J201,4,Pin_4*%
%TO.N,GND*%
X25441940Y-54331292D03*
%TO.P,J201,5,Pin_5*%
X24543914Y-55229317D03*
%TO.P,J201,6,Pin_6*%
%TO.N,/Base/JTDI*%
X25441940Y-56127343D03*
%TO.P,J201,7,Pin_7*%
%TO.N,/Base/JTCK*%
X26339965Y-55229317D03*
%TO.P,J201,8,Pin_8*%
%TO.N,GND*%
X27237991Y-54331292D03*
%TO.P,J201,9,Pin_9*%
X28136016Y-53433266D03*
%TO.P,J201,10,Pin_10*%
%TO.N,unconnected-(J201-Pad10)*%
X29034042Y-52535241D03*
%TD*%
D35*
%TO.P,R406,1*%
%TO.N,/Power/FB*%
X47512461Y-50602583D03*
%TO.P,R406,2*%
%TO.N,GND*%
X48532461Y-50602583D03*
%TD*%
D37*
%TO.P,C211,1*%
%TO.N,+3V3*%
X44923692Y-77791243D03*
%TO.P,C211,2*%
%TO.N,GND*%
X44244870Y-78470065D03*
%TD*%
D18*
%TO.P,C301,1*%
%TO.N,+3V3*%
X22593795Y-86203796D03*
%TO.P,C301,2*%
%TO.N,GND*%
X23553795Y-86203796D03*
%TD*%
D49*
%TO.P,R401,1*%
%TO.N,/Power/USB_VBUS*%
X35176205Y-92681204D03*
%TO.P,R401,2*%
%TO.N,/Base/USB_VBUS*%
X34156205Y-92681204D03*
%TD*%
D39*
%TO.P,R703,1*%
%TO.N,+3V3*%
X33157395Y-61560869D03*
%TO.P,R703,2*%
%TO.N,/Storage/CMD*%
X33878643Y-62282117D03*
%TD*%
D25*
%TO.P,TP402,1,1*%
%TO.N,+3V3*%
X35483796Y-48983796D03*
%TD*%
D66*
%TO.P,U501,1,TXD*%
%TO.N,/Base/CAN1_TX*%
X22708796Y-42168796D03*
%TO.P,U501,2,GND*%
%TO.N,GND*%
X22708796Y-43438796D03*
%TO.P,U501,3,VCC*%
%TO.N,+3V3*%
X22708796Y-44708796D03*
%TO.P,U501,4,RXD*%
%TO.N,/Base/CAN1_RX*%
X22708796Y-45978796D03*
%TO.P,U501,5,VREF*%
%TO.N,unconnected-(U501-Pad5)*%
X27658796Y-45978796D03*
%TO.P,U501,6,CANL*%
%TO.N,/CAN/CAN_L*%
X27658796Y-44708796D03*
%TO.P,U501,7,CANH*%
%TO.N,/CAN/CAN_H*%
X27658796Y-43438796D03*
%TO.P,U501,8,S*%
%TO.N,/Base/CAN_STBY*%
X27658796Y-42168796D03*
%TD*%
D67*
%TO.P,R502,1*%
%TO.N,/CAN/CAN_H*%
X31596204Y-42611296D03*
%TO.P,R502,2*%
%TO.N,/CAN/CAN_L*%
X31596204Y-45536296D03*
%TD*%
D36*
%TO.P,D404,1,K*%
%TO.N,+12V*%
X37263796Y-51923796D03*
%TO.P,D404,2,A*%
%TO.N,/Power/VIN*%
X41263796Y-51923796D03*
%TD*%
D17*
%TO.P,R701,1*%
%TO.N,+3V3*%
X48016016Y-62026411D03*
%TO.P,R701,2*%
%TO.N,/Storage/DAT1*%
X47294768Y-62747659D03*
%TD*%
D39*
%TO.P,R705,1*%
%TO.N,+3V3*%
X34635349Y-60082915D03*
%TO.P,R705,2*%
%TO.N,/Storage/DAT2*%
X35356597Y-60804163D03*
%TD*%
D68*
%TO.P,R205,1*%
%TO.N,+3V3*%
X36990000Y-87045000D03*
%TO.P,R205,2*%
%TO.N,/Base/LED_LINK_ANODE*%
X35340000Y-87045000D03*
%TD*%
D46*
%TO.P,C202,1*%
%TO.N,/Base/HSI_OUT*%
X31696204Y-78306204D03*
%TO.P,C202,2*%
%TO.N,GND*%
X31696204Y-77346204D03*
%TD*%
D40*
%TO.P,Q301,1,B*%
%TO.N,Net-(Q301-Pad1)*%
X43148704Y-83353796D03*
%TO.P,Q301,2,E*%
%TO.N,Net-(Q301-Pad2)*%
X43148704Y-85253796D03*
%TO.P,Q301,3,C*%
%TO.N,/Wireless/HCI_EN*%
X45023704Y-84303796D03*
%TD*%
D35*
%TO.P,R304,1*%
%TO.N,/Wireless/HCI_EN*%
X44773796Y-89060000D03*
%TO.P,R304,2*%
%TO.N,GND*%
X45793796Y-89060000D03*
%TD*%
D68*
%TO.P,R206,1*%
%TO.N,/Base/LED_STATUS_ANODE*%
X28250000Y-47625000D03*
%TO.P,R206,2*%
%TO.N,+3V3*%
X26600000Y-47625000D03*
%TD*%
D36*
%TO.P,D401,1,K*%
%TO.N,/Power/VIN*%
X50563796Y-44673796D03*
%TO.P,D401,2,A*%
%TO.N,/Power/12VIN*%
X54563796Y-44673796D03*
%TD*%
D16*
%TO.P,C216,1*%
%TO.N,+3V3*%
X35494852Y-80976763D03*
%TO.P,C216,2*%
%TO.N,GND*%
X34816030Y-80297941D03*
%TD*%
D23*
%TO.P,J202,1,Pin_1*%
%TO.N,unconnected-(J202-Pad1)*%
X31919787Y-57750744D03*
%TO.P,J202,2,Pin_2*%
%TO.N,unconnected-(J202-Pad2)*%
X32817812Y-58648769D03*
%TO.P,J202,3,Pin_3*%
%TO.N,/Base/USART1_RX*%
X31021761Y-58648769D03*
%TO.P,J202,4,Pin_4*%
%TO.N,GND*%
X31919787Y-59546795D03*
%TO.P,J202,5,Pin_5*%
%TO.N,/Base/USART1_TX*%
X30123736Y-59546795D03*
%TO.P,J202,6,Pin_6*%
%TO.N,unconnected-(J202-Pad6)*%
X31021761Y-60444820D03*
%TD*%
D64*
%TO.P,D202,1,K*%
%TO.N,/Base/LED_ACT_ANODE*%
X33775000Y-85400000D03*
%TO.P,D202,2,A*%
%TO.N,/Base/LED_ACT*%
X32200000Y-85400000D03*
%TD*%
D52*
%TO.P,R601,1*%
%TO.N,/USB/DEN*%
X38233796Y-90306204D03*
%TO.P,R601,2*%
%TO.N,GND*%
X38233796Y-89286204D03*
%TD*%
D35*
%TO.P,R407,1*%
%TO.N,/Power/VOUT*%
X45452460Y-50602583D03*
%TO.P,R407,2*%
%TO.N,/Power/FB*%
X46472460Y-50602583D03*
%TD*%
D39*
%TO.P,R704,1*%
%TO.N,+3V3*%
X33884466Y-60833798D03*
%TO.P,R704,2*%
%TO.N,/Storage/DAT3*%
X34605714Y-61555046D03*
%TD*%
D31*
%TO.P,R405,1*%
%TO.N,/Base/BOOST_EN*%
X47624993Y-55927450D03*
%TO.P,R405,2*%
%TO.N,GND*%
X47624993Y-56947450D03*
%TD*%
D46*
%TO.P,C502,1*%
%TO.N,+3V3*%
X20813796Y-44553796D03*
%TO.P,C502,2*%
%TO.N,GND*%
X20813796Y-43593796D03*
%TD*%
D16*
%TO.P,C203,1*%
%TO.N,/Base/~{RESET}*%
X35531271Y-77998041D03*
%TO.P,C203,2*%
%TO.N,GND*%
X34852449Y-77319219D03*
%TD*%
D58*
%TO.P,C402,1*%
%TO.N,+3V3*%
X36453797Y-45266204D03*
%TO.P,C402,2*%
%TO.N,GND*%
X36453797Y-43366204D03*
%TD*%
D68*
%TO.P,R204,1*%
%TO.N,+3V3*%
X36952500Y-85405000D03*
%TO.P,R204,2*%
%TO.N,/Base/LED_ACT_ANODE*%
X35302500Y-85405000D03*
%TD*%
D35*
%TO.P,R403,1*%
%TO.N,/Power/ADJ*%
X47512461Y-48716204D03*
%TO.P,R403,2*%
%TO.N,GND*%
X48532461Y-48716204D03*
%TD*%
D21*
%TO.P,C401,1*%
%TO.N,/Power/VIN*%
X49793795Y-41796204D03*
%TO.P,C401,2*%
%TO.N,GND*%
X51693795Y-41796204D03*
%TD*%
D16*
%TO.P,C213,1*%
%TO.N,+3V3*%
X43258330Y-61775124D03*
%TO.P,C213,2*%
%TO.N,GND*%
X42579508Y-61096302D03*
%TD*%
D35*
%TO.P,R501,1*%
%TO.N,+3V3*%
X24673796Y-40773796D03*
%TO.P,R501,2*%
%TO.N,/Base/CAN_STBY*%
X25693796Y-40773796D03*
%TD*%
D69*
%TO.N,GND*%
X59750000Y-100660000D03*
X26086204Y-61606204D03*
X43620000Y-90490000D03*
X59460000Y-103490000D03*
X47761203Y-53358797D03*
X31700000Y-75900000D03*
X24890000Y-53770000D03*
X57410000Y-106580000D03*
X23730000Y-66492600D03*
X28660000Y-53960000D03*
X33550000Y-52675000D03*
X25150000Y-101475000D03*
X23157107Y-104857107D03*
X30280000Y-87900000D03*
X30700000Y-63940000D03*
X53270000Y-98680000D03*
X55010000Y-106580000D03*
X30940000Y-70990000D03*
X31700000Y-76600000D03*
X53290000Y-102630000D03*
X50675000Y-95000000D03*
X52610000Y-106580000D03*
X46490000Y-89060000D03*
X32070000Y-93670000D03*
X46992461Y-56950000D03*
X61410000Y-106580000D03*
X53410000Y-106580000D03*
X55810000Y-106580000D03*
D70*
X52713796Y-41796204D03*
D69*
X62561204Y-94608796D03*
X42100000Y-61575000D03*
X51550000Y-72250000D03*
X48540000Y-47910000D03*
X21737500Y-103462500D03*
X50980000Y-75740000D03*
X60610000Y-106580000D03*
X56600000Y-103990000D03*
X56610000Y-106580000D03*
X23970000Y-54640000D03*
X53270000Y-100660000D03*
X24400000Y-86210000D03*
X43340000Y-98478045D03*
X58210000Y-106580000D03*
X51810000Y-106580000D03*
X28425000Y-100725000D03*
X45535000Y-79765000D03*
X35209122Y-76940878D03*
X43350000Y-60325000D03*
X59740000Y-98690000D03*
X23675000Y-96925500D03*
X21475000Y-96925500D03*
X27840000Y-54920000D03*
X50810000Y-89740000D03*
X47221203Y-53358797D03*
X59810000Y-106580000D03*
X31968675Y-66011325D03*
X19980000Y-43600000D03*
X23260000Y-74640000D03*
X50660000Y-106580000D03*
X54210000Y-106580000D03*
X56610000Y-97530000D03*
X54630000Y-97540000D03*
X59010000Y-106580000D03*
X58590000Y-97530000D03*
X48301203Y-53358797D03*
X35520000Y-79450000D03*
X34393795Y-89286205D03*
X38860000Y-48950000D03*
X23100000Y-101525000D03*
X52440000Y-58180000D03*
X32620000Y-60250000D03*
%TO.N,+3V3*%
X31400000Y-81500000D03*
X43729227Y-61304227D03*
X19980000Y-44560000D03*
X61600000Y-94540000D03*
X34560000Y-44015000D03*
X31400000Y-80300000D03*
X65300000Y-102010000D03*
X50860000Y-92410000D03*
X47655640Y-61524500D03*
X46240000Y-79110000D03*
X20700000Y-61400000D03*
X21770000Y-86200000D03*
X36110000Y-81580000D03*
X34200000Y-80850000D03*
X34560000Y-46585000D03*
X25750000Y-47600000D03*
X32670000Y-61060000D03*
X30900000Y-80900000D03*
X34560000Y-44657500D03*
X23180000Y-72450000D03*
X49000000Y-71299500D03*
X34140000Y-59590000D03*
X37000000Y-87975000D03*
X34560000Y-45942500D03*
X46490000Y-88000000D03*
X21300000Y-61100000D03*
X20700000Y-60800000D03*
X64070000Y-102006204D03*
X33400000Y-60340000D03*
X31460000Y-66492600D03*
X34560000Y-45300000D03*
%TO.N,/Base/LED_ACT*%
X32175000Y-84107400D03*
X35015628Y-75263872D03*
%TO.N,/Power/USB_VBUS*%
X59850000Y-93120000D03*
X35170000Y-94430000D03*
%TO.N,/Base/USART1_RX*%
X39384500Y-70560000D03*
X55650000Y-69300000D03*
X32120000Y-56100000D03*
X44834122Y-58965878D03*
%TO.N,/Base/USART1_TX*%
X37915500Y-71500000D03*
X55020000Y-69840000D03*
%TO.N,/Wireless/PROG_RX*%
X48740000Y-102010000D03*
X49760000Y-100620000D03*
%TO.N,/Storage/DAT2*%
X36045800Y-61235800D03*
%TO.N,/Storage/DAT3*%
X35140000Y-62100000D03*
%TO.N,/Storage/CMD*%
X34850000Y-63490000D03*
%TO.N,/Storage/CLK*%
X34686959Y-62565410D03*
%TO.N,/Storage/DAT0*%
X47500000Y-64190000D03*
%TO.N,/Storage/DAT1*%
X46952903Y-63713643D03*
%TO.N,/Wireless/HCI_EN*%
X64030500Y-92980000D03*
X46490500Y-89719061D03*
%TO.N,/Wireless/IO9*%
X37330000Y-84310000D03*
X48080000Y-91210000D03*
X61800000Y-91230000D03*
%TO.N,/Base/LED_LINK*%
X35725000Y-75275000D03*
X32950000Y-84107400D03*
%TO.N,/Base/USB_VBUS*%
X33618796Y-92681204D03*
X57365000Y-94439500D03*
%TO.N,/Base/BOOST_EN*%
X47000000Y-55920000D03*
X50110500Y-63520497D03*
X50290000Y-58930000D03*
X51939500Y-63520000D03*
%TO.N,/Base/CAN_STBY*%
X19790000Y-83610000D03*
X21820000Y-50440000D03*
X21840000Y-59870000D03*
X46765500Y-77950000D03*
%TO.N,/Base/LED_STATUS*%
X32150000Y-61600000D03*
X36650000Y-58225000D03*
%TO.N,/Base/SPI2_MISO*%
X52450000Y-60370000D03*
X41570000Y-65374743D03*
%TO.N,/Base/SPI2_MOSI*%
X53390000Y-60420000D03*
X41534035Y-66304035D03*
%TO.N,/Base/USART2_CTS*%
X45220000Y-94964000D03*
X46740000Y-86100000D03*
X39790000Y-79820000D03*
X49320000Y-94990000D03*
%TO.N,/Base/USART2_RTS*%
X47510000Y-86090000D03*
X39750000Y-79090000D03*
%TO.N,/Base/USART2_TX*%
X55811204Y-85188796D03*
X39714314Y-78364314D03*
%TO.N,/Base/USART2_RX*%
X56580000Y-84640000D03*
X44545878Y-81274122D03*
%TO.N,/Base/SPI1_NSS*%
X55630000Y-68135501D03*
X44733557Y-68123557D03*
%TO.N,/Base/SPI1_SCK*%
X50110500Y-66200000D03*
X54581000Y-66193050D03*
%TO.N,/Base/SPI1_MISO*%
X55880000Y-66180000D03*
X50035154Y-66892817D03*
%TO.N,/Base/SPI1_MOSI*%
X50090000Y-67540000D03*
X55105500Y-67615500D03*
%TO.N,/Base/SPI1_IO1*%
X43630000Y-72290000D03*
X59760000Y-72415500D03*
%TO.N,/Base/BOOT1*%
X44310000Y-71580000D03*
%TO.N,/Base/USART3_TX*%
X46710000Y-80545500D03*
X42140000Y-78320000D03*
%TO.N,/Base/USART3_RX*%
X47050000Y-81180000D03*
X42717400Y-78960000D03*
%TO.N,/Base/SPI2_NSS*%
X55022561Y-64072561D03*
X50110500Y-65550497D03*
%TO.N,/Base/SPI2_SCK*%
X54562750Y-63332750D03*
X50110500Y-64890000D03*
%TO.N,/Base/SPI2_INT*%
X50110500Y-64170000D03*
X54180000Y-62700000D03*
%TO.N,/Base/SPI1_INT*%
X41370001Y-68660001D03*
%TO.N,/Base/USB_DM*%
X49730000Y-58380000D03*
X59450000Y-91764500D03*
X45883397Y-60185878D03*
X34680000Y-91140000D03*
%TO.N,/Base/USB_DP*%
X38781716Y-91151716D03*
X45239122Y-59490878D03*
X58810000Y-91764500D03*
X49129970Y-58887472D03*
%TO.N,/Base/~{GPS_RESET}*%
X20590000Y-63910000D03*
X32271372Y-63173128D03*
%TO.N,/Wireless/LORA_MISO*%
X51290000Y-83020000D03*
X65080000Y-93000000D03*
%TO.N,/Wireless/LORA_BUSY*%
X56300000Y-81080000D03*
X64940878Y-91349122D03*
%TO.N,/Wireless/LORA_NSS*%
X58211204Y-88131204D03*
X50730000Y-87730000D03*
%TO.N,/Wireless/LORA_SCK*%
X55011204Y-85818796D03*
X51000000Y-85100000D03*
%TO.N,/Wireless/LORA_MOSI*%
X51510000Y-85730000D03*
X54210000Y-86380000D03*
%TO.N,/USB/USB_ESD_GND*%
X36750000Y-93700000D03*
%TD*%
D71*
%TO.N,/Base/USART2_RTS*%
X47590000Y-86170000D02*
X47510000Y-86090000D01*
X47590000Y-90200000D02*
X47590000Y-86170000D01*
X45373305Y-92416695D02*
X47590000Y-90200000D01*
X45373305Y-93843305D02*
X45373305Y-92416695D01*
X49786204Y-98256204D02*
X45373305Y-93843305D01*
X50711204Y-98256204D02*
X49786204Y-98256204D01*
%TO.N,/Base/USART2_CTS*%
X49320000Y-94990000D02*
X49320000Y-97074690D01*
X49701514Y-97456204D02*
X50711204Y-97456204D01*
X49320000Y-97074690D02*
X49701514Y-97456204D01*
X45220000Y-94964000D02*
X45220000Y-94420000D01*
X45220000Y-94420000D02*
X44867505Y-94067505D01*
X44867505Y-94067505D02*
X44867505Y-92207186D01*
X44867505Y-92207186D02*
X47067900Y-90006790D01*
X47067900Y-90006790D02*
X47067900Y-87760625D01*
X47067900Y-87760625D02*
X46740000Y-87432725D01*
X46740000Y-87432725D02*
X46740000Y-86100000D01*
%TO.N,/Wireless/PROG_TX*%
X41431203Y-91273795D02*
X40746205Y-91273795D01*
X40746205Y-91273795D02*
X39760000Y-92260000D01*
X40531300Y-94581300D02*
X43926610Y-94581300D01*
X39760000Y-92260000D02*
X39760000Y-93810000D01*
X39760000Y-93810000D02*
X40531300Y-94581300D01*
X43926610Y-94581300D02*
X48520000Y-99174690D01*
X48520000Y-99174690D02*
X48520000Y-100370000D01*
X48520000Y-100370000D02*
X49606204Y-101456204D01*
X49606204Y-101456204D02*
X50711204Y-101456204D01*
%TO.N,/Wireless/PROG_RX*%
X48740000Y-102010000D02*
X48740000Y-101305309D01*
X48740000Y-101305309D02*
X48014200Y-100579509D01*
X39130000Y-94130000D02*
X39130000Y-91620000D01*
X48014200Y-100579509D02*
X48014200Y-99384200D01*
X48014200Y-99384200D02*
X43717100Y-95087100D01*
X43717100Y-95087100D02*
X40087100Y-95087100D01*
X39130000Y-91620000D02*
X40746205Y-90003795D01*
X40087100Y-95087100D02*
X39130000Y-94130000D01*
X40746205Y-90003795D02*
X41431203Y-90003795D01*
D72*
%TO.N,GND*%
X22720000Y-85190000D02*
X22724385Y-85190000D01*
X22724385Y-85190000D02*
X23553795Y-86019410D01*
X23553795Y-86019410D02*
X23553795Y-86656205D01*
D73*
X22230000Y-84700000D02*
X22230000Y-83420000D01*
X22720000Y-85190000D02*
X22230000Y-84700000D01*
D72*
X23553795Y-86656205D02*
X23553795Y-87446204D01*
X23553795Y-86203796D02*
X23553795Y-86656205D01*
D73*
X36453797Y-43366204D02*
X36453797Y-41256203D01*
X36453797Y-41256203D02*
X37620000Y-40090000D01*
X39056205Y-39353795D02*
X39056205Y-36796866D01*
X37620000Y-40090000D02*
X38320000Y-40090000D01*
X38320000Y-40090000D02*
X39056205Y-39353795D01*
%TO.N,/Power/12VIN*%
X54563796Y-44673796D02*
X54563796Y-40833796D01*
X54563796Y-40833796D02*
X53620000Y-39890000D01*
X45186866Y-33956866D02*
X43211205Y-33956866D01*
X53620000Y-39890000D02*
X48020000Y-39890000D01*
X48020000Y-39890000D02*
X47120000Y-38990000D01*
X47120000Y-38990000D02*
X47120000Y-35890000D01*
X47120000Y-35890000D02*
X45186866Y-33956866D01*
%TO.N,GND*%
X52713796Y-41796204D02*
X51693795Y-41796204D01*
D71*
%TO.N,/CAN/CAN_L*%
X31596204Y-45536296D02*
X32973704Y-45536296D01*
X32973704Y-45536296D02*
X33320000Y-45190000D01*
X34720000Y-42490000D02*
X34720000Y-41490000D01*
X33320000Y-45190000D02*
X33320000Y-43890000D01*
X34720000Y-41490000D02*
X36286205Y-39923795D01*
X33320000Y-43890000D02*
X34720000Y-42490000D01*
X36286205Y-39923795D02*
X36286205Y-36796866D01*
%TO.N,/CAN/CAN_H*%
X37671205Y-33956866D02*
X37671205Y-35138795D01*
X37671205Y-35138795D02*
X37420000Y-35390000D01*
X37420000Y-35390000D02*
X35620000Y-35390000D01*
X35620000Y-35390000D02*
X34920000Y-36090000D01*
X34920000Y-36090000D02*
X34920000Y-40290000D01*
X34920000Y-40290000D02*
X34020000Y-41190000D01*
X34020000Y-41190000D02*
X34020000Y-42390000D01*
X34020000Y-42390000D02*
X33798704Y-42611296D01*
X33798704Y-42611296D02*
X31596204Y-42611296D01*
D72*
%TO.N,GND*%
X65276205Y-104053795D02*
X63413795Y-104053795D01*
X47221203Y-53358797D02*
X47761203Y-53358797D01*
X20813796Y-43593796D02*
X19986204Y-43593796D01*
X54636204Y-98681204D02*
X53271204Y-98681204D01*
X62553795Y-93843796D02*
X62553795Y-92991610D01*
D74*
X36560000Y-78553971D02*
X36345695Y-78768276D01*
D72*
X31107400Y-65792600D02*
X31749950Y-65792600D01*
X56611204Y-98681204D02*
X56611204Y-97531204D01*
X53291204Y-102631204D02*
X53290000Y-102630000D01*
X51811204Y-106578796D02*
X51810000Y-106580000D01*
X30940000Y-71320000D02*
X30793796Y-71466204D01*
X48892550Y-50962672D02*
X48532461Y-50602583D01*
X25441940Y-54321940D02*
X24890000Y-53770000D01*
X32066205Y-93666205D02*
X32070000Y-93670000D01*
X51039411Y-71660589D02*
X50339411Y-70960589D01*
X54211204Y-105556204D02*
X54211204Y-106578796D01*
X52440000Y-58180000D02*
X52440000Y-56977559D01*
X53273796Y-100656204D02*
X53270000Y-100660000D01*
X60611204Y-105556204D02*
X60611204Y-106578796D01*
X56611204Y-103978796D02*
X56600000Y-103990000D01*
X30940000Y-70990000D02*
X30940000Y-71320000D01*
X54636204Y-98681204D02*
X54636204Y-97546204D01*
X57411204Y-105556204D02*
X57411204Y-106578796D01*
X58586204Y-98681204D02*
X59731204Y-98681204D01*
X30280000Y-89340000D02*
X30280000Y-87900000D01*
X48301203Y-53358797D02*
X48541203Y-53358797D01*
D74*
X36560000Y-76260000D02*
X36560000Y-78553971D01*
D71*
X21907107Y-106107107D02*
X23157107Y-104857107D01*
D72*
X23553795Y-86203796D02*
X24393796Y-86203796D01*
X55811204Y-105556204D02*
X55811204Y-106578796D01*
X63350000Y-92195405D02*
X63350000Y-88280000D01*
X56611204Y-102631204D02*
X56611204Y-103978796D01*
X27251292Y-54331292D02*
X27840000Y-54920000D01*
X35520000Y-79450000D02*
X34816030Y-80153970D01*
X55011204Y-106578796D02*
X55010000Y-106580000D01*
D74*
X43801874Y-59873935D02*
X43801065Y-59873935D01*
D72*
X62511204Y-105556204D02*
X62561204Y-105606204D01*
D71*
X21435786Y-103750000D02*
X21450000Y-103750000D01*
X19875000Y-105310786D02*
X20492893Y-104692893D01*
X23157107Y-104857107D02*
X25150000Y-102864214D01*
D74*
X45535000Y-79765000D02*
X45067713Y-79297713D01*
D72*
X22708796Y-43438796D02*
X20968796Y-43438796D01*
X31706204Y-75183796D02*
X31706204Y-75893796D01*
X38859075Y-48950925D02*
X37600000Y-48950925D01*
D71*
X23100000Y-102100000D02*
X23100000Y-101525000D01*
D72*
X63216204Y-103856204D02*
X62511204Y-103856204D01*
X20968796Y-43438796D02*
X20813796Y-43593796D01*
X63350000Y-88280000D02*
X63900000Y-87730000D01*
X43340000Y-98478045D02*
X43340000Y-100562500D01*
D71*
X20492893Y-106107107D02*
X19875000Y-105489214D01*
D72*
X50661204Y-106578796D02*
X50660000Y-106580000D01*
X62561204Y-95706204D02*
X62561204Y-93851205D01*
D74*
X42348530Y-76024724D02*
X43780000Y-77456194D01*
D72*
X61883796Y-96656204D02*
X62511204Y-96656204D01*
X49340000Y-89730000D02*
X50800000Y-89730000D01*
X30743796Y-70493796D02*
X30940000Y-70690000D01*
X62553795Y-92991610D02*
X63350000Y-92195405D01*
D71*
X34852449Y-77297551D02*
X34852449Y-77319219D01*
X20492893Y-106107107D02*
X21060786Y-106675000D01*
D72*
X63900000Y-87730000D02*
X65340000Y-87730000D01*
D71*
X21339214Y-106675000D02*
X21907107Y-106107107D01*
D72*
X30136204Y-70493796D02*
X30743796Y-70493796D01*
X48541203Y-53358797D02*
X48892550Y-53007450D01*
X49340000Y-75730000D02*
X50970000Y-75730000D01*
D74*
X43780000Y-77456194D02*
X43780000Y-78005195D01*
D72*
X59011204Y-105556204D02*
X59011204Y-106578796D01*
X62511204Y-103856204D02*
X62511204Y-105556204D01*
X23680000Y-96930500D02*
X23680000Y-98840000D01*
X46995011Y-56947450D02*
X46992461Y-56950000D01*
X38860000Y-48950000D02*
X38859075Y-48950925D01*
X36345695Y-78768276D02*
X36201724Y-78768276D01*
D71*
X28410000Y-100740000D02*
X28425000Y-100725000D01*
D72*
X31696204Y-77346204D02*
X31696204Y-76603796D01*
X23730000Y-65350000D02*
X23730000Y-66492600D01*
X52611204Y-105556204D02*
X52611204Y-106578796D01*
X32716726Y-66759376D02*
X31968675Y-66011325D01*
X50800000Y-89730000D02*
X50810000Y-89740000D01*
X48892550Y-53007450D02*
X48892550Y-52196297D01*
X58586204Y-102631204D02*
X56611204Y-100656204D01*
X38176204Y-89343796D02*
X38233796Y-89286204D01*
X32066205Y-92681204D02*
X32066205Y-93666205D01*
X59990000Y-96820000D02*
X61720000Y-96820000D01*
D74*
X42579508Y-61096302D02*
X42578698Y-61096302D01*
D72*
X34393795Y-89286205D02*
X35103796Y-89286205D01*
D71*
X43343795Y-90003795D02*
X43620000Y-90280000D01*
D72*
X61411204Y-105556204D02*
X61411204Y-106578796D01*
D71*
X19875000Y-105489214D02*
X19875000Y-105310786D01*
D72*
X48892550Y-52196297D02*
X48892550Y-50962672D01*
X52611204Y-106578796D02*
X52610000Y-106580000D01*
X31696204Y-76603796D02*
X31700000Y-76600000D01*
X47761203Y-53358797D02*
X48301203Y-53358797D01*
X34816030Y-80153970D02*
X34816030Y-80297941D01*
D71*
X21450000Y-103750000D02*
X21737500Y-103462500D01*
D72*
X54636204Y-100656204D02*
X53273796Y-100656204D01*
X51811204Y-105556204D02*
X51811204Y-106578796D01*
X58601204Y-102631204D02*
X59460000Y-103490000D01*
X58586204Y-97533796D02*
X58590000Y-97530000D01*
X38276204Y-89243796D02*
X38233796Y-89286204D01*
D74*
X37153796Y-89343796D02*
X37153796Y-88778796D01*
D72*
X36201724Y-78768276D02*
X35520000Y-79450000D01*
X48532461Y-47917539D02*
X48540000Y-47910000D01*
X61720000Y-96820000D02*
X61883796Y-96656204D01*
X58586204Y-100656204D02*
X59746204Y-100656204D01*
X51550000Y-72250000D02*
X50339411Y-71039411D01*
D71*
X25150000Y-102864214D02*
X25150000Y-101475000D01*
D72*
X25476204Y-74363796D02*
X25200000Y-74640000D01*
X46042461Y-52383797D02*
X47017461Y-53358797D01*
D71*
X21060786Y-106675000D02*
X21339214Y-106675000D01*
D72*
X63413795Y-104053795D02*
X63216204Y-103856204D01*
X30260000Y-67087769D02*
X30260000Y-66640000D01*
X54211204Y-106578796D02*
X54210000Y-106580000D01*
X58586204Y-98681204D02*
X58586204Y-97533796D01*
D74*
X37153796Y-88778796D02*
X36900000Y-88525000D01*
D72*
X28136016Y-53436016D02*
X28660000Y-53960000D01*
D71*
X21737500Y-103462500D02*
X23100000Y-102100000D01*
D72*
X23675000Y-96925500D02*
X23680000Y-96930500D01*
X47624993Y-56947450D02*
X46995011Y-56947450D01*
D74*
X43780000Y-78005195D02*
X44244870Y-78470065D01*
D71*
X35209122Y-76940878D02*
X34852449Y-77297551D01*
D74*
X34299062Y-67999062D02*
X33360000Y-67060000D01*
D72*
X21475000Y-96925500D02*
X21480000Y-96930500D01*
X59731204Y-98681204D02*
X59740000Y-98690000D01*
X24543914Y-55213914D02*
X23970000Y-54640000D01*
X50675000Y-95000000D02*
X50675000Y-95692408D01*
D71*
X42701203Y-90003795D02*
X43343795Y-90003795D01*
X43620000Y-90280000D02*
X43620000Y-90490000D01*
D72*
X54636204Y-97546204D02*
X54630000Y-97540000D01*
X24400000Y-86210000D02*
X25357592Y-86210000D01*
X45067713Y-79292909D02*
X44244870Y-78470065D01*
D74*
X37855936Y-74964064D02*
X36560000Y-76260000D01*
X35103796Y-88796204D02*
X35103796Y-89286205D01*
D72*
X62511204Y-96656204D02*
X62511204Y-95756204D01*
D71*
X33550000Y-51850000D02*
X33550000Y-52675000D01*
D72*
X30793796Y-71466204D02*
X30136204Y-71466204D01*
D71*
X45793796Y-89060000D02*
X46490000Y-89060000D01*
D72*
X50661204Y-105606204D02*
X50661204Y-106578796D01*
D74*
X35375000Y-88525000D02*
X35103796Y-88796204D01*
D72*
X51039411Y-71760589D02*
X51039411Y-71660589D01*
D74*
X33360000Y-67060000D02*
X33056911Y-67060000D01*
X31291782Y-63348218D02*
X30700000Y-63940000D01*
D72*
X50970000Y-75730000D02*
X50980000Y-75740000D01*
X21480000Y-96930500D02*
X21480000Y-98840000D01*
D74*
X36900000Y-88525000D02*
X35375000Y-88525000D01*
D72*
X56611204Y-97531204D02*
X56610000Y-97530000D01*
X31749950Y-65792600D02*
X31968675Y-66011325D01*
D71*
X27480000Y-100740000D02*
X28410000Y-100740000D01*
D72*
X59811204Y-96641204D02*
X59990000Y-96820000D01*
D74*
X43801065Y-59873935D02*
X43350000Y-60325000D01*
D72*
X55011204Y-105556204D02*
X55011204Y-106578796D01*
X26186204Y-74363796D02*
X25476204Y-74363796D01*
X59746204Y-100656204D02*
X59750000Y-100660000D01*
X30260000Y-66640000D02*
X31107400Y-65792600D01*
X31706204Y-75893796D02*
X31700000Y-75900000D01*
X24393796Y-86203796D02*
X24400000Y-86210000D01*
X59811204Y-95756204D02*
X59811204Y-96641204D01*
X37153796Y-89343796D02*
X38176204Y-89343796D01*
X56611204Y-105556204D02*
X56611204Y-106578796D01*
X61411204Y-105556204D02*
X62511204Y-105556204D01*
X53271204Y-98681204D02*
X53270000Y-98680000D01*
X30613470Y-67441239D02*
X30260000Y-67087769D01*
X55811204Y-106578796D02*
X55810000Y-106580000D01*
X62561204Y-94608796D02*
X62561204Y-93851205D01*
D71*
X20492893Y-104692893D02*
X21435786Y-103750000D01*
D72*
X47017461Y-53358797D02*
X47221203Y-53358797D01*
X19986204Y-43593796D02*
X19980000Y-43600000D01*
X59811204Y-105556204D02*
X59811204Y-106578796D01*
X30940000Y-70690000D02*
X30940000Y-70990000D01*
X34810023Y-77319219D02*
X34087071Y-78042171D01*
X56611204Y-106578796D02*
X56610000Y-106580000D01*
X53411204Y-106578796D02*
X53410000Y-106580000D01*
X48532461Y-48716204D02*
X48532461Y-47917539D01*
X54636204Y-102631204D02*
X53291204Y-102631204D01*
X50339411Y-71039411D02*
X50339411Y-70960589D01*
X38276204Y-87943796D02*
X38276204Y-89243796D01*
X31919787Y-59549787D02*
X32620000Y-60250000D01*
X25200000Y-74640000D02*
X23260000Y-74640000D01*
D74*
X33056911Y-67060000D02*
X32756287Y-66759376D01*
D72*
X26086204Y-61606204D02*
X26086204Y-62043796D01*
X58211204Y-105556204D02*
X58211204Y-106578796D01*
X57411204Y-106578796D02*
X57410000Y-106580000D01*
D74*
X42578698Y-61096302D02*
X42100000Y-61575000D01*
D72*
X53411204Y-105556204D02*
X53411204Y-106578796D01*
D74*
%TO.N,/Base/RCC_OSC32_IN*%
X31510000Y-69940000D02*
X31103796Y-69533796D01*
X31510000Y-71530000D02*
X31510000Y-69940000D01*
X32650000Y-72670000D02*
X31510000Y-71530000D01*
X31103796Y-69533796D02*
X30136204Y-69533796D01*
X29416204Y-69843796D02*
X29726204Y-69533796D01*
X34676421Y-71783579D02*
X33790000Y-72670000D01*
X29726204Y-69533796D02*
X30136204Y-69533796D01*
X28406204Y-69843796D02*
X29416204Y-69843796D01*
X33790000Y-72670000D02*
X32650000Y-72670000D01*
%TO.N,/Base/HSI_OUT*%
X31676204Y-78326204D02*
X29153796Y-78326204D01*
X32675000Y-78055000D02*
X32430000Y-78300000D01*
X32675000Y-75895000D02*
X32675000Y-78055000D01*
X32430000Y-78300000D02*
X31702408Y-78300000D01*
X35727256Y-72842744D02*
X32675000Y-75895000D01*
%TO.N,/Base/~{RESET}*%
X35531271Y-77998041D02*
X35910000Y-77619312D01*
X35910000Y-77619312D02*
X35910000Y-76900000D01*
X34480000Y-74806932D02*
X36090635Y-73196297D01*
D72*
X35531271Y-78040465D02*
X34049592Y-79522144D01*
D74*
X34480000Y-75470000D02*
X34480000Y-74806932D01*
X35910000Y-76900000D02*
X34480000Y-75470000D01*
%TO.N,/Base/RCC_OSC32_OUT*%
X28406204Y-72343796D02*
X29413796Y-72343796D01*
X32330000Y-73200000D02*
X33965612Y-73200000D01*
X31556204Y-72426204D02*
X32330000Y-73200000D01*
X33965612Y-73200000D02*
X35029975Y-72135637D01*
X29550000Y-72480000D02*
X30082408Y-72480000D01*
X29413796Y-72343796D02*
X29550000Y-72480000D01*
X30136204Y-72426204D02*
X31556204Y-72426204D01*
%TO.N,/Base/HSI_IN*%
X33680000Y-74190000D02*
X31740000Y-74190000D01*
X30906204Y-74223796D02*
X31706204Y-74223796D01*
X35380810Y-72489190D02*
X33680000Y-74190000D01*
X30503796Y-74626204D02*
X30906204Y-74223796D01*
X29153796Y-74626204D02*
X30503796Y-74626204D01*
%TO.N,/Base/VCAP_1*%
X49800000Y-73000000D02*
X50360589Y-72439411D01*
X46944724Y-71444724D02*
X48500000Y-73000000D01*
X48500000Y-73000000D02*
X49800000Y-73000000D01*
%TO.N,/Base/VCAP_2*%
X44480696Y-60552757D02*
X44810000Y-60882061D01*
X43211398Y-62540000D02*
X42348530Y-63402868D01*
X44810000Y-60882061D02*
X44810000Y-61115000D01*
X43385000Y-62540000D02*
X43211398Y-62540000D01*
X44810000Y-61115000D02*
X43385000Y-62540000D01*
D72*
%TO.N,/Base/VBAT*%
X26100000Y-67740000D02*
X26100000Y-63017592D01*
X31292292Y-68137708D02*
X30770000Y-68660000D01*
D74*
X32230000Y-69110000D02*
X31292292Y-68172292D01*
X32730000Y-71820000D02*
X32230000Y-71320000D01*
X32230000Y-71320000D02*
X32230000Y-69110000D01*
D72*
X27020000Y-68660000D02*
X26100000Y-67740000D01*
D74*
X33945023Y-71074977D02*
X33200000Y-71820000D01*
D72*
X30770000Y-68660000D02*
X27020000Y-68660000D01*
D74*
X33200000Y-71820000D02*
X32730000Y-71820000D01*
%TO.N,+3V3*%
X48600000Y-72400000D02*
X48900000Y-72400000D01*
D71*
X33550000Y-47137500D02*
X34362500Y-47137500D01*
D72*
X31460000Y-66540000D02*
X31460000Y-66492600D01*
D71*
X34560000Y-46940000D02*
X34560000Y-46585000D01*
D74*
X43729227Y-61304227D02*
X43258330Y-61775124D01*
X41994977Y-63038477D02*
X43258330Y-61775124D01*
D72*
X35494852Y-80625148D02*
X36094503Y-80025497D01*
X24673796Y-44416204D02*
X24381204Y-44708796D01*
X36453797Y-47156203D02*
X36453797Y-45266204D01*
X20968796Y-44708796D02*
X20813796Y-44553796D01*
X64076204Y-103093795D02*
X64076204Y-102012408D01*
X20813796Y-44553796D02*
X19986204Y-44553796D01*
X36952500Y-85405000D02*
X36952500Y-87007500D01*
X62650000Y-91515614D02*
X62650000Y-86630000D01*
X24673796Y-40773796D02*
X24673796Y-44416204D01*
X32077465Y-67157465D02*
X31460000Y-66540000D01*
D74*
X32910000Y-67600000D02*
X32720000Y-67790000D01*
D72*
X51811204Y-92406204D02*
X50863796Y-92406204D01*
X22708796Y-44708796D02*
X20968796Y-44708796D01*
X24510000Y-72450000D02*
X25470000Y-73410000D01*
D74*
X32429267Y-67790000D02*
X32077465Y-67438198D01*
D72*
X45452460Y-45072460D02*
X44696204Y-44316204D01*
X65300000Y-103056204D02*
X62511204Y-103056204D01*
X45746535Y-78614087D02*
X44923692Y-77791243D01*
X45452460Y-48716204D02*
X45452460Y-45072460D01*
D74*
X32720000Y-67790000D02*
X32429267Y-67790000D01*
D72*
X35506763Y-80976763D02*
X36110000Y-81580000D01*
D71*
X49660589Y-71639411D02*
X49339911Y-71639411D01*
D72*
X33884466Y-60824466D02*
X33400000Y-60340000D01*
X44696204Y-44316204D02*
X41186204Y-44316204D01*
X32077465Y-67438198D02*
X32077465Y-67157465D01*
X64076204Y-102012408D02*
X64070000Y-102006204D01*
X36990000Y-87965000D02*
X37000000Y-87975000D01*
X21773796Y-86203796D02*
X21770000Y-86200000D01*
X36990000Y-87045000D02*
X36990000Y-87965000D01*
D71*
X45793796Y-88006204D02*
X46483796Y-88006204D01*
X26600000Y-47625000D02*
X25775000Y-47625000D01*
D72*
X22593795Y-86203796D02*
X21773796Y-86203796D01*
D74*
X46240000Y-79110000D02*
X45746535Y-78616535D01*
X33230000Y-67600000D02*
X32910000Y-67600000D01*
D72*
X50863796Y-92406204D02*
X50860000Y-92410000D01*
X34200000Y-80850000D02*
X32825000Y-79475000D01*
X61600000Y-94540000D02*
X61600000Y-93850001D01*
X61593795Y-93843796D02*
X61593795Y-92571819D01*
X34632915Y-60082915D02*
X34140000Y-59590000D01*
D71*
X46483796Y-88006204D02*
X46490000Y-88000000D01*
D74*
X33969315Y-68339315D02*
X33230000Y-67600000D01*
D72*
X32825000Y-79475000D02*
X32825000Y-79304240D01*
D71*
X49339911Y-71639411D02*
X49000000Y-71299500D01*
D72*
X65300000Y-102010000D02*
X65300000Y-103056204D01*
X23180000Y-72450000D02*
X24510000Y-72450000D01*
X48828651Y-62839046D02*
X48016016Y-62026411D01*
X62650000Y-86630000D02*
X63550000Y-85730000D01*
X33157395Y-61547395D02*
X32670000Y-61060000D01*
X25470000Y-73410000D02*
X26220000Y-73410000D01*
D74*
X48900000Y-72400000D02*
X49660589Y-71639411D01*
X42711171Y-75671171D02*
X44831243Y-77791243D01*
D72*
X35483796Y-48983796D02*
X35483796Y-48126204D01*
D74*
X47298277Y-71098277D02*
X48600000Y-72400000D01*
D72*
X22580000Y-89340000D02*
X22580000Y-87459999D01*
D71*
X34362500Y-47137500D02*
X34560000Y-46940000D01*
D72*
X24381204Y-44708796D02*
X22708796Y-44708796D01*
X22593795Y-86203796D02*
X22593795Y-87446204D01*
X19986204Y-44553796D02*
X19980000Y-44560000D01*
X35494852Y-80976763D02*
X35494852Y-80625148D01*
X35483796Y-48126204D02*
X36453797Y-47156203D01*
X36952500Y-87007500D02*
X36990000Y-87045000D01*
D71*
X47655640Y-61524500D02*
X48016016Y-61884876D01*
X25775000Y-47625000D02*
X25750000Y-47600000D01*
D73*
X36453797Y-45266204D02*
X40236204Y-45266204D01*
D72*
X32825000Y-79304240D02*
X33328344Y-78800896D01*
X63550000Y-85730000D02*
X65340000Y-85730000D01*
X61593795Y-92571819D02*
X62650000Y-91515614D01*
D74*
%TO.N,+3.3VA*%
X37480000Y-78991615D02*
X37024517Y-79447098D01*
X36787297Y-80711391D02*
X37340000Y-80158688D01*
X36980000Y-76550000D02*
X36980000Y-78170000D01*
X37340000Y-79762581D02*
X37024517Y-79447098D01*
X38211955Y-75318045D02*
X36980000Y-76550000D01*
X37340000Y-80158688D02*
X37340000Y-79762581D01*
X37480000Y-78670000D02*
X37480000Y-78991615D01*
X36980000Y-78170000D02*
X37480000Y-78670000D01*
D72*
%TO.N,/Wireless/VCC_RF*%
X25635000Y-100750000D02*
X26510000Y-100750000D01*
X26510000Y-100750000D02*
X26520000Y-100740000D01*
D71*
X25635000Y-100750000D02*
X25635000Y-100365000D01*
X25635000Y-100365000D02*
X25880000Y-100120000D01*
X25880000Y-100120000D02*
X25880000Y-98840000D01*
D72*
%TO.N,/Base/LED_ACT_ANODE*%
X35297500Y-85400000D02*
X35302500Y-85405000D01*
X33775000Y-85400000D02*
X35297500Y-85400000D01*
D74*
%TO.N,/Base/LED_ACT*%
X32200000Y-84132400D02*
X32175000Y-84107400D01*
X32200000Y-85400000D02*
X32200000Y-84132400D01*
X36444188Y-73549850D02*
X35015628Y-74978410D01*
X35015628Y-74978410D02*
X35015628Y-75263872D01*
D72*
%TO.N,/Power/VIN*%
X41263796Y-51923796D02*
X41263796Y-49536204D01*
X41263796Y-49536204D02*
X41710000Y-49090000D01*
X50563796Y-49386204D02*
X50270000Y-49680000D01*
X41710000Y-49090000D02*
X41713796Y-49093796D01*
D73*
X50580000Y-43220000D02*
X50580000Y-44657592D01*
D72*
X50270000Y-49680000D02*
X44490000Y-49680000D01*
D73*
X48573796Y-42036204D02*
X48950000Y-41660000D01*
X49793795Y-41796204D02*
X49793795Y-42433795D01*
D72*
X41713796Y-49093796D02*
X43903796Y-49093796D01*
D73*
X47486204Y-42036204D02*
X48573796Y-42036204D01*
D72*
X50563796Y-48323796D02*
X50563796Y-49386204D01*
D73*
X48950000Y-41660000D02*
X49657591Y-41660000D01*
X50563796Y-44673796D02*
X50563796Y-48323796D01*
X49793795Y-42433795D02*
X50580000Y-43220000D01*
D72*
X44490000Y-49680000D02*
X43903796Y-49093796D01*
D73*
X49657591Y-41660000D02*
X49793795Y-41796204D01*
D72*
%TO.N,/Power/USB_VBUS*%
X52740000Y-69659094D02*
X52740000Y-61950561D01*
D73*
X51539950Y-54471297D02*
X51977450Y-54908797D01*
D72*
X35176205Y-93833795D02*
X35170000Y-93840000D01*
X59850000Y-92319095D02*
X60125000Y-92044095D01*
X40140000Y-100562500D02*
X40140000Y-97550000D01*
D73*
X54563796Y-51816204D02*
X54563796Y-48323796D01*
D72*
X51440000Y-57200000D02*
X51205009Y-56965009D01*
X50527450Y-55817450D02*
X49842550Y-55132550D01*
X35176205Y-92681204D02*
X35176205Y-93833795D01*
X52740000Y-61950561D02*
X51440000Y-60650561D01*
X35170000Y-94430000D02*
X35170000Y-93840000D01*
X49842550Y-54471297D02*
X50481297Y-54471297D01*
D73*
X50481297Y-54471297D02*
X51539950Y-54471297D01*
X51977450Y-54908797D02*
X51977450Y-54402550D01*
D72*
X50527450Y-56965009D02*
X50527450Y-55817450D01*
D73*
X50280000Y-54470000D02*
X51546247Y-54470000D01*
D72*
X60125000Y-77044094D02*
X52740000Y-69659094D01*
X51440000Y-60650561D02*
X51440000Y-57200000D01*
X51205009Y-56965009D02*
X50527450Y-56965009D01*
X40140000Y-97550000D02*
X39330000Y-96740000D01*
X60125000Y-92044095D02*
X60125000Y-77044094D01*
X59850000Y-93120000D02*
X59850000Y-92319095D01*
X37010000Y-96740000D02*
X35170000Y-94900000D01*
X39330000Y-96740000D02*
X37010000Y-96740000D01*
D73*
X51977450Y-54402550D02*
X54563796Y-51816204D01*
D72*
X35170000Y-94900000D02*
X35170000Y-94430000D01*
X49842550Y-55132550D02*
X49842550Y-54471297D01*
%TO.N,/Power/VOUT*%
X48892550Y-54471297D02*
X48892550Y-55847450D01*
X43903796Y-51173796D02*
X43903796Y-52603796D01*
D73*
X46590000Y-58410000D02*
X46042461Y-57862461D01*
X48890000Y-57820000D02*
X48300000Y-58410000D01*
D72*
X48892550Y-55847450D02*
X48890000Y-55850000D01*
D73*
X48890000Y-55850000D02*
X48890000Y-57820000D01*
X48300000Y-58410000D02*
X46590000Y-58410000D01*
D72*
X44700000Y-53400000D02*
X44700000Y-54400000D01*
X43903796Y-52603796D02*
X44700000Y-53400000D01*
X45452460Y-50602583D02*
X44475009Y-50602583D01*
X44475009Y-50602583D02*
X43903796Y-51173796D01*
D73*
X46042461Y-57862461D02*
X46042461Y-54283797D01*
D72*
%TO.N,+12V*%
X37263796Y-55616204D02*
X38823796Y-55616204D01*
D71*
X35375000Y-53750000D02*
X39000000Y-53750000D01*
D72*
X39200000Y-53950000D02*
X39200000Y-52300000D01*
X39200000Y-52300000D02*
X38823796Y-51923796D01*
X39200000Y-55240000D02*
X39200000Y-53950000D01*
X38823796Y-51923796D02*
X37263796Y-51923796D01*
D71*
X39000000Y-53750000D02*
X39200000Y-53950000D01*
D72*
X38823796Y-55616204D02*
X39200000Y-55240000D01*
D74*
%TO.N,/Base/JTDO*%
X34875000Y-57825000D02*
X40540000Y-63490000D01*
X37960660Y-65980000D02*
X37151295Y-65170635D01*
X26400000Y-51025686D02*
X27900686Y-49525000D01*
X30800000Y-53125000D02*
X31915000Y-54240000D01*
X31915000Y-54240000D02*
X32432907Y-54240000D01*
X27237991Y-52535241D02*
X26400000Y-51697250D01*
X27900686Y-49525000D02*
X29575000Y-49525000D01*
X32432907Y-54240000D02*
X34875000Y-56682094D01*
X40540000Y-63860000D02*
X38420000Y-65980000D01*
X30800000Y-50750000D02*
X30800000Y-53125000D01*
X34875000Y-56682094D02*
X34875000Y-57825000D01*
X38420000Y-65980000D02*
X37960660Y-65980000D01*
X29575000Y-49525000D02*
X30800000Y-50750000D01*
X26400000Y-51697250D02*
X26400000Y-51025686D01*
X40540000Y-63490000D02*
X40540000Y-63860000D01*
%TO.N,/Base/JTMS*%
X40940000Y-63760000D02*
X40940000Y-63324314D01*
X40940000Y-63324314D02*
X35275000Y-57659314D01*
X31250000Y-50550000D02*
X29825000Y-49125000D01*
X25560000Y-52653301D02*
X26339965Y-53433266D01*
X35275000Y-56516408D02*
X32598593Y-53840000D01*
X32140000Y-53840000D02*
X31250000Y-52950000D01*
X27735000Y-49125000D02*
X25560000Y-51300000D01*
X42702083Y-63756421D02*
X42018504Y-64440000D01*
X42018504Y-64440000D02*
X41620000Y-64440000D01*
X35275000Y-57659314D02*
X35275000Y-56516408D01*
X32598593Y-53840000D02*
X32140000Y-53840000D01*
X25560000Y-51300000D02*
X25560000Y-52653301D01*
X41620000Y-64440000D02*
X40940000Y-63760000D01*
X29825000Y-49125000D02*
X27735000Y-49125000D01*
X31250000Y-52950000D02*
X31250000Y-50550000D01*
%TO.N,/Base/JTDI*%
X26224597Y-56910000D02*
X25441940Y-56127343D01*
X34075000Y-57013464D02*
X32481536Y-55420000D01*
X29150000Y-55420000D02*
X27660000Y-56910000D01*
X34075000Y-58488096D02*
X34075000Y-57013464D01*
X27660000Y-56910000D02*
X26224597Y-56910000D01*
X32481536Y-55420000D02*
X29150000Y-55420000D01*
X38919062Y-63332158D02*
X34075000Y-58488096D01*
%TO.N,/Base/JTCK*%
X28940000Y-54840000D02*
X32467221Y-54840000D01*
X34475000Y-58251700D02*
X39272615Y-63049315D01*
X32467221Y-54840000D02*
X34475000Y-56847779D01*
X26339965Y-55229317D02*
X27040648Y-55930000D01*
X27040648Y-55930000D02*
X27850000Y-55930000D01*
X27850000Y-55930000D02*
X28940000Y-54840000D01*
X34475000Y-56847779D02*
X34475000Y-58251700D01*
%TO.N,/Base/USART1_RX*%
X30200000Y-57450000D02*
X31550000Y-56100000D01*
X39384500Y-69195326D02*
X43762744Y-64817082D01*
X45840878Y-58965878D02*
X46475000Y-59600000D01*
X46475000Y-59600000D02*
X46475000Y-61161545D01*
X55650000Y-70540000D02*
X56310001Y-71200001D01*
X30200000Y-57827008D02*
X30200000Y-57450000D01*
X55650000Y-69300000D02*
X55650000Y-70540000D01*
X46090000Y-61546545D02*
X46090000Y-62489826D01*
X46090000Y-62489826D02*
X43762744Y-64817082D01*
X31021761Y-58648769D02*
X30200000Y-57827008D01*
X31550000Y-56100000D02*
X32120000Y-56100000D01*
X44834122Y-58965878D02*
X45840878Y-58965878D01*
X39384500Y-70560000D02*
X39384500Y-69195326D01*
X56310001Y-71200001D02*
X58300000Y-71200001D01*
X46475000Y-61161545D02*
X46090000Y-61546545D01*
%TO.N,/Base/USART1_TX*%
X37920000Y-71495500D02*
X37920000Y-68060660D01*
X28960000Y-62570000D02*
X32410000Y-62570000D01*
X32410000Y-62570000D02*
X36071295Y-66231295D01*
X60440000Y-73240000D02*
X60840000Y-72840000D01*
X55020000Y-69840000D02*
X55020000Y-71160000D01*
X55020000Y-71160000D02*
X57100000Y-73240000D01*
X30123736Y-59546795D02*
X29476941Y-58900000D01*
X27270000Y-60360000D02*
X27270000Y-60880000D01*
X28730000Y-58900000D02*
X27270000Y-60360000D01*
X29476941Y-58900000D02*
X28730000Y-58900000D01*
X60840000Y-72840000D02*
X60840000Y-71200001D01*
X37915500Y-71500000D02*
X37920000Y-71495500D01*
X57100000Y-73240000D02*
X60440000Y-73240000D01*
X37920000Y-68060660D02*
X36090635Y-66231295D01*
X27270000Y-60880000D02*
X28960000Y-62570000D01*
D71*
%TO.N,/Wireless/PROG_DTR*%
X39603795Y-88733795D02*
X41431203Y-88733795D01*
X39336204Y-87943796D02*
X39336204Y-88466204D01*
X39336204Y-88466204D02*
X39603795Y-88733795D01*
%TO.N,/Wireless/PROG_RX*%
X49760000Y-100620000D02*
X50675000Y-100620000D01*
%TO.N,/Wireless/PROG_RTS*%
X43716205Y-91273795D02*
X42701203Y-91273795D01*
X44846204Y-91083796D02*
X43906204Y-91083796D01*
X43906204Y-91083796D02*
X43716205Y-91273795D01*
%TO.N,/CAN/CAN_L*%
X31596204Y-44708796D02*
X27658796Y-44708796D01*
X31596204Y-45536296D02*
X31596204Y-44708796D01*
%TO.N,/CAN/CAN_H*%
X27658796Y-43438796D02*
X31561204Y-43438796D01*
X31596204Y-43403796D02*
X31596204Y-42611296D01*
X31561204Y-43438796D02*
X31596204Y-43403796D01*
D74*
%TO.N,/USB/USB_CON_DM*%
X37880000Y-96090000D02*
X40020000Y-96090000D01*
X40020000Y-96090000D02*
X40940000Y-97010000D01*
X36322803Y-93413019D02*
X36090000Y-93645822D01*
X36090000Y-93645822D02*
X36090000Y-94300000D01*
X36090000Y-94300000D02*
X37880000Y-96090000D01*
X40940000Y-97010000D02*
X40940000Y-100562500D01*
X36322803Y-92460205D02*
X36322803Y-93413019D01*
%TO.N,/USB/USB_CON_DP*%
X39300000Y-95540000D02*
X37176803Y-93416803D01*
X37176803Y-93416803D02*
X37176803Y-92460205D01*
X41740000Y-100562500D02*
X41740000Y-96850000D01*
X40430000Y-95540000D02*
X39300000Y-95540000D01*
X41740000Y-96850000D02*
X40430000Y-95540000D01*
%TO.N,/Storage/DAT2*%
X36045800Y-61235800D02*
X35614163Y-60804163D01*
X36045800Y-61235800D02*
X38565509Y-63755509D01*
X35614163Y-60804163D02*
X35356597Y-60804163D01*
%TO.N,/Storage/DAT3*%
X36630000Y-62520000D02*
X35560000Y-62520000D01*
X35560000Y-62520000D02*
X35140000Y-62100000D01*
X38211955Y-64101955D02*
X36630000Y-62520000D01*
X34605714Y-61565714D02*
X35140000Y-62100000D01*
%TO.N,/Storage/CMD*%
X36180000Y-63490000D02*
X36935393Y-64245393D01*
X36935393Y-64247627D02*
X37504848Y-64817082D01*
X34850000Y-63490000D02*
X36180000Y-63490000D01*
X36935393Y-64245393D02*
X36935393Y-64247627D01*
X34850000Y-63490000D02*
X33878643Y-62518643D01*
%TO.N,/Storage/CLK*%
X35101549Y-62980000D02*
X34686959Y-62565410D01*
X37858402Y-64458402D02*
X36380000Y-62980000D01*
X36380000Y-62980000D02*
X35101549Y-62980000D01*
%TO.N,/Storage/DAT0*%
X47500000Y-64190000D02*
X47500000Y-64167697D01*
X47500000Y-64190000D02*
X47218252Y-64190000D01*
X47218252Y-64190000D02*
X45176957Y-66231295D01*
X47500000Y-64167697D02*
X48107403Y-63560294D01*
%TO.N,/Storage/DAT1*%
X46970000Y-63730740D02*
X46970000Y-63731146D01*
X46952903Y-63089524D02*
X47294768Y-62747659D01*
X46952903Y-63713643D02*
X46952903Y-63089524D01*
X46970000Y-63731146D02*
X44823404Y-65877742D01*
X46952903Y-63713643D02*
X46970000Y-63730740D01*
D72*
%TO.N,/Base/LED_LINK_ANODE*%
X35335000Y-87050000D02*
X35340000Y-87045000D01*
X33787500Y-87050000D02*
X35335000Y-87050000D01*
D71*
%TO.N,/Wireless/ACT_ANT_IN*%
X24125000Y-102475000D02*
X24125000Y-100725000D01*
X21889429Y-104710571D02*
X24125000Y-102475000D01*
X23610000Y-100750000D02*
X24665000Y-100750000D01*
X24100000Y-100750000D02*
X23610000Y-100750000D01*
X24125000Y-100725000D02*
X24100000Y-100750000D01*
D72*
%TO.N,/Power/SW*%
X49842550Y-52196297D02*
X50266297Y-52196297D01*
D73*
X50270000Y-52200000D02*
X51536247Y-52200000D01*
X51536247Y-52200000D02*
X51977450Y-51758797D01*
D72*
X50270000Y-52200000D02*
X50266297Y-52196297D01*
D74*
%TO.N,Net-(Q301-Pad1)*%
X39340000Y-85430000D02*
X39340000Y-86920000D01*
X40933703Y-83353796D02*
X40933703Y-83836297D01*
D72*
X40933703Y-83353796D02*
X43148704Y-83353796D01*
D74*
X40933703Y-83836297D02*
X39340000Y-85430000D01*
D71*
%TO.N,Net-(Q301-Pad2)*%
X40933703Y-85253796D02*
X43148704Y-85253796D01*
X44273796Y-90063796D02*
X44000000Y-89790000D01*
X44000000Y-89790000D02*
X44000000Y-85700000D01*
X44000000Y-85700000D02*
X43553796Y-85253796D01*
X44846204Y-90063796D02*
X44273796Y-90063796D01*
%TO.N,/Wireless/HCI_EN*%
X44773796Y-89060000D02*
X44773796Y-88006204D01*
D74*
X64030000Y-98830000D02*
X63803796Y-99056204D01*
X64030500Y-92980000D02*
X64030500Y-93229500D01*
D71*
X45023704Y-86056296D02*
X45023704Y-84303796D01*
D74*
X46490500Y-89719061D02*
X45436652Y-89719061D01*
X64030500Y-93229500D02*
X64030000Y-93230000D01*
D71*
X44773796Y-88006204D02*
X44773796Y-86306204D01*
D74*
X64030000Y-93230000D02*
X64030000Y-98830000D01*
D71*
X44773796Y-86306204D02*
X45023704Y-86056296D01*
D74*
X63803796Y-99056204D02*
X62511204Y-99056204D01*
X45436652Y-89719061D02*
X44777591Y-89060000D01*
D72*
%TO.N,/Wireless/IO9*%
X46840000Y-94290000D02*
X51820000Y-94290000D01*
X37336204Y-84303796D02*
X39058703Y-84303796D01*
X46226205Y-93676205D02*
X46840000Y-94290000D01*
D74*
X48080000Y-91210000D02*
X47240000Y-91210000D01*
X46226205Y-92223795D02*
X46226205Y-92986204D01*
X47240000Y-91210000D02*
X46226205Y-92223795D01*
D71*
X62047100Y-90982900D02*
X62047100Y-84942900D01*
D72*
X51820000Y-94290000D02*
X52611204Y-95081204D01*
D71*
X39058703Y-84303796D02*
X39058703Y-85051297D01*
D72*
X37330000Y-84310000D02*
X37336204Y-84303796D01*
D71*
X63260000Y-83730000D02*
X65340000Y-83730000D01*
D72*
X46226205Y-92986204D02*
X46226205Y-93676205D01*
D71*
X62047100Y-84942900D02*
X63260000Y-83730000D01*
X38276204Y-85833796D02*
X38276204Y-86923796D01*
X39058703Y-85051297D02*
X38276204Y-85833796D01*
X61800000Y-91230000D02*
X62047100Y-90982900D01*
D72*
X52611204Y-95081204D02*
X52611204Y-95756204D01*
D74*
%TO.N,/Base/BOOT0*%
X32507730Y-64067730D02*
X32013030Y-64067730D01*
X35378402Y-66938402D02*
X32507730Y-64067730D01*
D72*
%TO.N,/Wireless/IO8*%
X52346204Y-93426204D02*
X51811204Y-93426204D01*
X50006204Y-92986204D02*
X50460000Y-93440000D01*
X48533704Y-92986204D02*
X50006204Y-92986204D01*
X53411204Y-95756204D02*
X53411204Y-94491204D01*
X53411204Y-94491204D02*
X52346204Y-93426204D01*
X50460000Y-93440000D02*
X51797408Y-93440000D01*
D71*
%TO.N,/Wireless/GPS_RF_IN*%
X22590000Y-100750000D02*
X22590000Y-98850000D01*
X22590000Y-98850000D02*
X22580000Y-98840000D01*
D74*
%TO.N,/Base/LED_LINK*%
X32950000Y-86850000D02*
X32750000Y-87050000D01*
X32950000Y-84107400D02*
X32950000Y-86850000D01*
X36796596Y-73903404D02*
X35800000Y-74900000D01*
X36797742Y-73903404D02*
X36796596Y-73903404D01*
X35800000Y-74900000D02*
X35725000Y-74975000D01*
X35725000Y-74975000D02*
X35725000Y-75275000D01*
X32750000Y-87050000D02*
X32212500Y-87050000D01*
D71*
%TO.N,/Base/LED_STATUS_ANODE*%
X29850000Y-47625000D02*
X30337500Y-47137500D01*
X28250000Y-47625000D02*
X29850000Y-47625000D01*
X30337500Y-47137500D02*
X31925000Y-47137500D01*
D74*
%TO.N,/Base/USB_VBUS*%
X57270000Y-94344500D02*
X57270000Y-76070000D01*
X47300000Y-61000000D02*
X46610000Y-61690000D01*
X46610000Y-62676932D02*
X44116297Y-65170635D01*
X48332466Y-61000000D02*
X47300000Y-61000000D01*
X50635000Y-69435000D02*
X50635000Y-63302534D01*
D72*
X34156205Y-92681204D02*
X33618796Y-92681204D01*
D74*
X46610000Y-61690000D02*
X46610000Y-62676932D01*
D72*
X33618796Y-92681204D02*
X33086205Y-92681204D01*
D74*
X50635000Y-63302534D02*
X48332466Y-61000000D01*
X57365000Y-94439500D02*
X57270000Y-94344500D01*
X57270000Y-76070000D02*
X50635000Y-69435000D01*
D72*
%TO.N,/Power/ADJ*%
X46472460Y-48716204D02*
X47512461Y-48716204D01*
X47512461Y-48716204D02*
X47512461Y-46622461D01*
D74*
%TO.N,/Base/BOOST_EN*%
X49301969Y-63520497D02*
X45884064Y-66938402D01*
X51939500Y-62129500D02*
X50290000Y-60480000D01*
D72*
X47624993Y-55927450D02*
X47007450Y-55927450D01*
D74*
X51939500Y-63520000D02*
X51939500Y-62129500D01*
D72*
X47624993Y-55065007D02*
X47624993Y-55927450D01*
X47007450Y-55927450D02*
X47000000Y-55920000D01*
X47942550Y-54747450D02*
X47624993Y-55065007D01*
D74*
X50290000Y-60480000D02*
X50290000Y-58930000D01*
X50110500Y-63520497D02*
X49301969Y-63520497D01*
D72*
%TO.N,/Power/FB*%
X47512461Y-50772461D02*
X47512461Y-50602583D01*
X46472460Y-50602583D02*
X47512461Y-50602583D01*
X47942550Y-51202550D02*
X47512461Y-50772461D01*
X47942550Y-52196297D02*
X47942550Y-51202550D01*
D71*
%TO.N,/Base/CAN_STBY*%
X27130000Y-40740000D02*
X25727592Y-40740000D01*
X19680000Y-83500000D02*
X19790000Y-83610000D01*
X27658796Y-42168796D02*
X27658796Y-41268796D01*
D74*
X46765500Y-76199054D02*
X44469850Y-73903404D01*
D71*
X25861204Y-42168796D02*
X27658796Y-42168796D01*
X22530000Y-47010000D02*
X24160000Y-47010000D01*
X25630000Y-45540000D02*
X25630000Y-42400000D01*
X25630000Y-42400000D02*
X25861204Y-42168796D01*
X24160000Y-47010000D02*
X25630000Y-45540000D01*
X21840000Y-59870000D02*
X20130000Y-59870000D01*
X27658796Y-41268796D02*
X27130000Y-40740000D01*
D74*
X46765500Y-77950000D02*
X46765500Y-76199054D01*
D71*
X21820000Y-47720000D02*
X22530000Y-47010000D01*
X19680000Y-60320000D02*
X19680000Y-83500000D01*
X21820000Y-50440000D02*
X21820000Y-47720000D01*
X20130000Y-59870000D02*
X19680000Y-60320000D01*
D75*
%TO.N,/USB/DEN*%
X38233796Y-90306204D02*
X38233796Y-90566204D01*
X37203198Y-90780000D02*
X38020000Y-90780000D01*
X37203198Y-90780000D02*
X37166803Y-90743605D01*
X38233796Y-90566204D02*
X38020000Y-90780000D01*
%TO.N,/USB/DSEL*%
X35103796Y-90623796D02*
X35270000Y-90790000D01*
X35270000Y-90790000D02*
X36286408Y-90790000D01*
X36286408Y-90790000D02*
X36332803Y-90743605D01*
X35103796Y-90306205D02*
X35103796Y-90623796D01*
D72*
%TO.N,/Wireless/GPS_SDA*%
X28080000Y-98840000D02*
X28080000Y-95420000D01*
X28913796Y-94586204D02*
X33466205Y-94586204D01*
X28080000Y-95420000D02*
X28913796Y-94586204D01*
%TO.N,/Wireless/GPS_SCL*%
X29730000Y-96750000D02*
X33450000Y-96750000D01*
X29180000Y-98840000D02*
X29180000Y-97300000D01*
X29180000Y-97300000D02*
X29730000Y-96750000D01*
D74*
%TO.N,/Base/LED_STATUS*%
X36444188Y-65869188D02*
X35650000Y-65075000D01*
D71*
X31925000Y-48712500D02*
X31925000Y-52800000D01*
D74*
X35675000Y-57250000D02*
X35675000Y-55525000D01*
X36444188Y-65877742D02*
X36444188Y-65869188D01*
D71*
X31925000Y-52800000D02*
X32200000Y-53075000D01*
D74*
X35650000Y-65075000D02*
X32175000Y-61600000D01*
X36650000Y-58225000D02*
X35675000Y-57250000D01*
D71*
X33400000Y-53250000D02*
X34450000Y-54300000D01*
X32375000Y-53250000D02*
X33050000Y-53250000D01*
X32200000Y-53075000D02*
X32375000Y-53250000D01*
D74*
X35675000Y-55525000D02*
X34450000Y-54300000D01*
X32175000Y-61600000D02*
X32150000Y-61600000D01*
D71*
X33050000Y-53250000D02*
X33400000Y-53250000D01*
D74*
%TO.N,/Base/SPI2_MISO*%
X38440000Y-68485000D02*
X38440000Y-72968252D01*
X41550257Y-65374743D02*
X38440000Y-68485000D01*
X52450000Y-60370000D02*
X53580000Y-59240000D01*
X38440000Y-72968252D02*
X37151295Y-74256957D01*
X53580000Y-59240000D02*
X53580000Y-53931370D01*
X53580000Y-53931370D02*
X56113796Y-51397574D01*
X56113796Y-40036204D02*
X56690000Y-39460000D01*
X41570000Y-65374743D02*
X41550257Y-65374743D01*
X56690000Y-39460000D02*
X58300000Y-39460000D01*
X56113796Y-51397574D02*
X56113796Y-40036204D01*
%TO.N,/Base/SPI2_MOSI*%
X41534035Y-66305965D02*
X41534035Y-66304035D01*
X57075000Y-42000000D02*
X58300000Y-42000000D01*
X38860000Y-68980000D02*
X41534035Y-66305965D01*
X56513796Y-42561204D02*
X57075000Y-42000000D01*
X38860000Y-73255358D02*
X38860000Y-68980000D01*
X37504848Y-74610510D02*
X38860000Y-73255358D01*
X54000000Y-54077056D02*
X56513796Y-51563260D01*
X53390000Y-60420000D02*
X54000000Y-59810000D01*
X54000000Y-59810000D02*
X54000000Y-54077056D01*
X56513796Y-51563260D02*
X56513796Y-42561204D01*
%TO.N,/Base/USART2_CTS*%
X37440000Y-78050000D02*
X37440000Y-76796680D01*
X39790000Y-79820000D02*
X39210000Y-79820000D01*
X37440000Y-76796680D02*
X38565509Y-75671171D01*
X39210000Y-79820000D02*
X37440000Y-78050000D01*
%TO.N,/Base/USART2_RTS*%
X39150000Y-79090000D02*
X37860000Y-77800000D01*
X37860000Y-77800000D02*
X37860000Y-77083786D01*
X39750000Y-79090000D02*
X39150000Y-79090000D01*
X37860000Y-77083786D02*
X38919062Y-76024724D01*
D71*
%TO.N,/Base/USART2_TX*%
X55811204Y-85188796D02*
X55811204Y-95756204D01*
D74*
X38260000Y-77634314D02*
X38260000Y-77390000D01*
X38990000Y-78364314D02*
X38260000Y-77634314D01*
X38260000Y-77390000D02*
X39271723Y-76378277D01*
X39714314Y-78364314D02*
X38990000Y-78364314D01*
%TO.N,/Base/USART2_RX*%
X43370000Y-77753300D02*
X41994977Y-76378277D01*
X43370000Y-80098244D02*
X43370000Y-77753300D01*
D71*
X56611204Y-84671204D02*
X56580000Y-84640000D01*
X56611204Y-95756204D02*
X56611204Y-84671204D01*
D74*
X44545878Y-81274122D02*
X43370000Y-80098244D01*
%TO.N,/Base/SPI1_NSS*%
X57750000Y-61580000D02*
X57760001Y-61580000D01*
X57760001Y-61580000D02*
X58300000Y-61040001D01*
X55630000Y-68135501D02*
X55630000Y-67470000D01*
X44733557Y-68123557D02*
X41380000Y-71477114D01*
X56970000Y-66130000D02*
X56970000Y-62360000D01*
X55630000Y-67470000D02*
X56970000Y-66130000D01*
X41380000Y-71477114D02*
X41380000Y-73641980D01*
X41380000Y-73641980D02*
X43055637Y-75317617D01*
X56970000Y-62360000D02*
X57750000Y-61580000D01*
%TO.N,/Base/SPI1_SCK*%
X55770000Y-64370500D02*
X55770000Y-54569800D01*
X41790000Y-73350000D02*
X43404064Y-74964064D01*
X44240000Y-69280000D02*
X41790000Y-71730000D01*
X50110500Y-66200000D02*
X49510000Y-66200000D01*
X41790000Y-71730000D02*
X41790000Y-73350000D01*
X48970000Y-67317288D02*
X47007288Y-69280000D01*
X47007288Y-69280000D02*
X44240000Y-69280000D01*
X49510000Y-66200000D02*
X48970000Y-66740000D01*
X54581000Y-65559500D02*
X55770000Y-64370500D01*
X54581000Y-66193050D02*
X54581000Y-65559500D01*
X48970000Y-66740000D02*
X48970000Y-67317288D01*
X55770000Y-54569800D02*
X56919799Y-53420001D01*
X56919799Y-53420001D02*
X58300000Y-53420001D01*
%TO.N,/Base/SPI1_MISO*%
X42280000Y-71910000D02*
X42280000Y-73130000D01*
X49370000Y-67210000D02*
X49370000Y-67482974D01*
X56949999Y-58500001D02*
X58300000Y-58500001D01*
X47172973Y-69680000D02*
X44510000Y-69680000D01*
X55880000Y-66180000D02*
X56570000Y-65490000D01*
X56570000Y-58880000D02*
X56949999Y-58500001D01*
X49687183Y-66892817D02*
X49370000Y-67210000D01*
X56570000Y-65490000D02*
X56570000Y-58880000D01*
X42280000Y-73130000D02*
X43760510Y-74610510D01*
X44510000Y-69680000D02*
X42280000Y-71910000D01*
X49370000Y-67482974D02*
X47172973Y-69680000D01*
X50035154Y-66892817D02*
X49687183Y-66892817D01*
%TO.N,/Base/SPI1_MOSI*%
X57009999Y-55960001D02*
X58300000Y-55960001D01*
X47338660Y-70080000D02*
X44840000Y-70080000D01*
X55105500Y-67615500D02*
X55105500Y-65864500D01*
X49878660Y-67540000D02*
X47338660Y-70080000D01*
X42790000Y-72920000D02*
X44116297Y-74246297D01*
X56170000Y-56800000D02*
X57009999Y-55960001D01*
X50090000Y-67540000D02*
X49878660Y-67540000D01*
X56170000Y-64800000D02*
X56170000Y-56800000D01*
X44840000Y-70080000D02*
X42790000Y-72130000D01*
X55105500Y-65864500D02*
X56170000Y-64800000D01*
X42790000Y-72130000D02*
X42790000Y-72920000D01*
%TO.N,/Base/SPI1_IO1*%
X59550000Y-64830001D02*
X58300000Y-63580001D01*
X59760000Y-72415500D02*
X59550000Y-72205500D01*
X43630000Y-72356446D02*
X44823404Y-73549850D01*
X59550000Y-72205500D02*
X59550000Y-64830001D01*
X43630000Y-72290000D02*
X43630000Y-72356446D01*
D71*
%TO.N,Net-(D405-Pad2)*%
X33550000Y-50200000D02*
X33550000Y-48712500D01*
D74*
%TO.N,/Base/BOOT1*%
X44310000Y-71580000D02*
X44310000Y-71622234D01*
X44310000Y-71622234D02*
X45530510Y-72842744D01*
D71*
%TO.N,/Base/USART3_TX*%
X28080000Y-89340000D02*
X28080000Y-86880000D01*
X31125000Y-83000000D02*
X38475310Y-83000000D01*
X38475310Y-83000000D02*
X42140000Y-79335310D01*
D74*
X47290000Y-73188020D02*
X46237617Y-72135637D01*
D71*
X42140000Y-79335310D02*
X42140000Y-78320000D01*
D74*
X47290000Y-80400000D02*
X47290000Y-73188020D01*
D71*
X30542500Y-84417500D02*
X30542500Y-83582500D01*
D74*
X46710000Y-80545500D02*
X47144500Y-80545500D01*
X47144500Y-80545500D02*
X47290000Y-80400000D01*
D71*
X28080000Y-86880000D02*
X30542500Y-84417500D01*
X30542500Y-83582500D02*
X31125000Y-83000000D01*
%TO.N,/Base/USART3_RX*%
X31140000Y-84740000D02*
X31140000Y-83785000D01*
X42720000Y-78962600D02*
X42717400Y-78960000D01*
D74*
X47050000Y-81180000D02*
X47440000Y-81180000D01*
X47690000Y-72880912D02*
X46591171Y-71782083D01*
X47440000Y-81180000D02*
X47690000Y-80930000D01*
D71*
X29180000Y-86700000D02*
X31140000Y-84740000D01*
X38730000Y-83530000D02*
X42720000Y-79540000D01*
X31395000Y-83530000D02*
X38730000Y-83530000D01*
X31140000Y-83785000D02*
X31395000Y-83530000D01*
D74*
X47690000Y-80930000D02*
X47690000Y-72880912D01*
D71*
X29180000Y-89340000D02*
X29180000Y-86700000D01*
X42720000Y-79540000D02*
X42720000Y-78962600D01*
D74*
%TO.N,/Base/SPI2_NSS*%
X48570000Y-67080892D02*
X48570000Y-66420000D01*
X48570000Y-66420000D02*
X49439503Y-65550497D01*
X58815000Y-51960000D02*
X59500000Y-51275000D01*
X55320000Y-54454114D02*
X57814114Y-51960000D01*
X55022561Y-64072561D02*
X55320000Y-63775122D01*
X59500000Y-47525000D02*
X59055000Y-47080000D01*
X59055000Y-47080000D02*
X58300000Y-47080000D01*
X49439503Y-65550497D02*
X50110500Y-65550497D01*
X57814114Y-51960000D02*
X58815000Y-51960000D01*
X59500000Y-51275000D02*
X59500000Y-47525000D01*
X47298277Y-68352615D02*
X48570000Y-67080892D01*
X55320000Y-63775122D02*
X55320000Y-54454114D01*
%TO.N,/Base/SPI2_SCK*%
X54920000Y-62975500D02*
X54920000Y-54288428D01*
X58108428Y-51100000D02*
X58125000Y-51100000D01*
X54920000Y-54288428D02*
X58108428Y-51100000D01*
X54562750Y-63332750D02*
X54920000Y-62975500D01*
X58125000Y-51100000D02*
X58300000Y-50925000D01*
X46944724Y-67999062D02*
X48170000Y-66773786D01*
X48170000Y-66773786D02*
X48170000Y-66120000D01*
X49400000Y-64890000D02*
X50110500Y-64890000D01*
X48170000Y-66120000D02*
X49400000Y-64890000D01*
X58300000Y-50925000D02*
X58300000Y-49620000D01*
%TO.N,/Base/SPI2_INT*%
X56913796Y-51728946D02*
X56913796Y-44911204D01*
X54520000Y-62360000D02*
X54520000Y-54122742D01*
X54520000Y-54122742D02*
X56913796Y-51728946D01*
X54180000Y-62700000D02*
X54520000Y-62360000D01*
X49450000Y-64170000D02*
X50110500Y-64170000D01*
X57285000Y-44540000D02*
X58300000Y-44540000D01*
X47770000Y-66466680D02*
X47770000Y-65850000D01*
X46591171Y-67645509D02*
X47770000Y-66466680D01*
X47770000Y-65850000D02*
X49450000Y-64170000D01*
X56913796Y-44911204D02*
X57285000Y-44540000D01*
D71*
%TO.N,/Base/GPS_PPS*%
X40760000Y-80000000D02*
X40760000Y-77700000D01*
D74*
X40760000Y-77700000D02*
X40760000Y-77360000D01*
X40760000Y-77360000D02*
X40630000Y-77230000D01*
D71*
X29915000Y-83110000D02*
X30605000Y-82420000D01*
D74*
X40630000Y-77230000D02*
X40630000Y-71485358D01*
D71*
X30605000Y-82420000D02*
X38340000Y-82420000D01*
X38340000Y-82420000D02*
X40760000Y-80000000D01*
D74*
X40630000Y-71485358D02*
X45530510Y-66584848D01*
D71*
X29915000Y-84165000D02*
X29915000Y-83110000D01*
X26980000Y-89340000D02*
X26980000Y-87100000D01*
X26980000Y-87100000D02*
X29915000Y-84165000D01*
D74*
%TO.N,/Base/SPI1_INT*%
X41370001Y-68660001D02*
X41370001Y-68624037D01*
X41370001Y-68624037D02*
X44469850Y-65524188D01*
%TO.N,/Base/USB_DM*%
X51415000Y-69111912D02*
X59450000Y-77146912D01*
X51415000Y-62490000D02*
X51415000Y-69111912D01*
X49730000Y-58380000D02*
X49730000Y-60805000D01*
X45883397Y-61144007D02*
X45619122Y-61408282D01*
X49730000Y-60805000D02*
X51415000Y-62490000D01*
X45619122Y-62253596D02*
X43409190Y-64463528D01*
D75*
X34933405Y-91393405D02*
X36089403Y-91393405D01*
D74*
X45619122Y-61408282D02*
X45619122Y-62253596D01*
X45883397Y-60185878D02*
X45883397Y-61144007D01*
D75*
X34680000Y-91140000D02*
X34933405Y-91393405D01*
D74*
X59450000Y-77146912D02*
X59450000Y-91764500D01*
%TO.N,/Base/USB_DP*%
X49129970Y-58887472D02*
X49129970Y-61004970D01*
X45239122Y-61926490D02*
X43055637Y-64109975D01*
X51035000Y-62910000D02*
X51035000Y-69269314D01*
D75*
X38781716Y-91151716D02*
X38540027Y-91393405D01*
D74*
X49129970Y-61004970D02*
X51035000Y-62910000D01*
X58810000Y-77044314D02*
X58810000Y-91764500D01*
X45239122Y-59490878D02*
X45239122Y-61926490D01*
D75*
X38540027Y-91393405D02*
X37410203Y-91393405D01*
D74*
X51035000Y-69269314D02*
X58810000Y-77044314D01*
%TO.N,/Base/~{GPS_RESET}*%
X32271372Y-63173128D02*
X32325362Y-63173128D01*
D71*
X20590000Y-63910000D02*
X20590000Y-86040000D01*
X20590000Y-86040000D02*
X21480000Y-86930000D01*
D74*
X32325362Y-63173128D02*
X35737082Y-66584848D01*
D71*
X21480000Y-86930000D02*
X21480000Y-89340000D01*
D74*
%TO.N,/Base/CAN1_RX*%
X21050000Y-55226496D02*
X21050000Y-46230000D01*
X35029975Y-67291955D02*
X32548020Y-64810000D01*
X21050000Y-46230000D02*
X21301204Y-45978796D01*
X32548020Y-64810000D02*
X30633504Y-64810000D01*
X21301204Y-45978796D02*
X22708796Y-45978796D01*
X30633504Y-64810000D02*
X21050000Y-55226496D01*
%TO.N,/Base/CAN1_TX*%
X19290000Y-42617500D02*
X19738704Y-42168796D01*
X19738704Y-42168796D02*
X22708796Y-42168796D01*
X30467818Y-65210000D02*
X20480000Y-55222182D01*
X20480000Y-55222182D02*
X20480000Y-46220000D01*
X19290000Y-45030000D02*
X19290000Y-42617500D01*
X20480000Y-46220000D02*
X19290000Y-45030000D01*
X34675509Y-67645509D02*
X32240000Y-65210000D01*
X32240000Y-65210000D02*
X30467818Y-65210000D01*
%TO.N,/Wireless/LORA_MISO*%
X64093796Y-101456204D02*
X62511204Y-101456204D01*
D71*
X51290000Y-83020000D02*
X51290000Y-83410000D01*
D74*
X65080000Y-100470000D02*
X64093796Y-101456204D01*
X65080000Y-93000000D02*
X65080000Y-100470000D01*
D71*
X50970000Y-83730000D02*
X49340000Y-83730000D01*
X51290000Y-83410000D02*
X50970000Y-83730000D01*
D74*
%TO.N,/Wireless/LORA_BUSY*%
X64013796Y-100656204D02*
X62511204Y-100656204D01*
D71*
X54830000Y-81080000D02*
X51480000Y-77730000D01*
D74*
X64555000Y-100115000D02*
X64013796Y-100656204D01*
X64940878Y-91349122D02*
X64555000Y-91735000D01*
D71*
X51480000Y-77730000D02*
X49340000Y-77730000D01*
X56300000Y-81080000D02*
X54830000Y-81080000D01*
D74*
X64555000Y-91735000D02*
X64555000Y-100115000D01*
D71*
%TO.N,/Wireless/LORA_DIO1*%
X61180000Y-92132985D02*
X61180000Y-80110000D01*
X60611204Y-92701781D02*
X61180000Y-92132985D01*
X61180000Y-80110000D02*
X61560000Y-79730000D01*
X60611204Y-95756204D02*
X60611204Y-92701781D01*
X61560000Y-79730000D02*
X65340000Y-79730000D01*
%TO.N,/Wireless/LORA_NSS*%
X58211204Y-88131204D02*
X58211204Y-95756204D01*
X50730000Y-87730000D02*
X49340000Y-87730000D01*
%TO.N,/Wireless/LORA_SCK*%
X52070000Y-84790000D02*
X52070000Y-82490000D01*
X52070000Y-82490000D02*
X51310000Y-81730000D01*
X51310000Y-81730000D02*
X49340000Y-81730000D01*
X51000000Y-85100000D02*
X51760000Y-85100000D01*
X51760000Y-85100000D02*
X52070000Y-84790000D01*
X55011204Y-85818796D02*
X55011204Y-95756204D01*
%TO.N,/Wireless/LORA_MOSI*%
X54210000Y-86380000D02*
X54210000Y-95755000D01*
X51510000Y-85730000D02*
X49340000Y-85730000D01*
D72*
%TO.N,/Wireless/GPS_VBACKUP*%
X24780000Y-89340000D02*
X24780000Y-88120000D01*
X25100000Y-87800000D02*
X25800000Y-87800000D01*
X28976205Y-84251165D02*
X28976205Y-82721296D01*
X25800000Y-87800000D02*
X26323796Y-87276204D01*
X26323796Y-86203796D02*
X27023574Y-86203796D01*
X27023574Y-86203796D02*
X28976205Y-84251165D01*
X24780000Y-88120000D02*
X25100000Y-87800000D01*
X26323796Y-87276204D02*
X26323796Y-86203796D01*
D75*
%TO.N,/USB/USB_ESD_VCC*%
X36325000Y-89950000D02*
X36193796Y-89818796D01*
X36749803Y-90733005D02*
X36749803Y-90149803D01*
X36749803Y-90149803D02*
X36550000Y-89950000D01*
X36193796Y-89818796D02*
X36193796Y-89343796D01*
X36550000Y-89950000D02*
X36325000Y-89950000D01*
%TO.N,/USB/USB_ESD_GND*%
X36749803Y-93699803D02*
X36750000Y-93700000D01*
X36749803Y-92460205D02*
X36749803Y-93699803D01*
%TD*%
%TA.AperFunction,Conductor*%
%TO.N,+3V3*%
G36*
X38542121Y-41420002D02*
G01*
X38588614Y-41473658D01*
X38600000Y-41526000D01*
X38600000Y-47074000D01*
X38579998Y-47142121D01*
X38526342Y-47188614D01*
X38474000Y-47200000D01*
X38065602Y-47200000D01*
X37997481Y-47179998D01*
X37962379Y-47146256D01*
X37300000Y-46200000D01*
X35700000Y-46200000D01*
X35693438Y-46208437D01*
X35037833Y-47051357D01*
X34980223Y-47092848D01*
X34938375Y-47100000D01*
X33926000Y-47100000D01*
X33857879Y-47079998D01*
X33811386Y-47026342D01*
X33800000Y-46974000D01*
X33800000Y-43961973D01*
X33820002Y-43893852D01*
X33836905Y-43872878D01*
X34172878Y-43536905D01*
X34235190Y-43502879D01*
X34261973Y-43500000D01*
X34839441Y-43500000D01*
X34907562Y-43520002D01*
X34937830Y-43547288D01*
X35269578Y-43961973D01*
X35700000Y-44500000D01*
X37300000Y-44500000D01*
X37977815Y-41498246D01*
X38012331Y-41436205D01*
X38074909Y-41402672D01*
X38100721Y-41400000D01*
X38474000Y-41400000D01*
X38542121Y-41420002D01*
G37*
%TD.AperFunction*%
%TD*%
%TA.AperFunction,Conductor*%
%TO.N,/Power/VOUT*%
G36*
X46442121Y-53820002D02*
G01*
X46488614Y-53873658D01*
X46500000Y-53926000D01*
X46500000Y-57574000D01*
X46479998Y-57642121D01*
X46426342Y-57688614D01*
X46374000Y-57700000D01*
X45652190Y-57700000D01*
X45584069Y-57679998D01*
X45563095Y-57663095D01*
X45200000Y-57300000D01*
X43957175Y-57300000D01*
X43889054Y-57279998D01*
X43862350Y-57256972D01*
X43211928Y-56513632D01*
X43200000Y-56500000D01*
X40126000Y-56500000D01*
X40057879Y-56479998D01*
X40011386Y-56426342D01*
X40000000Y-56374000D01*
X40000000Y-54726000D01*
X40020002Y-54657879D01*
X40073658Y-54611386D01*
X40126000Y-54600000D01*
X43100000Y-54600000D01*
X43689750Y-53926000D01*
X43762351Y-53843028D01*
X43822262Y-53804934D01*
X43857176Y-53800000D01*
X46374000Y-53800000D01*
X46442121Y-53820002D01*
G37*
%TD.AperFunction*%
%TD*%
%TA.AperFunction,Conductor*%
%TO.N,/Base/VBAT*%
G36*
X24942121Y-61820002D02*
G01*
X24988614Y-61873658D01*
X25000000Y-61926000D01*
X25000000Y-62600000D01*
X25600000Y-62800000D01*
X26074000Y-62800000D01*
X26142121Y-62820002D01*
X26188614Y-62873658D01*
X26200000Y-62926000D01*
X26200000Y-63074000D01*
X26179998Y-63142121D01*
X26126342Y-63188614D01*
X26074000Y-63200000D01*
X24833219Y-63200000D01*
X24771099Y-63183623D01*
X24263879Y-62896198D01*
X24214475Y-62845212D01*
X24200000Y-62786576D01*
X24200000Y-61926000D01*
X24220002Y-61857879D01*
X24273658Y-61811386D01*
X24326000Y-61800000D01*
X24874000Y-61800000D01*
X24942121Y-61820002D01*
G37*
%TD.AperFunction*%
%TD*%
%TA.AperFunction,Conductor*%
%TO.N,+3V3*%
G36*
X21319398Y-60406466D02*
G01*
X21900000Y-60600000D01*
X23374000Y-60600000D01*
X23442121Y-60620002D01*
X23488614Y-60673658D01*
X23500000Y-60726000D01*
X23500000Y-61474000D01*
X23479998Y-61542121D01*
X23426342Y-61588614D01*
X23374000Y-61600000D01*
X21900000Y-61600000D01*
X21319398Y-61793534D01*
X21279553Y-61800000D01*
X20209400Y-61800000D01*
X20141279Y-61779998D01*
X20094786Y-61726342D01*
X20083400Y-61674000D01*
X20083400Y-60539284D01*
X20103402Y-60471163D01*
X20120305Y-60450189D01*
X20133589Y-60436905D01*
X20195901Y-60402879D01*
X20222684Y-60400000D01*
X21279553Y-60400000D01*
X21319398Y-60406466D01*
G37*
%TD.AperFunction*%
%TD*%
%TA.AperFunction,Conductor*%
%TO.N,Net-(BT301-Pad1)*%
G36*
X28342121Y-79920002D02*
G01*
X28388614Y-79973658D01*
X28400000Y-80026000D01*
X28400000Y-81574000D01*
X28379998Y-81642121D01*
X28326342Y-81688614D01*
X28274000Y-81700000D01*
X27200000Y-81700000D01*
X24937805Y-84453977D01*
X24879109Y-84493920D01*
X24840441Y-84500000D01*
X23508424Y-84500000D01*
X23440303Y-84479998D01*
X23419329Y-84463095D01*
X23275405Y-84319171D01*
X23241379Y-84256859D01*
X23238500Y-84230076D01*
X23238500Y-83370231D01*
X23237814Y-83363227D01*
X23224681Y-83229301D01*
X23224080Y-83223167D01*
X23166916Y-83033831D01*
X23153248Y-83008125D01*
X23138500Y-82948972D01*
X23138500Y-82426000D01*
X23158502Y-82357879D01*
X23212158Y-82311386D01*
X23264500Y-82300000D01*
X24700000Y-82300000D01*
X26879250Y-80026000D01*
X26962798Y-79938820D01*
X27024373Y-79903477D01*
X27053769Y-79900000D01*
X28274000Y-79900000D01*
X28342121Y-79920002D01*
G37*
%TD.AperFunction*%
%TD*%
%TA.AperFunction,Conductor*%
%TO.N,+3V3*%
G36*
X31842121Y-79820002D02*
G01*
X31888614Y-79873658D01*
X31900000Y-79926000D01*
X31900000Y-81874000D01*
X31879998Y-81942121D01*
X31826342Y-81988614D01*
X31774000Y-82000000D01*
X31133462Y-82000000D01*
X31070948Y-81983399D01*
X30414277Y-81608158D01*
X30414276Y-81608158D01*
X30400000Y-81600000D01*
X29726000Y-81600000D01*
X29657879Y-81579998D01*
X29611386Y-81526342D01*
X29600000Y-81474000D01*
X29600000Y-80226000D01*
X29620002Y-80157879D01*
X29673658Y-80111386D01*
X29726000Y-80100000D01*
X30400000Y-80100000D01*
X31076228Y-79810188D01*
X31125862Y-79800000D01*
X31774000Y-79800000D01*
X31842121Y-79820002D01*
G37*
%TD.AperFunction*%
%TD*%
%TA.AperFunction,Conductor*%
%TO.N,Net-(BT201-Pad1)*%
G36*
X23192121Y-62720002D02*
G01*
X23238614Y-62773658D01*
X23250000Y-62826000D01*
X23250000Y-63635837D01*
X23229998Y-63703958D01*
X23198110Y-63737738D01*
X22700000Y-64100000D01*
X22700000Y-66274000D01*
X22679998Y-66342121D01*
X22626342Y-66388614D01*
X22574000Y-66400000D01*
X21826000Y-66400000D01*
X21757879Y-66379998D01*
X21711386Y-66326342D01*
X21700000Y-66274000D01*
X21700000Y-64100000D01*
X21381175Y-63735628D01*
X21351371Y-63671191D01*
X21350000Y-63652657D01*
X21350000Y-62826000D01*
X21370002Y-62757879D01*
X21423658Y-62711386D01*
X21476000Y-62700000D01*
X23124000Y-62700000D01*
X23192121Y-62720002D01*
G37*
%TD.AperFunction*%
%TD*%
M02*
