%TF.GenerationSoftware,KiCad,Pcbnew,(6.0.9)*%
%TF.CreationDate,2023-01-07T15:13:03-07:00*%
%TF.ProjectId,gd32-devboard,67643332-2d64-4657-9662-6f6172642e6b,rev?*%
%TF.SameCoordinates,Original*%
%TF.FileFunction,Copper,L2,Inr*%
%TF.FilePolarity,Positive*%
%FSLAX46Y46*%
G04 Gerber Fmt 4.6, Leading zero omitted, Abs format (unit mm)*
G04 Created by KiCad (PCBNEW (6.0.9)) date 2023-01-07 15:13:03*
%MOMM*%
%LPD*%
G01*
G04 APERTURE LIST*
%TA.AperFunction,ComponentPad*%
%ADD10R,1.700000X1.700000*%
%TD*%
%TA.AperFunction,ComponentPad*%
%ADD11O,1.700000X1.700000*%
%TD*%
%TA.AperFunction,ComponentPad*%
%ADD12C,4.000000*%
%TD*%
%TA.AperFunction,ComponentPad*%
%ADD13R,1.600000X1.600000*%
%TD*%
%TA.AperFunction,ComponentPad*%
%ADD14C,1.600000*%
%TD*%
%TA.AperFunction,ViaPad*%
%ADD15C,0.450000*%
%TD*%
%TA.AperFunction,ViaPad*%
%ADD16C,0.800000*%
%TD*%
G04 APERTURE END LIST*
D10*
%TO.N,/Base/SPI2_SCK*%
%TO.C,J901*%
X58300000Y-49620000D03*
D11*
%TO.N,GND*%
X60840000Y-49620000D03*
%TO.N,/Base/SPI2_NSS*%
X58300000Y-47080000D03*
%TO.N,GND*%
X60840000Y-47080000D03*
%TO.N,/Base/SPI2_INT*%
X58300000Y-44540000D03*
%TO.N,GND*%
X60840000Y-44540000D03*
%TO.N,/Base/SPI2_MOSI*%
X58300000Y-42000000D03*
%TO.N,GND*%
X60840000Y-42000000D03*
%TO.N,/Base/SPI2_MISO*%
X58300000Y-39460000D03*
%TO.N,GND*%
X60840000Y-39460000D03*
%TD*%
D12*
%TO.N,unconnected-(J401-Pad0)*%
%TO.C,J401*%
X26556205Y-36496866D03*
X51556205Y-36496866D03*
D13*
%TO.N,unconnected-(J401-Pad1)*%
X33516205Y-36796866D03*
D14*
%TO.N,/CAN/CAN_L*%
X36286205Y-36796866D03*
%TO.N,GND*%
X39056205Y-36796866D03*
%TO.N,unconnected-(J401-Pad4)*%
X41826205Y-36796866D03*
%TO.N,unconnected-(J401-Pad5)*%
X44596205Y-36796866D03*
%TO.N,unconnected-(J401-Pad6)*%
X34901205Y-33956866D03*
%TO.N,/CAN/CAN_H*%
X37671205Y-33956866D03*
%TO.N,unconnected-(J401-Pad8)*%
X40441205Y-33956866D03*
%TO.N,/Power/12VIN*%
X43211205Y-33956866D03*
%TD*%
D10*
%TO.N,/Base/USART1_RX*%
%TO.C,J801*%
X58300000Y-71200001D03*
D11*
%TO.N,/Base/USART1_TX*%
X60840000Y-71200001D03*
%TO.N,/Base/SPI1_INT*%
X58300000Y-68660001D03*
%TO.N,GND*%
X60840000Y-68660001D03*
%TO.N,/Base/BOOT1*%
X58300000Y-66120001D03*
%TO.N,GND*%
X60840000Y-66120001D03*
%TO.N,/Base/SPI1_IO1*%
X58300000Y-63580001D03*
%TO.N,GND*%
X60840000Y-63580001D03*
%TO.N,/Base/SPI1_NSS*%
X58300000Y-61040001D03*
%TO.N,GND*%
X60840000Y-61040001D03*
%TO.N,/Base/SPI1_MISO*%
X58300000Y-58500001D03*
%TO.N,GND*%
X60840000Y-58500001D03*
%TO.N,/Base/SPI1_MOSI*%
X58300000Y-55960001D03*
%TO.N,GND*%
X60840000Y-55960001D03*
%TO.N,/Base/SPI1_SCK*%
X58300000Y-53420001D03*
%TO.N,GND*%
X60840000Y-53420001D03*
%TD*%
D15*
%TO.N,GND*%
X59750000Y-100660000D03*
X26086204Y-61606204D03*
X43620000Y-90490000D03*
X59460000Y-103490000D03*
X47761203Y-53358797D03*
X31700000Y-75900000D03*
X24890000Y-53770000D03*
X57410000Y-106580000D03*
X23730000Y-66492600D03*
X28660000Y-53960000D03*
X33550000Y-52675000D03*
X25150000Y-101475000D03*
X23157107Y-104857107D03*
X30280000Y-87900000D03*
X30700000Y-63940000D03*
X53270000Y-98680000D03*
X55010000Y-106580000D03*
X30940000Y-70990000D03*
X31700000Y-76600000D03*
X53290000Y-102630000D03*
X50675000Y-95000000D03*
X52610000Y-106580000D03*
X46490000Y-89060000D03*
X32070000Y-93670000D03*
X46992461Y-56950000D03*
X61410000Y-106580000D03*
X53410000Y-106580000D03*
X55810000Y-106580000D03*
D16*
X52713796Y-41796204D03*
D15*
X62561204Y-94608796D03*
X42100000Y-61575000D03*
X51550000Y-72250000D03*
X48540000Y-47910000D03*
X21737500Y-103462500D03*
X50980000Y-75740000D03*
X60610000Y-106580000D03*
X56600000Y-103990000D03*
X56610000Y-106580000D03*
X23970000Y-54640000D03*
X53270000Y-100660000D03*
X24400000Y-86210000D03*
X43340000Y-98478045D03*
X58210000Y-106580000D03*
X51810000Y-106580000D03*
X28425000Y-100725000D03*
X45535000Y-79765000D03*
X35209122Y-76940878D03*
X43350000Y-60325000D03*
X59740000Y-98690000D03*
X23675000Y-96925500D03*
X21475000Y-96925500D03*
X27840000Y-54920000D03*
X50810000Y-89740000D03*
X47221203Y-53358797D03*
X59810000Y-106580000D03*
X31968675Y-66011325D03*
X19980000Y-43600000D03*
X23260000Y-74640000D03*
X50660000Y-106580000D03*
X54210000Y-106580000D03*
X56610000Y-97530000D03*
X54630000Y-97540000D03*
X59010000Y-106580000D03*
X58590000Y-97530000D03*
X48301203Y-53358797D03*
X35520000Y-79450000D03*
X34393795Y-89286205D03*
X38860000Y-48950000D03*
X23100000Y-101525000D03*
X52440000Y-58180000D03*
X32620000Y-60250000D03*
%TO.N,+3V3*%
X31400000Y-81500000D03*
X43729227Y-61304227D03*
X19980000Y-44560000D03*
X61600000Y-94540000D03*
X34560000Y-44015000D03*
X31400000Y-80300000D03*
X65300000Y-102010000D03*
X50860000Y-92410000D03*
X47655640Y-61524500D03*
X46240000Y-79110000D03*
X20700000Y-61400000D03*
X21770000Y-86200000D03*
X36110000Y-81580000D03*
X34200000Y-80850000D03*
X34560000Y-46585000D03*
X25750000Y-47600000D03*
X32670000Y-61060000D03*
X30900000Y-80900000D03*
X34560000Y-44657500D03*
X23180000Y-72450000D03*
X49000000Y-71299500D03*
X34140000Y-59590000D03*
X37000000Y-87975000D03*
X34560000Y-45942500D03*
X46490000Y-88000000D03*
X21300000Y-61100000D03*
X20700000Y-60800000D03*
X64070000Y-102006204D03*
X33400000Y-60340000D03*
X31460000Y-66492600D03*
X34560000Y-45300000D03*
%TO.N,/Base/LED_ACT*%
X32175000Y-84107400D03*
X35015628Y-75263872D03*
%TO.N,/Power/USB_VBUS*%
X59850000Y-93120000D03*
X35170000Y-94430000D03*
%TO.N,/Base/USART1_RX*%
X39384500Y-70560000D03*
X55650000Y-69300000D03*
X32120000Y-56100000D03*
X44834122Y-58965878D03*
%TO.N,/Base/USART1_TX*%
X37915500Y-71500000D03*
X55020000Y-69840000D03*
%TO.N,/Wireless/PROG_RX*%
X48740000Y-102010000D03*
X49760000Y-100620000D03*
%TO.N,/Storage/DAT2*%
X36045800Y-61235800D03*
%TO.N,/Storage/DAT3*%
X35140000Y-62100000D03*
%TO.N,/Storage/CMD*%
X34850000Y-63490000D03*
%TO.N,/Storage/CLK*%
X34686959Y-62565410D03*
%TO.N,/Storage/DAT0*%
X47500000Y-64190000D03*
%TO.N,/Storage/DAT1*%
X46952903Y-63713643D03*
%TO.N,/Wireless/HCI_EN*%
X64030500Y-92980000D03*
X46490500Y-89719061D03*
%TO.N,/Wireless/IO9*%
X37330000Y-84310000D03*
X48080000Y-91210000D03*
X61800000Y-91230000D03*
%TO.N,/Base/LED_LINK*%
X35725000Y-75275000D03*
X32950000Y-84107400D03*
%TO.N,/Base/USB_VBUS*%
X33618796Y-92681204D03*
X57365000Y-94439500D03*
%TO.N,/Base/BOOST_EN*%
X47000000Y-55920000D03*
X50110500Y-63520497D03*
X50290000Y-58930000D03*
X51939500Y-63520000D03*
%TO.N,/Base/CAN_STBY*%
X19790000Y-83610000D03*
X21820000Y-50440000D03*
X21840000Y-59870000D03*
X46765500Y-77950000D03*
%TO.N,/Base/LED_STATUS*%
X32150000Y-61600000D03*
X36650000Y-58225000D03*
%TO.N,/Base/SPI2_MISO*%
X52450000Y-60370000D03*
X41570000Y-65374743D03*
%TO.N,/Base/SPI2_MOSI*%
X53390000Y-60420000D03*
X41534035Y-66304035D03*
%TO.N,/Base/USART2_CTS*%
X45220000Y-94964000D03*
X46740000Y-86100000D03*
X39790000Y-79820000D03*
X49320000Y-94990000D03*
%TO.N,/Base/USART2_RTS*%
X47510000Y-86090000D03*
X39750000Y-79090000D03*
%TO.N,/Base/USART2_TX*%
X55811204Y-85188796D03*
X39714314Y-78364314D03*
%TO.N,/Base/USART2_RX*%
X56580000Y-84640000D03*
X44545878Y-81274122D03*
%TO.N,/Base/SPI1_NSS*%
X55630000Y-68135501D03*
X44733557Y-68123557D03*
%TO.N,/Base/SPI1_SCK*%
X50110500Y-66200000D03*
X54581000Y-66193050D03*
%TO.N,/Base/SPI1_MISO*%
X55880000Y-66180000D03*
X50035154Y-66892817D03*
%TO.N,/Base/SPI1_MOSI*%
X50090000Y-67540000D03*
X55105500Y-67615500D03*
%TO.N,/Base/SPI1_IO1*%
X43630000Y-72290000D03*
X59760000Y-72415500D03*
%TO.N,/Base/BOOT1*%
X44310000Y-71580000D03*
%TO.N,/Base/USART3_TX*%
X46710000Y-80545500D03*
X42140000Y-78320000D03*
%TO.N,/Base/USART3_RX*%
X47050000Y-81180000D03*
X42717400Y-78960000D03*
%TO.N,/Base/SPI2_NSS*%
X55022561Y-64072561D03*
X50110500Y-65550497D03*
%TO.N,/Base/SPI2_SCK*%
X54562750Y-63332750D03*
X50110500Y-64890000D03*
%TO.N,/Base/SPI2_INT*%
X50110500Y-64170000D03*
X54180000Y-62700000D03*
%TO.N,/Base/SPI1_INT*%
X41370001Y-68660001D03*
%TO.N,/Base/USB_DM*%
X49730000Y-58380000D03*
X59450000Y-91764500D03*
X45883397Y-60185878D03*
X34680000Y-91140000D03*
%TO.N,/Base/USB_DP*%
X38781716Y-91151716D03*
X45239122Y-59490878D03*
X58810000Y-91764500D03*
X49129970Y-58887472D03*
%TO.N,/Base/~{GPS_RESET}*%
X20590000Y-63910000D03*
X32271372Y-63173128D03*
%TO.N,/Wireless/LORA_MISO*%
X51290000Y-83020000D03*
X65080000Y-93000000D03*
%TO.N,/Wireless/LORA_BUSY*%
X56300000Y-81080000D03*
X64940878Y-91349122D03*
%TO.N,/Wireless/LORA_NSS*%
X58211204Y-88131204D03*
X50730000Y-87730000D03*
%TO.N,/Wireless/LORA_SCK*%
X55011204Y-85818796D03*
X51000000Y-85100000D03*
%TO.N,/Wireless/LORA_MOSI*%
X51510000Y-85730000D03*
X54210000Y-86380000D03*
%TO.N,/USB/USB_ESD_GND*%
X36750000Y-93700000D03*
%TD*%
%TA.AperFunction,Conductor*%
%TO.N,+3V3*%
G36*
X31842121Y-79820002D02*
G01*
X31888614Y-79873658D01*
X31900000Y-79926000D01*
X31900000Y-81874000D01*
X31879998Y-81942121D01*
X31826342Y-81988614D01*
X31774000Y-82000000D01*
X31133462Y-82000000D01*
X31070948Y-81983399D01*
X30414277Y-81608158D01*
X30414276Y-81608158D01*
X30400000Y-81600000D01*
X29726000Y-81600000D01*
X29657879Y-81579998D01*
X29611386Y-81526342D01*
X29600000Y-81474000D01*
X29600000Y-80226000D01*
X29620002Y-80157879D01*
X29673658Y-80111386D01*
X29726000Y-80100000D01*
X30400000Y-80100000D01*
X31076228Y-79810188D01*
X31125862Y-79800000D01*
X31774000Y-79800000D01*
X31842121Y-79820002D01*
G37*
%TD.AperFunction*%
%TD*%
%TA.AperFunction,Conductor*%
%TO.N,GND*%
G36*
X64470643Y-29502000D02*
G01*
X64484952Y-29504228D01*
X64484953Y-29504228D01*
X64493823Y-29505609D01*
X64502726Y-29504445D01*
X64502729Y-29504445D01*
X64512061Y-29503225D01*
X64534990Y-29502334D01*
X64806937Y-29516586D01*
X64820045Y-29517963D01*
X65035460Y-29552081D01*
X65117108Y-29565013D01*
X65130008Y-29567755D01*
X65420522Y-29645598D01*
X65433065Y-29649674D01*
X65713837Y-29757452D01*
X65725886Y-29762816D01*
X65993870Y-29899361D01*
X66005292Y-29905956D01*
X66257528Y-30069760D01*
X66268197Y-30077512D01*
X66501926Y-30266782D01*
X66511727Y-30275607D01*
X66724393Y-30488273D01*
X66733218Y-30498074D01*
X66908816Y-30714919D01*
X66922488Y-30731803D01*
X66930240Y-30742472D01*
X67094044Y-30994708D01*
X67100639Y-31006130D01*
X67237184Y-31274114D01*
X67242548Y-31286163D01*
X67350326Y-31566935D01*
X67354402Y-31579478D01*
X67432245Y-31869992D01*
X67434987Y-31882892D01*
X67482036Y-32179949D01*
X67483414Y-32193065D01*
X67497287Y-32457769D01*
X67495959Y-32483751D01*
X67494391Y-32493823D01*
X67495555Y-32502725D01*
X67495555Y-32502728D01*
X67498436Y-32524756D01*
X67499500Y-32541093D01*
X67499500Y-104951259D01*
X67498000Y-104970643D01*
X67494391Y-104993823D01*
X67495555Y-105002726D01*
X67495555Y-105002729D01*
X67496775Y-105012061D01*
X67497666Y-105034992D01*
X67483414Y-105306934D01*
X67482036Y-105320051D01*
X67434987Y-105617108D01*
X67432245Y-105630008D01*
X67354402Y-105920522D01*
X67350326Y-105933065D01*
X67242548Y-106213837D01*
X67237184Y-106225886D01*
X67100639Y-106493870D01*
X67094044Y-106505292D01*
X66930240Y-106757528D01*
X66922490Y-106768194D01*
X66733218Y-107001926D01*
X66724393Y-107011727D01*
X66511727Y-107224393D01*
X66501926Y-107233218D01*
X66268197Y-107422488D01*
X66257528Y-107430240D01*
X66005292Y-107594044D01*
X65993870Y-107600639D01*
X65725886Y-107737184D01*
X65713837Y-107742548D01*
X65433065Y-107850326D01*
X65420522Y-107854402D01*
X65130008Y-107932245D01*
X65117108Y-107934987D01*
X65035460Y-107947919D01*
X64820045Y-107982037D01*
X64806939Y-107983414D01*
X64542227Y-107997287D01*
X64516249Y-107995959D01*
X64515814Y-107995891D01*
X64515049Y-107995772D01*
X64515047Y-107995772D01*
X64506177Y-107994391D01*
X64497275Y-107995555D01*
X64497272Y-107995555D01*
X64475244Y-107998436D01*
X64458907Y-107999500D01*
X21548741Y-107999500D01*
X21529357Y-107998000D01*
X21515048Y-107995772D01*
X21515047Y-107995772D01*
X21506177Y-107994391D01*
X21497274Y-107995555D01*
X21497271Y-107995555D01*
X21487939Y-107996775D01*
X21465010Y-107997666D01*
X21193063Y-107983414D01*
X21179955Y-107982037D01*
X20964540Y-107947919D01*
X20882892Y-107934987D01*
X20869992Y-107932245D01*
X20579478Y-107854402D01*
X20566935Y-107850326D01*
X20286163Y-107742548D01*
X20274114Y-107737184D01*
X20006130Y-107600639D01*
X19994708Y-107594044D01*
X19742472Y-107430240D01*
X19731803Y-107422488D01*
X19498074Y-107233218D01*
X19488273Y-107224393D01*
X19275607Y-107011727D01*
X19266782Y-107001926D01*
X19077510Y-106768194D01*
X19069760Y-106757528D01*
X18905956Y-106505292D01*
X18899361Y-106493870D01*
X18762816Y-106225886D01*
X18757452Y-106213837D01*
X18649674Y-105933065D01*
X18645598Y-105920522D01*
X18567755Y-105630008D01*
X18565013Y-105617108D01*
X18517964Y-105320051D01*
X18516586Y-105306935D01*
X18502905Y-105045898D01*
X18504273Y-105021999D01*
X18504253Y-105021997D01*
X18504307Y-105021391D01*
X18504478Y-105018402D01*
X18505496Y-105012354D01*
X18505647Y-105000000D01*
X18501773Y-104972949D01*
X18500500Y-104955087D01*
X18500500Y-103171330D01*
X38885624Y-103171330D01*
X38895944Y-103335360D01*
X38946732Y-103491671D01*
X39034798Y-103630440D01*
X39154607Y-103742948D01*
X39161551Y-103746765D01*
X39161553Y-103746767D01*
X39226386Y-103782409D01*
X39298632Y-103822127D01*
X39306304Y-103824097D01*
X39306307Y-103824098D01*
X39450145Y-103861029D01*
X39450148Y-103861029D01*
X39457823Y-103863000D01*
X39580925Y-103863000D01*
X39638690Y-103855703D01*
X39695193Y-103848565D01*
X39695196Y-103848564D01*
X39703058Y-103847571D01*
X39710425Y-103844654D01*
X39710426Y-103844654D01*
X39776970Y-103818307D01*
X39855871Y-103787068D01*
X39988837Y-103690463D01*
X40093600Y-103563826D01*
X40163579Y-103415113D01*
X40165064Y-103407330D01*
X40165065Y-103407326D01*
X40192891Y-103261456D01*
X40192891Y-103261454D01*
X40194376Y-103253670D01*
X40189196Y-103171330D01*
X43285624Y-103171330D01*
X43295944Y-103335360D01*
X43346732Y-103491671D01*
X43434798Y-103630440D01*
X43554607Y-103742948D01*
X43561551Y-103746765D01*
X43561553Y-103746767D01*
X43626386Y-103782409D01*
X43698632Y-103822127D01*
X43706304Y-103824097D01*
X43706307Y-103824098D01*
X43850145Y-103861029D01*
X43850148Y-103861029D01*
X43857823Y-103863000D01*
X43980925Y-103863000D01*
X44038690Y-103855703D01*
X44095193Y-103848565D01*
X44095196Y-103848564D01*
X44103058Y-103847571D01*
X44110425Y-103844654D01*
X44110426Y-103844654D01*
X44176970Y-103818307D01*
X44255871Y-103787068D01*
X44388837Y-103690463D01*
X44493600Y-103563826D01*
X44563579Y-103415113D01*
X44565064Y-103407330D01*
X44565065Y-103407326D01*
X44592891Y-103261456D01*
X44592891Y-103261454D01*
X44594376Y-103253670D01*
X44584056Y-103089640D01*
X44533268Y-102933329D01*
X44445202Y-102794560D01*
X44325393Y-102682052D01*
X44318449Y-102678235D01*
X44318447Y-102678233D01*
X44239834Y-102635015D01*
X44181368Y-102602873D01*
X44173696Y-102600903D01*
X44173693Y-102600902D01*
X44029855Y-102563971D01*
X44029852Y-102563971D01*
X44022177Y-102562000D01*
X43899075Y-102562000D01*
X43841310Y-102569297D01*
X43784807Y-102576435D01*
X43784804Y-102576436D01*
X43776942Y-102577429D01*
X43769575Y-102580346D01*
X43769574Y-102580346D01*
X43734867Y-102594088D01*
X43624129Y-102637932D01*
X43491163Y-102734537D01*
X43386400Y-102861174D01*
X43316421Y-103009887D01*
X43314936Y-103017670D01*
X43314935Y-103017674D01*
X43302645Y-103082102D01*
X43285624Y-103171330D01*
X40189196Y-103171330D01*
X40184056Y-103089640D01*
X40133268Y-102933329D01*
X40045202Y-102794560D01*
X39925393Y-102682052D01*
X39918449Y-102678235D01*
X39918447Y-102678233D01*
X39839834Y-102635015D01*
X39781368Y-102602873D01*
X39773696Y-102600903D01*
X39773693Y-102600902D01*
X39629855Y-102563971D01*
X39629852Y-102563971D01*
X39622177Y-102562000D01*
X39499075Y-102562000D01*
X39441310Y-102569297D01*
X39384807Y-102576435D01*
X39384804Y-102576436D01*
X39376942Y-102577429D01*
X39369575Y-102580346D01*
X39369574Y-102580346D01*
X39334867Y-102594088D01*
X39224129Y-102637932D01*
X39091163Y-102734537D01*
X38986400Y-102861174D01*
X38916421Y-103009887D01*
X38914936Y-103017670D01*
X38914935Y-103017674D01*
X38902645Y-103082102D01*
X38885624Y-103171330D01*
X18500500Y-103171330D01*
X18500500Y-102010000D01*
X48309196Y-102010000D01*
X48330281Y-102143126D01*
X48391472Y-102263220D01*
X48486780Y-102358528D01*
X48606874Y-102419719D01*
X48616663Y-102421269D01*
X48616665Y-102421270D01*
X48730207Y-102439253D01*
X48740000Y-102440804D01*
X48749793Y-102439253D01*
X48863335Y-102421270D01*
X48863337Y-102421269D01*
X48873126Y-102419719D01*
X48993220Y-102358528D01*
X49088528Y-102263220D01*
X49149719Y-102143126D01*
X49170804Y-102010000D01*
X49170203Y-102006204D01*
X63639196Y-102006204D01*
X63660281Y-102139330D01*
X63721472Y-102259424D01*
X63816780Y-102354732D01*
X63936874Y-102415923D01*
X63946663Y-102417473D01*
X63946665Y-102417474D01*
X64060207Y-102435457D01*
X64070000Y-102437008D01*
X64079793Y-102435457D01*
X64193335Y-102417474D01*
X64193337Y-102417473D01*
X64203126Y-102415923D01*
X64323220Y-102354732D01*
X64418528Y-102259424D01*
X64479719Y-102139330D01*
X64500203Y-102010000D01*
X64869196Y-102010000D01*
X64890281Y-102143126D01*
X64951472Y-102263220D01*
X65046780Y-102358528D01*
X65166874Y-102419719D01*
X65176663Y-102421269D01*
X65176665Y-102421270D01*
X65290207Y-102439253D01*
X65300000Y-102440804D01*
X65309793Y-102439253D01*
X65423335Y-102421270D01*
X65423337Y-102421269D01*
X65433126Y-102419719D01*
X65553220Y-102358528D01*
X65648528Y-102263220D01*
X65709719Y-102143126D01*
X65730804Y-102010000D01*
X65709719Y-101876874D01*
X65648528Y-101756780D01*
X65553220Y-101661472D01*
X65433126Y-101600281D01*
X65423337Y-101598731D01*
X65423335Y-101598730D01*
X65309793Y-101580747D01*
X65300000Y-101579196D01*
X65290207Y-101580747D01*
X65176665Y-101598730D01*
X65176663Y-101598731D01*
X65166874Y-101600281D01*
X65046780Y-101661472D01*
X64951472Y-101756780D01*
X64890281Y-101876874D01*
X64869196Y-102010000D01*
X64500203Y-102010000D01*
X64500804Y-102006204D01*
X64479719Y-101873078D01*
X64418528Y-101752984D01*
X64323220Y-101657676D01*
X64203126Y-101596485D01*
X64193337Y-101594935D01*
X64193335Y-101594934D01*
X64079793Y-101576951D01*
X64070000Y-101575400D01*
X64060207Y-101576951D01*
X63946665Y-101594934D01*
X63946663Y-101594935D01*
X63936874Y-101596485D01*
X63816780Y-101657676D01*
X63721472Y-101752984D01*
X63660281Y-101873078D01*
X63639196Y-102006204D01*
X49170203Y-102006204D01*
X49149719Y-101876874D01*
X49088528Y-101756780D01*
X48993220Y-101661472D01*
X48873126Y-101600281D01*
X48863337Y-101598731D01*
X48863335Y-101598730D01*
X48749793Y-101580747D01*
X48740000Y-101579196D01*
X48730207Y-101580747D01*
X48616665Y-101598730D01*
X48616663Y-101598731D01*
X48606874Y-101600281D01*
X48486780Y-101661472D01*
X48391472Y-101756780D01*
X48330281Y-101876874D01*
X48309196Y-102010000D01*
X18500500Y-102010000D01*
X18500500Y-100620000D01*
X49329196Y-100620000D01*
X49350281Y-100753126D01*
X49411472Y-100873220D01*
X49506780Y-100968528D01*
X49626874Y-101029719D01*
X49636663Y-101031269D01*
X49636665Y-101031270D01*
X49750207Y-101049253D01*
X49760000Y-101050804D01*
X49769793Y-101049253D01*
X49883335Y-101031270D01*
X49883337Y-101031269D01*
X49893126Y-101029719D01*
X50013220Y-100968528D01*
X50108528Y-100873220D01*
X50169719Y-100753126D01*
X50190804Y-100620000D01*
X50169719Y-100486874D01*
X50108528Y-100366780D01*
X50013220Y-100271472D01*
X49893126Y-100210281D01*
X49883337Y-100208731D01*
X49883335Y-100208730D01*
X49769793Y-100190747D01*
X49760000Y-100189196D01*
X49750207Y-100190747D01*
X49636665Y-100208730D01*
X49636663Y-100208731D01*
X49626874Y-100210281D01*
X49506780Y-100271472D01*
X49411472Y-100366780D01*
X49350281Y-100486874D01*
X49329196Y-100620000D01*
X18500500Y-100620000D01*
X18500500Y-94964000D01*
X44789196Y-94964000D01*
X44810281Y-95097126D01*
X44871472Y-95217220D01*
X44966780Y-95312528D01*
X45086874Y-95373719D01*
X45096663Y-95375269D01*
X45096665Y-95375270D01*
X45210207Y-95393253D01*
X45220000Y-95394804D01*
X45229793Y-95393253D01*
X45343335Y-95375270D01*
X45343337Y-95375269D01*
X45353126Y-95373719D01*
X45473220Y-95312528D01*
X45568528Y-95217220D01*
X45629719Y-95097126D01*
X45646686Y-94990000D01*
X48889196Y-94990000D01*
X48910281Y-95123126D01*
X48971472Y-95243220D01*
X49066780Y-95338528D01*
X49186874Y-95399719D01*
X49196663Y-95401269D01*
X49196665Y-95401270D01*
X49310207Y-95419253D01*
X49320000Y-95420804D01*
X49329793Y-95419253D01*
X49443335Y-95401270D01*
X49443337Y-95401269D01*
X49453126Y-95399719D01*
X49573220Y-95338528D01*
X49668528Y-95243220D01*
X49729719Y-95123126D01*
X49750804Y-94990000D01*
X49735445Y-94893028D01*
X49731270Y-94866665D01*
X49731269Y-94866663D01*
X49729719Y-94856874D01*
X49668528Y-94736780D01*
X49573220Y-94641472D01*
X49453126Y-94580281D01*
X49443337Y-94578731D01*
X49443335Y-94578730D01*
X49329793Y-94560747D01*
X49320000Y-94559196D01*
X49310207Y-94560747D01*
X49196665Y-94578730D01*
X49196663Y-94578731D01*
X49186874Y-94580281D01*
X49066780Y-94641472D01*
X48971472Y-94736780D01*
X48910281Y-94856874D01*
X48908731Y-94866663D01*
X48908730Y-94866665D01*
X48904555Y-94893028D01*
X48889196Y-94990000D01*
X45646686Y-94990000D01*
X45650804Y-94964000D01*
X45639563Y-94893028D01*
X45631270Y-94840665D01*
X45631269Y-94840663D01*
X45629719Y-94830874D01*
X45568528Y-94710780D01*
X45473220Y-94615472D01*
X45353126Y-94554281D01*
X45343337Y-94552731D01*
X45343335Y-94552730D01*
X45229793Y-94534747D01*
X45220000Y-94533196D01*
X45210207Y-94534747D01*
X45096665Y-94552730D01*
X45096663Y-94552731D01*
X45086874Y-94554281D01*
X44966780Y-94615472D01*
X44871472Y-94710780D01*
X44810281Y-94830874D01*
X44808731Y-94840663D01*
X44808730Y-94840665D01*
X44800437Y-94893028D01*
X44789196Y-94964000D01*
X18500500Y-94964000D01*
X18500500Y-94430000D01*
X34739196Y-94430000D01*
X34740747Y-94439793D01*
X34755541Y-94533196D01*
X34760281Y-94563126D01*
X34821472Y-94683220D01*
X34916780Y-94778528D01*
X35036874Y-94839719D01*
X35046663Y-94841269D01*
X35046665Y-94841270D01*
X35160207Y-94859253D01*
X35170000Y-94860804D01*
X35179793Y-94859253D01*
X35293335Y-94841270D01*
X35293337Y-94841269D01*
X35303126Y-94839719D01*
X35423220Y-94778528D01*
X35518528Y-94683220D01*
X35579719Y-94563126D01*
X35584460Y-94533196D01*
X35599253Y-94439793D01*
X35599299Y-94439500D01*
X56934196Y-94439500D01*
X56935747Y-94449293D01*
X56953400Y-94560747D01*
X56955281Y-94572626D01*
X57016472Y-94692720D01*
X57111780Y-94788028D01*
X57231874Y-94849219D01*
X57241663Y-94850769D01*
X57241665Y-94850770D01*
X57355207Y-94868753D01*
X57365000Y-94870304D01*
X57374793Y-94868753D01*
X57488335Y-94850770D01*
X57488337Y-94850769D01*
X57498126Y-94849219D01*
X57618220Y-94788028D01*
X57713528Y-94692720D01*
X57774719Y-94572626D01*
X57776601Y-94560747D01*
X57779887Y-94540000D01*
X61169196Y-94540000D01*
X61170747Y-94549793D01*
X61185268Y-94641472D01*
X61190281Y-94673126D01*
X61251472Y-94793220D01*
X61346780Y-94888528D01*
X61466874Y-94949719D01*
X61476663Y-94951269D01*
X61476665Y-94951270D01*
X61590207Y-94969253D01*
X61600000Y-94970804D01*
X61609793Y-94969253D01*
X61723335Y-94951270D01*
X61723337Y-94951269D01*
X61733126Y-94949719D01*
X61853220Y-94888528D01*
X61948528Y-94793220D01*
X62009719Y-94673126D01*
X62014733Y-94641472D01*
X62029253Y-94549793D01*
X62030804Y-94540000D01*
X62029253Y-94530207D01*
X62011270Y-94416665D01*
X62011269Y-94416663D01*
X62009719Y-94406874D01*
X61948528Y-94286780D01*
X61853220Y-94191472D01*
X61733126Y-94130281D01*
X61723337Y-94128731D01*
X61723335Y-94128730D01*
X61609793Y-94110747D01*
X61600000Y-94109196D01*
X61590207Y-94110747D01*
X61476665Y-94128730D01*
X61476663Y-94128731D01*
X61466874Y-94130281D01*
X61346780Y-94191472D01*
X61251472Y-94286780D01*
X61190281Y-94406874D01*
X61188731Y-94416663D01*
X61188730Y-94416665D01*
X61170747Y-94530207D01*
X61169196Y-94540000D01*
X57779887Y-94540000D01*
X57794253Y-94449293D01*
X57795804Y-94439500D01*
X57774719Y-94306374D01*
X57713528Y-94186280D01*
X57618220Y-94090972D01*
X57498126Y-94029781D01*
X57488337Y-94028231D01*
X57488335Y-94028230D01*
X57374793Y-94010247D01*
X57365000Y-94008696D01*
X57355207Y-94010247D01*
X57241665Y-94028230D01*
X57241663Y-94028231D01*
X57231874Y-94029781D01*
X57111780Y-94090972D01*
X57016472Y-94186280D01*
X56955281Y-94306374D01*
X56934196Y-94439500D01*
X35599299Y-94439500D01*
X35600804Y-94430000D01*
X35595742Y-94398041D01*
X35581270Y-94306665D01*
X35581269Y-94306663D01*
X35579719Y-94296874D01*
X35518528Y-94176780D01*
X35423220Y-94081472D01*
X35303126Y-94020281D01*
X35293337Y-94018731D01*
X35293335Y-94018730D01*
X35179793Y-94000747D01*
X35170000Y-93999196D01*
X35160207Y-94000747D01*
X35046665Y-94018730D01*
X35046663Y-94018731D01*
X35036874Y-94020281D01*
X34916780Y-94081472D01*
X34821472Y-94176780D01*
X34760281Y-94296874D01*
X34758731Y-94306663D01*
X34758730Y-94306665D01*
X34744258Y-94398041D01*
X34739196Y-94430000D01*
X18500500Y-94430000D01*
X18500500Y-93700000D01*
X36319196Y-93700000D01*
X36340281Y-93833126D01*
X36401472Y-93953220D01*
X36496780Y-94048528D01*
X36616874Y-94109719D01*
X36626663Y-94111269D01*
X36626665Y-94111270D01*
X36740207Y-94129253D01*
X36750000Y-94130804D01*
X36759793Y-94129253D01*
X36873335Y-94111270D01*
X36873337Y-94111269D01*
X36883126Y-94109719D01*
X37003220Y-94048528D01*
X37098528Y-93953220D01*
X37159719Y-93833126D01*
X37180804Y-93700000D01*
X37159719Y-93566874D01*
X37098528Y-93446780D01*
X37003220Y-93351472D01*
X36883126Y-93290281D01*
X36873337Y-93288731D01*
X36873335Y-93288730D01*
X36759793Y-93270747D01*
X36750000Y-93269196D01*
X36740207Y-93270747D01*
X36626665Y-93288730D01*
X36626663Y-93288731D01*
X36616874Y-93290281D01*
X36496780Y-93351472D01*
X36401472Y-93446780D01*
X36340281Y-93566874D01*
X36319196Y-93700000D01*
X18500500Y-93700000D01*
X18500500Y-92681204D01*
X33187992Y-92681204D01*
X33189543Y-92690997D01*
X33204925Y-92788113D01*
X33209077Y-92814330D01*
X33270268Y-92934424D01*
X33365576Y-93029732D01*
X33485670Y-93090923D01*
X33495459Y-93092473D01*
X33495461Y-93092474D01*
X33609003Y-93110457D01*
X33618796Y-93112008D01*
X33628589Y-93110457D01*
X33742131Y-93092474D01*
X33742133Y-93092473D01*
X33751922Y-93090923D01*
X33872016Y-93029732D01*
X33967324Y-92934424D01*
X34028515Y-92814330D01*
X34032668Y-92788113D01*
X34048049Y-92690997D01*
X34049600Y-92681204D01*
X34042834Y-92638483D01*
X34040597Y-92624356D01*
X40353938Y-92624356D01*
X40355710Y-92631736D01*
X40355710Y-92631738D01*
X40388177Y-92766972D01*
X40393253Y-92788113D01*
X40470494Y-92937765D01*
X40475486Y-92943487D01*
X40475487Y-92943489D01*
X40515881Y-92989793D01*
X40581203Y-93064673D01*
X40594271Y-93073857D01*
X40712770Y-93157140D01*
X40712772Y-93157141D01*
X40718987Y-93161509D01*
X40875894Y-93222685D01*
X40883427Y-93223677D01*
X40883428Y-93223677D01*
X41000251Y-93239057D01*
X41004338Y-93239595D01*
X41092430Y-93239595D01*
X41217393Y-93224473D01*
X41374932Y-93164944D01*
X41454211Y-93110457D01*
X41507464Y-93073857D01*
X41507465Y-93073856D01*
X41513723Y-93069555D01*
X41545195Y-93034232D01*
X41620702Y-92949486D01*
X41620704Y-92949483D01*
X41625755Y-92943814D01*
X41666493Y-92866874D01*
X41701005Y-92801692D01*
X41701006Y-92801690D01*
X41704559Y-92794979D01*
X41708137Y-92780733D01*
X41743735Y-92639013D01*
X41743735Y-92639009D01*
X41745586Y-92631642D01*
X41745624Y-92624356D01*
X42385938Y-92624356D01*
X42387710Y-92631736D01*
X42387710Y-92631738D01*
X42420177Y-92766972D01*
X42425253Y-92788113D01*
X42502494Y-92937765D01*
X42507486Y-92943487D01*
X42507487Y-92943489D01*
X42547881Y-92989793D01*
X42613203Y-93064673D01*
X42626271Y-93073857D01*
X42744770Y-93157140D01*
X42744772Y-93157141D01*
X42750987Y-93161509D01*
X42907894Y-93222685D01*
X42915427Y-93223677D01*
X42915428Y-93223677D01*
X43032251Y-93239057D01*
X43036338Y-93239595D01*
X43124430Y-93239595D01*
X43249393Y-93224473D01*
X43406932Y-93164944D01*
X43472326Y-93120000D01*
X59419196Y-93120000D01*
X59420747Y-93129793D01*
X59438239Y-93240231D01*
X59440281Y-93253126D01*
X59501472Y-93373220D01*
X59596780Y-93468528D01*
X59716874Y-93529719D01*
X59726663Y-93531269D01*
X59726665Y-93531270D01*
X59840207Y-93549253D01*
X59850000Y-93550804D01*
X59859793Y-93549253D01*
X59973335Y-93531270D01*
X59973337Y-93531269D01*
X59983126Y-93529719D01*
X60103220Y-93468528D01*
X60198528Y-93373220D01*
X60259719Y-93253126D01*
X60261762Y-93240231D01*
X60279253Y-93129793D01*
X60280804Y-93120000D01*
X60271916Y-93063884D01*
X60261270Y-92996665D01*
X60261269Y-92996663D01*
X60259719Y-92986874D01*
X60256217Y-92980000D01*
X63599696Y-92980000D01*
X63601247Y-92989793D01*
X63616552Y-93086422D01*
X63620781Y-93113126D01*
X63681972Y-93233220D01*
X63777280Y-93328528D01*
X63897374Y-93389719D01*
X63907163Y-93391269D01*
X63907165Y-93391270D01*
X64020707Y-93409253D01*
X64030500Y-93410804D01*
X64040293Y-93409253D01*
X64153835Y-93391270D01*
X64153837Y-93391269D01*
X64163626Y-93389719D01*
X64283720Y-93328528D01*
X64379028Y-93233220D01*
X64439627Y-93114288D01*
X64488374Y-93062674D01*
X64557289Y-93045608D01*
X64624491Y-93068509D01*
X64668643Y-93124106D01*
X64669013Y-93125120D01*
X64670281Y-93133126D01*
X64731472Y-93253220D01*
X64826780Y-93348528D01*
X64946874Y-93409719D01*
X64956663Y-93411269D01*
X64956665Y-93411270D01*
X65070207Y-93429253D01*
X65080000Y-93430804D01*
X65089793Y-93429253D01*
X65203335Y-93411270D01*
X65203337Y-93411269D01*
X65213126Y-93409719D01*
X65333220Y-93348528D01*
X65428528Y-93253220D01*
X65489719Y-93133126D01*
X65492703Y-93114289D01*
X65509253Y-93009793D01*
X65510804Y-93000000D01*
X65506085Y-92970207D01*
X65491270Y-92876665D01*
X65491269Y-92876663D01*
X65489719Y-92866874D01*
X65428528Y-92746780D01*
X65333220Y-92651472D01*
X65213126Y-92590281D01*
X65203337Y-92588731D01*
X65203335Y-92588730D01*
X65089793Y-92570747D01*
X65080000Y-92569196D01*
X65070207Y-92570747D01*
X64956665Y-92588730D01*
X64956663Y-92588731D01*
X64946874Y-92590281D01*
X64826780Y-92651472D01*
X64731472Y-92746780D01*
X64673902Y-92859769D01*
X64670874Y-92865711D01*
X64622126Y-92917326D01*
X64553211Y-92934392D01*
X64486009Y-92911491D01*
X64441857Y-92855894D01*
X64441487Y-92854880D01*
X64440219Y-92846874D01*
X64424090Y-92815218D01*
X64391632Y-92751517D01*
X64379028Y-92726780D01*
X64283720Y-92631472D01*
X64163626Y-92570281D01*
X64153837Y-92568731D01*
X64153835Y-92568730D01*
X64040293Y-92550747D01*
X64030500Y-92549196D01*
X64020707Y-92550747D01*
X63907165Y-92568730D01*
X63907163Y-92568731D01*
X63897374Y-92570281D01*
X63777280Y-92631472D01*
X63681972Y-92726780D01*
X63620781Y-92846874D01*
X63619231Y-92856663D01*
X63619230Y-92856665D01*
X63606914Y-92934424D01*
X63599696Y-92980000D01*
X60256217Y-92980000D01*
X60198528Y-92866780D01*
X60103220Y-92771472D01*
X59983126Y-92710281D01*
X59973337Y-92708731D01*
X59973335Y-92708730D01*
X59859793Y-92690747D01*
X59850000Y-92689196D01*
X59840207Y-92690747D01*
X59726665Y-92708730D01*
X59726663Y-92708731D01*
X59716874Y-92710281D01*
X59596780Y-92771472D01*
X59501472Y-92866780D01*
X59440281Y-92986874D01*
X59438731Y-92996663D01*
X59438730Y-92996665D01*
X59428084Y-93063884D01*
X59419196Y-93120000D01*
X43472326Y-93120000D01*
X43486211Y-93110457D01*
X43539464Y-93073857D01*
X43539465Y-93073856D01*
X43545723Y-93069555D01*
X43577195Y-93034232D01*
X43652702Y-92949486D01*
X43652704Y-92949483D01*
X43657755Y-92943814D01*
X43698493Y-92866874D01*
X43733005Y-92801692D01*
X43733006Y-92801690D01*
X43736559Y-92794979D01*
X43740137Y-92780733D01*
X43775735Y-92639013D01*
X43775735Y-92639009D01*
X43777586Y-92631642D01*
X43777916Y-92568730D01*
X43778428Y-92470828D01*
X43778468Y-92463234D01*
X43765688Y-92410000D01*
X50429196Y-92410000D01*
X50450281Y-92543126D01*
X50511472Y-92663220D01*
X50606780Y-92758528D01*
X50726874Y-92819719D01*
X50736663Y-92821269D01*
X50736665Y-92821270D01*
X50850207Y-92839253D01*
X50860000Y-92840804D01*
X50869793Y-92839253D01*
X50983335Y-92821270D01*
X50983337Y-92821269D01*
X50993126Y-92819719D01*
X51113220Y-92758528D01*
X51208528Y-92663220D01*
X51269719Y-92543126D01*
X51290804Y-92410000D01*
X51278557Y-92332676D01*
X51271270Y-92286665D01*
X51271269Y-92286663D01*
X51269719Y-92276874D01*
X51208528Y-92156780D01*
X51113220Y-92061472D01*
X50993126Y-92000281D01*
X50983337Y-91998731D01*
X50983335Y-91998730D01*
X50869793Y-91980747D01*
X50860000Y-91979196D01*
X50850207Y-91980747D01*
X50736665Y-91998730D01*
X50736663Y-91998731D01*
X50726874Y-92000281D01*
X50606780Y-92061472D01*
X50511472Y-92156780D01*
X50450281Y-92276874D01*
X50448731Y-92286663D01*
X50448730Y-92286665D01*
X50441443Y-92332676D01*
X50429196Y-92410000D01*
X43765688Y-92410000D01*
X43763337Y-92400207D01*
X43740925Y-92306857D01*
X43740924Y-92306855D01*
X43739153Y-92299477D01*
X43661912Y-92149825D01*
X43633739Y-92117529D01*
X43556197Y-92028642D01*
X43551203Y-92022917D01*
X43488994Y-91979196D01*
X43419636Y-91930450D01*
X43419634Y-91930449D01*
X43413419Y-91926081D01*
X43256512Y-91864905D01*
X43248979Y-91863913D01*
X43248978Y-91863913D01*
X43132155Y-91848533D01*
X43132154Y-91848533D01*
X43128068Y-91847995D01*
X43039976Y-91847995D01*
X42915013Y-91863117D01*
X42757474Y-91922646D01*
X42751216Y-91926947D01*
X42631992Y-92008888D01*
X42618683Y-92018035D01*
X42613631Y-92023705D01*
X42613630Y-92023706D01*
X42511704Y-92138104D01*
X42511702Y-92138107D01*
X42506651Y-92143776D01*
X42503097Y-92150489D01*
X42503096Y-92150490D01*
X42439033Y-92271485D01*
X42427847Y-92292611D01*
X42425997Y-92299976D01*
X42391626Y-92436816D01*
X42386820Y-92455948D01*
X42385938Y-92624356D01*
X41745624Y-92624356D01*
X41745916Y-92568730D01*
X41746428Y-92470828D01*
X41746468Y-92463234D01*
X41731337Y-92400207D01*
X41708925Y-92306857D01*
X41708924Y-92306855D01*
X41707153Y-92299477D01*
X41629912Y-92149825D01*
X41601739Y-92117529D01*
X41524197Y-92028642D01*
X41519203Y-92022917D01*
X41456994Y-91979196D01*
X41387636Y-91930450D01*
X41387634Y-91930449D01*
X41381419Y-91926081D01*
X41224512Y-91864905D01*
X41216979Y-91863913D01*
X41216978Y-91863913D01*
X41100155Y-91848533D01*
X41100154Y-91848533D01*
X41096068Y-91847995D01*
X41007976Y-91847995D01*
X40883013Y-91863117D01*
X40725474Y-91922646D01*
X40719216Y-91926947D01*
X40599992Y-92008888D01*
X40586683Y-92018035D01*
X40581631Y-92023705D01*
X40581630Y-92023706D01*
X40479704Y-92138104D01*
X40479702Y-92138107D01*
X40474651Y-92143776D01*
X40471097Y-92150489D01*
X40471096Y-92150490D01*
X40407033Y-92271485D01*
X40395847Y-92292611D01*
X40393997Y-92299976D01*
X40359626Y-92436816D01*
X40354820Y-92455948D01*
X40353938Y-92624356D01*
X34040597Y-92624356D01*
X34030066Y-92557869D01*
X34030065Y-92557867D01*
X34028515Y-92548078D01*
X33967324Y-92427984D01*
X33872016Y-92332676D01*
X33751922Y-92271485D01*
X33742133Y-92269935D01*
X33742131Y-92269934D01*
X33628589Y-92251951D01*
X33618796Y-92250400D01*
X33609003Y-92251951D01*
X33495461Y-92269934D01*
X33495459Y-92269935D01*
X33485670Y-92271485D01*
X33365576Y-92332676D01*
X33270268Y-92427984D01*
X33209077Y-92548078D01*
X33207527Y-92557867D01*
X33207526Y-92557869D01*
X33194758Y-92638483D01*
X33187992Y-92681204D01*
X18500500Y-92681204D01*
X18500500Y-91764500D01*
X58379196Y-91764500D01*
X58380747Y-91774293D01*
X58395536Y-91867665D01*
X58400281Y-91897626D01*
X58461472Y-92017720D01*
X58556780Y-92113028D01*
X58676874Y-92174219D01*
X58686663Y-92175769D01*
X58686665Y-92175770D01*
X58800207Y-92193753D01*
X58810000Y-92195304D01*
X58819793Y-92193753D01*
X58933335Y-92175770D01*
X58933337Y-92175769D01*
X58943126Y-92174219D01*
X59061935Y-92113683D01*
X59063220Y-92113028D01*
X59063554Y-92113683D01*
X59122808Y-92092542D01*
X59191959Y-92108623D01*
X59193123Y-92109371D01*
X59196780Y-92113028D01*
X59316874Y-92174219D01*
X59326663Y-92175769D01*
X59326665Y-92175770D01*
X59440207Y-92193753D01*
X59450000Y-92195304D01*
X59459793Y-92193753D01*
X59573335Y-92175770D01*
X59573337Y-92175769D01*
X59583126Y-92174219D01*
X59703220Y-92113028D01*
X59798528Y-92017720D01*
X59859719Y-91897626D01*
X59864465Y-91867665D01*
X59879253Y-91774293D01*
X59880804Y-91764500D01*
X59864135Y-91659253D01*
X59861270Y-91641165D01*
X59861269Y-91641163D01*
X59859719Y-91631374D01*
X59798528Y-91511280D01*
X59703220Y-91415972D01*
X59583126Y-91354781D01*
X59573337Y-91353231D01*
X59573335Y-91353230D01*
X59459793Y-91335247D01*
X59450000Y-91333696D01*
X59440207Y-91335247D01*
X59326665Y-91353230D01*
X59326663Y-91353231D01*
X59316874Y-91354781D01*
X59201852Y-91413388D01*
X59201851Y-91413388D01*
X59196780Y-91415972D01*
X59196446Y-91415317D01*
X59137192Y-91436458D01*
X59068041Y-91420377D01*
X59066877Y-91419629D01*
X59063220Y-91415972D01*
X58943126Y-91354781D01*
X58933337Y-91353231D01*
X58933335Y-91353230D01*
X58819793Y-91335247D01*
X58810000Y-91333696D01*
X58800207Y-91335247D01*
X58686665Y-91353230D01*
X58686663Y-91353231D01*
X58676874Y-91354781D01*
X58556780Y-91415972D01*
X58461472Y-91511280D01*
X58400281Y-91631374D01*
X58398731Y-91641163D01*
X58398730Y-91641165D01*
X58395865Y-91659253D01*
X58379196Y-91764500D01*
X18500500Y-91764500D01*
X18500500Y-91140000D01*
X34249196Y-91140000D01*
X34250747Y-91149793D01*
X34265002Y-91239793D01*
X34270281Y-91273126D01*
X34331472Y-91393220D01*
X34426780Y-91488528D01*
X34546874Y-91549719D01*
X34556663Y-91551269D01*
X34556665Y-91551270D01*
X34670207Y-91569253D01*
X34680000Y-91570804D01*
X34689793Y-91569253D01*
X34803335Y-91551270D01*
X34803337Y-91551269D01*
X34813126Y-91549719D01*
X34933220Y-91488528D01*
X35028528Y-91393220D01*
X35089719Y-91273126D01*
X35094999Y-91239793D01*
X35108948Y-91151716D01*
X38350912Y-91151716D01*
X38352463Y-91161509D01*
X38368591Y-91263335D01*
X38371997Y-91284842D01*
X38433188Y-91404936D01*
X38528496Y-91500244D01*
X38648590Y-91561435D01*
X38658379Y-91562985D01*
X38658381Y-91562986D01*
X38771923Y-91580969D01*
X38781716Y-91582520D01*
X38791509Y-91580969D01*
X38905051Y-91562986D01*
X38905053Y-91562985D01*
X38914842Y-91561435D01*
X39034936Y-91500244D01*
X39130244Y-91404936D01*
X39191435Y-91284842D01*
X39194842Y-91263335D01*
X39203289Y-91210000D01*
X47649196Y-91210000D01*
X47670281Y-91343126D01*
X47731472Y-91463220D01*
X47826780Y-91558528D01*
X47946874Y-91619719D01*
X47956663Y-91621269D01*
X47956665Y-91621270D01*
X48070207Y-91639253D01*
X48080000Y-91640804D01*
X48089793Y-91639253D01*
X48203335Y-91621270D01*
X48203337Y-91621269D01*
X48213126Y-91619719D01*
X48333220Y-91558528D01*
X48428528Y-91463220D01*
X48489719Y-91343126D01*
X48507636Y-91230000D01*
X61369196Y-91230000D01*
X61370747Y-91239793D01*
X61388714Y-91353230D01*
X61390281Y-91363126D01*
X61451472Y-91483220D01*
X61546780Y-91578528D01*
X61666874Y-91639719D01*
X61676663Y-91641269D01*
X61676665Y-91641270D01*
X61790207Y-91659253D01*
X61800000Y-91660804D01*
X61809793Y-91659253D01*
X61923335Y-91641270D01*
X61923337Y-91641269D01*
X61933126Y-91639719D01*
X62053220Y-91578528D01*
X62148528Y-91483220D01*
X62209719Y-91363126D01*
X62211287Y-91353230D01*
X62211938Y-91349122D01*
X64510074Y-91349122D01*
X64511625Y-91358915D01*
X64529256Y-91470231D01*
X64531159Y-91482248D01*
X64592350Y-91602342D01*
X64687658Y-91697650D01*
X64807752Y-91758841D01*
X64817541Y-91760391D01*
X64817543Y-91760392D01*
X64931085Y-91778375D01*
X64940878Y-91779926D01*
X64950671Y-91778375D01*
X65064213Y-91760392D01*
X65064215Y-91760391D01*
X65074004Y-91758841D01*
X65194098Y-91697650D01*
X65289406Y-91602342D01*
X65350597Y-91482248D01*
X65352501Y-91470231D01*
X65370131Y-91358915D01*
X65371682Y-91349122D01*
X65361501Y-91284842D01*
X65352148Y-91225787D01*
X65352147Y-91225785D01*
X65350597Y-91215996D01*
X65289406Y-91095902D01*
X65194098Y-91000594D01*
X65074004Y-90939403D01*
X65064215Y-90937853D01*
X65064213Y-90937852D01*
X64950671Y-90919869D01*
X64940878Y-90918318D01*
X64931085Y-90919869D01*
X64817543Y-90937852D01*
X64817541Y-90937853D01*
X64807752Y-90939403D01*
X64687658Y-91000594D01*
X64592350Y-91095902D01*
X64531159Y-91215996D01*
X64529609Y-91225785D01*
X64529608Y-91225787D01*
X64520255Y-91284842D01*
X64510074Y-91349122D01*
X62211938Y-91349122D01*
X62229253Y-91239793D01*
X62230804Y-91230000D01*
X62216854Y-91141923D01*
X62211270Y-91106665D01*
X62211269Y-91106663D01*
X62209719Y-91096874D01*
X62148528Y-90976780D01*
X62053220Y-90881472D01*
X61933126Y-90820281D01*
X61923337Y-90818731D01*
X61923335Y-90818730D01*
X61809793Y-90800747D01*
X61800000Y-90799196D01*
X61790207Y-90800747D01*
X61676665Y-90818730D01*
X61676663Y-90818731D01*
X61666874Y-90820281D01*
X61546780Y-90881472D01*
X61451472Y-90976780D01*
X61390281Y-91096874D01*
X61388731Y-91106663D01*
X61388730Y-91106665D01*
X61383146Y-91141923D01*
X61369196Y-91230000D01*
X48507636Y-91230000D01*
X48510804Y-91210000D01*
X48498166Y-91130207D01*
X48491270Y-91086665D01*
X48491269Y-91086663D01*
X48489719Y-91076874D01*
X48428528Y-90956780D01*
X48333220Y-90861472D01*
X48213126Y-90800281D01*
X48203337Y-90798731D01*
X48203335Y-90798730D01*
X48089793Y-90780747D01*
X48080000Y-90779196D01*
X48070207Y-90780747D01*
X47956665Y-90798730D01*
X47956663Y-90798731D01*
X47946874Y-90800281D01*
X47826780Y-90861472D01*
X47731472Y-90956780D01*
X47670281Y-91076874D01*
X47668731Y-91086663D01*
X47668730Y-91086665D01*
X47661834Y-91130207D01*
X47649196Y-91210000D01*
X39203289Y-91210000D01*
X39210969Y-91161509D01*
X39212520Y-91151716D01*
X39191435Y-91018590D01*
X39130244Y-90898496D01*
X39034936Y-90803188D01*
X38914842Y-90741997D01*
X38905053Y-90740447D01*
X38905051Y-90740446D01*
X38791509Y-90722463D01*
X38781716Y-90720912D01*
X38771923Y-90722463D01*
X38658381Y-90740446D01*
X38658379Y-90740447D01*
X38648590Y-90741997D01*
X38528496Y-90803188D01*
X38433188Y-90898496D01*
X38371997Y-91018590D01*
X38350912Y-91151716D01*
X35108948Y-91151716D01*
X35109253Y-91149793D01*
X35110804Y-91140000D01*
X35105524Y-91106665D01*
X35091270Y-91016665D01*
X35091269Y-91016663D01*
X35089719Y-91006874D01*
X35028528Y-90886780D01*
X34933220Y-90791472D01*
X34813126Y-90730281D01*
X34803337Y-90728731D01*
X34803335Y-90728730D01*
X34689793Y-90710747D01*
X34680000Y-90709196D01*
X34670207Y-90710747D01*
X34556665Y-90728730D01*
X34556663Y-90728731D01*
X34546874Y-90730281D01*
X34426780Y-90791472D01*
X34331472Y-90886780D01*
X34270281Y-91006874D01*
X34268731Y-91016663D01*
X34268730Y-91016665D01*
X34254476Y-91106665D01*
X34249196Y-91140000D01*
X18500500Y-91140000D01*
X18500500Y-89719061D01*
X46059696Y-89719061D01*
X46080781Y-89852187D01*
X46141972Y-89972281D01*
X46237280Y-90067589D01*
X46357374Y-90128780D01*
X46367163Y-90130330D01*
X46367165Y-90130331D01*
X46480707Y-90148314D01*
X46490500Y-90149865D01*
X46500293Y-90148314D01*
X46613835Y-90130331D01*
X46613837Y-90130330D01*
X46623626Y-90128780D01*
X46743720Y-90067589D01*
X46839028Y-89972281D01*
X46900219Y-89852187D01*
X46921304Y-89719061D01*
X46900219Y-89585935D01*
X46839028Y-89465841D01*
X46743720Y-89370533D01*
X46623626Y-89309342D01*
X46613837Y-89307792D01*
X46613835Y-89307791D01*
X46500293Y-89289808D01*
X46490500Y-89288257D01*
X46480707Y-89289808D01*
X46367165Y-89307791D01*
X46367163Y-89307792D01*
X46357374Y-89309342D01*
X46237280Y-89370533D01*
X46141972Y-89465841D01*
X46080781Y-89585935D01*
X46059696Y-89719061D01*
X18500500Y-89719061D01*
X18500500Y-87975000D01*
X36569196Y-87975000D01*
X36570747Y-87984793D01*
X36571605Y-87990207D01*
X36590281Y-88108126D01*
X36651472Y-88228220D01*
X36746780Y-88323528D01*
X36866874Y-88384719D01*
X36876663Y-88386269D01*
X36876665Y-88386270D01*
X36990207Y-88404253D01*
X37000000Y-88405804D01*
X37009793Y-88404253D01*
X37123335Y-88386270D01*
X37123337Y-88386269D01*
X37133126Y-88384719D01*
X37253220Y-88323528D01*
X37348528Y-88228220D01*
X37409719Y-88108126D01*
X37428396Y-87990207D01*
X37429253Y-87984793D01*
X37430804Y-87975000D01*
X37415438Y-87877984D01*
X37411270Y-87851665D01*
X37411269Y-87851663D01*
X37409719Y-87841874D01*
X37348528Y-87721780D01*
X37253220Y-87626472D01*
X37133126Y-87565281D01*
X37123337Y-87563731D01*
X37123335Y-87563730D01*
X37009793Y-87545747D01*
X37001010Y-87544356D01*
X41369938Y-87544356D01*
X41371710Y-87551736D01*
X41371710Y-87551738D01*
X41397338Y-87658483D01*
X41409253Y-87708113D01*
X41486494Y-87857765D01*
X41491486Y-87863487D01*
X41491487Y-87863489D01*
X41504132Y-87877984D01*
X41597203Y-87984673D01*
X41619011Y-88000000D01*
X41728770Y-88077140D01*
X41728772Y-88077141D01*
X41734987Y-88081509D01*
X41891894Y-88142685D01*
X41899427Y-88143677D01*
X41899428Y-88143677D01*
X42016251Y-88159057D01*
X42020338Y-88159595D01*
X42108430Y-88159595D01*
X42233393Y-88144473D01*
X42390932Y-88084944D01*
X42514526Y-88000000D01*
X46059196Y-88000000D01*
X46060747Y-88009793D01*
X46078426Y-88121411D01*
X46080281Y-88133126D01*
X46141472Y-88253220D01*
X46236780Y-88348528D01*
X46356874Y-88409719D01*
X46366663Y-88411269D01*
X46366665Y-88411270D01*
X46480207Y-88429253D01*
X46490000Y-88430804D01*
X46499793Y-88429253D01*
X46613335Y-88411270D01*
X46613337Y-88411269D01*
X46623126Y-88409719D01*
X46743220Y-88348528D01*
X46838528Y-88253220D01*
X46899719Y-88133126D01*
X46901575Y-88121411D01*
X46919253Y-88009793D01*
X46920804Y-88000000D01*
X46919068Y-87989040D01*
X46901270Y-87876665D01*
X46901269Y-87876663D01*
X46899719Y-87866874D01*
X46838528Y-87746780D01*
X46821748Y-87730000D01*
X50299196Y-87730000D01*
X50300747Y-87739793D01*
X50303253Y-87755612D01*
X50320281Y-87863126D01*
X50381472Y-87983220D01*
X50476780Y-88078528D01*
X50596874Y-88139719D01*
X50606663Y-88141269D01*
X50606665Y-88141270D01*
X50720207Y-88159253D01*
X50730000Y-88160804D01*
X50739793Y-88159253D01*
X50853335Y-88141270D01*
X50853337Y-88141269D01*
X50863126Y-88139719D01*
X50879838Y-88131204D01*
X57780400Y-88131204D01*
X57781951Y-88140997D01*
X57798327Y-88244388D01*
X57801485Y-88264330D01*
X57862676Y-88384424D01*
X57957984Y-88479732D01*
X58078078Y-88540923D01*
X58087867Y-88542473D01*
X58087869Y-88542474D01*
X58201411Y-88560457D01*
X58211204Y-88562008D01*
X58220997Y-88560457D01*
X58334539Y-88542474D01*
X58334541Y-88542473D01*
X58344330Y-88540923D01*
X58464424Y-88479732D01*
X58559732Y-88384424D01*
X58620923Y-88264330D01*
X58624082Y-88244388D01*
X58640457Y-88140997D01*
X58642008Y-88131204D01*
X58632555Y-88071517D01*
X58622474Y-88007869D01*
X58622473Y-88007867D01*
X58620923Y-87998078D01*
X58559732Y-87877984D01*
X58464424Y-87782676D01*
X58344330Y-87721485D01*
X58334541Y-87719935D01*
X58334539Y-87719934D01*
X58220997Y-87701951D01*
X58211204Y-87700400D01*
X58201411Y-87701951D01*
X58087869Y-87719934D01*
X58087867Y-87719935D01*
X58078078Y-87721485D01*
X57957984Y-87782676D01*
X57862676Y-87877984D01*
X57801485Y-87998078D01*
X57799935Y-88007867D01*
X57799934Y-88007869D01*
X57789853Y-88071517D01*
X57780400Y-88131204D01*
X50879838Y-88131204D01*
X50983220Y-88078528D01*
X51078528Y-87983220D01*
X51139719Y-87863126D01*
X51156748Y-87755612D01*
X51159253Y-87739793D01*
X51160804Y-87730000D01*
X51158392Y-87714769D01*
X51141270Y-87606665D01*
X51141269Y-87606663D01*
X51139719Y-87596874D01*
X51078528Y-87476780D01*
X50983220Y-87381472D01*
X50863126Y-87320281D01*
X50853337Y-87318731D01*
X50853335Y-87318730D01*
X50739793Y-87300747D01*
X50730000Y-87299196D01*
X50720207Y-87300747D01*
X50606665Y-87318730D01*
X50606663Y-87318731D01*
X50596874Y-87320281D01*
X50476780Y-87381472D01*
X50381472Y-87476780D01*
X50320281Y-87596874D01*
X50318731Y-87606663D01*
X50318730Y-87606665D01*
X50301608Y-87714769D01*
X50299196Y-87730000D01*
X46821748Y-87730000D01*
X46743220Y-87651472D01*
X46623126Y-87590281D01*
X46613337Y-87588731D01*
X46613335Y-87588730D01*
X46499793Y-87570747D01*
X46490000Y-87569196D01*
X46480207Y-87570747D01*
X46366665Y-87588730D01*
X46366663Y-87588731D01*
X46356874Y-87590281D01*
X46236780Y-87651472D01*
X46141472Y-87746780D01*
X46080281Y-87866874D01*
X46078731Y-87876663D01*
X46078730Y-87876665D01*
X46060932Y-87989040D01*
X46059196Y-88000000D01*
X42514526Y-88000000D01*
X42529723Y-87989555D01*
X42534776Y-87983884D01*
X42636702Y-87869486D01*
X42636704Y-87869483D01*
X42641755Y-87863814D01*
X42653372Y-87841874D01*
X42717005Y-87721692D01*
X42717006Y-87721690D01*
X42720559Y-87714979D01*
X42743921Y-87621972D01*
X42759735Y-87559013D01*
X42759735Y-87559009D01*
X42761586Y-87551642D01*
X42762468Y-87383234D01*
X42742665Y-87300747D01*
X42724925Y-87226857D01*
X42724924Y-87226855D01*
X42723153Y-87219477D01*
X42645912Y-87069825D01*
X42535203Y-86942917D01*
X42477040Y-86902039D01*
X42403636Y-86850450D01*
X42403634Y-86850449D01*
X42397419Y-86846081D01*
X42240512Y-86784905D01*
X42232979Y-86783913D01*
X42232978Y-86783913D01*
X42116155Y-86768533D01*
X42116154Y-86768533D01*
X42112068Y-86767995D01*
X42023976Y-86767995D01*
X41899013Y-86783117D01*
X41741474Y-86842646D01*
X41602683Y-86938035D01*
X41597631Y-86943705D01*
X41597630Y-86943706D01*
X41495704Y-87058104D01*
X41495702Y-87058107D01*
X41490651Y-87063776D01*
X41411847Y-87212611D01*
X41409997Y-87219976D01*
X41390099Y-87299196D01*
X41370820Y-87375948D01*
X41369938Y-87544356D01*
X37001010Y-87544356D01*
X37000000Y-87544196D01*
X36990207Y-87545747D01*
X36876665Y-87563730D01*
X36876663Y-87563731D01*
X36866874Y-87565281D01*
X36746780Y-87626472D01*
X36651472Y-87721780D01*
X36590281Y-87841874D01*
X36588731Y-87851663D01*
X36588730Y-87851665D01*
X36584562Y-87877984D01*
X36569196Y-87975000D01*
X18500500Y-87975000D01*
X18500500Y-86200000D01*
X21339196Y-86200000D01*
X21340747Y-86209793D01*
X21351335Y-86276640D01*
X21360281Y-86333126D01*
X21421472Y-86453220D01*
X21516780Y-86548528D01*
X21636874Y-86609719D01*
X21646663Y-86611269D01*
X21646665Y-86611270D01*
X21760207Y-86629253D01*
X21770000Y-86630804D01*
X21779793Y-86629253D01*
X21893335Y-86611270D01*
X21893337Y-86611269D01*
X21903126Y-86609719D01*
X22023220Y-86548528D01*
X22118528Y-86453220D01*
X22179719Y-86333126D01*
X22188666Y-86276640D01*
X22199253Y-86209793D01*
X22200804Y-86200000D01*
X22191502Y-86141270D01*
X22184966Y-86100000D01*
X46309196Y-86100000D01*
X46310747Y-86109793D01*
X46318749Y-86160313D01*
X46330281Y-86233126D01*
X46391472Y-86353220D01*
X46486780Y-86448528D01*
X46606874Y-86509719D01*
X46616663Y-86511269D01*
X46616665Y-86511270D01*
X46730207Y-86529253D01*
X46740000Y-86530804D01*
X46749793Y-86529253D01*
X46863335Y-86511270D01*
X46863337Y-86511269D01*
X46873126Y-86509719D01*
X46993220Y-86448528D01*
X47040905Y-86400843D01*
X47103217Y-86366817D01*
X47174032Y-86371882D01*
X47219095Y-86400843D01*
X47256780Y-86438528D01*
X47376874Y-86499719D01*
X47386663Y-86501269D01*
X47386665Y-86501270D01*
X47500207Y-86519253D01*
X47510000Y-86520804D01*
X47519793Y-86519253D01*
X47633335Y-86501270D01*
X47633337Y-86501269D01*
X47643126Y-86499719D01*
X47763220Y-86438528D01*
X47821748Y-86380000D01*
X53779196Y-86380000D01*
X53780747Y-86389793D01*
X53798158Y-86499719D01*
X53800281Y-86513126D01*
X53861472Y-86633220D01*
X53956780Y-86728528D01*
X54076874Y-86789719D01*
X54086663Y-86791269D01*
X54086665Y-86791270D01*
X54200207Y-86809253D01*
X54210000Y-86810804D01*
X54219793Y-86809253D01*
X54333335Y-86791270D01*
X54333337Y-86791269D01*
X54343126Y-86789719D01*
X54463220Y-86728528D01*
X54558528Y-86633220D01*
X54619719Y-86513126D01*
X54621843Y-86499719D01*
X54639253Y-86389793D01*
X54640804Y-86380000D01*
X54632560Y-86327951D01*
X54641659Y-86257542D01*
X54687381Y-86203227D01*
X54755209Y-86182254D01*
X54814211Y-86195974D01*
X54869242Y-86224013D01*
X54878078Y-86228515D01*
X54887867Y-86230065D01*
X54887869Y-86230066D01*
X55001411Y-86248049D01*
X55011204Y-86249600D01*
X55020997Y-86248049D01*
X55134539Y-86230066D01*
X55134541Y-86230065D01*
X55144330Y-86228515D01*
X55264424Y-86167324D01*
X55359732Y-86072016D01*
X55420923Y-85951922D01*
X55442008Y-85818796D01*
X55422017Y-85692578D01*
X55431116Y-85622169D01*
X55476838Y-85567855D01*
X55544666Y-85546882D01*
X55603668Y-85560602D01*
X55669242Y-85594013D01*
X55678078Y-85598515D01*
X55687867Y-85600065D01*
X55687869Y-85600066D01*
X55801411Y-85618049D01*
X55811204Y-85619600D01*
X55820997Y-85618049D01*
X55934539Y-85600066D01*
X55934541Y-85600065D01*
X55944330Y-85598515D01*
X56064424Y-85537324D01*
X56159732Y-85442016D01*
X56220923Y-85321922D01*
X56224523Y-85299196D01*
X56240457Y-85198589D01*
X56240457Y-85198588D01*
X56242008Y-85188796D01*
X56238747Y-85168207D01*
X56247847Y-85097796D01*
X56293568Y-85043482D01*
X56361397Y-85022509D01*
X56420400Y-85036230D01*
X56438039Y-85045218D01*
X56438043Y-85045219D01*
X56446874Y-85049719D01*
X56456663Y-85051269D01*
X56456665Y-85051270D01*
X56570207Y-85069253D01*
X56580000Y-85070804D01*
X56589793Y-85069253D01*
X56703335Y-85051270D01*
X56703337Y-85051269D01*
X56713126Y-85049719D01*
X56833220Y-84988528D01*
X56928528Y-84893220D01*
X56989719Y-84773126D01*
X56991871Y-84759543D01*
X57009253Y-84649793D01*
X57010804Y-84640000D01*
X56998643Y-84563220D01*
X56991270Y-84516665D01*
X56991269Y-84516663D01*
X56989719Y-84506874D01*
X56928528Y-84386780D01*
X56833220Y-84291472D01*
X56713126Y-84230281D01*
X56703337Y-84228731D01*
X56703335Y-84228730D01*
X56589793Y-84210747D01*
X56580000Y-84209196D01*
X56570207Y-84210747D01*
X56456665Y-84228730D01*
X56456663Y-84228731D01*
X56446874Y-84230281D01*
X56326780Y-84291472D01*
X56231472Y-84386780D01*
X56170281Y-84506874D01*
X56168731Y-84516663D01*
X56168730Y-84516665D01*
X56161357Y-84563220D01*
X56149196Y-84640000D01*
X56150747Y-84649793D01*
X56152457Y-84660589D01*
X56143357Y-84731000D01*
X56097636Y-84785314D01*
X56029807Y-84806287D01*
X55970804Y-84792566D01*
X55953165Y-84783578D01*
X55953161Y-84783577D01*
X55944330Y-84779077D01*
X55934541Y-84777527D01*
X55934539Y-84777526D01*
X55820997Y-84759543D01*
X55811204Y-84757992D01*
X55801411Y-84759543D01*
X55687869Y-84777526D01*
X55687867Y-84777527D01*
X55678078Y-84779077D01*
X55557984Y-84840268D01*
X55462676Y-84935576D01*
X55401485Y-85055670D01*
X55399935Y-85065459D01*
X55399934Y-85065461D01*
X55399088Y-85070804D01*
X55380400Y-85188796D01*
X55399935Y-85312131D01*
X55400391Y-85315012D01*
X55391292Y-85385423D01*
X55345570Y-85439737D01*
X55277742Y-85460710D01*
X55218740Y-85446990D01*
X55153166Y-85413579D01*
X55153165Y-85413579D01*
X55144330Y-85409077D01*
X55134541Y-85407527D01*
X55134539Y-85407526D01*
X55020997Y-85389543D01*
X55011204Y-85387992D01*
X55001411Y-85389543D01*
X54887869Y-85407526D01*
X54887867Y-85407527D01*
X54878078Y-85409077D01*
X54757984Y-85470268D01*
X54662676Y-85565576D01*
X54601485Y-85685670D01*
X54599935Y-85695459D01*
X54599934Y-85695461D01*
X54588256Y-85769196D01*
X54580400Y-85818796D01*
X54588644Y-85870845D01*
X54579545Y-85941254D01*
X54533823Y-85995569D01*
X54465995Y-86016542D01*
X54406993Y-86002822D01*
X54351962Y-85974783D01*
X54351961Y-85974783D01*
X54343126Y-85970281D01*
X54333337Y-85968731D01*
X54333335Y-85968730D01*
X54219793Y-85950747D01*
X54210000Y-85949196D01*
X54200207Y-85950747D01*
X54086665Y-85968730D01*
X54086663Y-85968731D01*
X54076874Y-85970281D01*
X53956780Y-86031472D01*
X53861472Y-86126780D01*
X53800281Y-86246874D01*
X53798731Y-86256663D01*
X53798730Y-86256665D01*
X53782327Y-86360231D01*
X53779196Y-86380000D01*
X47821748Y-86380000D01*
X47858528Y-86343220D01*
X47919719Y-86223126D01*
X47924020Y-86195974D01*
X47939253Y-86099793D01*
X47940804Y-86090000D01*
X47931534Y-86031472D01*
X47921270Y-85966665D01*
X47921269Y-85966663D01*
X47919719Y-85956874D01*
X47858528Y-85836780D01*
X47763220Y-85741472D01*
X47643126Y-85680281D01*
X47633337Y-85678731D01*
X47633335Y-85678730D01*
X47519793Y-85660747D01*
X47510000Y-85659196D01*
X47500207Y-85660747D01*
X47386665Y-85678730D01*
X47386663Y-85678731D01*
X47376874Y-85680281D01*
X47256780Y-85741472D01*
X47209095Y-85789157D01*
X47146783Y-85823183D01*
X47075968Y-85818118D01*
X47030905Y-85789157D01*
X46993220Y-85751472D01*
X46873126Y-85690281D01*
X46863337Y-85688731D01*
X46863335Y-85688730D01*
X46749793Y-85670747D01*
X46740000Y-85669196D01*
X46730207Y-85670747D01*
X46616665Y-85688730D01*
X46616663Y-85688731D01*
X46606874Y-85690281D01*
X46486780Y-85751472D01*
X46391472Y-85846780D01*
X46330281Y-85966874D01*
X46328731Y-85976663D01*
X46328730Y-85976665D01*
X46325736Y-85995569D01*
X46309196Y-86100000D01*
X22184966Y-86100000D01*
X22181270Y-86076665D01*
X22181269Y-86076663D01*
X22179719Y-86066874D01*
X22118528Y-85946780D01*
X22023220Y-85851472D01*
X21903126Y-85790281D01*
X21893337Y-85788731D01*
X21893335Y-85788730D01*
X21779793Y-85770747D01*
X21770000Y-85769196D01*
X21760207Y-85770747D01*
X21646665Y-85788730D01*
X21646663Y-85788731D01*
X21636874Y-85790281D01*
X21516780Y-85851472D01*
X21421472Y-85946780D01*
X21360281Y-86066874D01*
X21358731Y-86076663D01*
X21358730Y-86076665D01*
X21348498Y-86141270D01*
X21339196Y-86200000D01*
X18500500Y-86200000D01*
X18500500Y-85100000D01*
X50569196Y-85100000D01*
X50570747Y-85109792D01*
X50570747Y-85109793D01*
X50578325Y-85157636D01*
X50590281Y-85233126D01*
X50651472Y-85353220D01*
X50746780Y-85448528D01*
X50866874Y-85509719D01*
X50876665Y-85511270D01*
X50876666Y-85511270D01*
X50905385Y-85515819D01*
X50983587Y-85528204D01*
X51047739Y-85558616D01*
X51085267Y-85618884D01*
X51088325Y-85672362D01*
X51079196Y-85730000D01*
X51080747Y-85739793D01*
X51096582Y-85839769D01*
X51100281Y-85863126D01*
X51161472Y-85983220D01*
X51256780Y-86078528D01*
X51376874Y-86139719D01*
X51386663Y-86141269D01*
X51386665Y-86141270D01*
X51500207Y-86159253D01*
X51510000Y-86160804D01*
X51519793Y-86159253D01*
X51633335Y-86141270D01*
X51633337Y-86141269D01*
X51643126Y-86139719D01*
X51763220Y-86078528D01*
X51858528Y-85983220D01*
X51919719Y-85863126D01*
X51923419Y-85839769D01*
X51939253Y-85739793D01*
X51940804Y-85730000D01*
X51932384Y-85676837D01*
X51921270Y-85606665D01*
X51921269Y-85606663D01*
X51919719Y-85596874D01*
X51858528Y-85476780D01*
X51763220Y-85381472D01*
X51643126Y-85320281D01*
X51633335Y-85318730D01*
X51633334Y-85318730D01*
X51604615Y-85314181D01*
X51526413Y-85301796D01*
X51462261Y-85271384D01*
X51424733Y-85211116D01*
X51421675Y-85157636D01*
X51429253Y-85109792D01*
X51430804Y-85100000D01*
X51422384Y-85046837D01*
X51411270Y-84976665D01*
X51411269Y-84976663D01*
X51409719Y-84966874D01*
X51348528Y-84846780D01*
X51253220Y-84751472D01*
X51133126Y-84690281D01*
X51123337Y-84688731D01*
X51123335Y-84688730D01*
X51009793Y-84670747D01*
X51000000Y-84669196D01*
X50990207Y-84670747D01*
X50876665Y-84688730D01*
X50876663Y-84688731D01*
X50866874Y-84690281D01*
X50746780Y-84751472D01*
X50651472Y-84846780D01*
X50590281Y-84966874D01*
X50588731Y-84976663D01*
X50588730Y-84976665D01*
X50577616Y-85046837D01*
X50569196Y-85100000D01*
X18500500Y-85100000D01*
X18500500Y-84107400D01*
X31744196Y-84107400D01*
X31745747Y-84117193D01*
X31763413Y-84228730D01*
X31765281Y-84240526D01*
X31826472Y-84360620D01*
X31921780Y-84455928D01*
X32041874Y-84517119D01*
X32051663Y-84518669D01*
X32051665Y-84518670D01*
X32165207Y-84536653D01*
X32175000Y-84538204D01*
X32184793Y-84536653D01*
X32298335Y-84518670D01*
X32298337Y-84518669D01*
X32308126Y-84517119D01*
X32428220Y-84455928D01*
X32473405Y-84410743D01*
X32535717Y-84376717D01*
X32606532Y-84381782D01*
X32651595Y-84410743D01*
X32696780Y-84455928D01*
X32816874Y-84517119D01*
X32826663Y-84518669D01*
X32826665Y-84518670D01*
X32940207Y-84536653D01*
X32950000Y-84538204D01*
X32959793Y-84536653D01*
X33073335Y-84518670D01*
X33073337Y-84518669D01*
X33083126Y-84517119D01*
X33203220Y-84455928D01*
X33298528Y-84360620D01*
X33324320Y-84310000D01*
X36899196Y-84310000D01*
X36900747Y-84319793D01*
X36912756Y-84395612D01*
X36920281Y-84443126D01*
X36981472Y-84563220D01*
X37076780Y-84658528D01*
X37196874Y-84719719D01*
X37206663Y-84721269D01*
X37206665Y-84721270D01*
X37320207Y-84739253D01*
X37330000Y-84740804D01*
X37339793Y-84739253D01*
X37453335Y-84721270D01*
X37453337Y-84721269D01*
X37463126Y-84719719D01*
X37583220Y-84658528D01*
X37678528Y-84563220D01*
X37739719Y-84443126D01*
X37747245Y-84395612D01*
X37759253Y-84319793D01*
X37760804Y-84310000D01*
X37758980Y-84298483D01*
X37741270Y-84186665D01*
X37741269Y-84186663D01*
X37739719Y-84176874D01*
X37678528Y-84056780D01*
X37583220Y-83961472D01*
X37463126Y-83900281D01*
X37453337Y-83898731D01*
X37453335Y-83898730D01*
X37339793Y-83880747D01*
X37330000Y-83879196D01*
X37320207Y-83880747D01*
X37206665Y-83898730D01*
X37206663Y-83898731D01*
X37196874Y-83900281D01*
X37076780Y-83961472D01*
X36981472Y-84056780D01*
X36920281Y-84176874D01*
X36918731Y-84186663D01*
X36918730Y-84186665D01*
X36901020Y-84298483D01*
X36899196Y-84310000D01*
X33324320Y-84310000D01*
X33359719Y-84240526D01*
X33361588Y-84228730D01*
X33379253Y-84117193D01*
X33380804Y-84107400D01*
X33379253Y-84097607D01*
X33361270Y-83984065D01*
X33361269Y-83984063D01*
X33359719Y-83974274D01*
X33298528Y-83854180D01*
X33203220Y-83758872D01*
X33083126Y-83697681D01*
X33073337Y-83696131D01*
X33073335Y-83696130D01*
X32959793Y-83678147D01*
X32950000Y-83676596D01*
X32940207Y-83678147D01*
X32826665Y-83696130D01*
X32826663Y-83696131D01*
X32816874Y-83697681D01*
X32696780Y-83758872D01*
X32651595Y-83804057D01*
X32589283Y-83838083D01*
X32518468Y-83833018D01*
X32473405Y-83804057D01*
X32428220Y-83758872D01*
X32308126Y-83697681D01*
X32298337Y-83696131D01*
X32298335Y-83696130D01*
X32184793Y-83678147D01*
X32175000Y-83676596D01*
X32165207Y-83678147D01*
X32051665Y-83696130D01*
X32051663Y-83696131D01*
X32041874Y-83697681D01*
X31921780Y-83758872D01*
X31826472Y-83854180D01*
X31765281Y-83974274D01*
X31763731Y-83984063D01*
X31763730Y-83984065D01*
X31745747Y-84097607D01*
X31744196Y-84107400D01*
X18500500Y-84107400D01*
X18500500Y-83610000D01*
X19359196Y-83610000D01*
X19360747Y-83619793D01*
X19372838Y-83696130D01*
X19380281Y-83743126D01*
X19441472Y-83863220D01*
X19536780Y-83958528D01*
X19656874Y-84019719D01*
X19666663Y-84021269D01*
X19666665Y-84021270D01*
X19780207Y-84039253D01*
X19790000Y-84040804D01*
X19799793Y-84039253D01*
X19913335Y-84021270D01*
X19913337Y-84021269D01*
X19923126Y-84019719D01*
X20043220Y-83958528D01*
X20138528Y-83863220D01*
X20199719Y-83743126D01*
X20207163Y-83696130D01*
X20219253Y-83619793D01*
X20220804Y-83610000D01*
X20199719Y-83476874D01*
X20138528Y-83356780D01*
X20043220Y-83261472D01*
X19923126Y-83200281D01*
X19913337Y-83198731D01*
X19913335Y-83198730D01*
X19799793Y-83180747D01*
X19790000Y-83179196D01*
X19780207Y-83180747D01*
X19666665Y-83198730D01*
X19666663Y-83198731D01*
X19656874Y-83200281D01*
X19536780Y-83261472D01*
X19441472Y-83356780D01*
X19380281Y-83476874D01*
X19359196Y-83610000D01*
X18500500Y-83610000D01*
X18500500Y-83020000D01*
X50859196Y-83020000D01*
X50880281Y-83153126D01*
X50941472Y-83273220D01*
X51036780Y-83368528D01*
X51156874Y-83429719D01*
X51166663Y-83431269D01*
X51166665Y-83431270D01*
X51280207Y-83449253D01*
X51290000Y-83450804D01*
X51299793Y-83449253D01*
X51413335Y-83431270D01*
X51413337Y-83431269D01*
X51423126Y-83429719D01*
X51543220Y-83368528D01*
X51638528Y-83273220D01*
X51699719Y-83153126D01*
X51720804Y-83020000D01*
X51699719Y-82886874D01*
X51638528Y-82766780D01*
X51543220Y-82671472D01*
X51423126Y-82610281D01*
X51413337Y-82608731D01*
X51413335Y-82608730D01*
X51299793Y-82590747D01*
X51290000Y-82589196D01*
X51280207Y-82590747D01*
X51166665Y-82608730D01*
X51166663Y-82608731D01*
X51156874Y-82610281D01*
X51036780Y-82671472D01*
X50941472Y-82766780D01*
X50880281Y-82886874D01*
X50859196Y-83020000D01*
X18500500Y-83020000D01*
X18500500Y-80900000D01*
X30469196Y-80900000D01*
X30470747Y-80909793D01*
X30480498Y-80971356D01*
X30490281Y-81033126D01*
X30551472Y-81153220D01*
X30646780Y-81248528D01*
X30766874Y-81309719D01*
X30776665Y-81311270D01*
X30776666Y-81311270D01*
X30869195Y-81325925D01*
X30933349Y-81356337D01*
X30970876Y-81416605D01*
X30973934Y-81470084D01*
X30969196Y-81500000D01*
X30970747Y-81509793D01*
X30986746Y-81610804D01*
X30990281Y-81633126D01*
X31051472Y-81753220D01*
X31146780Y-81848528D01*
X31266874Y-81909719D01*
X31276663Y-81911269D01*
X31276665Y-81911270D01*
X31390207Y-81929253D01*
X31400000Y-81930804D01*
X31409793Y-81929253D01*
X31523335Y-81911270D01*
X31523337Y-81911269D01*
X31533126Y-81909719D01*
X31653220Y-81848528D01*
X31748528Y-81753220D01*
X31809719Y-81633126D01*
X31813255Y-81610804D01*
X31818134Y-81580000D01*
X35679196Y-81580000D01*
X35680747Y-81589793D01*
X35686060Y-81623335D01*
X35700281Y-81713126D01*
X35761472Y-81833220D01*
X35856780Y-81928528D01*
X35976874Y-81989719D01*
X35986663Y-81991269D01*
X35986665Y-81991270D01*
X36100207Y-82009253D01*
X36110000Y-82010804D01*
X36119793Y-82009253D01*
X36233335Y-81991270D01*
X36233337Y-81991269D01*
X36243126Y-81989719D01*
X36363220Y-81928528D01*
X36458528Y-81833220D01*
X36519719Y-81713126D01*
X36533941Y-81623335D01*
X36539253Y-81589793D01*
X36540804Y-81580000D01*
X36533574Y-81534353D01*
X36521270Y-81456665D01*
X36521269Y-81456663D01*
X36519719Y-81446874D01*
X36458528Y-81326780D01*
X36405870Y-81274122D01*
X44115074Y-81274122D01*
X44116625Y-81283915D01*
X44128096Y-81356337D01*
X44136159Y-81407248D01*
X44197350Y-81527342D01*
X44292658Y-81622650D01*
X44412752Y-81683841D01*
X44422541Y-81685391D01*
X44422543Y-81685392D01*
X44536085Y-81703375D01*
X44545878Y-81704926D01*
X44555671Y-81703375D01*
X44669213Y-81685392D01*
X44669215Y-81685391D01*
X44679004Y-81683841D01*
X44799098Y-81622650D01*
X44894406Y-81527342D01*
X44955597Y-81407248D01*
X44963661Y-81356337D01*
X44975131Y-81283915D01*
X44976682Y-81274122D01*
X44975131Y-81264329D01*
X44957148Y-81150787D01*
X44957147Y-81150785D01*
X44955597Y-81140996D01*
X44894406Y-81020902D01*
X44799098Y-80925594D01*
X44679004Y-80864403D01*
X44669215Y-80862853D01*
X44669213Y-80862852D01*
X44555671Y-80844869D01*
X44545878Y-80843318D01*
X44536085Y-80844869D01*
X44422543Y-80862852D01*
X44422541Y-80862853D01*
X44412752Y-80864403D01*
X44292658Y-80925594D01*
X44197350Y-81020902D01*
X44136159Y-81140996D01*
X44134609Y-81150785D01*
X44134608Y-81150787D01*
X44116625Y-81264329D01*
X44115074Y-81274122D01*
X36405870Y-81274122D01*
X36363220Y-81231472D01*
X36243126Y-81170281D01*
X36233337Y-81168731D01*
X36233335Y-81168730D01*
X36119793Y-81150747D01*
X36110000Y-81149196D01*
X36100207Y-81150747D01*
X35986665Y-81168730D01*
X35986663Y-81168731D01*
X35976874Y-81170281D01*
X35856780Y-81231472D01*
X35761472Y-81326780D01*
X35700281Y-81446874D01*
X35698731Y-81456663D01*
X35698730Y-81456665D01*
X35686426Y-81534353D01*
X35679196Y-81580000D01*
X31818134Y-81580000D01*
X31829253Y-81509793D01*
X31830804Y-81500000D01*
X31826066Y-81470084D01*
X31811270Y-81376665D01*
X31811269Y-81376663D01*
X31809719Y-81366874D01*
X31748528Y-81246780D01*
X31653220Y-81151472D01*
X31533126Y-81090281D01*
X31523335Y-81088730D01*
X31523334Y-81088730D01*
X31430805Y-81074075D01*
X31366651Y-81043663D01*
X31329124Y-80983395D01*
X31326066Y-80929916D01*
X31329253Y-80909794D01*
X31329253Y-80909793D01*
X31330804Y-80900000D01*
X31326066Y-80870084D01*
X31328662Y-80850000D01*
X33769196Y-80850000D01*
X33770747Y-80859793D01*
X33782756Y-80935612D01*
X33790281Y-80983126D01*
X33851472Y-81103220D01*
X33946780Y-81198528D01*
X34066874Y-81259719D01*
X34076663Y-81261269D01*
X34076665Y-81261270D01*
X34190207Y-81279253D01*
X34200000Y-81280804D01*
X34209793Y-81279253D01*
X34323335Y-81261270D01*
X34323337Y-81261269D01*
X34333126Y-81259719D01*
X34453220Y-81198528D01*
X34548528Y-81103220D01*
X34609719Y-80983126D01*
X34617245Y-80935612D01*
X34629253Y-80859793D01*
X34630804Y-80850000D01*
X34628525Y-80835612D01*
X34611270Y-80726665D01*
X34611269Y-80726663D01*
X34609719Y-80716874D01*
X34548528Y-80596780D01*
X34497248Y-80545500D01*
X46279196Y-80545500D01*
X46280747Y-80555293D01*
X46298714Y-80668730D01*
X46300281Y-80678626D01*
X46361472Y-80798720D01*
X46456780Y-80894028D01*
X46507300Y-80919769D01*
X46567412Y-80950398D01*
X46619027Y-80999146D01*
X46636093Y-81068061D01*
X46634658Y-81082376D01*
X46622604Y-81158483D01*
X46619196Y-81180000D01*
X46620747Y-81189793D01*
X46635162Y-81280804D01*
X46640281Y-81313126D01*
X46701472Y-81433220D01*
X46796780Y-81528528D01*
X46916874Y-81589719D01*
X46926663Y-81591269D01*
X46926665Y-81591270D01*
X47040207Y-81609253D01*
X47050000Y-81610804D01*
X47059793Y-81609253D01*
X47173335Y-81591270D01*
X47173337Y-81591269D01*
X47183126Y-81589719D01*
X47303220Y-81528528D01*
X47398528Y-81433220D01*
X47459719Y-81313126D01*
X47464839Y-81280804D01*
X47479253Y-81189793D01*
X47480804Y-81180000D01*
X47477396Y-81158483D01*
X47464966Y-81080000D01*
X55869196Y-81080000D01*
X55870747Y-81089793D01*
X55888682Y-81203028D01*
X55890281Y-81213126D01*
X55951472Y-81333220D01*
X56046780Y-81428528D01*
X56166874Y-81489719D01*
X56176663Y-81491269D01*
X56176665Y-81491270D01*
X56290207Y-81509253D01*
X56300000Y-81510804D01*
X56309793Y-81509253D01*
X56423335Y-81491270D01*
X56423337Y-81491269D01*
X56433126Y-81489719D01*
X56553220Y-81428528D01*
X56648528Y-81333220D01*
X56709719Y-81213126D01*
X56711319Y-81203028D01*
X56729253Y-81089793D01*
X56730804Y-81080000D01*
X56721444Y-81020902D01*
X56711270Y-80956665D01*
X56711269Y-80956663D01*
X56709719Y-80946874D01*
X56648528Y-80826780D01*
X56553220Y-80731472D01*
X56433126Y-80670281D01*
X56423337Y-80668731D01*
X56423335Y-80668730D01*
X56309793Y-80650747D01*
X56300000Y-80649196D01*
X56290207Y-80650747D01*
X56176665Y-80668730D01*
X56176663Y-80668731D01*
X56166874Y-80670281D01*
X56046780Y-80731472D01*
X55951472Y-80826780D01*
X55890281Y-80946874D01*
X55888731Y-80956663D01*
X55888730Y-80956665D01*
X55878556Y-81020902D01*
X55869196Y-81080000D01*
X47464966Y-81080000D01*
X47461270Y-81056665D01*
X47461269Y-81056663D01*
X47459719Y-81046874D01*
X47398528Y-80926780D01*
X47303220Y-80831472D01*
X47221607Y-80789888D01*
X47192588Y-80775102D01*
X47140973Y-80726354D01*
X47123907Y-80657439D01*
X47125342Y-80643124D01*
X47139253Y-80555293D01*
X47140804Y-80545500D01*
X47131684Y-80487917D01*
X47121270Y-80422165D01*
X47121269Y-80422163D01*
X47119719Y-80412374D01*
X47058528Y-80292280D01*
X46963220Y-80196972D01*
X46843126Y-80135781D01*
X46833337Y-80134231D01*
X46833335Y-80134230D01*
X46719793Y-80116247D01*
X46710000Y-80114696D01*
X46700207Y-80116247D01*
X46586665Y-80134230D01*
X46586663Y-80134231D01*
X46576874Y-80135781D01*
X46456780Y-80196972D01*
X46361472Y-80292280D01*
X46300281Y-80412374D01*
X46298731Y-80422163D01*
X46298730Y-80422165D01*
X46288316Y-80487917D01*
X46279196Y-80545500D01*
X34497248Y-80545500D01*
X34453220Y-80501472D01*
X34333126Y-80440281D01*
X34323337Y-80438731D01*
X34323335Y-80438730D01*
X34209793Y-80420747D01*
X34200000Y-80419196D01*
X34190207Y-80420747D01*
X34076665Y-80438730D01*
X34076663Y-80438731D01*
X34066874Y-80440281D01*
X33946780Y-80501472D01*
X33851472Y-80596780D01*
X33790281Y-80716874D01*
X33788731Y-80726663D01*
X33788730Y-80726665D01*
X33771475Y-80835612D01*
X33769196Y-80850000D01*
X31328662Y-80850000D01*
X31335166Y-80799673D01*
X31380888Y-80745359D01*
X31430805Y-80725925D01*
X31523334Y-80711270D01*
X31523335Y-80711270D01*
X31533126Y-80709719D01*
X31653220Y-80648528D01*
X31748528Y-80553220D01*
X31809719Y-80433126D01*
X31811926Y-80419196D01*
X31829253Y-80309793D01*
X31830804Y-80300000D01*
X31823012Y-80250804D01*
X31811270Y-80176665D01*
X31811269Y-80176663D01*
X31809719Y-80166874D01*
X31748528Y-80046780D01*
X31653220Y-79951472D01*
X31533126Y-79890281D01*
X31523337Y-79888731D01*
X31523335Y-79888730D01*
X31409793Y-79870747D01*
X31400000Y-79869196D01*
X31390207Y-79870747D01*
X31276665Y-79888730D01*
X31276663Y-79888731D01*
X31266874Y-79890281D01*
X31146780Y-79951472D01*
X31051472Y-80046780D01*
X30990281Y-80166874D01*
X30988731Y-80176663D01*
X30988730Y-80176665D01*
X30976988Y-80250804D01*
X30969196Y-80300000D01*
X30970747Y-80309793D01*
X30970747Y-80309794D01*
X30973934Y-80329916D01*
X30964834Y-80400327D01*
X30919112Y-80454641D01*
X30869195Y-80474075D01*
X30776666Y-80488730D01*
X30776665Y-80488730D01*
X30766874Y-80490281D01*
X30646780Y-80551472D01*
X30551472Y-80646780D01*
X30490281Y-80766874D01*
X30488731Y-80776663D01*
X30488730Y-80776665D01*
X30477928Y-80844869D01*
X30469196Y-80900000D01*
X18500500Y-80900000D01*
X18500500Y-78364314D01*
X39283510Y-78364314D01*
X39285061Y-78374107D01*
X39296026Y-78443335D01*
X39304595Y-78497440D01*
X39365786Y-78617534D01*
X39404157Y-78655905D01*
X39438183Y-78718217D01*
X39433118Y-78789032D01*
X39412798Y-78820649D01*
X39414311Y-78821748D01*
X39408484Y-78829768D01*
X39401472Y-78836780D01*
X39340281Y-78956874D01*
X39338731Y-78966663D01*
X39338730Y-78966665D01*
X39320747Y-79080207D01*
X39319196Y-79090000D01*
X39340281Y-79223126D01*
X39401472Y-79343220D01*
X39444157Y-79385905D01*
X39478183Y-79448217D01*
X39473118Y-79519032D01*
X39452798Y-79550649D01*
X39454311Y-79551748D01*
X39448484Y-79559768D01*
X39441472Y-79566780D01*
X39380281Y-79686874D01*
X39359196Y-79820000D01*
X39360747Y-79829793D01*
X39367234Y-79870747D01*
X39380281Y-79953126D01*
X39441472Y-80073220D01*
X39536780Y-80168528D01*
X39656874Y-80229719D01*
X39666663Y-80231269D01*
X39666665Y-80231270D01*
X39780207Y-80249253D01*
X39790000Y-80250804D01*
X39799793Y-80249253D01*
X39913335Y-80231270D01*
X39913337Y-80231269D01*
X39923126Y-80229719D01*
X40043220Y-80168528D01*
X40138528Y-80073220D01*
X40199719Y-79953126D01*
X40212767Y-79870747D01*
X40219253Y-79829793D01*
X40220804Y-79820000D01*
X40199719Y-79686874D01*
X40138528Y-79566780D01*
X40095843Y-79524095D01*
X40061817Y-79461783D01*
X40066882Y-79390968D01*
X40087202Y-79359351D01*
X40085689Y-79358252D01*
X40091517Y-79350231D01*
X40098528Y-79343220D01*
X40159719Y-79223126D01*
X40180804Y-79090000D01*
X40179253Y-79080207D01*
X40161270Y-78966665D01*
X40161269Y-78966663D01*
X40159719Y-78956874D01*
X40098528Y-78836780D01*
X40060157Y-78798409D01*
X40026131Y-78736097D01*
X40031196Y-78665282D01*
X40051516Y-78633665D01*
X40050003Y-78632566D01*
X40055831Y-78624545D01*
X40062842Y-78617534D01*
X40124033Y-78497440D01*
X40132603Y-78443335D01*
X40143567Y-78374107D01*
X40145118Y-78364314D01*
X40139651Y-78329794D01*
X40138100Y-78320000D01*
X41709196Y-78320000D01*
X41710747Y-78329793D01*
X41719825Y-78387106D01*
X41730281Y-78453126D01*
X41791472Y-78573220D01*
X41886780Y-78668528D01*
X42006874Y-78729719D01*
X42016663Y-78731269D01*
X42016665Y-78731270D01*
X42130207Y-78749253D01*
X42140000Y-78750804D01*
X42149793Y-78749253D01*
X42149795Y-78749253D01*
X42153066Y-78748735D01*
X42157074Y-78749253D01*
X42159711Y-78749253D01*
X42159711Y-78749594D01*
X42223476Y-78757835D01*
X42277790Y-78803558D01*
X42298762Y-78871386D01*
X42297224Y-78892894D01*
X42288490Y-78948041D01*
X42286596Y-78960000D01*
X42307681Y-79093126D01*
X42368872Y-79213220D01*
X42464180Y-79308528D01*
X42584274Y-79369719D01*
X42594063Y-79371269D01*
X42594065Y-79371270D01*
X42707607Y-79389253D01*
X42717400Y-79390804D01*
X42727193Y-79389253D01*
X42840735Y-79371270D01*
X42840737Y-79371269D01*
X42850526Y-79369719D01*
X42970620Y-79308528D01*
X43065928Y-79213220D01*
X43118521Y-79110000D01*
X45809196Y-79110000D01*
X45810747Y-79119793D01*
X45825563Y-79213335D01*
X45830281Y-79243126D01*
X45891472Y-79363220D01*
X45986780Y-79458528D01*
X46106874Y-79519719D01*
X46116663Y-79521269D01*
X46116665Y-79521270D01*
X46230207Y-79539253D01*
X46240000Y-79540804D01*
X46249793Y-79539253D01*
X46363335Y-79521270D01*
X46363337Y-79521269D01*
X46373126Y-79519719D01*
X46493220Y-79458528D01*
X46588528Y-79363220D01*
X46649719Y-79243126D01*
X46654438Y-79213335D01*
X46669253Y-79119793D01*
X46670804Y-79110000D01*
X46649719Y-78976874D01*
X46588528Y-78856780D01*
X46493220Y-78761472D01*
X46373126Y-78700281D01*
X46363337Y-78698731D01*
X46363335Y-78698730D01*
X46249793Y-78680747D01*
X46240000Y-78679196D01*
X46230207Y-78680747D01*
X46116665Y-78698730D01*
X46116663Y-78698731D01*
X46106874Y-78700281D01*
X45986780Y-78761472D01*
X45891472Y-78856780D01*
X45830281Y-78976874D01*
X45809196Y-79110000D01*
X43118521Y-79110000D01*
X43127119Y-79093126D01*
X43148204Y-78960000D01*
X43146310Y-78948041D01*
X43128670Y-78836665D01*
X43128669Y-78836663D01*
X43127119Y-78826874D01*
X43065928Y-78706780D01*
X42970620Y-78611472D01*
X42850526Y-78550281D01*
X42840737Y-78548731D01*
X42840735Y-78548730D01*
X42727193Y-78530747D01*
X42717400Y-78529196D01*
X42707607Y-78530747D01*
X42707605Y-78530747D01*
X42704334Y-78531265D01*
X42700326Y-78530747D01*
X42697689Y-78530747D01*
X42697689Y-78530406D01*
X42633924Y-78522165D01*
X42579610Y-78476442D01*
X42558638Y-78408614D01*
X42560176Y-78387106D01*
X42569253Y-78329794D01*
X42569253Y-78329793D01*
X42570804Y-78320000D01*
X42566293Y-78291517D01*
X42551270Y-78196665D01*
X42551269Y-78196663D01*
X42549719Y-78186874D01*
X42488528Y-78066780D01*
X42393220Y-77971472D01*
X42351079Y-77950000D01*
X46334696Y-77950000D01*
X46336247Y-77959793D01*
X46352082Y-78059769D01*
X46355781Y-78083126D01*
X46416972Y-78203220D01*
X46512280Y-78298528D01*
X46632374Y-78359719D01*
X46642163Y-78361269D01*
X46642165Y-78361270D01*
X46755707Y-78379253D01*
X46765500Y-78380804D01*
X46775293Y-78379253D01*
X46888835Y-78361270D01*
X46888837Y-78361269D01*
X46898626Y-78359719D01*
X47018720Y-78298528D01*
X47114028Y-78203220D01*
X47175219Y-78083126D01*
X47178919Y-78059769D01*
X47194753Y-77959793D01*
X47196304Y-77950000D01*
X47175219Y-77816874D01*
X47114028Y-77696780D01*
X47018720Y-77601472D01*
X46898626Y-77540281D01*
X46888837Y-77538731D01*
X46888835Y-77538730D01*
X46775293Y-77520747D01*
X46765500Y-77519196D01*
X46755707Y-77520747D01*
X46642165Y-77538730D01*
X46642163Y-77538731D01*
X46632374Y-77540281D01*
X46512280Y-77601472D01*
X46416972Y-77696780D01*
X46355781Y-77816874D01*
X46334696Y-77950000D01*
X42351079Y-77950000D01*
X42273126Y-77910281D01*
X42263337Y-77908731D01*
X42263335Y-77908730D01*
X42149793Y-77890747D01*
X42140000Y-77889196D01*
X42130207Y-77890747D01*
X42016665Y-77908730D01*
X42016663Y-77908731D01*
X42006874Y-77910281D01*
X41886780Y-77971472D01*
X41791472Y-78066780D01*
X41730281Y-78186874D01*
X41728731Y-78196663D01*
X41728730Y-78196665D01*
X41713707Y-78291517D01*
X41709196Y-78320000D01*
X40138100Y-78320000D01*
X40125584Y-78240979D01*
X40125583Y-78240977D01*
X40124033Y-78231188D01*
X40062842Y-78111094D01*
X39967534Y-78015786D01*
X39847440Y-77954595D01*
X39837651Y-77953045D01*
X39837649Y-77953044D01*
X39724107Y-77935061D01*
X39714314Y-77933510D01*
X39704521Y-77935061D01*
X39590979Y-77953044D01*
X39590977Y-77953045D01*
X39581188Y-77954595D01*
X39461094Y-78015786D01*
X39365786Y-78111094D01*
X39304595Y-78231188D01*
X39303045Y-78240977D01*
X39303044Y-78240979D01*
X39288977Y-78329794D01*
X39283510Y-78364314D01*
X18500500Y-78364314D01*
X18500500Y-75263872D01*
X34584824Y-75263872D01*
X34586375Y-75273665D01*
X34588138Y-75284793D01*
X34605909Y-75396998D01*
X34667100Y-75517092D01*
X34762408Y-75612400D01*
X34882502Y-75673591D01*
X34892291Y-75675141D01*
X34892293Y-75675142D01*
X35005835Y-75693125D01*
X35015628Y-75694676D01*
X35025421Y-75693125D01*
X35138963Y-75675142D01*
X35138965Y-75675141D01*
X35148754Y-75673591D01*
X35268848Y-75612400D01*
X35275860Y-75605388D01*
X35283880Y-75599561D01*
X35284681Y-75600664D01*
X35337967Y-75571567D01*
X35408782Y-75576632D01*
X35453845Y-75605593D01*
X35471780Y-75623528D01*
X35591874Y-75684719D01*
X35601663Y-75686269D01*
X35601665Y-75686270D01*
X35715207Y-75704253D01*
X35725000Y-75705804D01*
X35734793Y-75704253D01*
X35848335Y-75686270D01*
X35848337Y-75686269D01*
X35858126Y-75684719D01*
X35978220Y-75623528D01*
X36073528Y-75528220D01*
X36134719Y-75408126D01*
X36136482Y-75396998D01*
X36154253Y-75284793D01*
X36155804Y-75275000D01*
X36154042Y-75263872D01*
X36136270Y-75151665D01*
X36136269Y-75151663D01*
X36134719Y-75141874D01*
X36073528Y-75021780D01*
X35978220Y-74926472D01*
X35858126Y-74865281D01*
X35848337Y-74863731D01*
X35848335Y-74863730D01*
X35734793Y-74845747D01*
X35725000Y-74844196D01*
X35715207Y-74845747D01*
X35601665Y-74863730D01*
X35601663Y-74863731D01*
X35591874Y-74865281D01*
X35471780Y-74926472D01*
X35464769Y-74933483D01*
X35456748Y-74939311D01*
X35455947Y-74938208D01*
X35402661Y-74967305D01*
X35331846Y-74962240D01*
X35286783Y-74933279D01*
X35268848Y-74915344D01*
X35148754Y-74854153D01*
X35138965Y-74852603D01*
X35138963Y-74852602D01*
X35025421Y-74834619D01*
X35015628Y-74833068D01*
X35005835Y-74834619D01*
X34892293Y-74852602D01*
X34892291Y-74852603D01*
X34882502Y-74854153D01*
X34762408Y-74915344D01*
X34667100Y-75010652D01*
X34605909Y-75130746D01*
X34604359Y-75140535D01*
X34604358Y-75140537D01*
X34602596Y-75151665D01*
X34584824Y-75263872D01*
X18500500Y-75263872D01*
X18500500Y-72450000D01*
X22749196Y-72450000D01*
X22750747Y-72459793D01*
X22763961Y-72543220D01*
X22770281Y-72583126D01*
X22831472Y-72703220D01*
X22926780Y-72798528D01*
X23046874Y-72859719D01*
X23056663Y-72861269D01*
X23056665Y-72861270D01*
X23170207Y-72879253D01*
X23180000Y-72880804D01*
X23189793Y-72879253D01*
X23303335Y-72861270D01*
X23303337Y-72861269D01*
X23313126Y-72859719D01*
X23433220Y-72798528D01*
X23528528Y-72703220D01*
X23589719Y-72583126D01*
X23596040Y-72543220D01*
X23609253Y-72459793D01*
X23610804Y-72450000D01*
X23603789Y-72405706D01*
X23591270Y-72326665D01*
X23591269Y-72326663D01*
X23589719Y-72316874D01*
X23576026Y-72290000D01*
X43199196Y-72290000D01*
X43220281Y-72423126D01*
X43281472Y-72543220D01*
X43376780Y-72638528D01*
X43496874Y-72699719D01*
X43506663Y-72701269D01*
X43506665Y-72701270D01*
X43620207Y-72719253D01*
X43630000Y-72720804D01*
X43639793Y-72719253D01*
X43753335Y-72701270D01*
X43753337Y-72701269D01*
X43763126Y-72699719D01*
X43883220Y-72638528D01*
X43978528Y-72543220D01*
X44039719Y-72423126D01*
X44060804Y-72290000D01*
X44039719Y-72156874D01*
X44036754Y-72151055D01*
X44034780Y-72081968D01*
X44042148Y-72069749D01*
X57249500Y-72069749D01*
X57250707Y-72075817D01*
X57257205Y-72108483D01*
X57261133Y-72128232D01*
X57305448Y-72194553D01*
X57371769Y-72238868D01*
X57383938Y-72241289D01*
X57383939Y-72241289D01*
X57415944Y-72247655D01*
X57430252Y-72250501D01*
X59169748Y-72250501D01*
X59184055Y-72247655D01*
X59254767Y-72253983D01*
X59310835Y-72297536D01*
X59334455Y-72364489D01*
X59333085Y-72390944D01*
X59329196Y-72415500D01*
X59350281Y-72548626D01*
X59411472Y-72668720D01*
X59506780Y-72764028D01*
X59626874Y-72825219D01*
X59636663Y-72826769D01*
X59636665Y-72826770D01*
X59750207Y-72844753D01*
X59760000Y-72846304D01*
X59769793Y-72844753D01*
X59883335Y-72826770D01*
X59883337Y-72826769D01*
X59893126Y-72825219D01*
X60013220Y-72764028D01*
X60108528Y-72668720D01*
X60169719Y-72548626D01*
X60190804Y-72415500D01*
X60169719Y-72282374D01*
X60166396Y-72275852D01*
X60164410Y-72206323D01*
X60201072Y-72145525D01*
X60264785Y-72114200D01*
X60335319Y-72122294D01*
X60347727Y-72128360D01*
X60417398Y-72167298D01*
X60501280Y-72194553D01*
X60607471Y-72229057D01*
X60607475Y-72229058D01*
X60613329Y-72230960D01*
X60817894Y-72255352D01*
X60824029Y-72254880D01*
X60824031Y-72254880D01*
X60896625Y-72249294D01*
X61023300Y-72239547D01*
X61029230Y-72237891D01*
X61029232Y-72237891D01*
X61184451Y-72194553D01*
X61221725Y-72184146D01*
X61227214Y-72181373D01*
X61227220Y-72181371D01*
X61371512Y-72108483D01*
X61405610Y-72091259D01*
X61454255Y-72053254D01*
X61563101Y-71968214D01*
X61567951Y-71964425D01*
X61587764Y-71941472D01*
X61698540Y-71813135D01*
X61698540Y-71813134D01*
X61702564Y-71808473D01*
X61723387Y-71771819D01*
X61791153Y-71652528D01*
X61804323Y-71629345D01*
X61869351Y-71433864D01*
X61895171Y-71229475D01*
X61895583Y-71200001D01*
X61875480Y-70994971D01*
X61815935Y-70797750D01*
X61719218Y-70615850D01*
X61645859Y-70525903D01*
X61592906Y-70460976D01*
X61592903Y-70460973D01*
X61589011Y-70456201D01*
X61542884Y-70418041D01*
X61435025Y-70328812D01*
X61435021Y-70328810D01*
X61430275Y-70324883D01*
X61249055Y-70226898D01*
X61052254Y-70165978D01*
X61046129Y-70165334D01*
X61046128Y-70165334D01*
X60853498Y-70145088D01*
X60853496Y-70145088D01*
X60847369Y-70144444D01*
X60760529Y-70152347D01*
X60648342Y-70162556D01*
X60648339Y-70162557D01*
X60642203Y-70163115D01*
X60444572Y-70221281D01*
X60439107Y-70224138D01*
X60387209Y-70251270D01*
X60262002Y-70316727D01*
X60257201Y-70320587D01*
X60257198Y-70320589D01*
X60106254Y-70441951D01*
X60101447Y-70445816D01*
X59969024Y-70603631D01*
X59966056Y-70609029D01*
X59966053Y-70609034D01*
X59959315Y-70621291D01*
X59869776Y-70784163D01*
X59807484Y-70980533D01*
X59806798Y-70986650D01*
X59806797Y-70986654D01*
X59787524Y-71158483D01*
X59784520Y-71185263D01*
X59785036Y-71191407D01*
X59800593Y-71376665D01*
X59801759Y-71390554D01*
X59803458Y-71396479D01*
X59856082Y-71580000D01*
X59858544Y-71588587D01*
X59861359Y-71594064D01*
X59861360Y-71594067D01*
X59949897Y-71766342D01*
X59952712Y-71771819D01*
X59956539Y-71776647D01*
X59972583Y-71796890D01*
X59999221Y-71862700D01*
X59986050Y-71932465D01*
X59937253Y-71984034D01*
X59868322Y-72001034D01*
X59854128Y-71999604D01*
X59769794Y-71986247D01*
X59769793Y-71986247D01*
X59760000Y-71984696D01*
X59750207Y-71986247D01*
X59636665Y-72004230D01*
X59636663Y-72004231D01*
X59626874Y-72005781D01*
X59579795Y-72029769D01*
X59533703Y-72053254D01*
X59463926Y-72066358D01*
X59398141Y-72039658D01*
X59357235Y-71981630D01*
X59350500Y-71940987D01*
X59350500Y-70330253D01*
X59338867Y-70271770D01*
X59294552Y-70205449D01*
X59228231Y-70161134D01*
X59216062Y-70158713D01*
X59216061Y-70158713D01*
X59175816Y-70150708D01*
X59169748Y-70149501D01*
X57430252Y-70149501D01*
X57424184Y-70150708D01*
X57383939Y-70158713D01*
X57383938Y-70158713D01*
X57371769Y-70161134D01*
X57305448Y-70205449D01*
X57261133Y-70271770D01*
X57249500Y-70330253D01*
X57249500Y-72069749D01*
X44042148Y-72069749D01*
X44071442Y-72021169D01*
X44135154Y-71989844D01*
X44176385Y-71992806D01*
X44176874Y-71989719D01*
X44310000Y-72010804D01*
X44319793Y-72009253D01*
X44433335Y-71991270D01*
X44433337Y-71991269D01*
X44443126Y-71989719D01*
X44563220Y-71928528D01*
X44658528Y-71833220D01*
X44719719Y-71713126D01*
X44730030Y-71648028D01*
X44739253Y-71589793D01*
X44740804Y-71580000D01*
X44736483Y-71552720D01*
X44721270Y-71456665D01*
X44721269Y-71456663D01*
X44719719Y-71446874D01*
X44658528Y-71326780D01*
X44631248Y-71299500D01*
X48569196Y-71299500D01*
X48570747Y-71309293D01*
X48582645Y-71384412D01*
X48590281Y-71432626D01*
X48651472Y-71552720D01*
X48746780Y-71648028D01*
X48866874Y-71709219D01*
X48876663Y-71710769D01*
X48876665Y-71710770D01*
X48990207Y-71728753D01*
X49000000Y-71730304D01*
X49009793Y-71728753D01*
X49123335Y-71710770D01*
X49123337Y-71710769D01*
X49133126Y-71709219D01*
X49253220Y-71648028D01*
X49348528Y-71552720D01*
X49409719Y-71432626D01*
X49417356Y-71384412D01*
X49429253Y-71309293D01*
X49430804Y-71299500D01*
X49420268Y-71232979D01*
X49411270Y-71176165D01*
X49411269Y-71176163D01*
X49409719Y-71166374D01*
X49348528Y-71046280D01*
X49253220Y-70950972D01*
X49133126Y-70889781D01*
X49123337Y-70888231D01*
X49123335Y-70888230D01*
X49009793Y-70870247D01*
X49000000Y-70868696D01*
X48990207Y-70870247D01*
X48876665Y-70888230D01*
X48876663Y-70888231D01*
X48866874Y-70889781D01*
X48746780Y-70950972D01*
X48651472Y-71046280D01*
X48590281Y-71166374D01*
X48588731Y-71176163D01*
X48588730Y-71176165D01*
X48579732Y-71232979D01*
X48569196Y-71299500D01*
X44631248Y-71299500D01*
X44563220Y-71231472D01*
X44443126Y-71170281D01*
X44433337Y-71168731D01*
X44433335Y-71168730D01*
X44319793Y-71150747D01*
X44310000Y-71149196D01*
X44300207Y-71150747D01*
X44186665Y-71168730D01*
X44186663Y-71168731D01*
X44176874Y-71170281D01*
X44056780Y-71231472D01*
X43961472Y-71326780D01*
X43900281Y-71446874D01*
X43898731Y-71456663D01*
X43898730Y-71456665D01*
X43883517Y-71552720D01*
X43879196Y-71580000D01*
X43900281Y-71713126D01*
X43903246Y-71718945D01*
X43905220Y-71788032D01*
X43868558Y-71848831D01*
X43804846Y-71880156D01*
X43763615Y-71877194D01*
X43763126Y-71880281D01*
X43639793Y-71860747D01*
X43630000Y-71859196D01*
X43620207Y-71860747D01*
X43506665Y-71878730D01*
X43506663Y-71878731D01*
X43496874Y-71880281D01*
X43376780Y-71941472D01*
X43281472Y-72036780D01*
X43220281Y-72156874D01*
X43218731Y-72166663D01*
X43218730Y-72166665D01*
X43204799Y-72254623D01*
X43199196Y-72290000D01*
X23576026Y-72290000D01*
X23528528Y-72196780D01*
X23433220Y-72101472D01*
X23313126Y-72040281D01*
X23303337Y-72038731D01*
X23303335Y-72038730D01*
X23189793Y-72020747D01*
X23180000Y-72019196D01*
X23170207Y-72020747D01*
X23056665Y-72038730D01*
X23056663Y-72038731D01*
X23046874Y-72040281D01*
X22926780Y-72101472D01*
X22831472Y-72196780D01*
X22770281Y-72316874D01*
X22768731Y-72326663D01*
X22768730Y-72326665D01*
X22756211Y-72405706D01*
X22749196Y-72450000D01*
X18500500Y-72450000D01*
X18500500Y-71500000D01*
X37484696Y-71500000D01*
X37486247Y-71509793D01*
X37499595Y-71594067D01*
X37505781Y-71633126D01*
X37566972Y-71753220D01*
X37662280Y-71848528D01*
X37782374Y-71909719D01*
X37792163Y-71911269D01*
X37792165Y-71911270D01*
X37905707Y-71929253D01*
X37915500Y-71930804D01*
X37925293Y-71929253D01*
X38038835Y-71911270D01*
X38038837Y-71911269D01*
X38048626Y-71909719D01*
X38168720Y-71848528D01*
X38264028Y-71753220D01*
X38325219Y-71633126D01*
X38331406Y-71594067D01*
X38344753Y-71509793D01*
X38346304Y-71500000D01*
X38344753Y-71490207D01*
X38326770Y-71376665D01*
X38326769Y-71376663D01*
X38325219Y-71366874D01*
X38264028Y-71246780D01*
X38168720Y-71151472D01*
X38048626Y-71090281D01*
X38038837Y-71088731D01*
X38038835Y-71088730D01*
X37925293Y-71070747D01*
X37915500Y-71069196D01*
X37905707Y-71070747D01*
X37792165Y-71088730D01*
X37792163Y-71088731D01*
X37782374Y-71090281D01*
X37662280Y-71151472D01*
X37566972Y-71246780D01*
X37505781Y-71366874D01*
X37504231Y-71376663D01*
X37504230Y-71376665D01*
X37486247Y-71490207D01*
X37484696Y-71500000D01*
X18500500Y-71500000D01*
X18500500Y-70560000D01*
X38953696Y-70560000D01*
X38955247Y-70569793D01*
X38963404Y-70621291D01*
X38974781Y-70693126D01*
X39035972Y-70813220D01*
X39131280Y-70908528D01*
X39251374Y-70969719D01*
X39261163Y-70971269D01*
X39261165Y-70971270D01*
X39374707Y-70989253D01*
X39384500Y-70990804D01*
X39394293Y-70989253D01*
X39507835Y-70971270D01*
X39507837Y-70971269D01*
X39517626Y-70969719D01*
X39637720Y-70908528D01*
X39733028Y-70813220D01*
X39794219Y-70693126D01*
X39805597Y-70621291D01*
X39813753Y-70569793D01*
X39815304Y-70560000D01*
X39794219Y-70426874D01*
X39733028Y-70306780D01*
X39637720Y-70211472D01*
X39517626Y-70150281D01*
X39507837Y-70148731D01*
X39507835Y-70148730D01*
X39394293Y-70130747D01*
X39384500Y-70129196D01*
X39374707Y-70130747D01*
X39261165Y-70148730D01*
X39261163Y-70148731D01*
X39251374Y-70150281D01*
X39131280Y-70211472D01*
X39035972Y-70306780D01*
X38974781Y-70426874D01*
X38953696Y-70560000D01*
X18500500Y-70560000D01*
X18500500Y-69840000D01*
X54589196Y-69840000D01*
X54610281Y-69973126D01*
X54671472Y-70093220D01*
X54766780Y-70188528D01*
X54886874Y-70249719D01*
X54896663Y-70251269D01*
X54896665Y-70251270D01*
X55010207Y-70269253D01*
X55020000Y-70270804D01*
X55029793Y-70269253D01*
X55143335Y-70251270D01*
X55143337Y-70251269D01*
X55153126Y-70249719D01*
X55273220Y-70188528D01*
X55368528Y-70093220D01*
X55429719Y-69973126D01*
X55450804Y-69840000D01*
X55451156Y-69840056D01*
X55469255Y-69778415D01*
X55522911Y-69731922D01*
X55594963Y-69722087D01*
X55650000Y-69730804D01*
X55659793Y-69729253D01*
X55773335Y-69711270D01*
X55773337Y-69711269D01*
X55783126Y-69709719D01*
X55903220Y-69648528D01*
X55998528Y-69553220D01*
X56059719Y-69433126D01*
X56062129Y-69417913D01*
X56079253Y-69309793D01*
X56080804Y-69300000D01*
X56059719Y-69166874D01*
X55998528Y-69046780D01*
X55903220Y-68951472D01*
X55783126Y-68890281D01*
X55773337Y-68888731D01*
X55773335Y-68888730D01*
X55659793Y-68870747D01*
X55650000Y-68869196D01*
X55640207Y-68870747D01*
X55526665Y-68888730D01*
X55526663Y-68888731D01*
X55516874Y-68890281D01*
X55396780Y-68951472D01*
X55301472Y-69046780D01*
X55240281Y-69166874D01*
X55219196Y-69300000D01*
X55218844Y-69299944D01*
X55200745Y-69361585D01*
X55147089Y-69408078D01*
X55075037Y-69417913D01*
X55020000Y-69409196D01*
X55010207Y-69410747D01*
X54896665Y-69428730D01*
X54896663Y-69428731D01*
X54886874Y-69430281D01*
X54766780Y-69491472D01*
X54671472Y-69586780D01*
X54610281Y-69706874D01*
X54608731Y-69716663D01*
X54608730Y-69716665D01*
X54606491Y-69730804D01*
X54589196Y-69840000D01*
X18500500Y-69840000D01*
X18500500Y-68660001D01*
X40939197Y-68660001D01*
X40960282Y-68793127D01*
X41021473Y-68913221D01*
X41116781Y-69008529D01*
X41236875Y-69069720D01*
X41246664Y-69071270D01*
X41246666Y-69071271D01*
X41360208Y-69089254D01*
X41370001Y-69090805D01*
X41379794Y-69089254D01*
X41493336Y-69071271D01*
X41493338Y-69071270D01*
X41503127Y-69069720D01*
X41623221Y-69008529D01*
X41718529Y-68913221D01*
X41779720Y-68793127D01*
X41800805Y-68660001D01*
X41798471Y-68645263D01*
X57244520Y-68645263D01*
X57261759Y-68850554D01*
X57263458Y-68856479D01*
X57307058Y-69008529D01*
X57318544Y-69048587D01*
X57321359Y-69054064D01*
X57321360Y-69054067D01*
X57340241Y-69090805D01*
X57412712Y-69231819D01*
X57540677Y-69393271D01*
X57545370Y-69397265D01*
X57545371Y-69397266D01*
X57650776Y-69486972D01*
X57697564Y-69526792D01*
X57877398Y-69627298D01*
X57942737Y-69648528D01*
X58067471Y-69689057D01*
X58067475Y-69689058D01*
X58073329Y-69690960D01*
X58277894Y-69715352D01*
X58284029Y-69714880D01*
X58284031Y-69714880D01*
X58340039Y-69710570D01*
X58483300Y-69699547D01*
X58489230Y-69697891D01*
X58489232Y-69697891D01*
X58649913Y-69653028D01*
X58681725Y-69644146D01*
X58687214Y-69641373D01*
X58687220Y-69641371D01*
X58860116Y-69554034D01*
X58865610Y-69551259D01*
X59027951Y-69424425D01*
X59039758Y-69410747D01*
X59158540Y-69273135D01*
X59158540Y-69273134D01*
X59162564Y-69268473D01*
X59183387Y-69231819D01*
X59261276Y-69094708D01*
X59264323Y-69089345D01*
X59329351Y-68893864D01*
X59355171Y-68689475D01*
X59355583Y-68660001D01*
X59335480Y-68454971D01*
X59275935Y-68257750D01*
X59179218Y-68075850D01*
X59072677Y-67945218D01*
X59052906Y-67920976D01*
X59052903Y-67920973D01*
X59049011Y-67916201D01*
X59018685Y-67891113D01*
X58895025Y-67788812D01*
X58895021Y-67788810D01*
X58890275Y-67784883D01*
X58709055Y-67686898D01*
X58512254Y-67625978D01*
X58506129Y-67625334D01*
X58506128Y-67625334D01*
X58313498Y-67605088D01*
X58313496Y-67605088D01*
X58307369Y-67604444D01*
X58220529Y-67612347D01*
X58108342Y-67622556D01*
X58108339Y-67622557D01*
X58102203Y-67623115D01*
X57904572Y-67681281D01*
X57722002Y-67776727D01*
X57717201Y-67780587D01*
X57717198Y-67780589D01*
X57598865Y-67875731D01*
X57561447Y-67905816D01*
X57429024Y-68063631D01*
X57426056Y-68069029D01*
X57426053Y-68069034D01*
X57381735Y-68149649D01*
X57329776Y-68244163D01*
X57327913Y-68250036D01*
X57285485Y-68383788D01*
X57267484Y-68440533D01*
X57266798Y-68446650D01*
X57266797Y-68446654D01*
X57245207Y-68639138D01*
X57244520Y-68645263D01*
X41798471Y-68645263D01*
X41785965Y-68566305D01*
X41781271Y-68536666D01*
X41781270Y-68536664D01*
X41779720Y-68526875D01*
X41718529Y-68406781D01*
X41623221Y-68311473D01*
X41503127Y-68250282D01*
X41493338Y-68248732D01*
X41493336Y-68248731D01*
X41379794Y-68230748D01*
X41370001Y-68229197D01*
X41360208Y-68230748D01*
X41246666Y-68248731D01*
X41246664Y-68248732D01*
X41236875Y-68250282D01*
X41116781Y-68311473D01*
X41021473Y-68406781D01*
X40960282Y-68526875D01*
X40958732Y-68536664D01*
X40958731Y-68536666D01*
X40954037Y-68566305D01*
X40939197Y-68660001D01*
X18500500Y-68660001D01*
X18500500Y-68123557D01*
X44302753Y-68123557D01*
X44304304Y-68133350D01*
X44319485Y-68229197D01*
X44323838Y-68256683D01*
X44385029Y-68376777D01*
X44480337Y-68472085D01*
X44600431Y-68533276D01*
X44610220Y-68534826D01*
X44610222Y-68534827D01*
X44723764Y-68552810D01*
X44733557Y-68554361D01*
X44743350Y-68552810D01*
X44856892Y-68534827D01*
X44856894Y-68534826D01*
X44866683Y-68533276D01*
X44986777Y-68472085D01*
X45082085Y-68376777D01*
X45143276Y-68256683D01*
X45147630Y-68229197D01*
X45162810Y-68133350D01*
X45164361Y-68123557D01*
X45156049Y-68071074D01*
X45144827Y-68000222D01*
X45144826Y-68000220D01*
X45143276Y-67990431D01*
X45082085Y-67870337D01*
X44986777Y-67775029D01*
X44866683Y-67713838D01*
X44856894Y-67712288D01*
X44856892Y-67712287D01*
X44743350Y-67694304D01*
X44733557Y-67692753D01*
X44723764Y-67694304D01*
X44610222Y-67712287D01*
X44610220Y-67712288D01*
X44600431Y-67713838D01*
X44480337Y-67775029D01*
X44385029Y-67870337D01*
X44323838Y-67990431D01*
X44322288Y-68000220D01*
X44322287Y-68000222D01*
X44311065Y-68071074D01*
X44302753Y-68123557D01*
X18500500Y-68123557D01*
X18500500Y-66492600D01*
X31029196Y-66492600D01*
X31030747Y-66502393D01*
X31047918Y-66610804D01*
X31050281Y-66625726D01*
X31111472Y-66745820D01*
X31206780Y-66841128D01*
X31326874Y-66902319D01*
X31336663Y-66903869D01*
X31336665Y-66903870D01*
X31450207Y-66921853D01*
X31460000Y-66923404D01*
X31469793Y-66921853D01*
X31583335Y-66903870D01*
X31583337Y-66903869D01*
X31593126Y-66902319D01*
X31611775Y-66892817D01*
X49604350Y-66892817D01*
X49605901Y-66902610D01*
X49618602Y-66982799D01*
X49625435Y-67025943D01*
X49686626Y-67146037D01*
X49705734Y-67165145D01*
X49739760Y-67227457D01*
X49734695Y-67298272D01*
X49728909Y-67311437D01*
X49680281Y-67406874D01*
X49659196Y-67540000D01*
X49660747Y-67549793D01*
X49672814Y-67625978D01*
X49680281Y-67673126D01*
X49741472Y-67793220D01*
X49836780Y-67888528D01*
X49956874Y-67949719D01*
X49966663Y-67951269D01*
X49966665Y-67951270D01*
X50080207Y-67969253D01*
X50090000Y-67970804D01*
X50099793Y-67969253D01*
X50213335Y-67951270D01*
X50213337Y-67951269D01*
X50223126Y-67949719D01*
X50343220Y-67888528D01*
X50438528Y-67793220D01*
X50499719Y-67673126D01*
X50507187Y-67625978D01*
X50508846Y-67615500D01*
X54674696Y-67615500D01*
X54676247Y-67625293D01*
X54686932Y-67692753D01*
X54695781Y-67748626D01*
X54756972Y-67868720D01*
X54852280Y-67964028D01*
X54972374Y-68025219D01*
X54982163Y-68026769D01*
X54982165Y-68026770D01*
X55096699Y-68044910D01*
X55160852Y-68075322D01*
X55198379Y-68135591D01*
X55201437Y-68149649D01*
X55216839Y-68246892D01*
X55220281Y-68268627D01*
X55281472Y-68388721D01*
X55376780Y-68484029D01*
X55496874Y-68545220D01*
X55506663Y-68546770D01*
X55506665Y-68546771D01*
X55620207Y-68564754D01*
X55630000Y-68566305D01*
X55639793Y-68564754D01*
X55753335Y-68546771D01*
X55753337Y-68546770D01*
X55763126Y-68545220D01*
X55883220Y-68484029D01*
X55978528Y-68388721D01*
X56039719Y-68268627D01*
X56043162Y-68246892D01*
X56059253Y-68145294D01*
X56060804Y-68135501D01*
X56039719Y-68002375D01*
X55978528Y-67882281D01*
X55883220Y-67786973D01*
X55763126Y-67725782D01*
X55753337Y-67724232D01*
X55753335Y-67724231D01*
X55638801Y-67706091D01*
X55574648Y-67675679D01*
X55537121Y-67615410D01*
X55534063Y-67601352D01*
X55516770Y-67492166D01*
X55516770Y-67492165D01*
X55515219Y-67482374D01*
X55454028Y-67362280D01*
X55358720Y-67266972D01*
X55238626Y-67205781D01*
X55228837Y-67204231D01*
X55228835Y-67204230D01*
X55115293Y-67186247D01*
X55105500Y-67184696D01*
X55095707Y-67186247D01*
X54982165Y-67204230D01*
X54982163Y-67204231D01*
X54972374Y-67205781D01*
X54852280Y-67266972D01*
X54756972Y-67362280D01*
X54695781Y-67482374D01*
X54674696Y-67615500D01*
X50508846Y-67615500D01*
X50519253Y-67549793D01*
X50520804Y-67540000D01*
X50499719Y-67406874D01*
X50438528Y-67286780D01*
X50419420Y-67267672D01*
X50385394Y-67205360D01*
X50390459Y-67134545D01*
X50396248Y-67121374D01*
X50405027Y-67104146D01*
X50444873Y-67025943D01*
X50451707Y-66982799D01*
X50464407Y-66902610D01*
X50465958Y-66892817D01*
X50459695Y-66853271D01*
X50446424Y-66769482D01*
X50446423Y-66769480D01*
X50444873Y-66759691D01*
X50440371Y-66750855D01*
X50387765Y-66647608D01*
X50374661Y-66577831D01*
X50401362Y-66512047D01*
X50410937Y-66501311D01*
X50459028Y-66453220D01*
X50520219Y-66333126D01*
X50523276Y-66313828D01*
X50539753Y-66209793D01*
X50541304Y-66200000D01*
X50540203Y-66193050D01*
X54150196Y-66193050D01*
X54151747Y-66202843D01*
X54168807Y-66310554D01*
X54171281Y-66326176D01*
X54232472Y-66446270D01*
X54327780Y-66541578D01*
X54447874Y-66602769D01*
X54457663Y-66604319D01*
X54457665Y-66604320D01*
X54571207Y-66622303D01*
X54581000Y-66623854D01*
X54590793Y-66622303D01*
X54704335Y-66604320D01*
X54704337Y-66604319D01*
X54714126Y-66602769D01*
X54834220Y-66541578D01*
X54929528Y-66446270D01*
X54990719Y-66326176D01*
X54993194Y-66310554D01*
X55010253Y-66202843D01*
X55011804Y-66193050D01*
X55009737Y-66180000D01*
X55449196Y-66180000D01*
X55470281Y-66313126D01*
X55531472Y-66433220D01*
X55626780Y-66528528D01*
X55746874Y-66589719D01*
X55756663Y-66591269D01*
X55756665Y-66591270D01*
X55870207Y-66609253D01*
X55880000Y-66610804D01*
X55889793Y-66609253D01*
X56003335Y-66591270D01*
X56003337Y-66591269D01*
X56013126Y-66589719D01*
X56133220Y-66528528D01*
X56228528Y-66433220D01*
X56289719Y-66313126D01*
X56310804Y-66180000D01*
X56298967Y-66105263D01*
X57244520Y-66105263D01*
X57245036Y-66111407D01*
X57261212Y-66304035D01*
X57261759Y-66310554D01*
X57263458Y-66316479D01*
X57316458Y-66501311D01*
X57318544Y-66508587D01*
X57321359Y-66514064D01*
X57321360Y-66514067D01*
X57392537Y-66652563D01*
X57412712Y-66691819D01*
X57540677Y-66853271D01*
X57697564Y-66986792D01*
X57877398Y-67087298D01*
X57972238Y-67118114D01*
X58067471Y-67149057D01*
X58067475Y-67149058D01*
X58073329Y-67150960D01*
X58277894Y-67175352D01*
X58284029Y-67174880D01*
X58284031Y-67174880D01*
X58340039Y-67170570D01*
X58483300Y-67159547D01*
X58489230Y-67157891D01*
X58489232Y-67157891D01*
X58675797Y-67105801D01*
X58675796Y-67105801D01*
X58681725Y-67104146D01*
X58687214Y-67101373D01*
X58687220Y-67101371D01*
X58819952Y-67034323D01*
X58865610Y-67011259D01*
X59027951Y-66884425D01*
X59061440Y-66845628D01*
X59158540Y-66733135D01*
X59158540Y-66733134D01*
X59162564Y-66728473D01*
X59170045Y-66715305D01*
X59222877Y-66622303D01*
X59264323Y-66549345D01*
X59329351Y-66353864D01*
X59355171Y-66149475D01*
X59355583Y-66120001D01*
X59335480Y-65914971D01*
X59275935Y-65717750D01*
X59179218Y-65535850D01*
X59055809Y-65384536D01*
X59052906Y-65380976D01*
X59052903Y-65380973D01*
X59049011Y-65376201D01*
X59031786Y-65361951D01*
X58895025Y-65248812D01*
X58895021Y-65248810D01*
X58890275Y-65244883D01*
X58709055Y-65146898D01*
X58512254Y-65085978D01*
X58506129Y-65085334D01*
X58506128Y-65085334D01*
X58313498Y-65065088D01*
X58313496Y-65065088D01*
X58307369Y-65064444D01*
X58220529Y-65072347D01*
X58108342Y-65082556D01*
X58108339Y-65082557D01*
X58102203Y-65083115D01*
X57904572Y-65141281D01*
X57722002Y-65236727D01*
X57717201Y-65240587D01*
X57717198Y-65240589D01*
X57566254Y-65361951D01*
X57561447Y-65365816D01*
X57429024Y-65523631D01*
X57426056Y-65529029D01*
X57426053Y-65529034D01*
X57341068Y-65683623D01*
X57329776Y-65704163D01*
X57267484Y-65900533D01*
X57266798Y-65906650D01*
X57266797Y-65906654D01*
X57246526Y-66087382D01*
X57244520Y-66105263D01*
X56298967Y-66105263D01*
X56295176Y-66081330D01*
X56291270Y-66056665D01*
X56291269Y-66056663D01*
X56289719Y-66046874D01*
X56228528Y-65926780D01*
X56133220Y-65831472D01*
X56013126Y-65770281D01*
X56003337Y-65768731D01*
X56003335Y-65768730D01*
X55889793Y-65750747D01*
X55880000Y-65749196D01*
X55870207Y-65750747D01*
X55756665Y-65768730D01*
X55756663Y-65768731D01*
X55746874Y-65770281D01*
X55626780Y-65831472D01*
X55531472Y-65926780D01*
X55470281Y-66046874D01*
X55468731Y-66056663D01*
X55468730Y-66056665D01*
X55464824Y-66081330D01*
X55449196Y-66180000D01*
X55009737Y-66180000D01*
X55006898Y-66162076D01*
X54992270Y-66069715D01*
X54992269Y-66069713D01*
X54990719Y-66059924D01*
X54929528Y-65939830D01*
X54834220Y-65844522D01*
X54714126Y-65783331D01*
X54704337Y-65781781D01*
X54704335Y-65781780D01*
X54590793Y-65763797D01*
X54581000Y-65762246D01*
X54571207Y-65763797D01*
X54457665Y-65781780D01*
X54457663Y-65781781D01*
X54447874Y-65783331D01*
X54327780Y-65844522D01*
X54232472Y-65939830D01*
X54171281Y-66059924D01*
X54169731Y-66069713D01*
X54169730Y-66069715D01*
X54155102Y-66162076D01*
X54150196Y-66193050D01*
X50540203Y-66193050D01*
X50538136Y-66180000D01*
X50521770Y-66076665D01*
X50521769Y-66076663D01*
X50520219Y-66066874D01*
X50488911Y-66005428D01*
X50463530Y-65955615D01*
X50463529Y-65955613D01*
X50459028Y-65946780D01*
X50457503Y-65945255D01*
X50435090Y-65882449D01*
X50451167Y-65813296D01*
X50454256Y-65808489D01*
X50459028Y-65803717D01*
X50469287Y-65783584D01*
X50502830Y-65717750D01*
X50520219Y-65683623D01*
X50530434Y-65619131D01*
X50539753Y-65560290D01*
X50541304Y-65550497D01*
X50536300Y-65518904D01*
X50521770Y-65427162D01*
X50521769Y-65427160D01*
X50520219Y-65417371D01*
X50459028Y-65297277D01*
X50454342Y-65292591D01*
X50431097Y-65227443D01*
X50447176Y-65158292D01*
X50452968Y-65149280D01*
X50459028Y-65143220D01*
X50463531Y-65134384D01*
X50498838Y-65065088D01*
X50520219Y-65023126D01*
X50529422Y-64965024D01*
X50539753Y-64899793D01*
X50541304Y-64890000D01*
X50520219Y-64756874D01*
X50459028Y-64636780D01*
X50441343Y-64619095D01*
X50407317Y-64556783D01*
X50412382Y-64485968D01*
X50441343Y-64440905D01*
X50459028Y-64423220D01*
X50520219Y-64303126D01*
X50528763Y-64249185D01*
X50539753Y-64179793D01*
X50541304Y-64170000D01*
X50533917Y-64123362D01*
X50521770Y-64046665D01*
X50521769Y-64046663D01*
X50520219Y-64036874D01*
X50482407Y-63962663D01*
X50463530Y-63925615D01*
X50463529Y-63925613D01*
X50459028Y-63916780D01*
X50457503Y-63915255D01*
X50435090Y-63852449D01*
X50451167Y-63783296D01*
X50454256Y-63778489D01*
X50459028Y-63773717D01*
X50463782Y-63764388D01*
X50514110Y-63665612D01*
X50520219Y-63653623D01*
X50521849Y-63643335D01*
X50539753Y-63530290D01*
X50541304Y-63520497D01*
X50541225Y-63520000D01*
X51508696Y-63520000D01*
X51510247Y-63529793D01*
X51519832Y-63590308D01*
X51529781Y-63653126D01*
X51590972Y-63773220D01*
X51686280Y-63868528D01*
X51806374Y-63929719D01*
X51816163Y-63931269D01*
X51816165Y-63931270D01*
X51929707Y-63949253D01*
X51939500Y-63950804D01*
X51949293Y-63949253D01*
X52062835Y-63931270D01*
X52062837Y-63931269D01*
X52072626Y-63929719D01*
X52192720Y-63868528D01*
X52288028Y-63773220D01*
X52349219Y-63653126D01*
X52359169Y-63590308D01*
X52368753Y-63529793D01*
X52370304Y-63520000D01*
X52366935Y-63498730D01*
X52350770Y-63396665D01*
X52350769Y-63396663D01*
X52349219Y-63386874D01*
X52288028Y-63266780D01*
X52192720Y-63171472D01*
X52072626Y-63110281D01*
X52062837Y-63108731D01*
X52062835Y-63108730D01*
X51949293Y-63090747D01*
X51939500Y-63089196D01*
X51929707Y-63090747D01*
X51816165Y-63108730D01*
X51816163Y-63108731D01*
X51806374Y-63110281D01*
X51686280Y-63171472D01*
X51590972Y-63266780D01*
X51529781Y-63386874D01*
X51528231Y-63396663D01*
X51528230Y-63396665D01*
X51512065Y-63498730D01*
X51508696Y-63520000D01*
X50541225Y-63520000D01*
X50538025Y-63499793D01*
X50521770Y-63397162D01*
X50521769Y-63397160D01*
X50520219Y-63387371D01*
X50459028Y-63267277D01*
X50363720Y-63171969D01*
X50243626Y-63110778D01*
X50233837Y-63109228D01*
X50233835Y-63109227D01*
X50120293Y-63091244D01*
X50110500Y-63089693D01*
X50100707Y-63091244D01*
X49987165Y-63109227D01*
X49987163Y-63109228D01*
X49977374Y-63110778D01*
X49857280Y-63171969D01*
X49761972Y-63267277D01*
X49700781Y-63387371D01*
X49699231Y-63397160D01*
X49699230Y-63397162D01*
X49682975Y-63499793D01*
X49679696Y-63520497D01*
X49681247Y-63530290D01*
X49699152Y-63643335D01*
X49700781Y-63653623D01*
X49706890Y-63665612D01*
X49757219Y-63764388D01*
X49761972Y-63773717D01*
X49763497Y-63775242D01*
X49785910Y-63838048D01*
X49769833Y-63907201D01*
X49766744Y-63912008D01*
X49761972Y-63916780D01*
X49757470Y-63925615D01*
X49757469Y-63925617D01*
X49738593Y-63962663D01*
X49700781Y-64036874D01*
X49699231Y-64046663D01*
X49699230Y-64046665D01*
X49687083Y-64123362D01*
X49679696Y-64170000D01*
X49681247Y-64179793D01*
X49692238Y-64249185D01*
X49700781Y-64303126D01*
X49761972Y-64423220D01*
X49779657Y-64440905D01*
X49813683Y-64503217D01*
X49808618Y-64574032D01*
X49779657Y-64619095D01*
X49761972Y-64636780D01*
X49700781Y-64756874D01*
X49679696Y-64890000D01*
X49681247Y-64899793D01*
X49691579Y-64965024D01*
X49700781Y-65023126D01*
X49761972Y-65143220D01*
X49766658Y-65147906D01*
X49789904Y-65213049D01*
X49773827Y-65282202D01*
X49768036Y-65291213D01*
X49761972Y-65297277D01*
X49700781Y-65417371D01*
X49699231Y-65427160D01*
X49699230Y-65427162D01*
X49684700Y-65518904D01*
X49679696Y-65550497D01*
X49681247Y-65560290D01*
X49690567Y-65619131D01*
X49700781Y-65683623D01*
X49718170Y-65717750D01*
X49751714Y-65783584D01*
X49761972Y-65803717D01*
X49763497Y-65805242D01*
X49785910Y-65868048D01*
X49769833Y-65937201D01*
X49766744Y-65942008D01*
X49761972Y-65946780D01*
X49757470Y-65955615D01*
X49757469Y-65955617D01*
X49732842Y-66003950D01*
X49700781Y-66066874D01*
X49699231Y-66076663D01*
X49699230Y-66076665D01*
X49682864Y-66180000D01*
X49679696Y-66200000D01*
X49681247Y-66209793D01*
X49697725Y-66313828D01*
X49700781Y-66333126D01*
X49705282Y-66341959D01*
X49705283Y-66341962D01*
X49757889Y-66445209D01*
X49770993Y-66514986D01*
X49744292Y-66580770D01*
X49734717Y-66591506D01*
X49686626Y-66639597D01*
X49625435Y-66759691D01*
X49623885Y-66769480D01*
X49623884Y-66769482D01*
X49610613Y-66853271D01*
X49604350Y-66892817D01*
X31611775Y-66892817D01*
X31713220Y-66841128D01*
X31808528Y-66745820D01*
X31869719Y-66625726D01*
X31872083Y-66610804D01*
X31889253Y-66502393D01*
X31890804Y-66492600D01*
X31869719Y-66359474D01*
X31841471Y-66304035D01*
X41103231Y-66304035D01*
X41104782Y-66313828D01*
X41109238Y-66341959D01*
X41124316Y-66437161D01*
X41185507Y-66557255D01*
X41280815Y-66652563D01*
X41400909Y-66713754D01*
X41410698Y-66715304D01*
X41410700Y-66715305D01*
X41524242Y-66733288D01*
X41534035Y-66734839D01*
X41543828Y-66733288D01*
X41657370Y-66715305D01*
X41657372Y-66715304D01*
X41667161Y-66713754D01*
X41787255Y-66652563D01*
X41882563Y-66557255D01*
X41943754Y-66437161D01*
X41958833Y-66341959D01*
X41963288Y-66313828D01*
X41964839Y-66304035D01*
X41947261Y-66193050D01*
X41945305Y-66180700D01*
X41945304Y-66180698D01*
X41943754Y-66170909D01*
X41882563Y-66050815D01*
X41787255Y-65955507D01*
X41778831Y-65951215D01*
X41735636Y-65895194D01*
X41729562Y-65824458D01*
X41762696Y-65761667D01*
X41795850Y-65737217D01*
X41814386Y-65727773D01*
X41814390Y-65727770D01*
X41823220Y-65723271D01*
X41918528Y-65627963D01*
X41979719Y-65507869D01*
X41994053Y-65417371D01*
X41999253Y-65384536D01*
X42000804Y-65374743D01*
X41979719Y-65241617D01*
X41918528Y-65121523D01*
X41823220Y-65026215D01*
X41703126Y-64965024D01*
X41693337Y-64963474D01*
X41693335Y-64963473D01*
X41579793Y-64945490D01*
X41570000Y-64943939D01*
X41560207Y-64945490D01*
X41446665Y-64963473D01*
X41446663Y-64963474D01*
X41436874Y-64965024D01*
X41316780Y-65026215D01*
X41221472Y-65121523D01*
X41160281Y-65241617D01*
X41139196Y-65374743D01*
X41140747Y-65384536D01*
X41145948Y-65417371D01*
X41160281Y-65507869D01*
X41221472Y-65627963D01*
X41316780Y-65723271D01*
X41325204Y-65727563D01*
X41368399Y-65783584D01*
X41374473Y-65854320D01*
X41341339Y-65917111D01*
X41308185Y-65941561D01*
X41289649Y-65951005D01*
X41289645Y-65951008D01*
X41280815Y-65955507D01*
X41185507Y-66050815D01*
X41124316Y-66170909D01*
X41122766Y-66180698D01*
X41122765Y-66180700D01*
X41120809Y-66193050D01*
X41103231Y-66304035D01*
X31841471Y-66304035D01*
X31808528Y-66239380D01*
X31713220Y-66144072D01*
X31593126Y-66082881D01*
X31583337Y-66081331D01*
X31583335Y-66081330D01*
X31469793Y-66063347D01*
X31460000Y-66061796D01*
X31450207Y-66063347D01*
X31336665Y-66081330D01*
X31336663Y-66081331D01*
X31326874Y-66082881D01*
X31206780Y-66144072D01*
X31111472Y-66239380D01*
X31050281Y-66359474D01*
X31029196Y-66492600D01*
X18500500Y-66492600D01*
X18500500Y-63910000D01*
X20159196Y-63910000D01*
X20160747Y-63919793D01*
X20174931Y-64009345D01*
X20180281Y-64043126D01*
X20241472Y-64163220D01*
X20336780Y-64258528D01*
X20456874Y-64319719D01*
X20466663Y-64321269D01*
X20466665Y-64321270D01*
X20580207Y-64339253D01*
X20590000Y-64340804D01*
X20599793Y-64339253D01*
X20713335Y-64321270D01*
X20713337Y-64321269D01*
X20723126Y-64319719D01*
X20843220Y-64258528D01*
X20938528Y-64163220D01*
X20999719Y-64043126D01*
X21005070Y-64009345D01*
X21019253Y-63919793D01*
X21020804Y-63910000D01*
X21010789Y-63846769D01*
X21001270Y-63786665D01*
X21001269Y-63786663D01*
X20999719Y-63776874D01*
X20938528Y-63656780D01*
X20843220Y-63561472D01*
X20723126Y-63500281D01*
X20713337Y-63498731D01*
X20713335Y-63498730D01*
X20599793Y-63480747D01*
X20590000Y-63479196D01*
X20580207Y-63480747D01*
X20466665Y-63498730D01*
X20466663Y-63498731D01*
X20456874Y-63500281D01*
X20336780Y-63561472D01*
X20241472Y-63656780D01*
X20180281Y-63776874D01*
X20178731Y-63786663D01*
X20178730Y-63786665D01*
X20169211Y-63846769D01*
X20159196Y-63910000D01*
X18500500Y-63910000D01*
X18500500Y-63173128D01*
X31840568Y-63173128D01*
X31842119Y-63182921D01*
X31856879Y-63276109D01*
X31861653Y-63306254D01*
X31922844Y-63426348D01*
X32018152Y-63521656D01*
X32138246Y-63582847D01*
X32148035Y-63584397D01*
X32148037Y-63584398D01*
X32261579Y-63602381D01*
X32271372Y-63603932D01*
X32281165Y-63602381D01*
X32394707Y-63584398D01*
X32394709Y-63584397D01*
X32404498Y-63582847D01*
X32524592Y-63521656D01*
X32619900Y-63426348D01*
X32681091Y-63306254D01*
X32685866Y-63276109D01*
X32700625Y-63182921D01*
X32702176Y-63173128D01*
X32697162Y-63141472D01*
X32682642Y-63049793D01*
X32682641Y-63049791D01*
X32681091Y-63040002D01*
X32619900Y-62919908D01*
X32524592Y-62824600D01*
X32404498Y-62763409D01*
X32394709Y-62761859D01*
X32394707Y-62761858D01*
X32281165Y-62743875D01*
X32271372Y-62742324D01*
X32261579Y-62743875D01*
X32148037Y-62761858D01*
X32148035Y-62761859D01*
X32138246Y-62763409D01*
X32018152Y-62824600D01*
X31922844Y-62919908D01*
X31861653Y-63040002D01*
X31860103Y-63049791D01*
X31860102Y-63049793D01*
X31845582Y-63141472D01*
X31840568Y-63173128D01*
X18500500Y-63173128D01*
X18500500Y-62565410D01*
X34256155Y-62565410D01*
X34277240Y-62698536D01*
X34338431Y-62818630D01*
X34433739Y-62913938D01*
X34537959Y-62967041D01*
X34589573Y-63015788D01*
X34606639Y-63084703D01*
X34583738Y-63151905D01*
X34569850Y-63168402D01*
X34501472Y-63236780D01*
X34440281Y-63356874D01*
X34438731Y-63366663D01*
X34438730Y-63366665D01*
X34423017Y-63465876D01*
X34419196Y-63490000D01*
X34420747Y-63499793D01*
X34437561Y-63605950D01*
X34440281Y-63623126D01*
X34501472Y-63743220D01*
X34596780Y-63838528D01*
X34716874Y-63899719D01*
X34726663Y-63901269D01*
X34726665Y-63901270D01*
X34840207Y-63919253D01*
X34850000Y-63920804D01*
X34859793Y-63919253D01*
X34973335Y-63901270D01*
X34973337Y-63901269D01*
X34983126Y-63899719D01*
X35103220Y-63838528D01*
X35198528Y-63743220D01*
X35213598Y-63713643D01*
X46522099Y-63713643D01*
X46523650Y-63723436D01*
X46540239Y-63828173D01*
X46543184Y-63846769D01*
X46604375Y-63966863D01*
X46699683Y-64062171D01*
X46819777Y-64123362D01*
X46829566Y-64124912D01*
X46829568Y-64124913D01*
X46943110Y-64142896D01*
X46952903Y-64144447D01*
X46957126Y-64143778D01*
X47022242Y-64162898D01*
X47068735Y-64216554D01*
X47078570Y-64249185D01*
X47085563Y-64293335D01*
X47090281Y-64323126D01*
X47151472Y-64443220D01*
X47246780Y-64538528D01*
X47366874Y-64599719D01*
X47376663Y-64601269D01*
X47376665Y-64601270D01*
X47490207Y-64619253D01*
X47500000Y-64620804D01*
X47509793Y-64619253D01*
X47623335Y-64601270D01*
X47623337Y-64601269D01*
X47633126Y-64599719D01*
X47753220Y-64538528D01*
X47848528Y-64443220D01*
X47909719Y-64323126D01*
X47914438Y-64293335D01*
X47929253Y-64199793D01*
X47930804Y-64190000D01*
X47927636Y-64170000D01*
X47911270Y-64066665D01*
X47911269Y-64066663D01*
X47909719Y-64056874D01*
X47848528Y-63936780D01*
X47753220Y-63841472D01*
X47633126Y-63780281D01*
X47623337Y-63778731D01*
X47623335Y-63778730D01*
X47509793Y-63760747D01*
X47500000Y-63759196D01*
X47495777Y-63759865D01*
X47430661Y-63740745D01*
X47384168Y-63687089D01*
X47374333Y-63654458D01*
X47364173Y-63590308D01*
X47364172Y-63590306D01*
X47362622Y-63580517D01*
X47301431Y-63460423D01*
X47206123Y-63365115D01*
X47086029Y-63303924D01*
X47076240Y-63302374D01*
X47076238Y-63302373D01*
X46962696Y-63284390D01*
X46952903Y-63282839D01*
X46943110Y-63284390D01*
X46829568Y-63302373D01*
X46829566Y-63302374D01*
X46819777Y-63303924D01*
X46699683Y-63365115D01*
X46604375Y-63460423D01*
X46543184Y-63580517D01*
X46541634Y-63590306D01*
X46541633Y-63590308D01*
X46527225Y-63681278D01*
X46522099Y-63713643D01*
X35213598Y-63713643D01*
X35259719Y-63623126D01*
X35262440Y-63605950D01*
X35279253Y-63499793D01*
X35280804Y-63490000D01*
X35276983Y-63465876D01*
X35261270Y-63366665D01*
X35261269Y-63366663D01*
X35259719Y-63356874D01*
X35198528Y-63236780D01*
X35103220Y-63141472D01*
X34999000Y-63088369D01*
X34947386Y-63039622D01*
X34930320Y-62970707D01*
X34953221Y-62903505D01*
X34967109Y-62887008D01*
X35035487Y-62818630D01*
X35095932Y-62700000D01*
X53749196Y-62700000D01*
X53770281Y-62833126D01*
X53831472Y-62953220D01*
X53926780Y-63048528D01*
X54046874Y-63109719D01*
X54056666Y-63111270D01*
X54059276Y-63112118D01*
X54117882Y-63152192D01*
X54145519Y-63217588D01*
X54144789Y-63251662D01*
X54134744Y-63315087D01*
X54131946Y-63332750D01*
X54133497Y-63342543D01*
X54145372Y-63417516D01*
X54153031Y-63465876D01*
X54214222Y-63585970D01*
X54309530Y-63681278D01*
X54429624Y-63742469D01*
X54439415Y-63744020D01*
X54439416Y-63744020D01*
X54520736Y-63756900D01*
X54584889Y-63787313D01*
X54622416Y-63847581D01*
X54621402Y-63918570D01*
X54620354Y-63921151D01*
X54620408Y-63921168D01*
X54617342Y-63930602D01*
X54612842Y-63939435D01*
X54611292Y-63949224D01*
X54611291Y-63949226D01*
X54595020Y-64051959D01*
X54591757Y-64072561D01*
X54593308Y-64082354D01*
X54610116Y-64188473D01*
X54612842Y-64205687D01*
X54674033Y-64325781D01*
X54769341Y-64421089D01*
X54889435Y-64482280D01*
X54899224Y-64483830D01*
X54899226Y-64483831D01*
X55012768Y-64501814D01*
X55022561Y-64503365D01*
X55032354Y-64501814D01*
X55145896Y-64483831D01*
X55145898Y-64483830D01*
X55155687Y-64482280D01*
X55275781Y-64421089D01*
X55371089Y-64325781D01*
X55432280Y-64205687D01*
X55435007Y-64188473D01*
X55451814Y-64082354D01*
X55453365Y-64072561D01*
X55450102Y-64051959D01*
X55433831Y-63949226D01*
X55433830Y-63949224D01*
X55432280Y-63939435D01*
X55371089Y-63819341D01*
X55275781Y-63724033D01*
X55155687Y-63662842D01*
X55145896Y-63661291D01*
X55145895Y-63661291D01*
X55064575Y-63648411D01*
X55000422Y-63617998D01*
X54967586Y-63565263D01*
X57244520Y-63565263D01*
X57245036Y-63571407D01*
X57259464Y-63743220D01*
X57261759Y-63770554D01*
X57263458Y-63776479D01*
X57307844Y-63931270D01*
X57318544Y-63968587D01*
X57321359Y-63974064D01*
X57321360Y-63974067D01*
X57361391Y-64051959D01*
X57412712Y-64151819D01*
X57540677Y-64313271D01*
X57545370Y-64317265D01*
X57545371Y-64317266D01*
X57672651Y-64425589D01*
X57697564Y-64446792D01*
X57702942Y-64449798D01*
X57702944Y-64449799D01*
X57761062Y-64482280D01*
X57877398Y-64547298D01*
X57959677Y-64574032D01*
X58067471Y-64609057D01*
X58067475Y-64609058D01*
X58073329Y-64610960D01*
X58277894Y-64635352D01*
X58284029Y-64634880D01*
X58284031Y-64634880D01*
X58350452Y-64629769D01*
X58483300Y-64619547D01*
X58489230Y-64617891D01*
X58489232Y-64617891D01*
X58675797Y-64565801D01*
X58675796Y-64565801D01*
X58681725Y-64564146D01*
X58687214Y-64561373D01*
X58687220Y-64561371D01*
X58836491Y-64485968D01*
X58865610Y-64471259D01*
X58901499Y-64443220D01*
X59023101Y-64348214D01*
X59027951Y-64344425D01*
X59032416Y-64339253D01*
X59158540Y-64193135D01*
X59158540Y-64193134D01*
X59162564Y-64188473D01*
X59183387Y-64151819D01*
X59231757Y-64066671D01*
X59264323Y-64009345D01*
X59329351Y-63813864D01*
X59355171Y-63609475D01*
X59355583Y-63580001D01*
X59335480Y-63374971D01*
X59275935Y-63177750D01*
X59179218Y-62995850D01*
X59085188Y-62880558D01*
X59052906Y-62840976D01*
X59052903Y-62840973D01*
X59049011Y-62836201D01*
X59036458Y-62825816D01*
X58895025Y-62708812D01*
X58895021Y-62708810D01*
X58890275Y-62704883D01*
X58709055Y-62606898D01*
X58512254Y-62545978D01*
X58506129Y-62545334D01*
X58506128Y-62545334D01*
X58313498Y-62525088D01*
X58313496Y-62525088D01*
X58307369Y-62524444D01*
X58220529Y-62532347D01*
X58108342Y-62542556D01*
X58108339Y-62542557D01*
X58102203Y-62543115D01*
X57904572Y-62601281D01*
X57722002Y-62696727D01*
X57717201Y-62700587D01*
X57717198Y-62700589D01*
X57568556Y-62820100D01*
X57561447Y-62825816D01*
X57429024Y-62983631D01*
X57426056Y-62989029D01*
X57426053Y-62989034D01*
X57358388Y-63112118D01*
X57329776Y-63164163D01*
X57267484Y-63360533D01*
X57266798Y-63366650D01*
X57266797Y-63366654D01*
X57248443Y-63530290D01*
X57244520Y-63565263D01*
X54967586Y-63565263D01*
X54962895Y-63557730D01*
X54963909Y-63486741D01*
X54964957Y-63484160D01*
X54964903Y-63484143D01*
X54967969Y-63474709D01*
X54972469Y-63465876D01*
X54980129Y-63417516D01*
X54992003Y-63342543D01*
X54993554Y-63332750D01*
X54992003Y-63322957D01*
X54974020Y-63209415D01*
X54974019Y-63209413D01*
X54972469Y-63199624D01*
X54911278Y-63079530D01*
X54815970Y-62984222D01*
X54695876Y-62923031D01*
X54686084Y-62921480D01*
X54683474Y-62920632D01*
X54624868Y-62880558D01*
X54597231Y-62815162D01*
X54597961Y-62781088D01*
X54609253Y-62709793D01*
X54610804Y-62700000D01*
X54589719Y-62566874D01*
X54528528Y-62446780D01*
X54433220Y-62351472D01*
X54313126Y-62290281D01*
X54303337Y-62288731D01*
X54303335Y-62288730D01*
X54189793Y-62270747D01*
X54180000Y-62269196D01*
X54170207Y-62270747D01*
X54056665Y-62288730D01*
X54056663Y-62288731D01*
X54046874Y-62290281D01*
X53926780Y-62351472D01*
X53831472Y-62446780D01*
X53770281Y-62566874D01*
X53749196Y-62700000D01*
X35095932Y-62700000D01*
X35096678Y-62698536D01*
X35108492Y-62623945D01*
X35138904Y-62559791D01*
X35199172Y-62522264D01*
X35213229Y-62519206D01*
X35263335Y-62511270D01*
X35263337Y-62511269D01*
X35273126Y-62509719D01*
X35393220Y-62448528D01*
X35488528Y-62353220D01*
X35549719Y-62233126D01*
X35561984Y-62155691D01*
X35569253Y-62109793D01*
X35570804Y-62100000D01*
X35561533Y-62041465D01*
X35551270Y-61976665D01*
X35551269Y-61976663D01*
X35549719Y-61966874D01*
X35488528Y-61846780D01*
X35393220Y-61751472D01*
X35273126Y-61690281D01*
X35263337Y-61688731D01*
X35263335Y-61688730D01*
X35149793Y-61670747D01*
X35140000Y-61669196D01*
X35130207Y-61670747D01*
X35016665Y-61688730D01*
X35016663Y-61688731D01*
X35006874Y-61690281D01*
X34886780Y-61751472D01*
X34791472Y-61846780D01*
X34730281Y-61966874D01*
X34728730Y-61976665D01*
X34728730Y-61976666D01*
X34718467Y-62041465D01*
X34688055Y-62105619D01*
X34627787Y-62143146D01*
X34613730Y-62146204D01*
X34563624Y-62154140D01*
X34563622Y-62154141D01*
X34553833Y-62155691D01*
X34433739Y-62216882D01*
X34338431Y-62312190D01*
X34277240Y-62432284D01*
X34275690Y-62442073D01*
X34275689Y-62442075D01*
X34264730Y-62511270D01*
X34256155Y-62565410D01*
X18500500Y-62565410D01*
X18500500Y-61400000D01*
X20269196Y-61400000D01*
X20270747Y-61409793D01*
X20287733Y-61517036D01*
X20290281Y-61533126D01*
X20351472Y-61653220D01*
X20446780Y-61748528D01*
X20566874Y-61809719D01*
X20576663Y-61811269D01*
X20576665Y-61811270D01*
X20690207Y-61829253D01*
X20700000Y-61830804D01*
X20709793Y-61829253D01*
X20823335Y-61811270D01*
X20823337Y-61811269D01*
X20833126Y-61809719D01*
X20953220Y-61748528D01*
X21008933Y-61692815D01*
X29696878Y-61692815D01*
X29698650Y-61700195D01*
X29698650Y-61700197D01*
X29732159Y-61839769D01*
X29736193Y-61856572D01*
X29813434Y-62006224D01*
X29818426Y-62011946D01*
X29818427Y-62011948D01*
X29868247Y-62069057D01*
X29924143Y-62133132D01*
X29956241Y-62155691D01*
X30055710Y-62225599D01*
X30055712Y-62225600D01*
X30061927Y-62229968D01*
X30218834Y-62291144D01*
X30226367Y-62292136D01*
X30226368Y-62292136D01*
X30325440Y-62305179D01*
X30347278Y-62308054D01*
X30435370Y-62308054D01*
X30560333Y-62292932D01*
X30717872Y-62233403D01*
X30856663Y-62138014D01*
X30866114Y-62127407D01*
X30963642Y-62017945D01*
X30963644Y-62017942D01*
X30968695Y-62012273D01*
X30972250Y-62005559D01*
X31043945Y-61870151D01*
X31043946Y-61870149D01*
X31047499Y-61863438D01*
X31078123Y-61741517D01*
X31086675Y-61707472D01*
X31086675Y-61707468D01*
X31088526Y-61700101D01*
X31088578Y-61690281D01*
X31089017Y-61606342D01*
X31089050Y-61600000D01*
X31719196Y-61600000D01*
X31720747Y-61609793D01*
X31735066Y-61700197D01*
X31740281Y-61733126D01*
X31801472Y-61853220D01*
X31896780Y-61948528D01*
X32016874Y-62009719D01*
X32026663Y-62011269D01*
X32026665Y-62011270D01*
X32140207Y-62029253D01*
X32150000Y-62030804D01*
X32159793Y-62029253D01*
X32273335Y-62011270D01*
X32273337Y-62011269D01*
X32283126Y-62009719D01*
X32403220Y-61948528D01*
X32498528Y-61853220D01*
X32559719Y-61733126D01*
X32564935Y-61700197D01*
X32580804Y-61600000D01*
X32582911Y-61600334D01*
X32599255Y-61544670D01*
X32652911Y-61498177D01*
X32685541Y-61488343D01*
X32771627Y-61474708D01*
X32793334Y-61471270D01*
X32793335Y-61471270D01*
X32803126Y-61469719D01*
X32923220Y-61408528D01*
X33018528Y-61313220D01*
X33057975Y-61235800D01*
X35614996Y-61235800D01*
X35616547Y-61245593D01*
X35633774Y-61354357D01*
X35636081Y-61368926D01*
X35697272Y-61489020D01*
X35792580Y-61584328D01*
X35912674Y-61645519D01*
X35922463Y-61647069D01*
X35922465Y-61647070D01*
X36036007Y-61665053D01*
X36045800Y-61666604D01*
X36055593Y-61665053D01*
X36169135Y-61647070D01*
X36169137Y-61647069D01*
X36178926Y-61645519D01*
X36299020Y-61584328D01*
X36394328Y-61489020D01*
X36455519Y-61368926D01*
X36457827Y-61354357D01*
X36465767Y-61304227D01*
X43298423Y-61304227D01*
X43299974Y-61314020D01*
X43314943Y-61408528D01*
X43319508Y-61437353D01*
X43380699Y-61557447D01*
X43476007Y-61652755D01*
X43596101Y-61713946D01*
X43605890Y-61715496D01*
X43605892Y-61715497D01*
X43719434Y-61733480D01*
X43729227Y-61735031D01*
X43739020Y-61733480D01*
X43852562Y-61715497D01*
X43852564Y-61715496D01*
X43862353Y-61713946D01*
X43982447Y-61652755D01*
X44077755Y-61557447D01*
X44094542Y-61524500D01*
X47224836Y-61524500D01*
X47226387Y-61534293D01*
X47243623Y-61643115D01*
X47245921Y-61657626D01*
X47307112Y-61777720D01*
X47402420Y-61873028D01*
X47522514Y-61934219D01*
X47532303Y-61935769D01*
X47532305Y-61935770D01*
X47645847Y-61953753D01*
X47655640Y-61955304D01*
X47665433Y-61953753D01*
X47778975Y-61935770D01*
X47778977Y-61935769D01*
X47788766Y-61934219D01*
X47908860Y-61873028D01*
X48004168Y-61777720D01*
X48065359Y-61657626D01*
X48067658Y-61643115D01*
X48084893Y-61534293D01*
X48086444Y-61524500D01*
X48074411Y-61448528D01*
X48066910Y-61401165D01*
X48066909Y-61401163D01*
X48065359Y-61391374D01*
X48004168Y-61271280D01*
X47908860Y-61175972D01*
X47788766Y-61114781D01*
X47778977Y-61113231D01*
X47778975Y-61113230D01*
X47665433Y-61095247D01*
X47655640Y-61093696D01*
X47645847Y-61095247D01*
X47532305Y-61113230D01*
X47532303Y-61113231D01*
X47522514Y-61114781D01*
X47402420Y-61175972D01*
X47307112Y-61271280D01*
X47245921Y-61391374D01*
X47244371Y-61401163D01*
X47244370Y-61401165D01*
X47236869Y-61448528D01*
X47224836Y-61524500D01*
X44094542Y-61524500D01*
X44138946Y-61437353D01*
X44143512Y-61408528D01*
X44158480Y-61314020D01*
X44160031Y-61304227D01*
X44152716Y-61258041D01*
X44140497Y-61180892D01*
X44140496Y-61180890D01*
X44138946Y-61171101D01*
X44077755Y-61051007D01*
X44052011Y-61025263D01*
X57244520Y-61025263D01*
X57245036Y-61031407D01*
X57260729Y-61218284D01*
X57261759Y-61230554D01*
X57263458Y-61236479D01*
X57314083Y-61413028D01*
X57318544Y-61428587D01*
X57321359Y-61434064D01*
X57321360Y-61434067D01*
X57409897Y-61606342D01*
X57412712Y-61611819D01*
X57540677Y-61773271D01*
X57545370Y-61777265D01*
X57545371Y-61777266D01*
X57638556Y-61856572D01*
X57697564Y-61906792D01*
X57877398Y-62007298D01*
X57949742Y-62030804D01*
X58067471Y-62069057D01*
X58067475Y-62069058D01*
X58073329Y-62070960D01*
X58277894Y-62095352D01*
X58284029Y-62094880D01*
X58284031Y-62094880D01*
X58344760Y-62090207D01*
X58483300Y-62079547D01*
X58489230Y-62077891D01*
X58489232Y-62077891D01*
X58619695Y-62041465D01*
X58681725Y-62024146D01*
X58687214Y-62021373D01*
X58687220Y-62021371D01*
X58831423Y-61948528D01*
X58865610Y-61931259D01*
X59027951Y-61804425D01*
X59044951Y-61784731D01*
X59158540Y-61653135D01*
X59158540Y-61653134D01*
X59162564Y-61648473D01*
X59183387Y-61611819D01*
X59230290Y-61529253D01*
X59264323Y-61469345D01*
X59329351Y-61273864D01*
X59355171Y-61069475D01*
X59355583Y-61040001D01*
X59335480Y-60834971D01*
X59275935Y-60637750D01*
X59179218Y-60455850D01*
X59067609Y-60319004D01*
X59052906Y-60300976D01*
X59052903Y-60300973D01*
X59049011Y-60296201D01*
X59029088Y-60279719D01*
X58895025Y-60168812D01*
X58895021Y-60168810D01*
X58890275Y-60164883D01*
X58733647Y-60080195D01*
X58714474Y-60069828D01*
X58709055Y-60066898D01*
X58512254Y-60005978D01*
X58506129Y-60005334D01*
X58506128Y-60005334D01*
X58313498Y-59985088D01*
X58313496Y-59985088D01*
X58307369Y-59984444D01*
X58238109Y-59990747D01*
X58108342Y-60002556D01*
X58108339Y-60002557D01*
X58102203Y-60003115D01*
X57904572Y-60061281D01*
X57899107Y-60064138D01*
X57871668Y-60078483D01*
X57722002Y-60156727D01*
X57717201Y-60160587D01*
X57717198Y-60160589D01*
X57634164Y-60227350D01*
X57561447Y-60285816D01*
X57429024Y-60443631D01*
X57426056Y-60449029D01*
X57426053Y-60449034D01*
X57342933Y-60600231D01*
X57329776Y-60624163D01*
X57267484Y-60820533D01*
X57266798Y-60826650D01*
X57266797Y-60826654D01*
X57252323Y-60955699D01*
X57244520Y-61025263D01*
X44052011Y-61025263D01*
X43982447Y-60955699D01*
X43862353Y-60894508D01*
X43852564Y-60892958D01*
X43852562Y-60892957D01*
X43739020Y-60874974D01*
X43729227Y-60873423D01*
X43719434Y-60874974D01*
X43605892Y-60892957D01*
X43605890Y-60892958D01*
X43596101Y-60894508D01*
X43476007Y-60955699D01*
X43380699Y-61051007D01*
X43319508Y-61171101D01*
X43317958Y-61180890D01*
X43317957Y-61180892D01*
X43305738Y-61258041D01*
X43298423Y-61304227D01*
X36465767Y-61304227D01*
X36475053Y-61245593D01*
X36476604Y-61235800D01*
X36471244Y-61201959D01*
X36457070Y-61112465D01*
X36457069Y-61112463D01*
X36455519Y-61102674D01*
X36394328Y-60982580D01*
X36299020Y-60887272D01*
X36178926Y-60826081D01*
X36169137Y-60824531D01*
X36169135Y-60824530D01*
X36055593Y-60806547D01*
X36045800Y-60804996D01*
X36036007Y-60806547D01*
X35922465Y-60824530D01*
X35922463Y-60824531D01*
X35912674Y-60826081D01*
X35792580Y-60887272D01*
X35697272Y-60982580D01*
X35636081Y-61102674D01*
X35634531Y-61112463D01*
X35634530Y-61112465D01*
X35620356Y-61201959D01*
X35614996Y-61235800D01*
X33057975Y-61235800D01*
X33079719Y-61193126D01*
X33081326Y-61182983D01*
X33099253Y-61069793D01*
X33100804Y-61060000D01*
X33098079Y-61042797D01*
X33081270Y-60936665D01*
X33081269Y-60936663D01*
X33079719Y-60926874D01*
X33075219Y-60918043D01*
X33075218Y-60918039D01*
X33068230Y-60904325D01*
X33055125Y-60834548D01*
X33081825Y-60768763D01*
X33139852Y-60727856D01*
X33210783Y-60724815D01*
X33237698Y-60734854D01*
X33258037Y-60745217D01*
X33258041Y-60745218D01*
X33266874Y-60749719D01*
X33276663Y-60751269D01*
X33276665Y-60751270D01*
X33390207Y-60769253D01*
X33400000Y-60770804D01*
X33409793Y-60769253D01*
X33523335Y-60751270D01*
X33523337Y-60751269D01*
X33533126Y-60749719D01*
X33653220Y-60688528D01*
X33748528Y-60593220D01*
X33809719Y-60473126D01*
X33811594Y-60461291D01*
X33829253Y-60349793D01*
X33830804Y-60340000D01*
X33824350Y-60299253D01*
X33811270Y-60216665D01*
X33811269Y-60216663D01*
X33809719Y-60206874D01*
X33794968Y-60177923D01*
X33774077Y-60136921D01*
X33760973Y-60067145D01*
X33787673Y-60001360D01*
X33845701Y-59960454D01*
X33916633Y-59957414D01*
X33943545Y-59967451D01*
X34006874Y-59999719D01*
X34016663Y-60001269D01*
X34016665Y-60001270D01*
X34130207Y-60019253D01*
X34140000Y-60020804D01*
X34149793Y-60019253D01*
X34263335Y-60001270D01*
X34263337Y-60001269D01*
X34273126Y-59999719D01*
X34393220Y-59938528D01*
X34488528Y-59843220D01*
X34549719Y-59723126D01*
X34561275Y-59650168D01*
X34569253Y-59599793D01*
X34570804Y-59590000D01*
X34562551Y-59537891D01*
X34551270Y-59466665D01*
X34551269Y-59466663D01*
X34549719Y-59456874D01*
X34488528Y-59336780D01*
X34393220Y-59241472D01*
X34273126Y-59180281D01*
X34263337Y-59178731D01*
X34263335Y-59178730D01*
X34149793Y-59160747D01*
X34140000Y-59159196D01*
X34130207Y-59160747D01*
X34016665Y-59178730D01*
X34016663Y-59178731D01*
X34006874Y-59180281D01*
X33886780Y-59241472D01*
X33791472Y-59336780D01*
X33730281Y-59456874D01*
X33728731Y-59466663D01*
X33728730Y-59466665D01*
X33717449Y-59537891D01*
X33709196Y-59590000D01*
X33710747Y-59599793D01*
X33718726Y-59650168D01*
X33730281Y-59723126D01*
X33734782Y-59731959D01*
X33734783Y-59731962D01*
X33765923Y-59793079D01*
X33779027Y-59862855D01*
X33752327Y-59928640D01*
X33694299Y-59969546D01*
X33623367Y-59972586D01*
X33596455Y-59962549D01*
X33533126Y-59930281D01*
X33523337Y-59928731D01*
X33523335Y-59928730D01*
X33409793Y-59910747D01*
X33400000Y-59909196D01*
X33390207Y-59910747D01*
X33276665Y-59928730D01*
X33276663Y-59928731D01*
X33266874Y-59930281D01*
X33146780Y-59991472D01*
X33051472Y-60086780D01*
X32990281Y-60206874D01*
X32988731Y-60216663D01*
X32988730Y-60216665D01*
X32975650Y-60299253D01*
X32969196Y-60340000D01*
X32970747Y-60349793D01*
X32988407Y-60461291D01*
X32990281Y-60473126D01*
X32994781Y-60481957D01*
X32994782Y-60481961D01*
X33001770Y-60495675D01*
X33014875Y-60565452D01*
X32988175Y-60631237D01*
X32930148Y-60672144D01*
X32859217Y-60675185D01*
X32832302Y-60665146D01*
X32811963Y-60654783D01*
X32811959Y-60654782D01*
X32803126Y-60650281D01*
X32793337Y-60648731D01*
X32793335Y-60648730D01*
X32679793Y-60630747D01*
X32670000Y-60629196D01*
X32660207Y-60630747D01*
X32546665Y-60648730D01*
X32546663Y-60648731D01*
X32536874Y-60650281D01*
X32416780Y-60711472D01*
X32321472Y-60806780D01*
X32260281Y-60926874D01*
X32258731Y-60936663D01*
X32258730Y-60936665D01*
X32241921Y-61042797D01*
X32239196Y-61060000D01*
X32237089Y-61059666D01*
X32220745Y-61115330D01*
X32167089Y-61161823D01*
X32134459Y-61171657D01*
X32059604Y-61183513D01*
X32026666Y-61188730D01*
X32026665Y-61188730D01*
X32016874Y-61190281D01*
X31896780Y-61251472D01*
X31801472Y-61346780D01*
X31740281Y-61466874D01*
X31738731Y-61476663D01*
X31738730Y-61476665D01*
X31725936Y-61557447D01*
X31719196Y-61600000D01*
X31089050Y-61600000D01*
X31089408Y-61531693D01*
X31087402Y-61523335D01*
X31051865Y-61375316D01*
X31051864Y-61375314D01*
X31050093Y-61367936D01*
X30972852Y-61218284D01*
X30950906Y-61193126D01*
X30883039Y-61115330D01*
X30862143Y-61091376D01*
X30768074Y-61025263D01*
X30730576Y-60998909D01*
X30730574Y-60998908D01*
X30724359Y-60994540D01*
X30567452Y-60933364D01*
X30559919Y-60932372D01*
X30559918Y-60932372D01*
X30443095Y-60916992D01*
X30443094Y-60916992D01*
X30439008Y-60916454D01*
X30350916Y-60916454D01*
X30225953Y-60931576D01*
X30068414Y-60991105D01*
X30062156Y-60995406D01*
X29954386Y-61069475D01*
X29929623Y-61086494D01*
X29924571Y-61092164D01*
X29924570Y-61092165D01*
X29822644Y-61206563D01*
X29822642Y-61206566D01*
X29817591Y-61212235D01*
X29814037Y-61218948D01*
X29814036Y-61218949D01*
X29747620Y-61344388D01*
X29738787Y-61361070D01*
X29736937Y-61368435D01*
X29699878Y-61515976D01*
X29697760Y-61524407D01*
X29696878Y-61692815D01*
X21008933Y-61692815D01*
X21048528Y-61653220D01*
X21053677Y-61643115D01*
X21083463Y-61584657D01*
X21132212Y-61533042D01*
X21201127Y-61515976D01*
X21215437Y-61517411D01*
X21300000Y-61530804D01*
X21309793Y-61529253D01*
X21423335Y-61511270D01*
X21423337Y-61511269D01*
X21433126Y-61509719D01*
X21553220Y-61448528D01*
X21648528Y-61353220D01*
X21709719Y-61233126D01*
X21711965Y-61218949D01*
X21729253Y-61109793D01*
X21730804Y-61100000D01*
X21713664Y-60991780D01*
X21711270Y-60976665D01*
X21711269Y-60976663D01*
X21709719Y-60966874D01*
X21648528Y-60846780D01*
X21553220Y-60751472D01*
X21433126Y-60690281D01*
X21423337Y-60688731D01*
X21423335Y-60688730D01*
X21309793Y-60670747D01*
X21300000Y-60669196D01*
X21215440Y-60682589D01*
X21145030Y-60673489D01*
X21090716Y-60627768D01*
X21083463Y-60615343D01*
X21053029Y-60555613D01*
X21053028Y-60555611D01*
X21048528Y-60546780D01*
X20953220Y-60451472D01*
X20833126Y-60390281D01*
X20823337Y-60388731D01*
X20823335Y-60388730D01*
X20709793Y-60370747D01*
X20700000Y-60369196D01*
X20690207Y-60370747D01*
X20576665Y-60388730D01*
X20576663Y-60388731D01*
X20566874Y-60390281D01*
X20446780Y-60451472D01*
X20351472Y-60546780D01*
X20290281Y-60666874D01*
X20288731Y-60676663D01*
X20288730Y-60676665D01*
X20270747Y-60790207D01*
X20269196Y-60800000D01*
X20270747Y-60809793D01*
X20287726Y-60916992D01*
X20290281Y-60933126D01*
X20311907Y-60975569D01*
X20346161Y-61042797D01*
X20359265Y-61112574D01*
X20346161Y-61157203D01*
X20290281Y-61266874D01*
X20288731Y-61276663D01*
X20288730Y-61276665D01*
X20272719Y-61377759D01*
X20269196Y-61400000D01*
X18500500Y-61400000D01*
X18500500Y-59870000D01*
X21409196Y-59870000D01*
X21410747Y-59879793D01*
X21428075Y-59989196D01*
X21430281Y-60003126D01*
X21491472Y-60123220D01*
X21586780Y-60218528D01*
X21706874Y-60279719D01*
X21716663Y-60281269D01*
X21716665Y-60281270D01*
X21830207Y-60299253D01*
X21840000Y-60300804D01*
X21849793Y-60299253D01*
X21963335Y-60281270D01*
X21963337Y-60281269D01*
X21973126Y-60279719D01*
X22019728Y-60255974D01*
X28260037Y-60255974D01*
X28261809Y-60263354D01*
X28261809Y-60263356D01*
X28293362Y-60394782D01*
X28299352Y-60419731D01*
X28376593Y-60569383D01*
X28381585Y-60575105D01*
X28381586Y-60575107D01*
X28428544Y-60628936D01*
X28487302Y-60696291D01*
X28514605Y-60715480D01*
X28618869Y-60788758D01*
X28618871Y-60788759D01*
X28625086Y-60793127D01*
X28781993Y-60854303D01*
X28789526Y-60855295D01*
X28789527Y-60855295D01*
X28906350Y-60870675D01*
X28910437Y-60871213D01*
X28998529Y-60871213D01*
X29123492Y-60856091D01*
X29281031Y-60796562D01*
X29321479Y-60768763D01*
X29413563Y-60705475D01*
X29413564Y-60705474D01*
X29419822Y-60701173D01*
X29424875Y-60695502D01*
X29526801Y-60581104D01*
X29526803Y-60581101D01*
X29531854Y-60575432D01*
X29542348Y-60555612D01*
X29607104Y-60433310D01*
X29607105Y-60433308D01*
X29610658Y-60426597D01*
X29619780Y-60390281D01*
X29649834Y-60270631D01*
X29649834Y-60270627D01*
X29651685Y-60263260D01*
X29651870Y-60228041D01*
X29652452Y-60116780D01*
X29652567Y-60094852D01*
X29645419Y-60065076D01*
X29615024Y-59938475D01*
X29615023Y-59938473D01*
X29613252Y-59931095D01*
X29536011Y-59781443D01*
X29530049Y-59774608D01*
X29430296Y-59660260D01*
X29425302Y-59654535D01*
X29319544Y-59580207D01*
X29293735Y-59562068D01*
X29293733Y-59562067D01*
X29287518Y-59557699D01*
X29130611Y-59496523D01*
X29123078Y-59495531D01*
X29123077Y-59495531D01*
X29006254Y-59480151D01*
X29006253Y-59480151D01*
X29002167Y-59479613D01*
X28914075Y-59479613D01*
X28789112Y-59494735D01*
X28631573Y-59554264D01*
X28625315Y-59558565D01*
X28527762Y-59625612D01*
X28492782Y-59649653D01*
X28487730Y-59655323D01*
X28487729Y-59655324D01*
X28385803Y-59769722D01*
X28385801Y-59769725D01*
X28380750Y-59775394D01*
X28377196Y-59782107D01*
X28377195Y-59782108D01*
X28309906Y-59909196D01*
X28301946Y-59924229D01*
X28300096Y-59931594D01*
X28266092Y-60066972D01*
X28260919Y-60087566D01*
X28260879Y-60095165D01*
X28260879Y-60095167D01*
X28260572Y-60153870D01*
X28260037Y-60255974D01*
X22019728Y-60255974D01*
X22093220Y-60218528D01*
X22188528Y-60123220D01*
X22249719Y-60003126D01*
X22251926Y-59989196D01*
X22269253Y-59879793D01*
X22270804Y-59870000D01*
X22266671Y-59843906D01*
X22251270Y-59746665D01*
X22251269Y-59746663D01*
X22249719Y-59736874D01*
X22188528Y-59616780D01*
X22093220Y-59521472D01*
X21973126Y-59460281D01*
X21963337Y-59458731D01*
X21963335Y-59458730D01*
X21849793Y-59440747D01*
X21840000Y-59439196D01*
X21830207Y-59440747D01*
X21716665Y-59458730D01*
X21716663Y-59458731D01*
X21706874Y-59460281D01*
X21586780Y-59521472D01*
X21491472Y-59616780D01*
X21430281Y-59736874D01*
X21428731Y-59746663D01*
X21428730Y-59746665D01*
X21413329Y-59843906D01*
X21409196Y-59870000D01*
X18500500Y-59870000D01*
X18500500Y-58965878D01*
X44403318Y-58965878D01*
X44404869Y-58975671D01*
X44422290Y-59085660D01*
X44424403Y-59099004D01*
X44485594Y-59219098D01*
X44580902Y-59314406D01*
X44700996Y-59375597D01*
X44710788Y-59377148D01*
X44720221Y-59380213D01*
X44719184Y-59383405D01*
X44767723Y-59406410D01*
X44805256Y-59466674D01*
X44808449Y-59490053D01*
X44808318Y-59490878D01*
X44809869Y-59500671D01*
X44819039Y-59558565D01*
X44829403Y-59624004D01*
X44890594Y-59744098D01*
X44985902Y-59839406D01*
X45105996Y-59900597D01*
X45115785Y-59902147D01*
X45115787Y-59902148D01*
X45229329Y-59920131D01*
X45239122Y-59921682D01*
X45329939Y-59907298D01*
X45400349Y-59916398D01*
X45454663Y-59962119D01*
X45475636Y-60029948D01*
X45472229Y-60052523D01*
X45473678Y-60052752D01*
X45471438Y-60066898D01*
X45452593Y-60185878D01*
X45454144Y-60195671D01*
X45470823Y-60300976D01*
X45473678Y-60319004D01*
X45534869Y-60439098D01*
X45630177Y-60534406D01*
X45750271Y-60595597D01*
X45760060Y-60597147D01*
X45760062Y-60597148D01*
X45873604Y-60615131D01*
X45883397Y-60616682D01*
X45893190Y-60615131D01*
X46006732Y-60597148D01*
X46006734Y-60597147D01*
X46016523Y-60595597D01*
X46136617Y-60534406D01*
X46231925Y-60439098D01*
X46267132Y-60370000D01*
X52019196Y-60370000D01*
X52020747Y-60379793D01*
X52027073Y-60419731D01*
X52040281Y-60503126D01*
X52101472Y-60623220D01*
X52196780Y-60718528D01*
X52316874Y-60779719D01*
X52326663Y-60781269D01*
X52326665Y-60781270D01*
X52440207Y-60799253D01*
X52450000Y-60800804D01*
X52459793Y-60799253D01*
X52573335Y-60781270D01*
X52573337Y-60781269D01*
X52583126Y-60779719D01*
X52703220Y-60718528D01*
X52798528Y-60623220D01*
X52803031Y-60614382D01*
X52804706Y-60612077D01*
X52860929Y-60568724D01*
X52931666Y-60562650D01*
X52994457Y-60595783D01*
X53018907Y-60628936D01*
X53036970Y-60664385D01*
X53041472Y-60673220D01*
X53136780Y-60768528D01*
X53256874Y-60829719D01*
X53266663Y-60831269D01*
X53266665Y-60831270D01*
X53380207Y-60849253D01*
X53390000Y-60850804D01*
X53399793Y-60849253D01*
X53513335Y-60831270D01*
X53513337Y-60831269D01*
X53523126Y-60829719D01*
X53643220Y-60768528D01*
X53738528Y-60673220D01*
X53799719Y-60553126D01*
X53803795Y-60527395D01*
X53819253Y-60429793D01*
X53820804Y-60420000D01*
X53812885Y-60370000D01*
X53801270Y-60296665D01*
X53801269Y-60296663D01*
X53799719Y-60286874D01*
X53738528Y-60166780D01*
X53643220Y-60071472D01*
X53523126Y-60010281D01*
X53513337Y-60008731D01*
X53513335Y-60008730D01*
X53399793Y-59990747D01*
X53390000Y-59989196D01*
X53380207Y-59990747D01*
X53266665Y-60008730D01*
X53266663Y-60008731D01*
X53256874Y-60010281D01*
X53136780Y-60071472D01*
X53041472Y-60166780D01*
X53036969Y-60175618D01*
X53035294Y-60177923D01*
X52979071Y-60221276D01*
X52908334Y-60227350D01*
X52845543Y-60194217D01*
X52821093Y-60161064D01*
X52803030Y-60125615D01*
X52803028Y-60125612D01*
X52798528Y-60116780D01*
X52703220Y-60021472D01*
X52583126Y-59960281D01*
X52573337Y-59958731D01*
X52573335Y-59958730D01*
X52459793Y-59940747D01*
X52450000Y-59939196D01*
X52440207Y-59940747D01*
X52326665Y-59958730D01*
X52326663Y-59958731D01*
X52316874Y-59960281D01*
X52196780Y-60021472D01*
X52101472Y-60116780D01*
X52040281Y-60236874D01*
X52038731Y-60246663D01*
X52038730Y-60246665D01*
X52022396Y-60349793D01*
X52019196Y-60370000D01*
X46267132Y-60370000D01*
X46293116Y-60319004D01*
X46295972Y-60300976D01*
X46312650Y-60195671D01*
X46314201Y-60185878D01*
X46309584Y-60156727D01*
X46294667Y-60062543D01*
X46294666Y-60062541D01*
X46293116Y-60052752D01*
X46231925Y-59932658D01*
X46136617Y-59837350D01*
X46016523Y-59776159D01*
X46006734Y-59774609D01*
X46006732Y-59774608D01*
X45893190Y-59756625D01*
X45883397Y-59755074D01*
X45792580Y-59769458D01*
X45722170Y-59760358D01*
X45667856Y-59714637D01*
X45646883Y-59646808D01*
X45650290Y-59624233D01*
X45648841Y-59624004D01*
X45668375Y-59500671D01*
X45669926Y-59490878D01*
X45666191Y-59467298D01*
X45650392Y-59367543D01*
X45650391Y-59367541D01*
X45648841Y-59357752D01*
X45587650Y-59237658D01*
X45492342Y-59142350D01*
X45372248Y-59081159D01*
X45362456Y-59079608D01*
X45353023Y-59076543D01*
X45354060Y-59073351D01*
X45305521Y-59050346D01*
X45267988Y-58990082D01*
X45264795Y-58966703D01*
X45264926Y-58965878D01*
X45260795Y-58939793D01*
X45252508Y-58887472D01*
X48699166Y-58887472D01*
X48720251Y-59020598D01*
X48781442Y-59140692D01*
X48876750Y-59236000D01*
X48996844Y-59297191D01*
X49006633Y-59298741D01*
X49006635Y-59298742D01*
X49120177Y-59316725D01*
X49129970Y-59318276D01*
X49139763Y-59316725D01*
X49253305Y-59298742D01*
X49253307Y-59298741D01*
X49263096Y-59297191D01*
X49383190Y-59236000D01*
X49478498Y-59140692D01*
X49539689Y-59020598D01*
X49557050Y-58910982D01*
X49587462Y-58846830D01*
X49647730Y-58809302D01*
X49701209Y-58806244D01*
X49730000Y-58810804D01*
X49736515Y-58809772D01*
X49802868Y-58829255D01*
X49849361Y-58882911D01*
X49859368Y-58928914D01*
X49859196Y-58930000D01*
X49860747Y-58939793D01*
X49871995Y-59010807D01*
X49880281Y-59063126D01*
X49941472Y-59183220D01*
X50036780Y-59278528D01*
X50156874Y-59339719D01*
X50166663Y-59341269D01*
X50166665Y-59341270D01*
X50280207Y-59359253D01*
X50290000Y-59360804D01*
X50299793Y-59359253D01*
X50413335Y-59341270D01*
X50413337Y-59341269D01*
X50423126Y-59339719D01*
X50543220Y-59278528D01*
X50638528Y-59183220D01*
X50699719Y-59063126D01*
X50708006Y-59010807D01*
X50719253Y-58939793D01*
X50720804Y-58930000D01*
X50706952Y-58842543D01*
X50701270Y-58806665D01*
X50701269Y-58806663D01*
X50699719Y-58796874D01*
X50638528Y-58676780D01*
X50543220Y-58581472D01*
X50423126Y-58520281D01*
X50413337Y-58518731D01*
X50413335Y-58518730D01*
X50299793Y-58500747D01*
X50290000Y-58499196D01*
X50283485Y-58500228D01*
X50232519Y-58485263D01*
X57244520Y-58485263D01*
X57245036Y-58491407D01*
X57260014Y-58669769D01*
X57261759Y-58690554D01*
X57263458Y-58696479D01*
X57302534Y-58832752D01*
X57318544Y-58888587D01*
X57321359Y-58894064D01*
X57321360Y-58894067D01*
X57407540Y-59061756D01*
X57412712Y-59071819D01*
X57540677Y-59233271D01*
X57545370Y-59237265D01*
X57545371Y-59237266D01*
X57688706Y-59359253D01*
X57697564Y-59366792D01*
X57702942Y-59369798D01*
X57702944Y-59369799D01*
X57721578Y-59380213D01*
X57877398Y-59467298D01*
X57961840Y-59494735D01*
X58067471Y-59529057D01*
X58067475Y-59529058D01*
X58073329Y-59530960D01*
X58277894Y-59555352D01*
X58284029Y-59554880D01*
X58284031Y-59554880D01*
X58340039Y-59550570D01*
X58483300Y-59539547D01*
X58489230Y-59537891D01*
X58489232Y-59537891D01*
X58643799Y-59494735D01*
X58681725Y-59484146D01*
X58687214Y-59481373D01*
X58687220Y-59481371D01*
X58860116Y-59394034D01*
X58865610Y-59391259D01*
X58879749Y-59380213D01*
X59009900Y-59278528D01*
X59027951Y-59264425D01*
X59047764Y-59241472D01*
X59158540Y-59113135D01*
X59158540Y-59113134D01*
X59162564Y-59108473D01*
X59183387Y-59071819D01*
X59218047Y-59010806D01*
X59264323Y-58929345D01*
X59329351Y-58733864D01*
X59355171Y-58529475D01*
X59355400Y-58513126D01*
X59355534Y-58503523D01*
X59355534Y-58503519D01*
X59355583Y-58500001D01*
X59335480Y-58294971D01*
X59275935Y-58097750D01*
X59179218Y-57915850D01*
X59079999Y-57794196D01*
X59052906Y-57760976D01*
X59052903Y-57760973D01*
X59049011Y-57756201D01*
X59031786Y-57741951D01*
X58895025Y-57628812D01*
X58895021Y-57628810D01*
X58890275Y-57624883D01*
X58709055Y-57526898D01*
X58512254Y-57465978D01*
X58506129Y-57465334D01*
X58506128Y-57465334D01*
X58313498Y-57445088D01*
X58313496Y-57445088D01*
X58307369Y-57444444D01*
X58220529Y-57452347D01*
X58108342Y-57462556D01*
X58108339Y-57462557D01*
X58102203Y-57463115D01*
X57904572Y-57521281D01*
X57899107Y-57524138D01*
X57813287Y-57569004D01*
X57722002Y-57616727D01*
X57717201Y-57620587D01*
X57717198Y-57620589D01*
X57566254Y-57741951D01*
X57561447Y-57745816D01*
X57429024Y-57903631D01*
X57426056Y-57909029D01*
X57426053Y-57909034D01*
X57377698Y-57996993D01*
X57329776Y-58084163D01*
X57267484Y-58280533D01*
X57266798Y-58286650D01*
X57266797Y-58286654D01*
X57256916Y-58374747D01*
X57244520Y-58485263D01*
X50232519Y-58485263D01*
X50217132Y-58480745D01*
X50170639Y-58427089D01*
X50160632Y-58381086D01*
X50160804Y-58380000D01*
X50139719Y-58246874D01*
X50078528Y-58126780D01*
X49983220Y-58031472D01*
X49863126Y-57970281D01*
X49853337Y-57968731D01*
X49853335Y-57968730D01*
X49739793Y-57950747D01*
X49730000Y-57949196D01*
X49720207Y-57950747D01*
X49606665Y-57968730D01*
X49606663Y-57968731D01*
X49596874Y-57970281D01*
X49476780Y-58031472D01*
X49381472Y-58126780D01*
X49320281Y-58246874D01*
X49318730Y-58256665D01*
X49318730Y-58256666D01*
X49302920Y-58356489D01*
X49272508Y-58420642D01*
X49212240Y-58458170D01*
X49158761Y-58461228D01*
X49129970Y-58456668D01*
X49120177Y-58458219D01*
X49006635Y-58476202D01*
X49006633Y-58476203D01*
X48996844Y-58477753D01*
X48876750Y-58538944D01*
X48781442Y-58634252D01*
X48720251Y-58754346D01*
X48718701Y-58764135D01*
X48718700Y-58764137D01*
X48707833Y-58832752D01*
X48699166Y-58887472D01*
X45252508Y-58887472D01*
X45245392Y-58842543D01*
X45245391Y-58842541D01*
X45243841Y-58832752D01*
X45182650Y-58712658D01*
X45087342Y-58617350D01*
X44967248Y-58556159D01*
X44957459Y-58554609D01*
X44957457Y-58554608D01*
X44843915Y-58536625D01*
X44834122Y-58535074D01*
X44824329Y-58536625D01*
X44710787Y-58554608D01*
X44710785Y-58554609D01*
X44700996Y-58556159D01*
X44580902Y-58617350D01*
X44485594Y-58712658D01*
X44424403Y-58832752D01*
X44422853Y-58842541D01*
X44422852Y-58842543D01*
X44407449Y-58939793D01*
X44403318Y-58965878D01*
X18500500Y-58965878D01*
X18500500Y-58225000D01*
X36219196Y-58225000D01*
X36220747Y-58234793D01*
X36231250Y-58301104D01*
X36240281Y-58358126D01*
X36301472Y-58478220D01*
X36396780Y-58573528D01*
X36516874Y-58634719D01*
X36526663Y-58636269D01*
X36526665Y-58636270D01*
X36640207Y-58654253D01*
X36650000Y-58655804D01*
X36659793Y-58654253D01*
X36773335Y-58636270D01*
X36773337Y-58636269D01*
X36783126Y-58634719D01*
X36903220Y-58573528D01*
X36998528Y-58478220D01*
X37059719Y-58358126D01*
X37068751Y-58301104D01*
X37079253Y-58234793D01*
X37080804Y-58225000D01*
X37079253Y-58215207D01*
X37061270Y-58101665D01*
X37061269Y-58101663D01*
X37059719Y-58091874D01*
X36998528Y-57971780D01*
X36903220Y-57876472D01*
X36783126Y-57815281D01*
X36773337Y-57813731D01*
X36773335Y-57813730D01*
X36659793Y-57795747D01*
X36650000Y-57794196D01*
X36640207Y-57795747D01*
X36526665Y-57813730D01*
X36526663Y-57813731D01*
X36516874Y-57815281D01*
X36396780Y-57876472D01*
X36301472Y-57971780D01*
X36240281Y-58091874D01*
X36238731Y-58101663D01*
X36238730Y-58101665D01*
X36220747Y-58215207D01*
X36219196Y-58225000D01*
X18500500Y-58225000D01*
X18500500Y-57375337D01*
X24117057Y-57375337D01*
X24118829Y-57382717D01*
X24118829Y-57382719D01*
X24153444Y-57526898D01*
X24156372Y-57539094D01*
X24233613Y-57688746D01*
X24238605Y-57694468D01*
X24238606Y-57694470D01*
X24244957Y-57701750D01*
X24344322Y-57815654D01*
X24367286Y-57831793D01*
X24475889Y-57908121D01*
X24475891Y-57908122D01*
X24482106Y-57912490D01*
X24639013Y-57973666D01*
X24646546Y-57974658D01*
X24646547Y-57974658D01*
X24763370Y-57990038D01*
X24767457Y-57990576D01*
X24855549Y-57990576D01*
X24980512Y-57975454D01*
X25138051Y-57915925D01*
X25260463Y-57831793D01*
X25270583Y-57824838D01*
X25270584Y-57824837D01*
X25276842Y-57820536D01*
X25286293Y-57809929D01*
X25383821Y-57700467D01*
X25383823Y-57700464D01*
X25388874Y-57694795D01*
X25423810Y-57628812D01*
X25464124Y-57552673D01*
X25464125Y-57552671D01*
X25467678Y-57545960D01*
X25488487Y-57463115D01*
X25506854Y-57389994D01*
X25506854Y-57389990D01*
X25508705Y-57382623D01*
X25508707Y-57382292D01*
X32570560Y-57382292D01*
X32572332Y-57389672D01*
X32572332Y-57389674D01*
X32606433Y-57531714D01*
X32609875Y-57546049D01*
X32687116Y-57695701D01*
X32692108Y-57701423D01*
X32692109Y-57701425D01*
X32744059Y-57760976D01*
X32797825Y-57822609D01*
X32810893Y-57831793D01*
X32929392Y-57915076D01*
X32929394Y-57915077D01*
X32935609Y-57919445D01*
X33092516Y-57980621D01*
X33100049Y-57981613D01*
X33100050Y-57981613D01*
X33216873Y-57996993D01*
X33220960Y-57997531D01*
X33309052Y-57997531D01*
X33434015Y-57982409D01*
X33591554Y-57922880D01*
X33602909Y-57915076D01*
X33724086Y-57831793D01*
X33724087Y-57831792D01*
X33730345Y-57827491D01*
X33739796Y-57816884D01*
X33837324Y-57707422D01*
X33837326Y-57707419D01*
X33842377Y-57701750D01*
X33845932Y-57695036D01*
X33917627Y-57559628D01*
X33917628Y-57559626D01*
X33921181Y-57552915D01*
X33943737Y-57463115D01*
X33960357Y-57396949D01*
X33960357Y-57396945D01*
X33962208Y-57389578D01*
X33962323Y-57367743D01*
X33963050Y-57228764D01*
X33963090Y-57221170D01*
X33957902Y-57199558D01*
X33925547Y-57064793D01*
X33925546Y-57064791D01*
X33923775Y-57057413D01*
X33846534Y-56907761D01*
X33835474Y-56895082D01*
X33740819Y-56786578D01*
X33735825Y-56780853D01*
X33648908Y-56719767D01*
X33604258Y-56688386D01*
X33604256Y-56688385D01*
X33598041Y-56684017D01*
X33441134Y-56622841D01*
X33433601Y-56621849D01*
X33433600Y-56621849D01*
X33316777Y-56606469D01*
X33316776Y-56606469D01*
X33312690Y-56605931D01*
X33224598Y-56605931D01*
X33099635Y-56621053D01*
X32942096Y-56680582D01*
X32935838Y-56684883D01*
X32813425Y-56769016D01*
X32803305Y-56775971D01*
X32798253Y-56781641D01*
X32798252Y-56781642D01*
X32696326Y-56896040D01*
X32696324Y-56896043D01*
X32691273Y-56901712D01*
X32687719Y-56908425D01*
X32687718Y-56908426D01*
X32619706Y-57036879D01*
X32612469Y-57050547D01*
X32571442Y-57213884D01*
X32570560Y-57382292D01*
X25508707Y-57382292D01*
X25509587Y-57214215D01*
X25470272Y-57050458D01*
X25406705Y-56927298D01*
X25396514Y-56907554D01*
X25396514Y-56907553D01*
X25393031Y-56900806D01*
X25282322Y-56773898D01*
X25205301Y-56719767D01*
X25150755Y-56681431D01*
X25150753Y-56681430D01*
X25144538Y-56677062D01*
X24987631Y-56615886D01*
X24980098Y-56614894D01*
X24980097Y-56614894D01*
X24863274Y-56599514D01*
X24863273Y-56599514D01*
X24859187Y-56598976D01*
X24771095Y-56598976D01*
X24646132Y-56614098D01*
X24488593Y-56673627D01*
X24482335Y-56677928D01*
X24472216Y-56684883D01*
X24349802Y-56769016D01*
X24344750Y-56774686D01*
X24344749Y-56774687D01*
X24242823Y-56889085D01*
X24242821Y-56889088D01*
X24237770Y-56894757D01*
X24234216Y-56901470D01*
X24234215Y-56901471D01*
X24182037Y-57000019D01*
X24158966Y-57043592D01*
X24117939Y-57206929D01*
X24117899Y-57214528D01*
X24117899Y-57214530D01*
X24117533Y-57284442D01*
X24117057Y-57375337D01*
X18500500Y-57375337D01*
X18500500Y-55938496D01*
X22680216Y-55938496D01*
X22681988Y-55945876D01*
X22681988Y-55945878D01*
X22709857Y-56061959D01*
X22719531Y-56102253D01*
X22796772Y-56251905D01*
X22801764Y-56257627D01*
X22801765Y-56257629D01*
X22860727Y-56325218D01*
X22907481Y-56378813D01*
X22965644Y-56419691D01*
X23039048Y-56471280D01*
X23039050Y-56471281D01*
X23045265Y-56475649D01*
X23202172Y-56536825D01*
X23209705Y-56537817D01*
X23209706Y-56537817D01*
X23326529Y-56553197D01*
X23330616Y-56553735D01*
X23418708Y-56553735D01*
X23543671Y-56538613D01*
X23701210Y-56479084D01*
X23712565Y-56471280D01*
X23833742Y-56387997D01*
X23833743Y-56387996D01*
X23840001Y-56383695D01*
X23866399Y-56354067D01*
X23946980Y-56263626D01*
X23946982Y-56263623D01*
X23952033Y-56257954D01*
X23970363Y-56223335D01*
X24027283Y-56115832D01*
X24027284Y-56115830D01*
X24030837Y-56109119D01*
X24033128Y-56100000D01*
X31689196Y-56100000D01*
X31690747Y-56109793D01*
X31704063Y-56193864D01*
X31710281Y-56233126D01*
X31771472Y-56353220D01*
X31866780Y-56448528D01*
X31986874Y-56509719D01*
X31996663Y-56511269D01*
X31996665Y-56511270D01*
X32110207Y-56529253D01*
X32120000Y-56530804D01*
X32129793Y-56529253D01*
X32243335Y-56511270D01*
X32243337Y-56511269D01*
X32253126Y-56509719D01*
X32373220Y-56448528D01*
X32468528Y-56353220D01*
X32529719Y-56233126D01*
X32535938Y-56193864D01*
X32549253Y-56109793D01*
X32550804Y-56100000D01*
X32533299Y-55989475D01*
X32531270Y-55976665D01*
X32531269Y-55976663D01*
X32529719Y-55966874D01*
X32505835Y-55920000D01*
X46569196Y-55920000D01*
X46570747Y-55929793D01*
X46575532Y-55960001D01*
X46590281Y-56053126D01*
X46651472Y-56173220D01*
X46746780Y-56268528D01*
X46866874Y-56329719D01*
X46876663Y-56331269D01*
X46876665Y-56331270D01*
X46990207Y-56349253D01*
X47000000Y-56350804D01*
X47009793Y-56349253D01*
X47123335Y-56331270D01*
X47123337Y-56331269D01*
X47133126Y-56329719D01*
X47253220Y-56268528D01*
X47348528Y-56173220D01*
X47409719Y-56053126D01*
X47424469Y-55960001D01*
X47426803Y-55945263D01*
X57244520Y-55945263D01*
X57245036Y-55951407D01*
X57258280Y-56109119D01*
X57261759Y-56150554D01*
X57263458Y-56156479D01*
X57313134Y-56329719D01*
X57318544Y-56348587D01*
X57321359Y-56354064D01*
X57321360Y-56354067D01*
X57385263Y-56478409D01*
X57412712Y-56531819D01*
X57540677Y-56693271D01*
X57545370Y-56697265D01*
X57545371Y-56697266D01*
X57650313Y-56786578D01*
X57697564Y-56826792D01*
X57877398Y-56927298D01*
X57972238Y-56958114D01*
X58067471Y-56989057D01*
X58067475Y-56989058D01*
X58073329Y-56990960D01*
X58277894Y-57015352D01*
X58284029Y-57014880D01*
X58284031Y-57014880D01*
X58340039Y-57010570D01*
X58483300Y-56999547D01*
X58489230Y-56997891D01*
X58489232Y-56997891D01*
X58675797Y-56945801D01*
X58675796Y-56945801D01*
X58681725Y-56944146D01*
X58687214Y-56941373D01*
X58687220Y-56941371D01*
X58860116Y-56854034D01*
X58865610Y-56851259D01*
X59027951Y-56724425D01*
X59062083Y-56684883D01*
X59158540Y-56573135D01*
X59158540Y-56573134D01*
X59162564Y-56568473D01*
X59170937Y-56553735D01*
X59213344Y-56479084D01*
X59264323Y-56389345D01*
X59329351Y-56193864D01*
X59355171Y-55989475D01*
X59355583Y-55960001D01*
X59335480Y-55754971D01*
X59275935Y-55557750D01*
X59179218Y-55375850D01*
X59069308Y-55241087D01*
X59052906Y-55220976D01*
X59052903Y-55220973D01*
X59049011Y-55216201D01*
X59031786Y-55201951D01*
X58895025Y-55088812D01*
X58895021Y-55088810D01*
X58890275Y-55084883D01*
X58709055Y-54986898D01*
X58512254Y-54925978D01*
X58506129Y-54925334D01*
X58506128Y-54925334D01*
X58313498Y-54905088D01*
X58313496Y-54905088D01*
X58307369Y-54904444D01*
X58220529Y-54912347D01*
X58108342Y-54922556D01*
X58108339Y-54922557D01*
X58102203Y-54923115D01*
X57904572Y-54981281D01*
X57722002Y-55076727D01*
X57717201Y-55080587D01*
X57717198Y-55080589D01*
X57593629Y-55179941D01*
X57561447Y-55205816D01*
X57429024Y-55363631D01*
X57426056Y-55369029D01*
X57426053Y-55369034D01*
X57349255Y-55508730D01*
X57329776Y-55544163D01*
X57267484Y-55740533D01*
X57266798Y-55746650D01*
X57266797Y-55746654D01*
X57254576Y-55855612D01*
X57244520Y-55945263D01*
X47426803Y-55945263D01*
X47429253Y-55929793D01*
X47430804Y-55920000D01*
X47409719Y-55786874D01*
X47348528Y-55666780D01*
X47253220Y-55571472D01*
X47133126Y-55510281D01*
X47123337Y-55508731D01*
X47123335Y-55508730D01*
X47009793Y-55490747D01*
X47000000Y-55489196D01*
X46990207Y-55490747D01*
X46876665Y-55508730D01*
X46876663Y-55508731D01*
X46866874Y-55510281D01*
X46746780Y-55571472D01*
X46651472Y-55666780D01*
X46590281Y-55786874D01*
X46569196Y-55920000D01*
X32505835Y-55920000D01*
X32468528Y-55846780D01*
X32373220Y-55751472D01*
X32253126Y-55690281D01*
X32243337Y-55688731D01*
X32243335Y-55688730D01*
X32129793Y-55670747D01*
X32120000Y-55669196D01*
X32110207Y-55670747D01*
X31996665Y-55688730D01*
X31996663Y-55688731D01*
X31986874Y-55690281D01*
X31866780Y-55751472D01*
X31771472Y-55846780D01*
X31710281Y-55966874D01*
X31708731Y-55976663D01*
X31708730Y-55976665D01*
X31706701Y-55989475D01*
X31689196Y-56100000D01*
X24033128Y-56100000D01*
X24042683Y-56061959D01*
X24070013Y-55953153D01*
X24070013Y-55953149D01*
X24071864Y-55945782D01*
X24072746Y-55777374D01*
X24067368Y-55754971D01*
X24035203Y-55620997D01*
X24035202Y-55620995D01*
X24033431Y-55613617D01*
X23956190Y-55463965D01*
X23845481Y-55337057D01*
X23787318Y-55296179D01*
X23713914Y-55244590D01*
X23713912Y-55244589D01*
X23707697Y-55240221D01*
X23550790Y-55179045D01*
X23543257Y-55178053D01*
X23543256Y-55178053D01*
X23426433Y-55162673D01*
X23426432Y-55162673D01*
X23422346Y-55162135D01*
X23334254Y-55162135D01*
X23209291Y-55177257D01*
X23051752Y-55236786D01*
X22912961Y-55332175D01*
X22907909Y-55337845D01*
X22907908Y-55337846D01*
X22805982Y-55452244D01*
X22805980Y-55452247D01*
X22800929Y-55457916D01*
X22797375Y-55464629D01*
X22797374Y-55464630D01*
X22744946Y-55563650D01*
X22722125Y-55606751D01*
X22720275Y-55614116D01*
X22683355Y-55761104D01*
X22681098Y-55770088D01*
X22680216Y-55938496D01*
X18500500Y-55938496D01*
X18500500Y-53405263D01*
X57244520Y-53405263D01*
X57261759Y-53610554D01*
X57318544Y-53808587D01*
X57321359Y-53814064D01*
X57321360Y-53814067D01*
X57342247Y-53854708D01*
X57412712Y-53991819D01*
X57540677Y-54153271D01*
X57697564Y-54286792D01*
X57877398Y-54387298D01*
X57972238Y-54418114D01*
X58067471Y-54449057D01*
X58067475Y-54449058D01*
X58073329Y-54450960D01*
X58277894Y-54475352D01*
X58284029Y-54474880D01*
X58284031Y-54474880D01*
X58340039Y-54470570D01*
X58483300Y-54459547D01*
X58489230Y-54457891D01*
X58489232Y-54457891D01*
X58675797Y-54405801D01*
X58675796Y-54405801D01*
X58681725Y-54404146D01*
X58687214Y-54401373D01*
X58687220Y-54401371D01*
X58860116Y-54314034D01*
X58865610Y-54311259D01*
X59027951Y-54184425D01*
X59162564Y-54028473D01*
X59183387Y-53991819D01*
X59261276Y-53854708D01*
X59264323Y-53849345D01*
X59329351Y-53653864D01*
X59355171Y-53449475D01*
X59355583Y-53420001D01*
X59335480Y-53214971D01*
X59275935Y-53017750D01*
X59179218Y-52835850D01*
X59105859Y-52745903D01*
X59052906Y-52680976D01*
X59052903Y-52680973D01*
X59049011Y-52676201D01*
X59031786Y-52661951D01*
X58895025Y-52548812D01*
X58895021Y-52548810D01*
X58890275Y-52544883D01*
X58709055Y-52446898D01*
X58512254Y-52385978D01*
X58506129Y-52385334D01*
X58506128Y-52385334D01*
X58313498Y-52365088D01*
X58313496Y-52365088D01*
X58307369Y-52364444D01*
X58220529Y-52372347D01*
X58108342Y-52382556D01*
X58108339Y-52382557D01*
X58102203Y-52383115D01*
X57904572Y-52441281D01*
X57722002Y-52536727D01*
X57717201Y-52540587D01*
X57717198Y-52540589D01*
X57706971Y-52548812D01*
X57561447Y-52665816D01*
X57429024Y-52823631D01*
X57426056Y-52829029D01*
X57426053Y-52829034D01*
X57419315Y-52841291D01*
X57329776Y-53004163D01*
X57267484Y-53200533D01*
X57266798Y-53206650D01*
X57266797Y-53206654D01*
X57245207Y-53399138D01*
X57244520Y-53405263D01*
X18500500Y-53405263D01*
X18500500Y-51268763D01*
X28786790Y-51268763D01*
X28826105Y-51432520D01*
X28903346Y-51582172D01*
X29014055Y-51709080D01*
X29027123Y-51718264D01*
X29145622Y-51801547D01*
X29145624Y-51801548D01*
X29151839Y-51805916D01*
X29308746Y-51867092D01*
X29316279Y-51868084D01*
X29316280Y-51868084D01*
X29433103Y-51883464D01*
X29437190Y-51884002D01*
X29525282Y-51884002D01*
X29650245Y-51868880D01*
X29807784Y-51809351D01*
X29946575Y-51713962D01*
X29956026Y-51703355D01*
X30053554Y-51593893D01*
X30053556Y-51593890D01*
X30058607Y-51588221D01*
X30137411Y-51439386D01*
X30178438Y-51276049D01*
X30179320Y-51107641D01*
X30140005Y-50943884D01*
X30062764Y-50794232D01*
X29952055Y-50667324D01*
X29830593Y-50581959D01*
X29820488Y-50574857D01*
X29820486Y-50574856D01*
X29814271Y-50570488D01*
X29657364Y-50509312D01*
X29649831Y-50508320D01*
X29649830Y-50508320D01*
X29533007Y-50492940D01*
X29533006Y-50492940D01*
X29528920Y-50492402D01*
X29440828Y-50492402D01*
X29315865Y-50507524D01*
X29158326Y-50567053D01*
X29152068Y-50571354D01*
X29079189Y-50621443D01*
X29019535Y-50662442D01*
X29014483Y-50668112D01*
X29014482Y-50668113D01*
X28912556Y-50782511D01*
X28912554Y-50782514D01*
X28907503Y-50788183D01*
X28903949Y-50794896D01*
X28903948Y-50794897D01*
X28864579Y-50869253D01*
X28828699Y-50937018D01*
X28787672Y-51100355D01*
X28786790Y-51268763D01*
X18500500Y-51268763D01*
X18500500Y-50440000D01*
X21389196Y-50440000D01*
X21390747Y-50449793D01*
X21404411Y-50536061D01*
X21410281Y-50573126D01*
X21471472Y-50693220D01*
X21566780Y-50788528D01*
X21686874Y-50849719D01*
X21696663Y-50851269D01*
X21696665Y-50851270D01*
X21810207Y-50869253D01*
X21820000Y-50870804D01*
X21829793Y-50869253D01*
X21943335Y-50851270D01*
X21943337Y-50851269D01*
X21953126Y-50849719D01*
X22073220Y-50788528D01*
X22168528Y-50693220D01*
X22229719Y-50573126D01*
X22235590Y-50536061D01*
X22242925Y-50489748D01*
X57249500Y-50489748D01*
X57250707Y-50495816D01*
X57253941Y-50512072D01*
X57261133Y-50548231D01*
X57305448Y-50614552D01*
X57371769Y-50658867D01*
X57383938Y-50661288D01*
X57383939Y-50661288D01*
X57414285Y-50667324D01*
X57430252Y-50670500D01*
X59169748Y-50670500D01*
X59185715Y-50667324D01*
X59216061Y-50661288D01*
X59216062Y-50661288D01*
X59228231Y-50658867D01*
X59294552Y-50614552D01*
X59338867Y-50548231D01*
X59346060Y-50512072D01*
X59349293Y-50495816D01*
X59350500Y-50489748D01*
X59350500Y-48750252D01*
X59338867Y-48691769D01*
X59294552Y-48625448D01*
X59228231Y-48581133D01*
X59216062Y-48578712D01*
X59216061Y-48578712D01*
X59175816Y-48570707D01*
X59169748Y-48569500D01*
X57430252Y-48569500D01*
X57424184Y-48570707D01*
X57383939Y-48578712D01*
X57383938Y-48578712D01*
X57371769Y-48581133D01*
X57305448Y-48625448D01*
X57261133Y-48691769D01*
X57249500Y-48750252D01*
X57249500Y-50489748D01*
X22242925Y-50489748D01*
X22249253Y-50449793D01*
X22250804Y-50440000D01*
X22229719Y-50306874D01*
X22168528Y-50186780D01*
X22073220Y-50091472D01*
X21953126Y-50030281D01*
X21943337Y-50028731D01*
X21943335Y-50028730D01*
X21829793Y-50010747D01*
X21820000Y-50009196D01*
X21810207Y-50010747D01*
X21696665Y-50028730D01*
X21696663Y-50028731D01*
X21686874Y-50030281D01*
X21566780Y-50091472D01*
X21471472Y-50186780D01*
X21410281Y-50306874D01*
X21389196Y-50440000D01*
X18500500Y-50440000D01*
X18500500Y-47600000D01*
X25319196Y-47600000D01*
X25320747Y-47609793D01*
X25333209Y-47688472D01*
X25340281Y-47733126D01*
X25401472Y-47853220D01*
X25496780Y-47948528D01*
X25616874Y-48009719D01*
X25626663Y-48011269D01*
X25626665Y-48011270D01*
X25740207Y-48029253D01*
X25750000Y-48030804D01*
X25759793Y-48029253D01*
X25873335Y-48011270D01*
X25873337Y-48011269D01*
X25883126Y-48009719D01*
X26003220Y-47948528D01*
X26098528Y-47853220D01*
X26159719Y-47733126D01*
X26166792Y-47688472D01*
X26179253Y-47609793D01*
X26180804Y-47600000D01*
X26159719Y-47466874D01*
X26098528Y-47346780D01*
X26003220Y-47251472D01*
X25883126Y-47190281D01*
X25873337Y-47188731D01*
X25873335Y-47188730D01*
X25759793Y-47170747D01*
X25750000Y-47169196D01*
X25740207Y-47170747D01*
X25626665Y-47188730D01*
X25626663Y-47188731D01*
X25616874Y-47190281D01*
X25496780Y-47251472D01*
X25401472Y-47346780D01*
X25340281Y-47466874D01*
X25319196Y-47600000D01*
X18500500Y-47600000D01*
X18500500Y-47065262D01*
X57244520Y-47065262D01*
X57245036Y-47071406D01*
X57260157Y-47251472D01*
X57261759Y-47270553D01*
X57318544Y-47468586D01*
X57321359Y-47474063D01*
X57321360Y-47474066D01*
X57342247Y-47514707D01*
X57412712Y-47651818D01*
X57540677Y-47813270D01*
X57545370Y-47817264D01*
X57545371Y-47817265D01*
X57577241Y-47844388D01*
X57697564Y-47946791D01*
X57702942Y-47949797D01*
X57702944Y-47949798D01*
X57734563Y-47967469D01*
X57877398Y-48047297D01*
X57972238Y-48078113D01*
X58067471Y-48109056D01*
X58067475Y-48109057D01*
X58073329Y-48110959D01*
X58277894Y-48135351D01*
X58284029Y-48134879D01*
X58284031Y-48134879D01*
X58340039Y-48130569D01*
X58483300Y-48119546D01*
X58489230Y-48117890D01*
X58489232Y-48117890D01*
X58675797Y-48065800D01*
X58675796Y-48065800D01*
X58681725Y-48064145D01*
X58687214Y-48061372D01*
X58687220Y-48061370D01*
X58860116Y-47974033D01*
X58865610Y-47971258D01*
X58888944Y-47953028D01*
X59007719Y-47860231D01*
X59027951Y-47844424D01*
X59162564Y-47688472D01*
X59183387Y-47651818D01*
X59261276Y-47514707D01*
X59264323Y-47509344D01*
X59329351Y-47313863D01*
X59355171Y-47109474D01*
X59355583Y-47080000D01*
X59335480Y-46874970D01*
X59275935Y-46677749D01*
X59179218Y-46495849D01*
X59105859Y-46405902D01*
X59052906Y-46340975D01*
X59052903Y-46340972D01*
X59049011Y-46336200D01*
X59031786Y-46321950D01*
X58895025Y-46208811D01*
X58895021Y-46208809D01*
X58890275Y-46204882D01*
X58709055Y-46106897D01*
X58512254Y-46045977D01*
X58506129Y-46045333D01*
X58506128Y-46045333D01*
X58313498Y-46025087D01*
X58313496Y-46025087D01*
X58307369Y-46024443D01*
X58220529Y-46032346D01*
X58108342Y-46042555D01*
X58108339Y-46042556D01*
X58102203Y-46043114D01*
X57904572Y-46101280D01*
X57722002Y-46196726D01*
X57717201Y-46200586D01*
X57717198Y-46200588D01*
X57566254Y-46321950D01*
X57561447Y-46325815D01*
X57429024Y-46483630D01*
X57426056Y-46489028D01*
X57426053Y-46489033D01*
X57367912Y-46594793D01*
X57329776Y-46664162D01*
X57267484Y-46860532D01*
X57266798Y-46866649D01*
X57266797Y-46866653D01*
X57245207Y-47059137D01*
X57244520Y-47065262D01*
X18500500Y-47065262D01*
X18500500Y-46585000D01*
X34129196Y-46585000D01*
X34150281Y-46718126D01*
X34211472Y-46838220D01*
X34306780Y-46933528D01*
X34426874Y-46994719D01*
X34436663Y-46996269D01*
X34436665Y-46996270D01*
X34550207Y-47014253D01*
X34560000Y-47015804D01*
X34569793Y-47014253D01*
X34683335Y-46996270D01*
X34683337Y-46996269D01*
X34693126Y-46994719D01*
X34813220Y-46933528D01*
X34908528Y-46838220D01*
X34969719Y-46718126D01*
X34990804Y-46585000D01*
X34976684Y-46495849D01*
X34971270Y-46461665D01*
X34971269Y-46461663D01*
X34969719Y-46451874D01*
X34908528Y-46331780D01*
X34908793Y-46331645D01*
X34887134Y-46270949D01*
X34903211Y-46201796D01*
X34904576Y-46199672D01*
X34908528Y-46195720D01*
X34969719Y-46075626D01*
X34974127Y-46047799D01*
X34989253Y-45952293D01*
X34990804Y-45942500D01*
X34969719Y-45809374D01*
X34908528Y-45689280D01*
X34908793Y-45689145D01*
X34887134Y-45628449D01*
X34903211Y-45559296D01*
X34904576Y-45557172D01*
X34908528Y-45553220D01*
X34969719Y-45433126D01*
X34974523Y-45402798D01*
X34989253Y-45309793D01*
X34990804Y-45300000D01*
X34969719Y-45166874D01*
X34908528Y-45046780D01*
X34908793Y-45046645D01*
X34887134Y-44985949D01*
X34903211Y-44916796D01*
X34904576Y-44914672D01*
X34908528Y-44910720D01*
X34969719Y-44790626D01*
X34980207Y-44724411D01*
X34989253Y-44667293D01*
X34990804Y-44657500D01*
X34969860Y-44525262D01*
X57244520Y-44525262D01*
X57261759Y-44730553D01*
X57263458Y-44736478D01*
X57313460Y-44910855D01*
X57318544Y-44928586D01*
X57321359Y-44934063D01*
X57321360Y-44934066D01*
X57383828Y-45055616D01*
X57412712Y-45111818D01*
X57540677Y-45273270D01*
X57697564Y-45406791D01*
X57702942Y-45409797D01*
X57702944Y-45409798D01*
X57787481Y-45457044D01*
X57877398Y-45507297D01*
X57972238Y-45538113D01*
X58067471Y-45569056D01*
X58067475Y-45569057D01*
X58073329Y-45570959D01*
X58277894Y-45595351D01*
X58284029Y-45594879D01*
X58284031Y-45594879D01*
X58340039Y-45590569D01*
X58483300Y-45579546D01*
X58489230Y-45577890D01*
X58489232Y-45577890D01*
X58675797Y-45525800D01*
X58675796Y-45525800D01*
X58681725Y-45524145D01*
X58687214Y-45521372D01*
X58687220Y-45521370D01*
X58819952Y-45454322D01*
X58865610Y-45431258D01*
X59027951Y-45304424D01*
X59162564Y-45148472D01*
X59183387Y-45111818D01*
X59254890Y-44985949D01*
X59264323Y-44969344D01*
X59329351Y-44773863D01*
X59355171Y-44569474D01*
X59355583Y-44540000D01*
X59335480Y-44334970D01*
X59275935Y-44137749D01*
X59179218Y-43955849D01*
X59105859Y-43865902D01*
X59052906Y-43800975D01*
X59052903Y-43800972D01*
X59049011Y-43796200D01*
X59031786Y-43781950D01*
X58895025Y-43668811D01*
X58895021Y-43668809D01*
X58890275Y-43664882D01*
X58709055Y-43566897D01*
X58512254Y-43505977D01*
X58506129Y-43505333D01*
X58506128Y-43505333D01*
X58313498Y-43485087D01*
X58313496Y-43485087D01*
X58307369Y-43484443D01*
X58220529Y-43492346D01*
X58108342Y-43502555D01*
X58108339Y-43502556D01*
X58102203Y-43503114D01*
X57904572Y-43561280D01*
X57722002Y-43656726D01*
X57717201Y-43660586D01*
X57717198Y-43660588D01*
X57580356Y-43770612D01*
X57561447Y-43785815D01*
X57429024Y-43943630D01*
X57426056Y-43949028D01*
X57426053Y-43949033D01*
X57389788Y-44015000D01*
X57329776Y-44124162D01*
X57267484Y-44320532D01*
X57266798Y-44326649D01*
X57266797Y-44326653D01*
X57245610Y-44515541D01*
X57244520Y-44525262D01*
X34969860Y-44525262D01*
X34969719Y-44524374D01*
X34908528Y-44404280D01*
X34908793Y-44404145D01*
X34887134Y-44343449D01*
X34903211Y-44274296D01*
X34904576Y-44272172D01*
X34908528Y-44268220D01*
X34969719Y-44148126D01*
X34972585Y-44130035D01*
X34989253Y-44024793D01*
X34990804Y-44015000D01*
X34982297Y-43961290D01*
X34971270Y-43891665D01*
X34971269Y-43891663D01*
X34969719Y-43881874D01*
X34908528Y-43761780D01*
X34813220Y-43666472D01*
X34693126Y-43605281D01*
X34683337Y-43603731D01*
X34683335Y-43603730D01*
X34569793Y-43585747D01*
X34560000Y-43584196D01*
X34550207Y-43585747D01*
X34436665Y-43603730D01*
X34436663Y-43603731D01*
X34426874Y-43605281D01*
X34306780Y-43666472D01*
X34211472Y-43761780D01*
X34150281Y-43881874D01*
X34148731Y-43891663D01*
X34148730Y-43891665D01*
X34137703Y-43961290D01*
X34129196Y-44015000D01*
X34130747Y-44024793D01*
X34147416Y-44130035D01*
X34150281Y-44148126D01*
X34210426Y-44266167D01*
X34211472Y-44268220D01*
X34211207Y-44268355D01*
X34232866Y-44329051D01*
X34216789Y-44398204D01*
X34215424Y-44400328D01*
X34211472Y-44404280D01*
X34150281Y-44524374D01*
X34129196Y-44657500D01*
X34130747Y-44667293D01*
X34139794Y-44724411D01*
X34150281Y-44790626D01*
X34210426Y-44908667D01*
X34211472Y-44910720D01*
X34211207Y-44910855D01*
X34232866Y-44971551D01*
X34216789Y-45040704D01*
X34215424Y-45042828D01*
X34211472Y-45046780D01*
X34150281Y-45166874D01*
X34129196Y-45300000D01*
X34130747Y-45309793D01*
X34145478Y-45402798D01*
X34150281Y-45433126D01*
X34210426Y-45551167D01*
X34211472Y-45553220D01*
X34211207Y-45553355D01*
X34232866Y-45614051D01*
X34216789Y-45683204D01*
X34215424Y-45685328D01*
X34211472Y-45689280D01*
X34150281Y-45809374D01*
X34129196Y-45942500D01*
X34130747Y-45952293D01*
X34145874Y-46047799D01*
X34150281Y-46075626D01*
X34210426Y-46193667D01*
X34211472Y-46195720D01*
X34211207Y-46195855D01*
X34232866Y-46256551D01*
X34216789Y-46325704D01*
X34215424Y-46327828D01*
X34211472Y-46331780D01*
X34150281Y-46451874D01*
X34148731Y-46461663D01*
X34148730Y-46461665D01*
X34143316Y-46495849D01*
X34129196Y-46585000D01*
X18500500Y-46585000D01*
X18500500Y-44560000D01*
X19549196Y-44560000D01*
X19550747Y-44569793D01*
X19551252Y-44572978D01*
X19570281Y-44693126D01*
X19631472Y-44813220D01*
X19726780Y-44908528D01*
X19846874Y-44969719D01*
X19856663Y-44971269D01*
X19856665Y-44971270D01*
X19970207Y-44989253D01*
X19980000Y-44990804D01*
X19989793Y-44989253D01*
X20103335Y-44971270D01*
X20103337Y-44971269D01*
X20113126Y-44969719D01*
X20233220Y-44908528D01*
X20328528Y-44813220D01*
X20389719Y-44693126D01*
X20408749Y-44572978D01*
X20409253Y-44569793D01*
X20410804Y-44560000D01*
X20405302Y-44525262D01*
X20391270Y-44436665D01*
X20391269Y-44436663D01*
X20389719Y-44426874D01*
X20328528Y-44306780D01*
X20233220Y-44211472D01*
X20113126Y-44150281D01*
X20103337Y-44148731D01*
X20103335Y-44148730D01*
X19989793Y-44130747D01*
X19980000Y-44129196D01*
X19970207Y-44130747D01*
X19856665Y-44148730D01*
X19856663Y-44148731D01*
X19846874Y-44150281D01*
X19726780Y-44211472D01*
X19631472Y-44306780D01*
X19570281Y-44426874D01*
X19568731Y-44436663D01*
X19568730Y-44436665D01*
X19554698Y-44525262D01*
X19549196Y-44560000D01*
X18500500Y-44560000D01*
X18500500Y-41985262D01*
X57244520Y-41985262D01*
X57261759Y-42190553D01*
X57318544Y-42388586D01*
X57321359Y-42394063D01*
X57321360Y-42394066D01*
X57342247Y-42434707D01*
X57412712Y-42571818D01*
X57540677Y-42733270D01*
X57697564Y-42866791D01*
X57877398Y-42967297D01*
X57972238Y-42998113D01*
X58067471Y-43029056D01*
X58067475Y-43029057D01*
X58073329Y-43030959D01*
X58277894Y-43055351D01*
X58284029Y-43054879D01*
X58284031Y-43054879D01*
X58340039Y-43050569D01*
X58483300Y-43039546D01*
X58489230Y-43037890D01*
X58489232Y-43037890D01*
X58675797Y-42985800D01*
X58675796Y-42985800D01*
X58681725Y-42984145D01*
X58687214Y-42981372D01*
X58687220Y-42981370D01*
X58860116Y-42894033D01*
X58865610Y-42891258D01*
X59027951Y-42764424D01*
X59162564Y-42608472D01*
X59183387Y-42571818D01*
X59261276Y-42434707D01*
X59264323Y-42429344D01*
X59329351Y-42233863D01*
X59355171Y-42029474D01*
X59355583Y-42000000D01*
X59335480Y-41794970D01*
X59275935Y-41597749D01*
X59179218Y-41415849D01*
X59105859Y-41325902D01*
X59052906Y-41260975D01*
X59052903Y-41260972D01*
X59049011Y-41256200D01*
X59031786Y-41241950D01*
X58895025Y-41128811D01*
X58895021Y-41128809D01*
X58890275Y-41124882D01*
X58709055Y-41026897D01*
X58512254Y-40965977D01*
X58506129Y-40965333D01*
X58506128Y-40965333D01*
X58313498Y-40945087D01*
X58313496Y-40945087D01*
X58307369Y-40944443D01*
X58220529Y-40952346D01*
X58108342Y-40962555D01*
X58108339Y-40962556D01*
X58102203Y-40963114D01*
X57904572Y-41021280D01*
X57722002Y-41116726D01*
X57717201Y-41120586D01*
X57717198Y-41120588D01*
X57706971Y-41128811D01*
X57561447Y-41245815D01*
X57429024Y-41403630D01*
X57426056Y-41409028D01*
X57426053Y-41409033D01*
X57419315Y-41421290D01*
X57329776Y-41584162D01*
X57267484Y-41780532D01*
X57266798Y-41786649D01*
X57266797Y-41786653D01*
X57245207Y-41979137D01*
X57244520Y-41985262D01*
X18500500Y-41985262D01*
X18500500Y-39445262D01*
X57244520Y-39445262D01*
X57261759Y-39650553D01*
X57318544Y-39848586D01*
X57321359Y-39854063D01*
X57321360Y-39854066D01*
X57342247Y-39894707D01*
X57412712Y-40031818D01*
X57540677Y-40193270D01*
X57697564Y-40326791D01*
X57877398Y-40427297D01*
X57972238Y-40458113D01*
X58067471Y-40489056D01*
X58067475Y-40489057D01*
X58073329Y-40490959D01*
X58277894Y-40515351D01*
X58284029Y-40514879D01*
X58284031Y-40514879D01*
X58340039Y-40510569D01*
X58483300Y-40499546D01*
X58489230Y-40497890D01*
X58489232Y-40497890D01*
X58675797Y-40445800D01*
X58675796Y-40445800D01*
X58681725Y-40444145D01*
X58687214Y-40441372D01*
X58687220Y-40441370D01*
X58860116Y-40354033D01*
X58865610Y-40351258D01*
X59027951Y-40224424D01*
X59162564Y-40068472D01*
X59183387Y-40031818D01*
X59261276Y-39894707D01*
X59264323Y-39889344D01*
X59329351Y-39693863D01*
X59355171Y-39489474D01*
X59355583Y-39460000D01*
X59335480Y-39254970D01*
X59275935Y-39057749D01*
X59179218Y-38875849D01*
X59105859Y-38785902D01*
X59052906Y-38720975D01*
X59052903Y-38720972D01*
X59049011Y-38716200D01*
X59031786Y-38701950D01*
X58895025Y-38588811D01*
X58895021Y-38588809D01*
X58890275Y-38584882D01*
X58709055Y-38486897D01*
X58512254Y-38425977D01*
X58506129Y-38425333D01*
X58506128Y-38425333D01*
X58313498Y-38405087D01*
X58313496Y-38405087D01*
X58307369Y-38404443D01*
X58220529Y-38412346D01*
X58108342Y-38422555D01*
X58108339Y-38422556D01*
X58102203Y-38423114D01*
X57904572Y-38481280D01*
X57722002Y-38576726D01*
X57717201Y-38580586D01*
X57717198Y-38580588D01*
X57659539Y-38626947D01*
X57561447Y-38705815D01*
X57429024Y-38863630D01*
X57426056Y-38869028D01*
X57426053Y-38869033D01*
X57419315Y-38881290D01*
X57329776Y-39044162D01*
X57267484Y-39240532D01*
X57266798Y-39246649D01*
X57266797Y-39246653D01*
X57245207Y-39439137D01*
X57244520Y-39445262D01*
X18500500Y-39445262D01*
X18500500Y-36496866D01*
X24350983Y-36496866D01*
X24351253Y-36500985D01*
X24369325Y-36776704D01*
X24369849Y-36784705D01*
X24370653Y-36788745D01*
X24370653Y-36788748D01*
X24409545Y-36984269D01*
X24426124Y-37067619D01*
X24427450Y-37071525D01*
X24427451Y-37071529D01*
X24459845Y-37166957D01*
X24518846Y-37340768D01*
X24520667Y-37344461D01*
X24520668Y-37344463D01*
X24609653Y-37524906D01*
X24646427Y-37599477D01*
X24648721Y-37602910D01*
X24781740Y-37801987D01*
X24806685Y-37839320D01*
X24809399Y-37842414D01*
X24809403Y-37842420D01*
X24994169Y-38053104D01*
X24996878Y-38056193D01*
X24999967Y-38058902D01*
X25210651Y-38243668D01*
X25210657Y-38243672D01*
X25213751Y-38246386D01*
X25217177Y-38248675D01*
X25217182Y-38248679D01*
X25396772Y-38368677D01*
X25453594Y-38406644D01*
X25457293Y-38408468D01*
X25457298Y-38408471D01*
X25708608Y-38532403D01*
X25712303Y-38534225D01*
X25716201Y-38535548D01*
X25716203Y-38535549D01*
X25981542Y-38625620D01*
X25981546Y-38625621D01*
X25985452Y-38626947D01*
X25989496Y-38627751D01*
X25989502Y-38627753D01*
X26264323Y-38682418D01*
X26264326Y-38682418D01*
X26268366Y-38683222D01*
X26272477Y-38683491D01*
X26272481Y-38683492D01*
X26552086Y-38701818D01*
X26556205Y-38702088D01*
X26560324Y-38701818D01*
X26839929Y-38683492D01*
X26839933Y-38683491D01*
X26844044Y-38683222D01*
X26848084Y-38682418D01*
X26848087Y-38682418D01*
X27122908Y-38627753D01*
X27122914Y-38627751D01*
X27126958Y-38626947D01*
X27130864Y-38625621D01*
X27130868Y-38625620D01*
X27396207Y-38535549D01*
X27396209Y-38535548D01*
X27400107Y-38534225D01*
X27403802Y-38532403D01*
X27655112Y-38408471D01*
X27655117Y-38408468D01*
X27658816Y-38406644D01*
X27715638Y-38368677D01*
X27895228Y-38248679D01*
X27895233Y-38248675D01*
X27898659Y-38246386D01*
X27901753Y-38243672D01*
X27901759Y-38243668D01*
X28112443Y-38058902D01*
X28115532Y-38056193D01*
X28118241Y-38053104D01*
X28303007Y-37842420D01*
X28303011Y-37842414D01*
X28305725Y-37839320D01*
X28330671Y-37801987D01*
X28454532Y-37616614D01*
X32515705Y-37616614D01*
X32527338Y-37675097D01*
X32571653Y-37741418D01*
X32637974Y-37785733D01*
X32650143Y-37788154D01*
X32650144Y-37788154D01*
X32690389Y-37796159D01*
X32696457Y-37797366D01*
X34335953Y-37797366D01*
X34342021Y-37796159D01*
X34382266Y-37788154D01*
X34382267Y-37788154D01*
X34394436Y-37785733D01*
X34460757Y-37741418D01*
X34505072Y-37675097D01*
X34516705Y-37616614D01*
X34516705Y-36782829D01*
X35280962Y-36782829D01*
X35297380Y-36978349D01*
X35351463Y-37166957D01*
X35354281Y-37172440D01*
X35438328Y-37335979D01*
X35438331Y-37335983D01*
X35441149Y-37341467D01*
X35563023Y-37495235D01*
X35567716Y-37499229D01*
X35567717Y-37499230D01*
X35698374Y-37610427D01*
X35712443Y-37622401D01*
X35717821Y-37625407D01*
X35717823Y-37625408D01*
X35754137Y-37645703D01*
X35883718Y-37718123D01*
X36070323Y-37778755D01*
X36265151Y-37801987D01*
X36271286Y-37801515D01*
X36271288Y-37801515D01*
X36454639Y-37787407D01*
X36454643Y-37787406D01*
X36460781Y-37786934D01*
X36649761Y-37734169D01*
X36824894Y-37645703D01*
X36854720Y-37622401D01*
X36974658Y-37528695D01*
X36979508Y-37524906D01*
X37009289Y-37490405D01*
X37103690Y-37381039D01*
X37103690Y-37381038D01*
X37107714Y-37376377D01*
X37204630Y-37205775D01*
X37266563Y-37019598D01*
X37291154Y-36824937D01*
X37291546Y-36796866D01*
X37290170Y-36782829D01*
X40820962Y-36782829D01*
X40837380Y-36978349D01*
X40891463Y-37166957D01*
X40894281Y-37172440D01*
X40978328Y-37335979D01*
X40978331Y-37335983D01*
X40981149Y-37341467D01*
X41103023Y-37495235D01*
X41107716Y-37499229D01*
X41107717Y-37499230D01*
X41238374Y-37610427D01*
X41252443Y-37622401D01*
X41257821Y-37625407D01*
X41257823Y-37625408D01*
X41294137Y-37645703D01*
X41423718Y-37718123D01*
X41610323Y-37778755D01*
X41805151Y-37801987D01*
X41811286Y-37801515D01*
X41811288Y-37801515D01*
X41994639Y-37787407D01*
X41994643Y-37787406D01*
X42000781Y-37786934D01*
X42189761Y-37734169D01*
X42364894Y-37645703D01*
X42394720Y-37622401D01*
X42514658Y-37528695D01*
X42519508Y-37524906D01*
X42549289Y-37490405D01*
X42643690Y-37381039D01*
X42643690Y-37381038D01*
X42647714Y-37376377D01*
X42744630Y-37205775D01*
X42806563Y-37019598D01*
X42831154Y-36824937D01*
X42831546Y-36796866D01*
X42830170Y-36782829D01*
X43590962Y-36782829D01*
X43607380Y-36978349D01*
X43661463Y-37166957D01*
X43664281Y-37172440D01*
X43748328Y-37335979D01*
X43748331Y-37335983D01*
X43751149Y-37341467D01*
X43873023Y-37495235D01*
X43877716Y-37499229D01*
X43877717Y-37499230D01*
X44008374Y-37610427D01*
X44022443Y-37622401D01*
X44027821Y-37625407D01*
X44027823Y-37625408D01*
X44064137Y-37645703D01*
X44193718Y-37718123D01*
X44380323Y-37778755D01*
X44575151Y-37801987D01*
X44581286Y-37801515D01*
X44581288Y-37801515D01*
X44764639Y-37787407D01*
X44764643Y-37787406D01*
X44770781Y-37786934D01*
X44959761Y-37734169D01*
X45134894Y-37645703D01*
X45164720Y-37622401D01*
X45284658Y-37528695D01*
X45289508Y-37524906D01*
X45319289Y-37490405D01*
X45413690Y-37381039D01*
X45413690Y-37381038D01*
X45417714Y-37376377D01*
X45514630Y-37205775D01*
X45576563Y-37019598D01*
X45601154Y-36824937D01*
X45601546Y-36796866D01*
X45582399Y-36601594D01*
X45580618Y-36595695D01*
X45580617Y-36595690D01*
X45550780Y-36496866D01*
X49350983Y-36496866D01*
X49351253Y-36500985D01*
X49369325Y-36776704D01*
X49369849Y-36784705D01*
X49370653Y-36788745D01*
X49370653Y-36788748D01*
X49409545Y-36984269D01*
X49426124Y-37067619D01*
X49427450Y-37071525D01*
X49427451Y-37071529D01*
X49459845Y-37166957D01*
X49518846Y-37340768D01*
X49520667Y-37344461D01*
X49520668Y-37344463D01*
X49609653Y-37524906D01*
X49646427Y-37599477D01*
X49648721Y-37602910D01*
X49781740Y-37801987D01*
X49806685Y-37839320D01*
X49809399Y-37842414D01*
X49809403Y-37842420D01*
X49994169Y-38053104D01*
X49996878Y-38056193D01*
X49999967Y-38058902D01*
X50210651Y-38243668D01*
X50210657Y-38243672D01*
X50213751Y-38246386D01*
X50217177Y-38248675D01*
X50217182Y-38248679D01*
X50396772Y-38368677D01*
X50453594Y-38406644D01*
X50457293Y-38408468D01*
X50457298Y-38408471D01*
X50708608Y-38532403D01*
X50712303Y-38534225D01*
X50716201Y-38535548D01*
X50716203Y-38535549D01*
X50981542Y-38625620D01*
X50981546Y-38625621D01*
X50985452Y-38626947D01*
X50989496Y-38627751D01*
X50989502Y-38627753D01*
X51264323Y-38682418D01*
X51264326Y-38682418D01*
X51268366Y-38683222D01*
X51272477Y-38683491D01*
X51272481Y-38683492D01*
X51552086Y-38701818D01*
X51556205Y-38702088D01*
X51560324Y-38701818D01*
X51839929Y-38683492D01*
X51839933Y-38683491D01*
X51844044Y-38683222D01*
X51848084Y-38682418D01*
X51848087Y-38682418D01*
X52122908Y-38627753D01*
X52122914Y-38627751D01*
X52126958Y-38626947D01*
X52130864Y-38625621D01*
X52130868Y-38625620D01*
X52396207Y-38535549D01*
X52396209Y-38535548D01*
X52400107Y-38534225D01*
X52403802Y-38532403D01*
X52655112Y-38408471D01*
X52655117Y-38408468D01*
X52658816Y-38406644D01*
X52715638Y-38368677D01*
X52895228Y-38248679D01*
X52895233Y-38248675D01*
X52898659Y-38246386D01*
X52901753Y-38243672D01*
X52901759Y-38243668D01*
X53112443Y-38058902D01*
X53115532Y-38056193D01*
X53118241Y-38053104D01*
X53303007Y-37842420D01*
X53303011Y-37842414D01*
X53305725Y-37839320D01*
X53330671Y-37801987D01*
X53463689Y-37602910D01*
X53465983Y-37599477D01*
X53502758Y-37524906D01*
X53591742Y-37344463D01*
X53591743Y-37344461D01*
X53593564Y-37340768D01*
X53652565Y-37166957D01*
X53684959Y-37071529D01*
X53684960Y-37071525D01*
X53686286Y-37067619D01*
X53702866Y-36984269D01*
X53741757Y-36788748D01*
X53741757Y-36788745D01*
X53742561Y-36784705D01*
X53743086Y-36776704D01*
X53761157Y-36500985D01*
X53761427Y-36496866D01*
X53755623Y-36408318D01*
X53742831Y-36213142D01*
X53742830Y-36213138D01*
X53742561Y-36209027D01*
X53719530Y-36093242D01*
X53687092Y-35930163D01*
X53687090Y-35930157D01*
X53686286Y-35926113D01*
X53666647Y-35868257D01*
X53594888Y-35656864D01*
X53594887Y-35656862D01*
X53593564Y-35652964D01*
X53465983Y-35394255D01*
X53305725Y-35154412D01*
X53303011Y-35151318D01*
X53303007Y-35151312D01*
X53118241Y-34940628D01*
X53115532Y-34937539D01*
X53062912Y-34891392D01*
X52901759Y-34750064D01*
X52901753Y-34750060D01*
X52898659Y-34747346D01*
X52895233Y-34745057D01*
X52895228Y-34745053D01*
X52662249Y-34589382D01*
X52658816Y-34587088D01*
X52655117Y-34585264D01*
X52655112Y-34585261D01*
X52403802Y-34461329D01*
X52403800Y-34461328D01*
X52400107Y-34459507D01*
X52396207Y-34458183D01*
X52130868Y-34368112D01*
X52130864Y-34368111D01*
X52126958Y-34366785D01*
X52122914Y-34365981D01*
X52122908Y-34365979D01*
X51848087Y-34311314D01*
X51848084Y-34311314D01*
X51844044Y-34310510D01*
X51839933Y-34310241D01*
X51839929Y-34310240D01*
X51560324Y-34291914D01*
X51556205Y-34291644D01*
X51552086Y-34291914D01*
X51272481Y-34310240D01*
X51272477Y-34310241D01*
X51268366Y-34310510D01*
X51264326Y-34311314D01*
X51264323Y-34311314D01*
X50989502Y-34365979D01*
X50989496Y-34365981D01*
X50985452Y-34366785D01*
X50981546Y-34368111D01*
X50981542Y-34368112D01*
X50716203Y-34458183D01*
X50712303Y-34459507D01*
X50708610Y-34461328D01*
X50708608Y-34461329D01*
X50457298Y-34585261D01*
X50457293Y-34585264D01*
X50453594Y-34587088D01*
X50450161Y-34589382D01*
X50217182Y-34745053D01*
X50217177Y-34745057D01*
X50213751Y-34747346D01*
X50210657Y-34750060D01*
X50210651Y-34750064D01*
X50049498Y-34891392D01*
X49996878Y-34937539D01*
X49994169Y-34940628D01*
X49809403Y-35151312D01*
X49809399Y-35151318D01*
X49806685Y-35154412D01*
X49646427Y-35394255D01*
X49518846Y-35652964D01*
X49517523Y-35656862D01*
X49517522Y-35656864D01*
X49445764Y-35868257D01*
X49426124Y-35926113D01*
X49425320Y-35930157D01*
X49425318Y-35930163D01*
X49392880Y-36093242D01*
X49369849Y-36209027D01*
X49369580Y-36213138D01*
X49369579Y-36213142D01*
X49356787Y-36408318D01*
X49350983Y-36496866D01*
X45550780Y-36496866D01*
X45527470Y-36419659D01*
X45525689Y-36413760D01*
X45433575Y-36240519D01*
X45309566Y-36088468D01*
X45158385Y-35963401D01*
X44985790Y-35870079D01*
X44892074Y-35841069D01*
X44804244Y-35813881D01*
X44804241Y-35813880D01*
X44798357Y-35812059D01*
X44792232Y-35811415D01*
X44792231Y-35811415D01*
X44609352Y-35792193D01*
X44609351Y-35792193D01*
X44603224Y-35791549D01*
X44480588Y-35802710D01*
X44413964Y-35808773D01*
X44413963Y-35808773D01*
X44407823Y-35809332D01*
X44401909Y-35811073D01*
X44401907Y-35811073D01*
X44285197Y-35845423D01*
X44219598Y-35864730D01*
X44214133Y-35867587D01*
X44051177Y-35952778D01*
X44051173Y-35952781D01*
X44045717Y-35955633D01*
X44040917Y-35959493D01*
X44040916Y-35959493D01*
X44026542Y-35971050D01*
X43892805Y-36078577D01*
X43766685Y-36228882D01*
X43763721Y-36234274D01*
X43763718Y-36234278D01*
X43685018Y-36377433D01*
X43672161Y-36400820D01*
X43612833Y-36587844D01*
X43590962Y-36782829D01*
X42830170Y-36782829D01*
X42812399Y-36601594D01*
X42810618Y-36595695D01*
X42810617Y-36595690D01*
X42757470Y-36419659D01*
X42755689Y-36413760D01*
X42663575Y-36240519D01*
X42539566Y-36088468D01*
X42388385Y-35963401D01*
X42215790Y-35870079D01*
X42122074Y-35841069D01*
X42034244Y-35813881D01*
X42034241Y-35813880D01*
X42028357Y-35812059D01*
X42022232Y-35811415D01*
X42022231Y-35811415D01*
X41839352Y-35792193D01*
X41839351Y-35792193D01*
X41833224Y-35791549D01*
X41710588Y-35802710D01*
X41643964Y-35808773D01*
X41643963Y-35808773D01*
X41637823Y-35809332D01*
X41631909Y-35811073D01*
X41631907Y-35811073D01*
X41515197Y-35845423D01*
X41449598Y-35864730D01*
X41444133Y-35867587D01*
X41281177Y-35952778D01*
X41281173Y-35952781D01*
X41275717Y-35955633D01*
X41270917Y-35959493D01*
X41270916Y-35959493D01*
X41256542Y-35971050D01*
X41122805Y-36078577D01*
X40996685Y-36228882D01*
X40993721Y-36234274D01*
X40993718Y-36234278D01*
X40915018Y-36377433D01*
X40902161Y-36400820D01*
X40842833Y-36587844D01*
X40820962Y-36782829D01*
X37290170Y-36782829D01*
X37272399Y-36601594D01*
X37270618Y-36595695D01*
X37270617Y-36595690D01*
X37217470Y-36419659D01*
X37215689Y-36413760D01*
X37123575Y-36240519D01*
X36999566Y-36088468D01*
X36848385Y-35963401D01*
X36675790Y-35870079D01*
X36582074Y-35841069D01*
X36494244Y-35813881D01*
X36494241Y-35813880D01*
X36488357Y-35812059D01*
X36482232Y-35811415D01*
X36482231Y-35811415D01*
X36299352Y-35792193D01*
X36299351Y-35792193D01*
X36293224Y-35791549D01*
X36170588Y-35802710D01*
X36103964Y-35808773D01*
X36103963Y-35808773D01*
X36097823Y-35809332D01*
X36091909Y-35811073D01*
X36091907Y-35811073D01*
X35975197Y-35845423D01*
X35909598Y-35864730D01*
X35904133Y-35867587D01*
X35741177Y-35952778D01*
X35741173Y-35952781D01*
X35735717Y-35955633D01*
X35730917Y-35959493D01*
X35730916Y-35959493D01*
X35716542Y-35971050D01*
X35582805Y-36078577D01*
X35456685Y-36228882D01*
X35453721Y-36234274D01*
X35453718Y-36234278D01*
X35375018Y-36377433D01*
X35362161Y-36400820D01*
X35302833Y-36587844D01*
X35280962Y-36782829D01*
X34516705Y-36782829D01*
X34516705Y-35977118D01*
X34512431Y-35955633D01*
X34507493Y-35930805D01*
X34507493Y-35930804D01*
X34505072Y-35918635D01*
X34460757Y-35852314D01*
X34394436Y-35807999D01*
X34382267Y-35805578D01*
X34382266Y-35805578D01*
X34342021Y-35797573D01*
X34335953Y-35796366D01*
X32696457Y-35796366D01*
X32690389Y-35797573D01*
X32650144Y-35805578D01*
X32650143Y-35805578D01*
X32637974Y-35807999D01*
X32571653Y-35852314D01*
X32527338Y-35918635D01*
X32524917Y-35930804D01*
X32524917Y-35930805D01*
X32519979Y-35955633D01*
X32515705Y-35977118D01*
X32515705Y-37616614D01*
X28454532Y-37616614D01*
X28463689Y-37602910D01*
X28465983Y-37599477D01*
X28502758Y-37524906D01*
X28591742Y-37344463D01*
X28591743Y-37344461D01*
X28593564Y-37340768D01*
X28652565Y-37166957D01*
X28684959Y-37071529D01*
X28684960Y-37071525D01*
X28686286Y-37067619D01*
X28702866Y-36984269D01*
X28741757Y-36788748D01*
X28741757Y-36788745D01*
X28742561Y-36784705D01*
X28743086Y-36776704D01*
X28761157Y-36500985D01*
X28761427Y-36496866D01*
X28755623Y-36408318D01*
X28742831Y-36213142D01*
X28742830Y-36213138D01*
X28742561Y-36209027D01*
X28719530Y-36093242D01*
X28687092Y-35930163D01*
X28687090Y-35930157D01*
X28686286Y-35926113D01*
X28666647Y-35868257D01*
X28594888Y-35656864D01*
X28594887Y-35656862D01*
X28593564Y-35652964D01*
X28465983Y-35394255D01*
X28305725Y-35154412D01*
X28303011Y-35151318D01*
X28303007Y-35151312D01*
X28118241Y-34940628D01*
X28115532Y-34937539D01*
X28062912Y-34891392D01*
X27901759Y-34750064D01*
X27901753Y-34750060D01*
X27898659Y-34747346D01*
X27895233Y-34745057D01*
X27895228Y-34745053D01*
X27662249Y-34589382D01*
X27658816Y-34587088D01*
X27655117Y-34585264D01*
X27655112Y-34585261D01*
X27403802Y-34461329D01*
X27403800Y-34461328D01*
X27400107Y-34459507D01*
X27396207Y-34458183D01*
X27130868Y-34368112D01*
X27130864Y-34368111D01*
X27126958Y-34366785D01*
X27122914Y-34365981D01*
X27122908Y-34365979D01*
X26848087Y-34311314D01*
X26848084Y-34311314D01*
X26844044Y-34310510D01*
X26839933Y-34310241D01*
X26839929Y-34310240D01*
X26560324Y-34291914D01*
X26556205Y-34291644D01*
X26552086Y-34291914D01*
X26272481Y-34310240D01*
X26272477Y-34310241D01*
X26268366Y-34310510D01*
X26264326Y-34311314D01*
X26264323Y-34311314D01*
X25989502Y-34365979D01*
X25989496Y-34365981D01*
X25985452Y-34366785D01*
X25981546Y-34368111D01*
X25981542Y-34368112D01*
X25716203Y-34458183D01*
X25712303Y-34459507D01*
X25708610Y-34461328D01*
X25708608Y-34461329D01*
X25457298Y-34585261D01*
X25457293Y-34585264D01*
X25453594Y-34587088D01*
X25450161Y-34589382D01*
X25217182Y-34745053D01*
X25217177Y-34745057D01*
X25213751Y-34747346D01*
X25210657Y-34750060D01*
X25210651Y-34750064D01*
X25049498Y-34891392D01*
X24996878Y-34937539D01*
X24994169Y-34940628D01*
X24809403Y-35151312D01*
X24809399Y-35151318D01*
X24806685Y-35154412D01*
X24646427Y-35394255D01*
X24518846Y-35652964D01*
X24517523Y-35656862D01*
X24517522Y-35656864D01*
X24445764Y-35868257D01*
X24426124Y-35926113D01*
X24425320Y-35930157D01*
X24425318Y-35930163D01*
X24392880Y-36093242D01*
X24369849Y-36209027D01*
X24369580Y-36213138D01*
X24369579Y-36213142D01*
X24356787Y-36408318D01*
X24350983Y-36496866D01*
X18500500Y-36496866D01*
X18500500Y-33942829D01*
X33895962Y-33942829D01*
X33912380Y-34138349D01*
X33966463Y-34326957D01*
X33969281Y-34332440D01*
X34053328Y-34495979D01*
X34053331Y-34495983D01*
X34056149Y-34501467D01*
X34178023Y-34655235D01*
X34327443Y-34782401D01*
X34332821Y-34785407D01*
X34332823Y-34785408D01*
X34369137Y-34805703D01*
X34498718Y-34878123D01*
X34685323Y-34938755D01*
X34880151Y-34961987D01*
X34886286Y-34961515D01*
X34886288Y-34961515D01*
X35069639Y-34947407D01*
X35069643Y-34947406D01*
X35075781Y-34946934D01*
X35264761Y-34894169D01*
X35439894Y-34805703D01*
X35469720Y-34782401D01*
X35589658Y-34688695D01*
X35594508Y-34684906D01*
X35624289Y-34650405D01*
X35718690Y-34541039D01*
X35718690Y-34541038D01*
X35722714Y-34536377D01*
X35819630Y-34365775D01*
X35881563Y-34179598D01*
X35906154Y-33984937D01*
X35906546Y-33956866D01*
X35905170Y-33942829D01*
X36665962Y-33942829D01*
X36682380Y-34138349D01*
X36736463Y-34326957D01*
X36739281Y-34332440D01*
X36823328Y-34495979D01*
X36823331Y-34495983D01*
X36826149Y-34501467D01*
X36948023Y-34655235D01*
X37097443Y-34782401D01*
X37102821Y-34785407D01*
X37102823Y-34785408D01*
X37139137Y-34805703D01*
X37268718Y-34878123D01*
X37455323Y-34938755D01*
X37650151Y-34961987D01*
X37656286Y-34961515D01*
X37656288Y-34961515D01*
X37839639Y-34947407D01*
X37839643Y-34947406D01*
X37845781Y-34946934D01*
X38034761Y-34894169D01*
X38209894Y-34805703D01*
X38239720Y-34782401D01*
X38359658Y-34688695D01*
X38364508Y-34684906D01*
X38394289Y-34650405D01*
X38488690Y-34541039D01*
X38488690Y-34541038D01*
X38492714Y-34536377D01*
X38589630Y-34365775D01*
X38651563Y-34179598D01*
X38676154Y-33984937D01*
X38676546Y-33956866D01*
X38675170Y-33942829D01*
X39435962Y-33942829D01*
X39452380Y-34138349D01*
X39506463Y-34326957D01*
X39509281Y-34332440D01*
X39593328Y-34495979D01*
X39593331Y-34495983D01*
X39596149Y-34501467D01*
X39718023Y-34655235D01*
X39867443Y-34782401D01*
X39872821Y-34785407D01*
X39872823Y-34785408D01*
X39909137Y-34805703D01*
X40038718Y-34878123D01*
X40225323Y-34938755D01*
X40420151Y-34961987D01*
X40426286Y-34961515D01*
X40426288Y-34961515D01*
X40609639Y-34947407D01*
X40609643Y-34947406D01*
X40615781Y-34946934D01*
X40804761Y-34894169D01*
X40979894Y-34805703D01*
X41009720Y-34782401D01*
X41129658Y-34688695D01*
X41134508Y-34684906D01*
X41164289Y-34650405D01*
X41258690Y-34541039D01*
X41258690Y-34541038D01*
X41262714Y-34536377D01*
X41359630Y-34365775D01*
X41421563Y-34179598D01*
X41446154Y-33984937D01*
X41446546Y-33956866D01*
X41445170Y-33942829D01*
X42205962Y-33942829D01*
X42222380Y-34138349D01*
X42276463Y-34326957D01*
X42279281Y-34332440D01*
X42363328Y-34495979D01*
X42363331Y-34495983D01*
X42366149Y-34501467D01*
X42488023Y-34655235D01*
X42637443Y-34782401D01*
X42642821Y-34785407D01*
X42642823Y-34785408D01*
X42679137Y-34805703D01*
X42808718Y-34878123D01*
X42995323Y-34938755D01*
X43190151Y-34961987D01*
X43196286Y-34961515D01*
X43196288Y-34961515D01*
X43379639Y-34947407D01*
X43379643Y-34947406D01*
X43385781Y-34946934D01*
X43574761Y-34894169D01*
X43749894Y-34805703D01*
X43779720Y-34782401D01*
X43899658Y-34688695D01*
X43904508Y-34684906D01*
X43934289Y-34650405D01*
X44028690Y-34541039D01*
X44028690Y-34541038D01*
X44032714Y-34536377D01*
X44129630Y-34365775D01*
X44191563Y-34179598D01*
X44216154Y-33984937D01*
X44216546Y-33956866D01*
X44197399Y-33761594D01*
X44195618Y-33755695D01*
X44195617Y-33755690D01*
X44142470Y-33579659D01*
X44140689Y-33573760D01*
X44048575Y-33400519D01*
X43924566Y-33248468D01*
X43773385Y-33123401D01*
X43600790Y-33030079D01*
X43507073Y-33001069D01*
X43419244Y-32973881D01*
X43419241Y-32973880D01*
X43413357Y-32972059D01*
X43407232Y-32971415D01*
X43407231Y-32971415D01*
X43224352Y-32952193D01*
X43224351Y-32952193D01*
X43218224Y-32951549D01*
X43095588Y-32962710D01*
X43028964Y-32968773D01*
X43028963Y-32968773D01*
X43022823Y-32969332D01*
X43016909Y-32971073D01*
X43016907Y-32971073D01*
X42887939Y-33009031D01*
X42834598Y-33024730D01*
X42829133Y-33027587D01*
X42666177Y-33112778D01*
X42666173Y-33112781D01*
X42660717Y-33115633D01*
X42655917Y-33119493D01*
X42655916Y-33119493D01*
X42621531Y-33147139D01*
X42507805Y-33238577D01*
X42381685Y-33388882D01*
X42378721Y-33394274D01*
X42378718Y-33394278D01*
X42300018Y-33537433D01*
X42287161Y-33560820D01*
X42227833Y-33747844D01*
X42205962Y-33942829D01*
X41445170Y-33942829D01*
X41427399Y-33761594D01*
X41425618Y-33755695D01*
X41425617Y-33755690D01*
X41372470Y-33579659D01*
X41370689Y-33573760D01*
X41278575Y-33400519D01*
X41154566Y-33248468D01*
X41003385Y-33123401D01*
X40830790Y-33030079D01*
X40737073Y-33001069D01*
X40649244Y-32973881D01*
X40649241Y-32973880D01*
X40643357Y-32972059D01*
X40637232Y-32971415D01*
X40637231Y-32971415D01*
X40454352Y-32952193D01*
X40454351Y-32952193D01*
X40448224Y-32951549D01*
X40325588Y-32962710D01*
X40258964Y-32968773D01*
X40258963Y-32968773D01*
X40252823Y-32969332D01*
X40246909Y-32971073D01*
X40246907Y-32971073D01*
X40117939Y-33009031D01*
X40064598Y-33024730D01*
X40059133Y-33027587D01*
X39896177Y-33112778D01*
X39896173Y-33112781D01*
X39890717Y-33115633D01*
X39885917Y-33119493D01*
X39885916Y-33119493D01*
X39851531Y-33147139D01*
X39737805Y-33238577D01*
X39611685Y-33388882D01*
X39608721Y-33394274D01*
X39608718Y-33394278D01*
X39530018Y-33537433D01*
X39517161Y-33560820D01*
X39457833Y-33747844D01*
X39435962Y-33942829D01*
X38675170Y-33942829D01*
X38657399Y-33761594D01*
X38655618Y-33755695D01*
X38655617Y-33755690D01*
X38602470Y-33579659D01*
X38600689Y-33573760D01*
X38508575Y-33400519D01*
X38384566Y-33248468D01*
X38233385Y-33123401D01*
X38060790Y-33030079D01*
X37967073Y-33001069D01*
X37879244Y-32973881D01*
X37879241Y-32973880D01*
X37873357Y-32972059D01*
X37867232Y-32971415D01*
X37867231Y-32971415D01*
X37684352Y-32952193D01*
X37684351Y-32952193D01*
X37678224Y-32951549D01*
X37555588Y-32962710D01*
X37488964Y-32968773D01*
X37488963Y-32968773D01*
X37482823Y-32969332D01*
X37476909Y-32971073D01*
X37476907Y-32971073D01*
X37347939Y-33009031D01*
X37294598Y-33024730D01*
X37289133Y-33027587D01*
X37126177Y-33112778D01*
X37126173Y-33112781D01*
X37120717Y-33115633D01*
X37115917Y-33119493D01*
X37115916Y-33119493D01*
X37081531Y-33147139D01*
X36967805Y-33238577D01*
X36841685Y-33388882D01*
X36838721Y-33394274D01*
X36838718Y-33394278D01*
X36760018Y-33537433D01*
X36747161Y-33560820D01*
X36687833Y-33747844D01*
X36665962Y-33942829D01*
X35905170Y-33942829D01*
X35887399Y-33761594D01*
X35885618Y-33755695D01*
X35885617Y-33755690D01*
X35832470Y-33579659D01*
X35830689Y-33573760D01*
X35738575Y-33400519D01*
X35614566Y-33248468D01*
X35463385Y-33123401D01*
X35290790Y-33030079D01*
X35197073Y-33001069D01*
X35109244Y-32973881D01*
X35109241Y-32973880D01*
X35103357Y-32972059D01*
X35097232Y-32971415D01*
X35097231Y-32971415D01*
X34914352Y-32952193D01*
X34914351Y-32952193D01*
X34908224Y-32951549D01*
X34785588Y-32962710D01*
X34718964Y-32968773D01*
X34718963Y-32968773D01*
X34712823Y-32969332D01*
X34706909Y-32971073D01*
X34706907Y-32971073D01*
X34577939Y-33009031D01*
X34524598Y-33024730D01*
X34519133Y-33027587D01*
X34356177Y-33112778D01*
X34356173Y-33112781D01*
X34350717Y-33115633D01*
X34345917Y-33119493D01*
X34345916Y-33119493D01*
X34311531Y-33147139D01*
X34197805Y-33238577D01*
X34071685Y-33388882D01*
X34068721Y-33394274D01*
X34068718Y-33394278D01*
X33990018Y-33537433D01*
X33977161Y-33560820D01*
X33917833Y-33747844D01*
X33895962Y-33942829D01*
X18500500Y-33942829D01*
X18500500Y-32552576D01*
X18502246Y-32531671D01*
X18504689Y-32517148D01*
X18505496Y-32512354D01*
X18505647Y-32500000D01*
X18503622Y-32485859D01*
X18502523Y-32461408D01*
X18516586Y-32193066D01*
X18517964Y-32179949D01*
X18565013Y-31882892D01*
X18567755Y-31869992D01*
X18645598Y-31579478D01*
X18649674Y-31566935D01*
X18757452Y-31286163D01*
X18762816Y-31274114D01*
X18899361Y-31006130D01*
X18905956Y-30994708D01*
X19069760Y-30742472D01*
X19077512Y-30731803D01*
X19091185Y-30714919D01*
X19266782Y-30498074D01*
X19275607Y-30488273D01*
X19488273Y-30275607D01*
X19498074Y-30266782D01*
X19731803Y-30077512D01*
X19742472Y-30069760D01*
X19994708Y-29905956D01*
X20006130Y-29899361D01*
X20274114Y-29762816D01*
X20286163Y-29757452D01*
X20566935Y-29649674D01*
X20579478Y-29645598D01*
X20869992Y-29567755D01*
X20882892Y-29565013D01*
X20964540Y-29552081D01*
X21179955Y-29517963D01*
X21193061Y-29516586D01*
X21457773Y-29502713D01*
X21483751Y-29504041D01*
X21484186Y-29504109D01*
X21484951Y-29504228D01*
X21484953Y-29504228D01*
X21493823Y-29505609D01*
X21502725Y-29504445D01*
X21502728Y-29504445D01*
X21524756Y-29501564D01*
X21541093Y-29500500D01*
X64451259Y-29500500D01*
X64470643Y-29502000D01*
G37*
%TD.AperFunction*%
%TD*%
M02*
