%TF.GenerationSoftware,KiCad,Pcbnew,(6.0.9)*%
%TF.CreationDate,2023-01-07T13:44:11-08:00*%
%TF.ProjectId,gd32-devboard,67643332-2d64-4657-9662-6f6172642e6b,rev?*%
%TF.SameCoordinates,Original*%
%TF.FileFunction,Paste,Top*%
%TF.FilePolarity,Positive*%
%FSLAX46Y46*%
G04 Gerber Fmt 4.6, Leading zero omitted, Abs format (unit mm)*
G04 Created by KiCad (PCBNEW (6.0.9)) date 2023-01-07 13:44:11*
%MOMM*%
%LPD*%
G01*
G04 APERTURE LIST*
G04 Aperture macros list*
%AMRoundRect*
0 Rectangle with rounded corners*
0 $1 Rounding radius*
0 $2 $3 $4 $5 $6 $7 $8 $9 X,Y pos of 4 corners*
0 Add a 4 corners polygon primitive as box body*
4,1,4,$2,$3,$4,$5,$6,$7,$8,$9,$2,$3,0*
0 Add four circle primitives for the rounded corners*
1,1,$1+$1,$2,$3*
1,1,$1+$1,$4,$5*
1,1,$1+$1,$6,$7*
1,1,$1+$1,$8,$9*
0 Add four rect primitives between the rounded corners*
20,1,$1+$1,$2,$3,$4,$5,0*
20,1,$1+$1,$4,$5,$6,$7,0*
20,1,$1+$1,$6,$7,$8,$9,0*
20,1,$1+$1,$8,$9,$2,$3,0*%
G04 Aperture macros list end*
%ADD10C,0.010000*%
%ADD11C,0.001000*%
%ADD12R,0.800000X0.400000*%
%ADD13R,0.400000X0.800000*%
%ADD14R,1.450000X1.450000*%
%ADD15R,0.700000X0.700000*%
%ADD16RoundRect,0.200000X0.275000X-0.200000X0.275000X0.200000X-0.275000X0.200000X-0.275000X-0.200000X0*%
%ADD17RoundRect,0.218750X-0.256250X0.218750X-0.256250X-0.218750X0.256250X-0.218750X0.256250X0.218750X0*%
%ADD18RoundRect,0.200000X0.200000X0.275000X-0.200000X0.275000X-0.200000X-0.275000X0.200000X-0.275000X0*%
%ADD19RoundRect,0.218750X0.218750X0.256250X-0.218750X0.256250X-0.218750X-0.256250X0.218750X-0.256250X0*%
%ADD20RoundRect,0.140000X-0.170000X0.140000X-0.170000X-0.140000X0.170000X-0.140000X0.170000X0.140000X0*%
%ADD21RoundRect,0.140000X0.219203X0.021213X0.021213X0.219203X-0.219203X-0.021213X-0.021213X-0.219203X0*%
%ADD22RoundRect,0.135000X-0.035355X0.226274X-0.226274X0.035355X0.035355X-0.226274X0.226274X-0.035355X0*%
%ADD23RoundRect,0.140000X-0.140000X-0.170000X0.140000X-0.170000X0.140000X0.170000X-0.140000X0.170000X0*%
%ADD24R,1.800000X1.000000*%
%ADD25R,0.800000X2.000000*%
%ADD26RoundRect,0.250000X-0.250000X-0.475000X0.250000X-0.475000X0.250000X0.475000X-0.250000X0.475000X0*%
%ADD27RoundRect,0.140000X0.140000X0.170000X-0.140000X0.170000X-0.140000X-0.170000X0.140000X-0.170000X0*%
%ADD28R,2.000000X1.500000*%
%ADD29RoundRect,0.150000X-0.150000X0.512500X-0.150000X-0.512500X0.150000X-0.512500X0.150000X0.512500X0*%
%ADD30RoundRect,0.140000X0.021213X-0.219203X0.219203X-0.021213X-0.021213X0.219203X-0.219203X0.021213X0*%
%ADD31RoundRect,0.135000X-0.185000X0.135000X-0.185000X-0.135000X0.185000X-0.135000X0.185000X0.135000X0*%
%ADD32RoundRect,0.135000X-0.135000X-0.185000X0.135000X-0.185000X0.135000X0.185000X-0.135000X0.185000X0*%
%ADD33R,2.500000X1.800000*%
%ADD34RoundRect,0.140000X-0.021213X0.219203X-0.219203X0.021213X0.021213X-0.219203X0.219203X-0.021213X0*%
%ADD35RoundRect,0.150000X0.587500X0.150000X-0.587500X0.150000X-0.587500X-0.150000X0.587500X-0.150000X0*%
%ADD36RoundRect,0.135000X-0.226274X-0.035355X-0.035355X-0.226274X0.226274X0.035355X0.035355X0.226274X0*%
%ADD37RoundRect,0.150000X-0.587500X-0.150000X0.587500X-0.150000X0.587500X0.150000X-0.587500X0.150000X0*%
%ADD38RoundRect,0.175000X-0.175000X0.725000X-0.175000X-0.725000X0.175000X-0.725000X0.175000X0.725000X0*%
%ADD39RoundRect,0.200000X-0.200000X0.700000X-0.200000X-0.700000X0.200000X-0.700000X0.200000X0.700000X0*%
%ADD40R,0.762000X0.254000*%
%ADD41R,0.254000X0.762000*%
%ADD42RoundRect,0.140000X0.170000X-0.140000X0.170000X0.140000X-0.170000X0.140000X-0.170000X-0.140000X0*%
%ADD43R,3.050000X2.750000*%
%ADD44R,2.200000X1.200000*%
%ADD45RoundRect,0.135000X0.135000X0.185000X-0.135000X0.185000X-0.135000X-0.185000X0.135000X-0.185000X0*%
%ADD46RoundRect,0.075000X-0.441942X-0.548008X0.548008X0.441942X0.441942X0.548008X-0.548008X-0.441942X0*%
%ADD47RoundRect,0.075000X0.441942X-0.548008X0.548008X-0.441942X-0.441942X0.548008X-0.548008X0.441942X0*%
%ADD48RoundRect,0.135000X0.185000X-0.135000X0.185000X0.135000X-0.185000X0.135000X-0.185000X-0.135000X0*%
%ADD49R,2.400000X2.000000*%
%ADD50RoundRect,0.250000X0.475000X-0.250000X0.475000X0.250000X-0.475000X0.250000X-0.475000X-0.250000X0*%
%ADD51R,0.500000X2.300000*%
%ADD52R,2.000000X2.500000*%
%ADD53RoundRect,0.250000X0.700000X-0.275000X0.700000X0.275000X-0.700000X0.275000X-0.700000X-0.275000X0*%
%ADD54RoundRect,0.147500X0.226274X0.017678X0.017678X0.226274X-0.226274X-0.017678X-0.017678X-0.226274X0*%
%ADD55RoundRect,0.147500X0.147500X0.172500X-0.147500X0.172500X-0.147500X-0.172500X0.147500X-0.172500X0*%
%ADD56RoundRect,0.150000X-0.150000X0.587500X-0.150000X-0.587500X0.150000X-0.587500X0.150000X0.587500X0*%
%ADD57RoundRect,0.150000X-0.825000X-0.150000X0.825000X-0.150000X0.825000X0.150000X-0.825000X0.150000X0*%
%ADD58RoundRect,0.250000X-0.625000X0.312500X-0.625000X-0.312500X0.625000X-0.312500X0.625000X0.312500X0*%
G04 APERTURE END LIST*
%TO.C,U302*%
G36*
X59311204Y-102756204D02*
G01*
X58711204Y-103356204D01*
X57861204Y-103356204D01*
X57861204Y-101906204D01*
X59311204Y-101906204D01*
X59311204Y-102756204D01*
G37*
D10*
X59311204Y-102756204D02*
X58711204Y-103356204D01*
X57861204Y-103356204D01*
X57861204Y-101906204D01*
X59311204Y-101906204D01*
X59311204Y-102756204D01*
%TO.C,AE301*%
G36*
X20754523Y-106114178D02*
G01*
X20485822Y-106382878D01*
X20217122Y-106114178D01*
X20485822Y-105845477D01*
X20754523Y-106114178D01*
G37*
D11*
X20754523Y-106114178D02*
X20485822Y-106382878D01*
X20217122Y-106114178D01*
X20485822Y-105845477D01*
X20754523Y-106114178D01*
G36*
X22402082Y-105965685D02*
G01*
X21765685Y-106602082D01*
X21412132Y-106248528D01*
X22048528Y-105612132D01*
X22402082Y-105965685D01*
G37*
X22402082Y-105965685D02*
X21765685Y-106602082D01*
X21412132Y-106248528D01*
X22048528Y-105612132D01*
X22402082Y-105965685D01*
G36*
X22175807Y-104678751D02*
G01*
X21921249Y-104933310D01*
X21666690Y-104678751D01*
X21921249Y-104424193D01*
X22175807Y-104678751D01*
G37*
X22175807Y-104678751D02*
X21921249Y-104933310D01*
X21666690Y-104678751D01*
X21921249Y-104424193D01*
X22175807Y-104678751D01*
G36*
X20987868Y-104551472D02*
G01*
X20351472Y-105187868D01*
X19997918Y-104834315D01*
X20634315Y-104197918D01*
X20987868Y-104551472D01*
G37*
X20987868Y-104551472D02*
X20351472Y-105187868D01*
X19997918Y-104834315D01*
X20634315Y-104197918D01*
X20987868Y-104551472D01*
%TD*%
D12*
%TO.C,U302*%
X62511204Y-104656204D03*
X62511204Y-103856204D03*
X62511204Y-103056204D03*
X62511204Y-102256204D03*
X62511204Y-101456204D03*
X62511204Y-100656204D03*
X62511204Y-99856204D03*
X62511204Y-99056204D03*
X62511204Y-98256204D03*
X62511204Y-97456204D03*
X62511204Y-96656204D03*
D13*
X61411204Y-95756204D03*
X60611204Y-95756204D03*
X59811204Y-95756204D03*
X59011204Y-95756204D03*
X58211204Y-95756204D03*
X57411204Y-95756204D03*
X56611204Y-95756204D03*
X55811204Y-95756204D03*
X55011204Y-95756204D03*
X54211204Y-95756204D03*
X53411204Y-95756204D03*
X52611204Y-95756204D03*
X51811204Y-95756204D03*
D12*
X50711204Y-96656204D03*
X50711204Y-97456204D03*
X50711204Y-98256204D03*
X50711204Y-99056204D03*
X50711204Y-99856204D03*
X50711204Y-100656204D03*
X50711204Y-101456204D03*
X50711204Y-102256204D03*
X50711204Y-103056204D03*
X50711204Y-103856204D03*
X50711204Y-104656204D03*
D13*
X51811204Y-105556204D03*
X52611204Y-105556204D03*
X53411204Y-105556204D03*
X54211204Y-105556204D03*
X55011204Y-105556204D03*
X55811204Y-105556204D03*
X56611204Y-105556204D03*
X57411204Y-105556204D03*
X58211204Y-105556204D03*
X59011204Y-105556204D03*
X59811204Y-105556204D03*
X60611204Y-105556204D03*
X61411204Y-105556204D03*
D14*
X56611204Y-102631204D03*
X54636204Y-102631204D03*
X54636204Y-100656204D03*
X54636204Y-98681204D03*
X56611204Y-98681204D03*
X58586204Y-98681204D03*
X58586204Y-100656204D03*
X56611204Y-100656204D03*
D15*
X50661204Y-105606204D03*
X50661204Y-95706204D03*
X62561204Y-95706204D03*
X62561204Y-105606204D03*
%TD*%
D16*
%TO.C,R408*%
X33550000Y-51850000D03*
X33550000Y-50200000D03*
%TD*%
D17*
%TO.C,D405*%
X33550000Y-47137500D03*
X33550000Y-48712500D03*
%TD*%
D18*
%TO.C,R206*%
X28250000Y-47625000D03*
X26600000Y-47625000D03*
%TD*%
D17*
%TO.C,D204*%
X31925000Y-47137500D03*
X31925000Y-48712500D03*
%TD*%
D18*
%TO.C,R205*%
X36990000Y-87045000D03*
X35340000Y-87045000D03*
%TD*%
%TO.C,R204*%
X36952500Y-85405000D03*
X35302500Y-85405000D03*
%TD*%
D19*
%TO.C,D203*%
X33787500Y-87050000D03*
X32212500Y-87050000D03*
%TD*%
%TO.C,D202*%
X33775000Y-85400000D03*
X32200000Y-85400000D03*
%TD*%
D20*
%TO.C,C701*%
X26186204Y-73403796D03*
X26186204Y-74363796D03*
%TD*%
D21*
%TO.C,C207*%
X44480696Y-60552757D03*
X43801874Y-59873935D03*
%TD*%
D22*
%TO.C,R702*%
X48828651Y-62839046D03*
X48107403Y-63560294D03*
%TD*%
D20*
%TO.C,C205*%
X31706204Y-74223796D03*
X31706204Y-75183796D03*
%TD*%
%TO.C,C306*%
X64076204Y-103093795D03*
X64076204Y-104053795D03*
%TD*%
D23*
%TO.C,C310*%
X61593795Y-93843796D03*
X62553795Y-93843796D03*
%TD*%
D24*
%TO.C,Y201*%
X28406204Y-72343796D03*
X28406204Y-69843796D03*
%TD*%
D25*
%TO.C,BT201*%
X22230000Y-65350000D03*
X23730000Y-65350000D03*
%TD*%
D26*
%TO.C,C403*%
X50527450Y-56965009D03*
X52427450Y-56965009D03*
%TD*%
D27*
%TO.C,C302*%
X23553795Y-87446204D03*
X22593795Y-87446204D03*
%TD*%
D21*
%TO.C,C215*%
X37024517Y-79447098D03*
X36345695Y-78768276D03*
%TD*%
D28*
%TO.C,U304*%
X65340000Y-89730000D03*
X65340000Y-87730000D03*
X65340000Y-85730000D03*
X65340000Y-83730000D03*
X65340000Y-81730000D03*
X65340000Y-79730000D03*
X65340000Y-77730000D03*
X65340000Y-75730000D03*
X49340000Y-75730000D03*
X49340000Y-77730000D03*
X49340000Y-79730000D03*
X49340000Y-81730000D03*
X49340000Y-83730000D03*
X49340000Y-85730000D03*
X49340000Y-87730000D03*
X49340000Y-89730000D03*
%TD*%
D29*
%TO.C,U402*%
X49842550Y-52196297D03*
X48892550Y-52196297D03*
X47942550Y-52196297D03*
X47942550Y-54471297D03*
X48892550Y-54471297D03*
X49842550Y-54471297D03*
%TD*%
D23*
%TO.C,C303*%
X25363796Y-86203796D03*
X26323796Y-86203796D03*
%TD*%
D30*
%TO.C,C214*%
X32077465Y-67438198D03*
X32756287Y-66759376D03*
%TD*%
D31*
%TO.C,R306*%
X51811204Y-92406204D03*
X51811204Y-93426204D03*
%TD*%
D23*
%TO.C,C304*%
X26520000Y-100740000D03*
X27480000Y-100740000D03*
%TD*%
D32*
%TO.C,R308*%
X22590000Y-100750000D03*
X23610000Y-100750000D03*
%TD*%
D33*
%TO.C,D403*%
X37263796Y-55616204D03*
X41263796Y-55616204D03*
%TD*%
D34*
%TO.C,C210*%
X45746535Y-78614087D03*
X45067713Y-79292909D03*
%TD*%
D35*
%TO.C,Q302*%
X40933703Y-85253796D03*
X40933703Y-83353796D03*
X39058703Y-84303796D03*
%TD*%
D36*
%TO.C,R203*%
X31291782Y-63346482D03*
X32013030Y-64067730D03*
%TD*%
%TO.C,R202*%
X34087071Y-78042171D03*
X34808319Y-78763419D03*
%TD*%
D20*
%TO.C,C308*%
X65276205Y-103093795D03*
X65276205Y-104053795D03*
%TD*%
D37*
%TO.C,D201*%
X22546296Y-61093796D03*
X22546296Y-62993796D03*
X24421296Y-62043796D03*
%TD*%
D38*
%TO.C,U301*%
X30280000Y-89340000D03*
D39*
X29180000Y-89340000D03*
X28080000Y-89340000D03*
X26980000Y-89340000D03*
X25880000Y-89340000D03*
X24780000Y-89340000D03*
X23680000Y-89340000D03*
X22580000Y-89340000D03*
D38*
X21480000Y-89340000D03*
X21480000Y-98840000D03*
D39*
X22580000Y-98840000D03*
X23680000Y-98840000D03*
X24780000Y-98840000D03*
X25880000Y-98840000D03*
X26980000Y-98840000D03*
X28080000Y-98840000D03*
X29180000Y-98840000D03*
D38*
X30280000Y-98840000D03*
%TD*%
D40*
%TO.C,U601*%
X36089403Y-91393405D03*
X36089403Y-91799805D03*
D41*
X36343403Y-92460205D03*
X36749803Y-92460205D03*
X37156203Y-92460205D03*
D40*
X37410203Y-91799805D03*
X37410203Y-91393405D03*
D41*
X37156203Y-90733005D03*
X36749803Y-90733005D03*
X36343403Y-90733005D03*
%TD*%
D31*
%TO.C,R301*%
X39336204Y-86923796D03*
X39336204Y-87943796D03*
%TD*%
D42*
%TO.C,C208*%
X26086204Y-63003796D03*
X26086204Y-62043796D03*
%TD*%
%TO.C,C204*%
X30136204Y-72426204D03*
X30136204Y-71466204D03*
%TD*%
D43*
%TO.C,U401*%
X39511204Y-42791204D03*
X39511204Y-45841204D03*
X42861204Y-45841204D03*
X42861204Y-42791204D03*
D44*
X47486204Y-46596204D03*
X47486204Y-42036204D03*
%TD*%
D36*
%TO.C,R201*%
X33328344Y-78800896D03*
X34049592Y-79522144D03*
%TD*%
D45*
%TO.C,R402*%
X33086205Y-92681204D03*
X32066205Y-92681204D03*
%TD*%
D46*
%TO.C,U201*%
X33969315Y-71074977D03*
X34322868Y-71428530D03*
X34676421Y-71782083D03*
X35029975Y-72135637D03*
X35383528Y-72489190D03*
X35737082Y-72842744D03*
X36090635Y-73196297D03*
X36444188Y-73549850D03*
X36797742Y-73903404D03*
X37151295Y-74256957D03*
X37504848Y-74610510D03*
X37858402Y-74964064D03*
X38211955Y-75317617D03*
X38565509Y-75671171D03*
X38919062Y-76024724D03*
X39272615Y-76378277D03*
D47*
X41994977Y-76378277D03*
X42348530Y-76024724D03*
X42702083Y-75671171D03*
X43055637Y-75317617D03*
X43409190Y-74964064D03*
X43762744Y-74610510D03*
X44116297Y-74256957D03*
X44469850Y-73903404D03*
X44823404Y-73549850D03*
X45176957Y-73196297D03*
X45530510Y-72842744D03*
X45884064Y-72489190D03*
X46237617Y-72135637D03*
X46591171Y-71782083D03*
X46944724Y-71428530D03*
X47298277Y-71074977D03*
D46*
X47298277Y-68352615D03*
X46944724Y-67999062D03*
X46591171Y-67645509D03*
X46237617Y-67291955D03*
X45884064Y-66938402D03*
X45530510Y-66584848D03*
X45176957Y-66231295D03*
X44823404Y-65877742D03*
X44469850Y-65524188D03*
X44116297Y-65170635D03*
X43762744Y-64817082D03*
X43409190Y-64463528D03*
X43055637Y-64109975D03*
X42702083Y-63756421D03*
X42348530Y-63402868D03*
X41994977Y-63049315D03*
D47*
X39272615Y-63049315D03*
X38919062Y-63402868D03*
X38565509Y-63756421D03*
X38211955Y-64109975D03*
X37858402Y-64463528D03*
X37504848Y-64817082D03*
X37151295Y-65170635D03*
X36797742Y-65524188D03*
X36444188Y-65877742D03*
X36090635Y-66231295D03*
X35737082Y-66584848D03*
X35383528Y-66938402D03*
X35029975Y-67291955D03*
X34676421Y-67645509D03*
X34322868Y-67999062D03*
X33969315Y-68352615D03*
%TD*%
D32*
%TO.C,R404*%
X45452460Y-48716204D03*
X46472460Y-48716204D03*
%TD*%
D48*
%TO.C,R602*%
X35103796Y-90306205D03*
X35103796Y-89286205D03*
%TD*%
D49*
%TO.C,Y202*%
X29153796Y-78326204D03*
X29153796Y-74626204D03*
%TD*%
D30*
%TO.C,C206*%
X50360589Y-72439411D03*
X51039411Y-71760589D03*
%TD*%
D31*
%TO.C,R302*%
X44846204Y-90063796D03*
X44846204Y-91083796D03*
%TD*%
D33*
%TO.C,D402*%
X50563796Y-48323796D03*
X54563796Y-48323796D03*
%TD*%
D45*
%TO.C,R303*%
X45793796Y-88006204D03*
X44773796Y-88006204D03*
%TD*%
D50*
%TO.C,C405*%
X46042461Y-54283797D03*
X46042461Y-52383797D03*
%TD*%
D51*
%TO.C,J601*%
X40140000Y-100562500D03*
X40940000Y-100562500D03*
X41740000Y-100562500D03*
X42540000Y-100562500D03*
X43340000Y-100562500D03*
D52*
X37290000Y-100662500D03*
X46190000Y-100662500D03*
X46190000Y-106162500D03*
X37290000Y-106162500D03*
%TD*%
D20*
%TO.C,C201*%
X30136204Y-69533796D03*
X30136204Y-70493796D03*
%TD*%
D53*
%TO.C,L401*%
X51977450Y-54908797D03*
X51977450Y-51758797D03*
%TD*%
D54*
%TO.C,FB201*%
X36787297Y-80711391D03*
X36101403Y-80025497D03*
%TD*%
D55*
%TO.C,L302*%
X25635000Y-100750000D03*
X24665000Y-100750000D03*
%TD*%
D21*
%TO.C,C209*%
X31292292Y-68120061D03*
X30613470Y-67441239D03*
%TD*%
D31*
%TO.C,R305*%
X38276204Y-86923796D03*
X38276204Y-87943796D03*
%TD*%
D25*
%TO.C,BT301*%
X23730000Y-83420000D03*
X22230000Y-83420000D03*
%TD*%
D27*
%TO.C,C309*%
X62553796Y-92756204D03*
X61593796Y-92756204D03*
%TD*%
D56*
%TO.C,D301*%
X29926205Y-80846296D03*
X28026205Y-80846296D03*
X28976205Y-82721296D03*
%TD*%
D30*
%TO.C,C212*%
X49660589Y-71639411D03*
X50339411Y-70960589D03*
%TD*%
D23*
%TO.C,C601*%
X36193796Y-89343796D03*
X37153796Y-89343796D03*
%TD*%
D32*
%TO.C,R406*%
X47512461Y-50602583D03*
X48532461Y-50602583D03*
%TD*%
D34*
%TO.C,C211*%
X44923692Y-77791243D03*
X44244870Y-78470065D03*
%TD*%
D23*
%TO.C,C301*%
X22593795Y-86203796D03*
X23553795Y-86203796D03*
%TD*%
D45*
%TO.C,R401*%
X35176205Y-92681204D03*
X34156205Y-92681204D03*
%TD*%
D36*
%TO.C,R703*%
X33157395Y-61560869D03*
X33878643Y-62282117D03*
%TD*%
D57*
%TO.C,U501*%
X22708796Y-42168796D03*
X22708796Y-43438796D03*
X22708796Y-44708796D03*
X22708796Y-45978796D03*
X27658796Y-45978796D03*
X27658796Y-44708796D03*
X27658796Y-43438796D03*
X27658796Y-42168796D03*
%TD*%
D58*
%TO.C,R502*%
X31596204Y-42611296D03*
X31596204Y-45536296D03*
%TD*%
D33*
%TO.C,D404*%
X37263796Y-51923796D03*
X41263796Y-51923796D03*
%TD*%
D22*
%TO.C,R701*%
X48016016Y-62026411D03*
X47294768Y-62747659D03*
%TD*%
D36*
%TO.C,R705*%
X34635349Y-60082915D03*
X35356597Y-60804163D03*
%TD*%
D42*
%TO.C,C202*%
X31696204Y-78306204D03*
X31696204Y-77346204D03*
%TD*%
D37*
%TO.C,Q301*%
X43148704Y-83353796D03*
X43148704Y-85253796D03*
X45023704Y-84303796D03*
%TD*%
D32*
%TO.C,R304*%
X44773796Y-89060000D03*
X45793796Y-89060000D03*
%TD*%
D33*
%TO.C,D401*%
X50563796Y-44673796D03*
X54563796Y-44673796D03*
%TD*%
D21*
%TO.C,C216*%
X35494852Y-80976763D03*
X34816030Y-80297941D03*
%TD*%
D48*
%TO.C,R601*%
X38233796Y-90306204D03*
X38233796Y-89286204D03*
%TD*%
D32*
%TO.C,R407*%
X45452460Y-50602583D03*
X46472460Y-50602583D03*
%TD*%
D36*
%TO.C,R704*%
X33884466Y-60833798D03*
X34605714Y-61555046D03*
%TD*%
D31*
%TO.C,R405*%
X47624993Y-55927450D03*
X47624993Y-56947450D03*
%TD*%
D42*
%TO.C,C502*%
X20813796Y-44553796D03*
X20813796Y-43593796D03*
%TD*%
D21*
%TO.C,C203*%
X35531271Y-77998041D03*
X34852449Y-77319219D03*
%TD*%
D50*
%TO.C,C402*%
X36453797Y-45266204D03*
X36453797Y-43366204D03*
%TD*%
D32*
%TO.C,R403*%
X47512461Y-48716204D03*
X48532461Y-48716204D03*
%TD*%
D26*
%TO.C,C401*%
X49793795Y-41796204D03*
X51693795Y-41796204D03*
%TD*%
D21*
%TO.C,C213*%
X43258330Y-61775124D03*
X42579508Y-61096302D03*
%TD*%
D32*
%TO.C,R501*%
X24673796Y-40773796D03*
X25693796Y-40773796D03*
%TD*%
M02*
